<svg width="287" height="260" viewBox="0 0 287 260" fill="none" xmlns="http://www.w3.org/2000/svg">
<g clip-path="url(#clip0_11_18305)">
<path d="M29.1958 203.751C29.1958 203.751 26.2271 206.455 20.4974 213.038C19.0685 211.237 17.6916 209.354 16.3675 207.392L0 183.116L23.0127 181.546C51.5764 179.598 75.9651 192.223 91.9981 217.258L108.193 242.546L75.5276 241.368C54.9536 240.627 36.9661 231.954 23.2293 216.31L29.1958 203.75V203.751Z" fill="#EAEBFF"/>
<path d="M97.203 235.516C97.173 235.516 97.1431 235.509 97.1149 235.494L5.89164 186.132C5.80184 186.084 5.76838 185.971 5.8168 185.881C5.86523 185.791 5.97792 185.758 6.06772 185.806L97.2919 235.167C97.3817 235.216 97.4152 235.329 97.3667 235.418C97.3333 235.48 97.2699 235.515 97.2039 235.515L97.203 235.516Z" fill="white"/>
<path d="M71.3105 195.381C71.3105 195.381 69.0276 198.686 63.2716 205.245C65.2481 206.42 67.2976 207.533 69.4203 208.582L95.6693 221.551L94.1436 198.536C92.2499 169.969 76.4714 147.49 49.5154 134.954L22.2873 122.292L27.8285 154.505C31.3184 174.795 42.3225 191.459 59.6637 202.977L71.3114 195.382L71.3105 195.381Z" fill="#FFEBEE"/>
<path d="M92.0394 216.192C91.9822 216.192 91.9259 216.166 91.8898 216.117L30.7567 132.324C30.6968 132.241 30.7144 132.126 30.7972 132.065C30.8799 132.004 30.9953 132.023 31.056 132.105L92.1891 215.898C92.249 215.981 92.2314 216.096 92.1486 216.157C92.116 216.181 92.0773 216.192 92.0394 216.192Z" fill="white"/>
<path d="M200.023 68.9906C199.15 68.9906 198.441 68.2828 198.441 67.4085V51.3043C198.441 50.4309 199.149 49.7222 200.023 49.7222C200.896 49.7222 201.605 50.4301 201.605 51.3043V67.4085C201.605 68.2819 200.897 68.9906 200.023 68.9906Z" fill="#382A73"/>
<path d="M200.023 104.568C199.15 104.568 198.441 103.861 198.441 102.986V76.1016C198.441 75.2283 199.149 74.5195 200.023 74.5195C200.896 74.5195 201.605 75.2274 201.605 76.1016V102.986C201.605 103.86 200.897 104.568 200.023 104.568Z" fill="#382A73"/>
<path d="M190.059 1.62698H76.7355C72.1289 1.62698 68.3946 5.36133 68.3946 9.96787V246.393C68.3946 250.999 72.1289 254.733 76.7355 254.733H190.059C194.665 254.733 198.399 250.999 198.399 246.393V9.96787C198.399 5.36133 194.665 1.62698 190.059 1.62698Z" fill="#D9E1FF"/>
<mask id="mask0_11_18305" style="mask-type:luminance" maskUnits="userSpaceOnUse" x="66" y="0" width="134" height="257">
<path d="M190.058 256.267H76.7354C71.2902 256.267 66.8609 251.837 66.8609 246.393V9.96787C66.8609 4.52261 71.2911 0.0933228 76.7354 0.0933228H190.059C195.504 0.0933228 199.933 4.52349 199.933 9.96787V246.393C199.933 251.838 195.503 256.267 190.059 256.267H190.058ZM76.7354 3.16063C72.9823 3.16063 69.9282 6.21473 69.9282 9.96787V246.393C69.9282 250.146 72.9823 253.2 76.7354 253.2H190.059C193.812 253.2 196.866 250.146 196.866 246.393V9.96787C196.866 6.21473 193.812 3.16063 190.059 3.16063H76.7354Z" fill="white"/>
</mask>
<g mask="url(#mask0_11_18305)">
<path d="M69.9283 253.04L74.3928 253.2H69.9283V253.04Z" fill="#7C6ED8"/>
<path d="M69.9283 249.294L178.648 253.2H74.3928L69.9283 253.04V249.294Z" fill="#7C6ED8"/>
<path d="M69.9283 245.55L196.865 250.11V253.2H178.648L69.9283 249.294V245.55Z" fill="#7D6FD9"/>
<path d="M69.9283 241.806L196.865 246.365V250.11L69.9283 245.55V241.806Z" fill="#7D70D9"/>
<path d="M69.9283 238.061L196.865 242.62V246.365L69.9283 241.806V238.061Z" fill="#7E71DA"/>
<path d="M69.9283 234.317L196.865 238.876V242.62L69.9283 238.061V234.317Z" fill="#7E72DA"/>
<path d="M69.9283 230.573L196.865 235.131V238.876L69.9283 234.317V230.573Z" fill="#7F73DB"/>
<path d="M69.9283 226.827L196.865 231.387V235.131L69.9283 230.573V226.827Z" fill="#7F74DB"/>
<path d="M69.9283 223.083L196.865 227.643V231.387L69.9283 226.827V223.083Z" fill="#8075DC"/>
<path d="M69.9283 219.339L196.865 223.898V227.643L69.9283 223.083V219.339Z" fill="#8076DC"/>
<path d="M69.9283 215.594L196.865 220.153V223.898L69.9283 219.339V215.594Z" fill="#8177DD"/>
<path d="M69.9283 211.85L196.865 216.409V220.153L69.9283 215.594V211.85Z" fill="#8178DD"/>
<path d="M69.9283 208.105L196.865 212.665V216.409L69.9283 211.85V208.105Z" fill="#8279DE"/>
<path d="M69.9283 204.361L196.865 208.92V212.665L69.9283 208.105V204.361Z" fill="#827ADE"/>
<path d="M69.9283 200.616L196.865 205.176V208.92L69.9283 204.361V200.616Z" fill="#837BDF"/>
<path d="M69.9283 196.872L196.865 201.431V205.176L69.9283 200.616V196.872Z" fill="#847CDF"/>
<path d="M69.9283 193.128L196.865 197.686V201.431L69.9283 196.872V193.128Z" fill="#847DE0"/>
<path d="M69.9283 189.382L196.865 193.942V197.686L69.9283 193.128V189.382Z" fill="#857EE0"/>
<path d="M69.9283 185.638L196.865 190.198V193.942L69.9283 189.382V185.638Z" fill="#857FE1"/>
<path d="M69.9283 181.894L196.865 186.453V190.198L69.9283 185.638V181.894Z" fill="#8680E1"/>
<path d="M69.9283 178.149L196.865 182.708V186.453L69.9283 181.894V178.149Z" fill="#8681E2"/>
<path d="M69.9283 174.405L196.865 178.964V182.708L69.9283 178.149V174.405Z" fill="#8782E2"/>
<path d="M69.9283 170.661L196.865 175.219V178.964L69.9283 174.405V170.661Z" fill="#8783E3"/>
<path d="M69.9283 166.916L196.865 171.475V175.219L69.9283 170.661V166.916Z" fill="#8884E3"/>
<path d="M69.9283 163.171L196.865 167.731V171.475L69.9283 166.916V163.171Z" fill="#8885E4"/>
<path d="M69.9283 159.427L196.865 163.986V167.731L69.9283 163.171V159.427Z" fill="#8986E4"/>
<path d="M69.9283 155.683L196.865 160.241V163.986L69.9283 159.427V155.683Z" fill="#8987E5"/>
<path d="M69.9283 151.938L196.865 156.497V160.241L69.9283 155.683V151.938Z" fill="#8A88E5"/>
<path d="M69.9283 148.193L196.865 152.753V156.497L69.9283 151.938V148.193Z" fill="#8B89E6"/>
<path d="M69.9283 144.449L196.865 149.008V152.753L69.9283 148.193V144.449Z" fill="#8B8AE6"/>
<path d="M69.9283 140.704L196.865 145.264V149.008L69.9283 144.449V140.704Z" fill="#8C8BE7"/>
<path d="M69.9283 136.96L196.865 141.519V145.264L69.9283 140.704V136.96Z" fill="#8C8CE7"/>
<path d="M69.9283 133.216L196.865 137.774V141.519L69.9283 136.96V133.216Z" fill="#8D8DE8"/>
<path d="M69.9283 129.471L196.865 134.03V137.774L69.9283 133.216V129.471Z" fill="#8D8EE8"/>
<path d="M69.9283 125.726L196.865 130.286V134.03L69.9283 129.471V125.726Z" fill="#8E8FE9"/>
<path d="M69.9283 121.982L196.865 126.541V130.286L69.9283 125.726V121.982Z" fill="#8E90E9"/>
<path d="M69.9283 118.237L196.865 122.796V126.541L69.9283 121.982V118.237Z" fill="#8F91EA"/>
<path d="M69.9283 114.493L196.865 119.052V122.796L69.9283 118.237V114.493Z" fill="#8F92EA"/>
<path d="M69.9283 110.749L196.865 115.307V119.052L69.9283 114.493V110.749Z" fill="#9093EB"/>
<path d="M69.9283 107.004L196.865 111.563V115.307L69.9283 110.749V107.004Z" fill="#9094EB"/>
<path d="M69.9283 103.259L196.865 107.819V111.563L69.9283 107.004V103.259Z" fill="#9196EC"/>
<path d="M69.9283 99.5149L196.865 104.074V107.819L69.9283 103.259V99.5149Z" fill="#9297EC"/>
<path d="M69.9283 95.7706L196.865 100.329V104.074L69.9283 99.5149V95.7706Z" fill="#9298ED"/>
<path d="M69.9283 92.0262L196.865 96.5849V100.329L69.9283 95.7706V92.0262Z" fill="#9399ED"/>
<path d="M69.9283 88.281L196.865 92.8406V96.5849L69.9283 92.0262V88.281Z" fill="#939AEE"/>
<path d="M69.9283 84.5367L196.865 89.0963V92.8406L69.9283 88.281V84.5367Z" fill="#949BEE"/>
<path d="M69.9283 80.7924L196.865 85.3519V89.0963L69.9283 84.5367V80.7924Z" fill="#949CEF"/>
<path d="M69.9283 77.048L196.865 81.6067V85.3519L69.9283 80.7924V77.048Z" fill="#959DEF"/>
<path d="M69.9283 73.3037L196.865 77.8624V81.6067L69.9283 77.048V73.3037Z" fill="#959EF0"/>
<path d="M69.9283 69.5594L196.865 74.1181V77.8624L69.9283 73.3037V69.5594Z" fill="#969FF0"/>
<path d="M69.9283 65.8141L196.865 70.3737V74.1181L69.9283 69.5594V65.8141Z" fill="#96A0F1"/>
<path d="M69.9283 62.0698L196.865 66.6294V70.3737L69.9283 65.8142V62.0698Z" fill="#97A1F1"/>
<path d="M69.9283 58.3255L196.865 62.8851V66.6294L69.9283 62.0698V58.3255Z" fill="#97A2F2"/>
<path d="M69.9283 54.5811L196.865 59.1398V62.8851L69.9283 58.3255V54.5811Z" fill="#98A3F2"/>
<path d="M69.9283 50.8368L196.865 55.3955V59.1399L69.9283 54.5812V50.8368Z" fill="#99A4F3"/>
<path d="M69.9283 47.0916L196.865 51.6512V55.3955L69.9283 50.8368V47.0916Z" fill="#99A5F3"/>
<path d="M69.9283 43.3473L196.865 47.9069V51.6512L69.9283 47.0916V43.3473Z" fill="#9AA6F4"/>
<path d="M69.9283 39.6029L196.865 44.1625V47.9069L69.9283 43.3473V39.6029Z" fill="#9AA7F4"/>
<path d="M69.9283 35.8586L196.865 40.4173V44.1625L69.9283 39.6029V35.8586Z" fill="#9BA8F5"/>
<path d="M69.9283 32.1143L196.865 36.673V40.4173L69.9283 35.8586V32.1143Z" fill="#9BA9F5"/>
<path d="M69.9283 28.3691L196.865 32.9287V36.673L69.9283 32.1143V28.3691Z" fill="#9CAAF6"/>
<path d="M69.9283 24.6247L196.865 29.1843V32.9286L69.9283 28.3691V24.6247Z" fill="#9CABF6"/>
<path d="M69.9283 20.8804L196.865 25.44V29.1843L69.9283 24.6247V20.8804Z" fill="#9DACF7"/>
<path d="M69.9283 17.1361L196.865 21.6948V25.44L69.9283 20.8804V17.1361Z" fill="#9DADF7"/>
<path d="M69.9283 13.3917L196.865 17.9504V21.6948L69.9283 17.1361V13.3917Z" fill="#9EAEF8"/>
<path d="M69.9283 9.6474L196.865 14.2061V17.9504L69.9283 13.3917V9.6474Z" fill="#9EAFF8"/>
<path d="M69.9283 5.90219L196.865 10.4618V14.2061L69.9283 9.6474V5.90219Z" fill="#9FB0F9"/>
<path d="M97.8466 3.16064L196.865 6.71745V10.4618L69.9283 5.9022V3.16064H97.8466Z" fill="#A0B1F9"/>
<path d="M196.865 6.71745L97.8465 3.16064H196.865V6.71745Z" fill="#A0B2FA"/>
<path d="M66.86 252.929L159.804 256.267H66.86V252.929Z" fill="#7C6ED8"/>
<path d="M66.86 249.184L199.933 253.964V256.267H159.804L66.86 252.929V249.184Z" fill="#7C6ED8"/>
<path d="M66.86 245.44L199.933 250.22V253.964L66.86 249.184V245.44Z" fill="#7D6FD9"/>
<path d="M66.86 241.696L199.933 246.475V250.22L66.86 245.44V241.696Z" fill="#7D70D9"/>
<path d="M66.86 237.951L199.933 242.731V246.475L66.86 241.696V237.951Z" fill="#7E71DA"/>
<path d="M66.86 234.207L199.933 238.986V242.731L66.86 237.951V234.207Z" fill="#7E72DA"/>
<path d="M66.86 230.462L199.933 235.241V238.986L66.86 234.207V230.462Z" fill="#7F73DB"/>
<path d="M66.86 226.717L199.933 231.497V235.241L66.86 230.462V226.717Z" fill="#7F74DB"/>
<path d="M66.86 222.973L199.933 227.753V231.497L66.86 226.717V222.973Z" fill="#8075DC"/>
<path d="M66.86 219.229L199.933 224.008V227.753L66.86 222.973V219.229Z" fill="#8076DC"/>
<path d="M66.86 215.484L199.933 220.263V224.008L66.86 219.229V215.484Z" fill="#8177DD"/>
<path d="M66.86 211.739L199.933 216.519V220.263L66.86 215.484V211.739Z" fill="#8178DD"/>
<path d="M66.86 207.995L199.933 212.775V216.519L66.86 211.739V207.995Z" fill="#8279DE"/>
<path d="M66.86 204.251L199.933 209.03V212.775L66.86 207.995V204.251Z" fill="#827ADE"/>
<path d="M66.86 200.506L199.933 205.286V209.03L66.86 204.251V200.506Z" fill="#837BDF"/>
<path d="M66.86 196.762L199.933 201.542V205.286L66.86 200.506V196.762Z" fill="#847CDF"/>
<path d="M66.86 193.018L199.933 197.796V201.542L66.86 196.762V193.018Z" fill="#847DE0"/>
<path d="M66.86 189.272L199.933 194.052V197.796L66.86 193.018V189.272Z" fill="#857EE0"/>
<path d="M66.86 185.528L199.933 190.308V194.052L66.86 189.272V185.528Z" fill="#857FE1"/>
<path d="M66.86 181.784L199.933 186.563V190.308L66.86 185.528V181.784Z" fill="#8680E1"/>
<path d="M66.86 178.039L199.933 182.819V186.563L66.86 181.784V178.039Z" fill="#8681E2"/>
<path d="M66.86 174.295L199.933 179.074V182.819L66.86 178.039V174.295Z" fill="#8782E2"/>
<path d="M66.86 170.55L199.933 175.329V179.074L66.86 174.295V170.55Z" fill="#8783E3"/>
<path d="M66.86 166.805L199.933 171.585V175.329L66.86 170.55V166.805Z" fill="#8884E3"/>
<path d="M66.86 163.061L199.933 167.841V171.585L66.86 166.805V163.061Z" fill="#8885E4"/>
<path d="M66.86 159.317L199.933 164.096V167.841L66.86 163.061V159.317Z" fill="#8986E4"/>
<path d="M66.86 155.572L199.933 160.351V164.096L66.86 159.317V155.572Z" fill="#8987E5"/>
<path d="M66.86 151.827L199.933 156.607V160.351L66.86 155.572V151.827Z" fill="#8A88E5"/>
<path d="M66.86 148.083L199.933 152.863V156.607L66.86 151.827V148.083Z" fill="#8B89E6"/>
<path d="M66.86 144.339L199.933 149.118V152.863L66.86 148.083V144.339Z" fill="#8B8AE6"/>
<path d="M66.86 140.594L199.933 145.374V149.118L66.86 144.339V140.594Z" fill="#8C8BE7"/>
<path d="M66.86 136.85L199.933 141.63V145.374L66.86 140.594V136.85Z" fill="#8C8CE7"/>
<path d="M66.86 133.106L199.933 137.884V141.63L66.86 136.85V133.106Z" fill="#8D8DE8"/>
<path d="M66.86 129.36L199.933 134.14V137.884L66.86 133.106V129.36Z" fill="#8D8EE8"/>
<path d="M66.86 125.616L199.933 130.396V134.14L66.86 129.36V125.616Z" fill="#8E8FE9"/>
<path d="M66.86 121.872L199.933 126.651V130.396L66.86 125.616V121.872Z" fill="#8E90E9"/>
<path d="M66.86 118.127L199.933 122.907V126.651L66.86 121.872V118.127Z" fill="#8F91EA"/>
<path d="M66.86 114.383L199.933 119.162V122.907L66.86 118.127V114.383Z" fill="#8F92EA"/>
<path d="M66.86 110.638L199.933 115.418V119.162L66.86 114.383V110.638Z" fill="#9093EB"/>
<path d="M66.86 106.894L199.933 111.673V115.418L66.86 110.638V106.894Z" fill="#9094EB"/>
<path d="M66.86 103.149L199.933 107.929V111.673L66.86 106.894V103.149Z" fill="#9196EC"/>
<path d="M66.86 99.4048L199.933 104.185V107.929L66.86 103.149V99.4048Z" fill="#9297EC"/>
<path d="M66.86 95.6605L199.933 100.44V104.185L66.86 99.4048V95.6605Z" fill="#9298ED"/>
<path d="M66.86 91.9162L199.933 96.695V100.44L66.86 95.6605V91.9162Z" fill="#9399ED"/>
<path d="M66.86 88.171L199.933 92.9507V96.695L66.86 91.9162V88.171Z" fill="#939AEE"/>
<path d="M66.86 84.4266L199.933 89.2063V92.9506L66.86 88.171V84.4266Z" fill="#949BEE"/>
<path d="M66.86 80.6823L199.933 85.462V89.2063L66.86 84.4266V80.6823Z" fill="#949CEF"/>
<path d="M66.86 76.938L199.933 81.7177V85.462L66.86 80.6823V76.938Z" fill="#959DEF"/>
<path d="M66.86 73.1936L199.933 77.9724V81.7176L66.86 76.938V73.1936Z" fill="#959EF0"/>
<path d="M66.86 69.4484L199.933 74.2281V77.9724L66.86 73.1936V69.4484Z" fill="#969FF0"/>
<path d="M66.86 65.7041L199.933 70.4838V74.2281L66.86 69.4484V65.7041Z" fill="#96A0F1"/>
<path d="M66.86 61.9598L199.933 66.7395V70.4838L66.86 65.7041V61.9598Z" fill="#97A1F1"/>
<path d="M66.86 58.2154L199.933 62.9951V66.7395L66.86 61.9598V58.2154Z" fill="#97A2F2"/>
<path d="M66.86 54.4711L199.933 59.2499V62.9951L66.86 58.2154V54.4711Z" fill="#98A3F2"/>
<path d="M66.86 50.7259L199.933 55.5056V59.2499L66.86 54.4711V50.7259Z" fill="#99A4F3"/>
<path d="M66.86 46.9816L199.933 51.7612V55.5056L66.86 50.7259V46.9816Z" fill="#99A5F3"/>
<path d="M66.86 43.2372L199.933 48.0169V51.7612L66.86 46.9815V43.2372Z" fill="#9AA6F4"/>
<path d="M66.86 39.4929L199.933 44.2726V48.0169L66.86 43.2372V39.4929Z" fill="#9AA7F4"/>
<path d="M66.86 35.7486L199.933 40.5282V44.2726L66.86 39.4929V35.7486Z" fill="#9BA8F5"/>
<path d="M66.86 32.0042L199.933 36.783V40.5282L66.86 35.7485V32.0042Z" fill="#9BA9F5"/>
<path d="M66.86 28.259L199.933 33.0387V36.783L66.86 32.0042V28.259Z" fill="#9CAAF6"/>
<path d="M66.86 24.5147L199.933 29.2944V33.0387L66.86 28.259V24.5147Z" fill="#9CABF6"/>
<path d="M66.86 20.7704L199.933 25.55V29.2944L66.86 24.5147V20.7704Z" fill="#9DACF7"/>
<path d="M66.86 17.026L199.933 21.8057V25.55L66.86 20.7703V17.026Z" fill="#9DADF7"/>
<path d="M66.86 13.2817L199.933 18.0605V21.8057L66.86 17.026V13.2817Z" fill="#9EAEF8"/>
<path d="M66.86 9.53647L199.933 14.3161V18.0605L66.86 13.2817V9.53647Z" fill="#9EAFF8"/>
<path d="M66.86 5.79214L199.933 10.5718V14.3162L66.86 9.53648V5.79214Z" fill="#9FB0F9"/>
<path d="M66.86 2.04782L199.933 6.8275V10.5718L66.86 5.79215V2.04782Z" fill="#A0B1F9"/>
<path d="M116.691 0.0933228L199.933 3.08315V6.82749L66.86 2.04781V0.0933228H116.691Z" fill="#A0B2FA"/>
<path d="M199.933 3.08315L116.691 0.0933228H199.933V3.08315Z" fill="#A1B3FA"/>
</g>
<path d="M190.059 256.36H76.7355C71.2392 256.36 66.7676 251.889 66.7676 246.393V9.96787C66.7676 4.47154 71.2392 0 76.7355 0H190.059C195.555 0 200.026 4.47154 200.026 9.96787V246.393C200.026 251.889 195.555 256.36 190.059 256.36ZM76.7355 0.186644C71.3422 0.186644 66.9534 4.57455 66.9534 9.96875V246.393C66.9534 251.787 71.3413 256.176 76.7355 256.176H190.059C195.452 256.176 199.841 251.788 199.841 246.393V9.96787C199.841 4.57455 195.453 0.185764 190.059 0.185764H76.7355V0.186644ZM190.059 253.293H76.7355C72.9304 253.293 69.8349 250.198 69.8349 246.393V9.96787C69.8349 6.16279 72.9304 3.06731 76.7355 3.06731H190.059C193.863 3.06731 196.958 6.16279 196.958 9.96787V246.393C196.958 250.198 193.863 253.293 190.059 253.293ZM76.7355 3.25395C73.0334 3.25395 70.0216 6.26579 70.0216 9.96787V246.393C70.0216 250.095 73.0334 253.106 76.7355 253.106H190.059C193.761 253.106 196.772 250.095 196.772 246.393V9.96787C196.772 6.26579 193.761 3.25395 190.059 3.25395H76.7355Z" fill="#EFEFEF"/>
<path d="M134.342 101.026C156.65 101.026 174.734 82.9413 174.734 60.633C174.734 38.3248 156.65 20.2404 134.342 20.2404C112.033 20.2404 93.949 38.3248 93.949 60.633C93.949 82.9413 112.033 101.026 134.342 101.026Z" fill="white"/>
<mask id="mask1_11_18305" style="mask-type:luminance" maskUnits="userSpaceOnUse" x="93" y="20" width="82" height="82">
<path d="M134.342 101.026C156.65 101.026 174.734 82.9413 174.734 60.633C174.734 38.3248 156.65 20.2404 134.342 20.2404C112.033 20.2404 93.949 38.3248 93.949 60.633C93.949 82.9413 112.033 101.026 134.342 101.026Z" fill="white"/>
</mask>
<g mask="url(#mask1_11_18305)">
<mask id="mask2_11_18305" style="mask-type:luminance" maskUnits="userSpaceOnUse" x="95" y="69" width="79" height="84">
<path d="M134.342 152.4C156.033 152.4 173.617 133.733 173.617 110.705C173.617 87.6769 156.033 69.0091 134.342 69.0091C112.65 69.0091 95.0662 87.6769 95.0662 110.705C95.0662 133.733 112.65 152.4 134.342 152.4Z" fill="white"/>
</mask>
<g mask="url(#mask2_11_18305)">
<path d="M99.5334 69.01L95.0662 69.0866V69.01H99.5334Z" fill="#8D8EE8"/>
<path d="M147.513 69.01L95.0662 69.9098V69.0866L99.5334 69.01H147.513Z" fill="#8E8FE9"/>
<path d="M173.617 69.385L95.0662 70.7338V69.9098L147.513 69.01H173.617V69.385Z" fill="#8E90E9"/>
<path d="M173.617 70.2091L95.0662 71.5579V70.7338L173.617 69.385V70.2091Z" fill="#8F91EA"/>
<path d="M173.617 71.0323L95.0662 72.381V71.5579L173.617 70.2091V71.0323Z" fill="#8F92EA"/>
<path d="M173.617 71.8563L95.0662 73.2051V72.381L173.617 71.0323V71.8563Z" fill="#9093EB"/>
<path d="M173.617 72.6804L95.0662 74.0283V73.2051L173.617 71.8563V72.6804Z" fill="#9094EB"/>
<path d="M173.617 73.5035L95.0662 74.8523V74.0283L173.617 72.6804V73.5035Z" fill="#9196EC"/>
<path d="M173.617 74.3276L95.0662 75.6764V74.8523L173.617 73.5036V74.3276Z" fill="#9297EC"/>
<path d="M173.617 75.1508L95.0662 76.4995V75.6764L173.617 74.3276V75.1508Z" fill="#9298ED"/>
<path d="M173.617 75.9748L95.0662 77.3236V76.4995L173.617 75.1508V75.9748Z" fill="#9399ED"/>
<path d="M173.617 76.7989L95.0662 78.1468V77.3236L173.617 75.9748V76.7989Z" fill="#939AEE"/>
<path d="M173.617 77.622L95.0662 78.9708V78.1468L173.617 76.7989V77.622Z" fill="#949BEE"/>
<path d="M173.617 78.4461L95.0662 79.794V78.9708L173.617 77.6221V78.4461Z" fill="#949CEF"/>
<path d="M173.617 79.2693L95.0662 80.618V79.794L173.617 78.4461V79.2693Z" fill="#959DEF"/>
<path d="M173.617 80.0933L95.0662 81.4421V80.618L173.617 79.2693V80.0933Z" fill="#959EF0"/>
<path d="M173.617 80.9174L95.0662 82.2653V81.4421L173.617 80.0933V80.9174Z" fill="#969FF0"/>
<path d="M173.617 81.7405L95.0662 83.0893V82.2653L173.617 80.9174V81.7405Z" fill="#96A0F1"/>
<path d="M173.617 82.5646L95.0662 83.9125V83.0893L173.617 81.7406V82.5646Z" fill="#97A1F1"/>
<path d="M173.617 83.3878L95.0662 84.7365V83.9125L173.617 82.5646V83.3878Z" fill="#97A2F2"/>
<path d="M173.617 84.2118L95.0662 85.5606V84.7365L173.617 83.3878V84.2118Z" fill="#98A3F2"/>
<path d="M173.617 85.0359L95.0662 86.3838V85.5606L173.617 84.2118V85.0359Z" fill="#99A4F3"/>
<path d="M173.617 85.8591L95.0662 87.2078V86.3838L173.617 85.0359V85.8591Z" fill="#99A5F3"/>
<path d="M173.617 86.6831L95.0662 88.031V87.2078L173.617 85.8591V86.6831Z" fill="#9AA6F4"/>
<path d="M173.617 87.5063L95.0662 88.855V88.031L173.617 86.6831V87.5063Z" fill="#9AA7F4"/>
<path d="M173.617 88.3303L95.0662 89.6791V88.855L173.617 87.5063V88.3303Z" fill="#9BA8F5"/>
<path d="M173.617 89.1544L95.0662 90.5023V89.6791L173.617 88.3303V89.1544Z" fill="#9BA9F5"/>
<path d="M173.617 89.9775L95.0662 91.3263V90.5023L173.617 89.1544V89.9775Z" fill="#9CAAF6"/>
<path d="M173.617 90.8016L95.0662 92.1495V91.3263L173.617 89.9776V90.8016Z" fill="#9CABF6"/>
<path d="M173.617 91.6248L95.0662 92.9736V92.1495L173.617 90.8016V91.6248Z" fill="#9DACF7"/>
<path d="M173.617 92.4488L95.0662 93.7976V92.9735L173.617 91.6248V92.4488Z" fill="#9DADF7"/>
<path d="M173.617 93.272L95.0662 94.6208V93.7976L173.617 92.4488V93.272Z" fill="#9EAEF8"/>
<path d="M173.617 94.0961L95.0662 95.4448V94.6208L173.617 93.272V94.0961Z" fill="#9EAFF8"/>
<path d="M173.617 94.9201L95.0662 96.268V95.4448L173.617 94.0961V94.9201Z" fill="#9FB0F9"/>
<path d="M173.617 95.7433L95.0662 97.092V96.268L173.617 94.9201V95.7433Z" fill="#A0B1F9"/>
<path d="M173.617 96.5673L95.0662 97.9161V97.0921L173.617 95.7433V96.5673Z" fill="#A0B2FA"/>
<path d="M173.617 97.3905L95.0662 98.7393V97.9161L173.617 96.5673V97.3905Z" fill="#A1B3FA"/>
<path d="M173.617 98.2146L95.0662 99.5633V98.7393L173.617 97.3905V98.2146Z" fill="#A1B4FB"/>
<path d="M173.617 99.0386L95.0662 100.386V99.5633L173.617 98.2146V99.0386Z" fill="#A2B5FB"/>
<path d="M173.617 99.8618L95.0662 101.211V100.387L173.617 99.0386V99.8618Z" fill="#A2B6FC"/>
<path d="M173.617 100.686L95.0662 102.035V101.211L173.617 99.8618V100.686Z" fill="#A3B7FC"/>
<path d="M173.617 101.509L95.0662 102.858V102.035L173.617 100.686V101.509Z" fill="#A3B8FD"/>
</g>
<mask id="mask3_11_18305" style="mask-type:luminance" maskUnits="userSpaceOnUse" x="121" y="42" width="25" height="25">
<path d="M142.365 62.7009C147.054 58.0123 147.054 50.4105 142.365 45.7219C137.676 41.0333 130.075 41.0333 125.386 45.7219C120.697 50.4105 120.697 58.0123 125.386 62.7009C130.075 67.3896 137.676 67.3896 142.365 62.7009Z" fill="white"/>
</mask>
<g mask="url(#mask3_11_18305)">
<path d="M125.509 42.2054L121.87 42.2679V42.2054H125.509Z" fill="#7C6ED8"/>
<path d="M145.882 42.6791L121.87 43.092V42.2679L125.509 42.2054H145.882V42.6791Z" fill="#7D6FD9"/>
<path d="M145.882 43.5031L121.87 43.9152V43.092L145.882 42.6791V43.5031Z" fill="#7D70D9"/>
<path d="M145.882 44.3272L121.87 44.7392V43.9151L145.882 43.5031V44.3272Z" fill="#7E71DA"/>
<path d="M145.882 45.1504L121.87 45.5624V44.7392L145.882 44.3272V45.1504Z" fill="#7E72DA"/>
<path d="M145.882 45.9744L121.87 46.3864V45.5624L145.882 45.1504V45.9744Z" fill="#7F73DB"/>
<path d="M145.882 46.7976L121.87 47.2105V46.3864L145.882 45.9744V46.7976Z" fill="#7F74DB"/>
<path d="M145.882 47.6216L121.87 48.0337V47.2105L145.882 46.7976V47.6216Z" fill="#8075DC"/>
<path d="M145.882 48.4457L121.87 48.8577V48.0336L145.882 47.6216V48.4457Z" fill="#8076DC"/>
<path d="M145.882 49.2688L121.87 49.6809V48.8577L145.882 48.4457V49.2688Z" fill="#8177DD"/>
<path d="M145.882 50.0929L121.87 50.5049V49.6809L145.882 49.2689V50.0929Z" fill="#8178DD"/>
<path d="M145.882 50.9161L121.87 51.329V50.5049L145.882 50.0929V50.9161Z" fill="#8279DE"/>
<path d="M145.882 51.7401L121.87 52.1522V51.329L145.882 50.9161V51.7401Z" fill="#827ADE"/>
<path d="M145.882 52.5642L121.87 52.9762V52.1521L145.882 51.7401V52.5642Z" fill="#837BDF"/>
<path d="M145.882 53.3874L121.87 53.7994V52.9762L145.882 52.5642V53.3874Z" fill="#847CDF"/>
<path d="M145.882 54.2114L121.87 54.6234V53.7994L145.882 53.3873V54.2114Z" fill="#847DE0"/>
<path d="M145.882 55.0346L121.87 55.4475V54.6234L145.882 54.2114V55.0346Z" fill="#857EE0"/>
<path d="M145.882 55.8586L121.87 56.2707V55.4475L145.882 55.0346V55.8586Z" fill="#857FE1"/>
<path d="M145.882 56.6827L121.87 57.0947V56.2707L145.882 55.8586V56.6827Z" fill="#8680E1"/>
<path d="M145.882 57.5058L121.87 57.9179V57.0947L145.882 56.6827V57.5058Z" fill="#8681E2"/>
<path d="M145.882 58.3299L121.87 58.7419V57.9179L145.882 57.5058V58.3299Z" fill="#8782E2"/>
<path d="M145.882 59.1531L121.87 59.566V58.7419L145.882 58.3299V59.1531Z" fill="#8783E3"/>
<path d="M145.882 59.9771L121.87 60.3892V59.566L145.882 59.1531V59.9771Z" fill="#8884E3"/>
<path d="M145.882 60.8012L121.87 61.2132V60.3892L145.882 59.9771V60.8012Z" fill="#8885E4"/>
<path d="M145.882 61.6244L121.87 62.0364V61.2132L145.882 60.8012V61.6244Z" fill="#8986E4"/>
<path d="M145.882 62.4484L121.87 62.8604V62.0364L145.882 61.6244V62.4484Z" fill="#8987E5"/>
<path d="M145.882 63.2716L121.87 63.6845V62.8604L145.882 62.4484V63.2716Z" fill="#8A88E5"/>
<path d="M145.882 64.0956L121.87 64.5077V63.6845L145.882 63.2716V64.0956Z" fill="#8B89E6"/>
<path d="M145.882 64.9188L121.87 65.3317V64.5077L145.882 64.0956V64.9188Z" fill="#8B8AE6"/>
<path d="M145.882 65.7428L121.87 66.1549V65.3317L145.882 64.9188V65.7428Z" fill="#8C8BE7"/>
<path d="M121.87 66.1549L145.882 65.7429V66.2174H121.87V66.1549Z" fill="#8C8CE7"/>
</g>
</g>
<mask id="mask4_11_18305" style="mask-type:luminance" maskUnits="userSpaceOnUse" x="107" y="173" width="53" height="18">
<path d="M150.913 173.072H116.786C111.915 173.072 107.966 177.021 107.966 181.892C107.966 186.762 111.915 190.711 116.786 190.711H150.913C155.784 190.711 159.732 186.762 159.732 181.892C159.732 177.021 155.784 173.072 150.913 173.072Z" fill="white"/>
</mask>
<g mask="url(#mask4_11_18305)">
<path d="M159.732 182.661L159.425 173.072H159.732V182.661Z" fill="#F995BD"/>
<path d="M159.19 190.711L158.625 173.072H159.425L159.732 182.661V190.711H159.19Z" fill="#F994BD"/>
<path d="M158.39 190.711L157.825 173.072H158.625L159.19 190.711H158.39Z" fill="#F993BC"/>
<path d="M157.59 190.711L157.024 173.072H157.825L158.39 190.711H157.59Z" fill="#F992BC"/>
<path d="M156.79 190.711L156.225 173.072H157.024L157.59 190.711H156.79Z" fill="#F991BB"/>
<path d="M155.99 190.711L155.425 173.072H156.225L156.79 190.711H155.99Z" fill="#F990BA"/>
<path d="M155.19 190.711L154.624 173.072H155.425L155.99 190.711H155.19Z" fill="#F98FBA"/>
<path d="M154.389 190.711L153.824 173.072H154.624L155.19 190.711H154.389Z" fill="#F98EB9"/>
<path d="M153.589 190.711L153.024 173.072H153.824L154.389 190.711H153.589Z" fill="#F98DB9"/>
<path d="M152.79 190.711L152.223 173.072H153.024L153.589 190.711H152.79Z" fill="#F98CB8"/>
<path d="M151.989 190.711L151.424 173.072H152.224L152.79 190.711H151.989Z" fill="#F98AB7"/>
<path d="M151.189 190.711L150.624 173.072H151.424L151.989 190.711H151.189Z" fill="#F989B7"/>
<path d="M150.389 190.711L149.824 173.072H150.624L151.189 190.711H150.389Z" fill="#F988B6"/>
<path d="M149.588 190.711L149.023 173.072H149.824L150.389 190.711H149.588Z" fill="#F987B6"/>
<path d="M148.789 190.711L148.223 173.072H149.023L149.588 190.711H148.789Z" fill="#F986B5"/>
<path d="M147.989 190.711L147.424 173.072H148.223L148.789 190.711H147.989Z" fill="#F985B4"/>
<path d="M147.188 190.711L146.623 173.072H147.424L147.989 190.711H147.188Z" fill="#F984B4"/>
<path d="M146.388 190.711L145.823 173.072H146.623L147.188 190.711H146.388Z" fill="#F983B3"/>
<path d="M145.588 190.711L145.023 173.072H145.823L146.388 190.711H145.588Z" fill="#F982B3"/>
<path d="M144.789 190.711L144.222 173.072H145.023L145.588 190.711H144.789Z" fill="#F981B2"/>
<path d="M143.988 190.711L143.423 173.072H144.222L144.789 190.711H143.988Z" fill="#F980B1"/>
<path d="M143.188 190.711L142.623 173.072H143.423L143.988 190.711H143.188Z" fill="#F97FB1"/>
<path d="M142.388 190.711L141.822 173.072H142.623L143.188 190.711H142.388Z" fill="#F97EB0"/>
<path d="M141.587 190.711L141.022 173.072H141.822L142.388 190.711H141.587Z" fill="#F97DB0"/>
<path d="M140.788 190.711L140.222 173.072H141.022L141.587 190.711H140.788Z" fill="#F97CAF"/>
<path d="M139.988 190.711L139.423 173.072H140.222L140.788 190.711H139.988Z" fill="#F97BAF"/>
<path d="M139.187 190.711L138.622 173.072H139.423L139.988 190.711H139.187Z" fill="#F97AAE"/>
<path d="M138.387 190.711L137.822 173.072H138.622L139.187 190.711H138.387Z" fill="#F979AD"/>
<path d="M137.587 190.711L137.022 173.072H137.822L138.387 190.711H137.587Z" fill="#F978AD"/>
<path d="M136.787 190.711L136.221 173.072H137.022L137.587 190.711H136.787Z" fill="#F977AC"/>
<path d="M135.987 190.711L135.422 173.072H136.221L136.787 190.711H135.987Z" fill="#F976AC"/>
<path d="M135.187 190.711L134.622 173.072H135.422L135.987 190.711H135.187Z" fill="#F975AB"/>
<path d="M134.387 190.711L133.821 173.072H134.622L135.187 190.711H134.387Z" fill="#F974AA"/>
<path d="M133.586 190.711L133.021 173.072H133.821L134.387 190.711H133.586Z" fill="#F973AA"/>
<path d="M132.787 190.711L132.221 173.072H133.021L133.586 190.711H132.787Z" fill="#F972A9"/>
<path d="M131.987 190.711L131.421 173.072H132.221L132.787 190.711H131.987Z" fill="#F971A9"/>
<path d="M131.186 190.711L130.621 173.072H131.421L131.987 190.711H131.186Z" fill="#F970A8"/>
<path d="M130.386 190.711L129.821 173.072H130.621L131.186 190.711H130.386Z" fill="#F96FA7"/>
<path d="M129.586 190.711L129.021 173.072H129.821L130.386 190.711H129.586Z" fill="#F96EA7"/>
<path d="M128.786 190.711L128.22 173.072H129.021L129.586 190.711H128.786Z" fill="#F96DA6"/>
<path d="M127.986 190.711L127.421 173.072H128.22L128.786 190.711H127.986Z" fill="#F96CA6"/>
<path d="M127.186 190.711L126.621 173.072H127.421L127.986 190.711H127.186Z" fill="#F96BA5"/>
<path d="M126.386 190.711L125.82 173.072H126.621L127.186 190.711H126.386Z" fill="#F96AA4"/>
<path d="M125.585 190.711L125.02 173.072H125.82L126.386 190.711H125.585Z" fill="#F969A4"/>
<path d="M124.786 190.711L124.22 173.072H125.02L125.585 190.711H124.786Z" fill="#F968A3"/>
<path d="M123.986 190.711L123.42 173.072H124.22L124.786 190.711H123.986Z" fill="#F967A3"/>
<path d="M123.185 190.711L122.62 173.072H123.42L123.986 190.711H123.185Z" fill="#F966A2"/>
<path d="M122.385 190.711L121.82 173.072H122.62L123.185 190.711H122.385Z" fill="#F965A1"/>
<path d="M121.585 190.711L121.02 173.072H121.82L122.385 190.711H121.585Z" fill="#F964A1"/>
<path d="M120.785 190.711L120.219 173.072H121.02L121.585 190.711H120.785Z" fill="#F963A0"/>
<path d="M119.985 190.711L119.42 173.072H120.219L120.785 190.711H119.985Z" fill="#F962A0"/>
<path d="M119.185 190.711L118.62 173.072H119.42L119.985 190.711H119.185Z" fill="#F9619F"/>
<path d="M118.384 190.711L117.819 173.072H118.62L119.185 190.711H118.384Z" fill="#F9609F"/>
<path d="M117.584 190.711L117.019 173.072H117.819L118.384 190.711H117.584Z" fill="#F95F9E"/>
<path d="M116.784 190.711L116.219 173.072H117.019L117.584 190.711H116.784Z" fill="#F95E9D"/>
<path d="M115.985 190.711L115.419 173.072H116.219L116.784 190.711H115.985Z" fill="#F95D9D"/>
<path d="M115.184 190.711L114.619 173.072H115.419L115.985 190.711H115.184Z" fill="#F95C9C"/>
<path d="M114.384 190.711L113.819 173.072H114.619L115.184 190.711H114.384Z" fill="#F95B9C"/>
<path d="M113.584 190.711L113.018 173.072H113.819L114.384 190.711H113.584Z" fill="#F95A9B"/>
<path d="M112.783 190.711L112.218 173.072H113.018L113.584 190.711H112.783Z" fill="#F9599A"/>
<path d="M111.984 190.711L111.419 173.072H112.218L112.783 190.711H111.984Z" fill="#F9589A"/>
<path d="M111.184 190.711L110.618 173.072H111.419L111.984 190.711H111.184Z" fill="#F95799"/>
<path d="M110.384 190.711L109.818 173.072H110.619L111.184 190.711H110.384Z" fill="#F95699"/>
<path d="M109.583 190.711L109.018 173.072H109.818L110.384 190.711H109.583Z" fill="#F95598"/>
<path d="M109.018 173.072L109.583 190.711H107.966V173.072H109.018Z" fill="#F95598"/>
</g>
<path d="M187.019 118.523H80.5468C78.0797 118.523 76.0797 120.523 76.0797 122.99V133.414C76.0797 135.881 78.0797 137.881 80.5468 137.881H187.019C189.487 137.881 191.487 135.881 191.487 133.414V122.99C191.487 120.523 189.487 118.523 187.019 118.523Z" fill="white"/>
<path d="M187.019 143.466H80.5468C78.0797 143.466 76.0797 145.466 76.0797 147.933V158.357C76.0797 160.824 78.0797 162.824 80.5468 162.824H187.019C189.487 162.824 191.487 160.824 191.487 158.357V147.933C191.487 145.466 189.487 143.466 187.019 143.466Z" fill="white"/>
<path d="M88.1427 153.737C88.3711 152.316 87.4043 150.979 85.9833 150.75C84.5623 150.522 83.2252 151.489 82.9968 152.91C82.7684 154.331 83.7353 155.668 85.1563 155.896C86.5773 156.125 87.9144 155.158 88.1427 153.737Z" fill="#1D2869"/>
<path d="M97.7853 153.922C98.1159 152.522 97.2484 151.118 95.8476 150.787C94.4468 150.457 93.0433 151.324 92.7127 152.725C92.3821 154.126 93.2496 155.529 94.6504 155.86C96.0511 156.191 97.4547 155.323 97.7853 153.922Z" fill="#1D2869"/>
<path d="M106.774 155.174C107.791 154.156 107.791 152.506 106.774 151.488C105.756 150.471 104.106 150.471 103.088 151.488C102.07 152.506 102.07 154.156 103.088 155.174C104.106 156.192 105.756 156.192 106.774 155.174Z" fill="#1D2869"/>
<path d="M117.186 153.756C117.417 152.336 116.452 150.997 115.031 150.767C113.611 150.536 112.272 151.501 112.042 152.921C111.811 154.342 112.776 155.681 114.196 155.911C115.617 156.142 116.956 155.177 117.186 153.756Z" fill="#1D2869"/>
<path d="M126.822 153.921C127.153 152.521 126.285 151.117 124.884 150.786C123.484 150.456 122.08 151.323 121.75 152.724C121.419 154.125 122.286 155.528 123.687 155.859C125.088 156.19 126.492 155.322 126.822 153.921Z" fill="#1D2869"/>
<path d="M135.812 155.173C136.83 154.156 136.83 152.506 135.812 151.488C134.794 150.47 133.144 150.47 132.127 151.488C131.109 152.506 131.109 154.156 132.127 155.173C133.144 156.191 134.794 156.191 135.812 155.173Z" fill="#1D2869"/>
<path d="M146.18 153.922C146.511 152.521 145.643 151.118 144.242 150.787C142.842 150.457 141.438 151.324 141.108 152.725C140.777 154.126 141.645 155.529 143.045 155.86C144.446 156.191 145.85 155.323 146.18 153.922Z" fill="#1D2869"/>
<path d="M132.666 125.968H85.2005C83.967 125.968 82.967 126.968 82.967 128.202C82.967 129.435 83.967 130.435 85.2005 130.435H132.666C133.9 130.435 134.9 129.435 134.9 128.202C134.9 126.968 133.9 125.968 132.666 125.968Z" fill="#1D2869"/>
<path d="M168.778 125.968H142.531C141.298 125.968 140.298 126.968 140.298 128.202C140.298 129.435 141.298 130.435 142.531 130.435H168.778C170.011 130.435 171.011 129.435 171.011 128.202C171.011 126.968 170.011 125.968 168.778 125.968Z" fill="#1D2869"/>
<g opacity="0.27">
<path d="M198.399 82.201L68.3946 212.206V246.393C68.3946 250.999 72.1292 254.733 76.7355 254.733H111.141L198.399 167.475V82.201Z" fill="white"/>
<path d="M198.399 82.201L68.3946 212.206V246.393C68.3946 250.999 72.1292 254.733 76.7355 254.733H111.141L198.399 167.475V82.201Z" fill="white"/>
<path d="M190.058 1.62698H140.307L68.3937 73.5405V138.728L198.317 8.80575C197.751 4.74975 194.27 1.62698 190.058 1.62698Z" fill="white"/>
<path d="M190.058 1.62698H140.307L68.3937 73.5405V138.728L198.317 8.80575C197.751 4.74975 194.27 1.62698 190.058 1.62698Z" fill="white"/>
</g>
<path d="M164.771 215.428C166.229 215.825 172.145 215.145 178.596 213.703C181.308 216.855 187.681 221.675 201.421 222.025C221.964 222.549 220.6 220.718 220.6 220.718C223.422 219.118 227.554 210.469 231.294 201.295C234.04 203.813 241.612 210.621 244.21 211.546C247.404 212.688 253.57 212.916 255.852 208.351C258.134 203.786 254.255 196.251 254.255 196.251C254.255 196.251 249.459 184.153 243.296 173.653C240.866 169.511 239.038 167.322 237.716 166.19C237.207 165.617 236.546 165.174 235.786 164.93L219.886 159.537L194.602 161.51C193.629 161.586 192.731 161.985 192.034 162.617H192.032C190.454 163.103 187.74 164.719 183.262 169.315C174.587 178.218 163.402 197.392 161.805 204.469C160.206 211.545 162.26 214.74 164.772 215.425L164.771 215.428Z" fill="white"/>
<path d="M222.407 219.17C222.371 219.17 222.335 219.158 222.304 219.134C222.232 219.076 222.22 218.972 222.278 218.9C224.545 216.043 227.527 210.099 231.141 201.233L231.231 201.012L231.407 201.174C233.58 203.166 238.994 208.044 242.344 210.309C242.419 210.361 242.44 210.464 242.389 210.54C242.337 210.616 242.234 210.636 242.158 210.585C238.878 208.366 233.642 203.669 231.36 201.58C227.774 210.353 224.807 216.25 222.539 219.107C222.507 219.149 222.458 219.17 222.409 219.17H222.407Z" fill="#1E3AE5"/>
<path d="M255.251 209.5C255.217 209.5 255.182 209.49 255.153 209.468C255.079 209.413 255.064 209.309 255.118 209.235C255.337 208.94 255.534 208.618 255.704 208.279C257.922 203.84 254.145 196.404 254.107 196.33C254.053 196.194 249.24 184.108 243.154 173.74C241.063 170.177 239.197 167.68 237.609 166.32L237.593 166.304C237.094 165.741 236.452 165.322 235.737 165.091L229.25 162.891C229.163 162.862 229.117 162.767 229.146 162.681C229.176 162.594 229.271 162.547 229.357 162.577L235.841 164.776C236.607 165.023 237.296 165.472 237.834 166.075C239.449 167.46 241.335 169.983 243.441 173.572C249.539 183.963 254.362 196.072 254.409 196.193C254.563 196.489 258.294 203.84 256.001 208.429C255.823 208.785 255.616 209.124 255.386 209.434C255.353 209.478 255.303 209.502 255.252 209.502L255.251 209.5Z" fill="#1E3AE5"/>
<path d="M236.448 243.278C237.133 243.278 239.644 242.593 249.917 241.908C260.189 241.223 266.352 242.821 266.352 242.821C266.352 242.821 269.776 244.191 269.776 247.615C269.776 251.038 267.721 253.321 265.439 253.778C263.156 254.235 250.602 255.148 246.949 254.691C243.296 254.234 235.536 252.408 233.481 250.354C231.426 248.3 236.448 243.278 236.448 243.278Z" fill="#1D2869"/>
<path d="M226.966 195.051H218.063C216.802 195.051 216.085 194.072 216.46 192.863L222.71 172.738C223.085 171.53 224.412 170.55 225.672 170.55H234.575C235.836 170.55 236.553 171.529 236.178 172.738L229.928 192.863C229.553 194.071 228.226 195.051 226.966 195.051Z" fill="#1D2869"/>
<path d="M193.305 219.309L220.698 220.679C220.698 220.679 239.873 212.233 246.265 211.091C252.657 209.95 256.765 210.406 259.733 214.744C262.701 219.081 261.559 226.842 256.309 231.636C251.059 236.43 238.732 242.365 238.732 242.365C238.732 242.365 219.786 249.897 212.937 251.267C206.09 252.637 205.176 252.637 205.176 252.637C205.176 252.637 202.893 253.55 201.98 242.594C201.067 231.636 197.414 235.289 197.414 235.289C197.414 235.289 193.305 218.625 193.305 219.31V219.309Z" fill="#1E3AE5"/>
<path d="M190.11 253.093C190.11 253.093 175.728 247.387 170.25 238.027C164.771 228.668 164.543 222.277 166.141 217.711C167.739 213.145 176.641 212.004 176.641 212.004C176.641 212.004 180.978 211.319 190.566 215.657C200.153 219.994 227.546 236.201 227.546 236.201L232.34 239.169C232.34 239.169 233.71 242.365 230.285 246.93C226.861 251.496 222.98 251.039 222.98 251.039L202.664 244.648L198.327 246.93L195.588 252.409L190.11 253.094V253.093Z" fill="#1E3AE5"/>
<path d="M200.153 245.804C200.153 245.804 195.587 244.42 187.827 244.42C180.066 244.42 173.217 244.881 171.391 246.496C169.566 248.11 168.424 250.878 169.566 252.954C170.707 255.03 172.956 257.512 180.066 257.567C188.758 257.636 191.936 257.798 198.556 255.261C205.176 252.724 203.807 248.109 203.807 248.109L200.154 245.803L200.153 245.804Z" fill="#1D2869"/>
<path d="M202.664 244.191L197.718 245.408C197.718 245.408 196.728 248.3 198.326 250.582C199.924 252.865 200.837 253.778 200.837 253.778L207.685 252.18C207.685 252.18 205.451 250.54 203.804 248.071C201.978 245.333 202.663 244.191 202.663 244.191H202.664Z" fill="#EF9A9A"/>
<path d="M231.427 238.028L241.699 243.507C241.699 243.507 243.525 246.246 242.384 248.528C241.243 250.811 239.645 251.952 239.645 251.952L228.232 248.984C228.232 248.984 230.058 248.071 231.428 244.191C232.797 240.31 231.428 238.027 231.428 238.027L231.427 238.028Z" fill="#EF9A9A"/>
<path d="M238.274 189.862L236.591 181.535L231.227 178.996L224.352 178.873C223.947 178.866 223.678 179.29 223.858 179.653C224.255 180.455 225.074 180.961 225.968 180.959L229.078 180.951L232.455 182.025L227.395 182.699L224.207 184.666C223.484 185.112 223.228 186.043 223.621 186.797L224.39 188.27L224.661 190.625L225.835 191.916C226.459 192.601 227.383 192.93 228.299 192.791L229.135 192.665L230.97 195.341C232.192 196.253 234.7 197.819 236.162 197.388C238.253 196.771 239.445 194.571 238.817 192.482L238.274 189.862Z" fill="#EF9A9A"/>
<path d="M207.002 190.775L211.067 185.609L214.627 182.587C214.883 182.37 215.168 182.188 215.474 182.047L219.68 180.107L219.689 180.184C219.862 181.597 219.157 183.063 217.884 183.938L215.205 185.778L221.436 184.595L226.22 182.216C227.034 181.747 228.01 181.778 228.685 182.296C229.427 182.864 229.844 183.744 229.828 184.709L229.794 186.715C229.772 188.065 229.133 189.399 228.049 190.357L223.457 194.414C222.943 194.868 222.343 195.216 221.7 195.432L209.011 199.156C207.941 199.47 206.789 199.082 206.128 198.184C204.868 196.474 204.8 194.162 205.958 192.382L207.001 190.776L207.002 190.775Z" fill="#EF9A9A"/>
<path d="M217.75 188.269C217.675 188.269 217.606 188.218 217.589 188.141C217.567 188.052 217.622 187.962 217.712 187.94L221.38 187.061C222.184 186.873 222.948 186.557 223.648 186.123L228.448 182.79C228.524 182.737 228.627 182.757 228.68 182.831C228.732 182.907 228.713 183.01 228.638 183.063L223.831 186.401C223.092 186.858 222.296 187.188 221.458 187.384L217.79 188.263C217.777 188.267 217.765 188.268 217.751 188.268L217.75 188.269Z" fill="#1A1A1A"/>
<path d="M218.652 191.182C218.58 191.182 218.513 191.134 218.493 191.061C218.467 190.973 218.518 190.881 218.606 190.855L221.798 189.94C222.471 189.742 223.115 189.452 223.71 189.077L228.987 185.206C229.062 185.151 229.165 185.168 229.22 185.241C229.274 185.315 229.258 185.419 229.184 185.473L223.897 189.351C223.267 189.749 222.595 190.052 221.891 190.258L218.699 191.175C218.684 191.179 218.668 191.181 218.653 191.181L218.652 191.182Z" fill="#1A1A1A"/>
<path d="M219.391 193.853C219.322 193.853 219.257 193.81 219.233 193.74C219.203 193.653 219.25 193.559 219.336 193.529L222.357 192.491C223.196 192.193 223.97 191.752 224.656 191.183L229.329 187.307C229.399 187.248 229.504 187.258 229.563 187.329C229.622 187.4 229.611 187.505 229.541 187.563L224.869 191.439C224.152 192.033 223.343 192.493 222.466 192.805L219.444 193.843C219.426 193.85 219.407 193.852 219.39 193.852L219.391 193.853Z" fill="#1A1A1A"/>
<path d="M210.058 154.812L207.414 161.696C207.002 162.768 206.85 163.923 206.972 165.066C207.366 168.783 210.659 171.502 214.383 171.187C215.757 171.071 216.967 170.239 217.567 168.998L222.78 158.217L210.058 154.812Z" fill="#EF9A9A"/>
<path d="M218.415 249.607C218.405 249.607 218.394 249.606 218.384 249.603C207.755 247.568 179.816 233.749 179.535 233.61C179.452 233.57 179.419 233.469 179.46 233.387C179.501 233.305 179.6 233.272 179.683 233.313C179.964 233.452 207.863 247.25 218.447 249.278C218.537 249.295 218.597 249.382 218.579 249.472C218.564 249.551 218.494 249.607 218.416 249.607H218.415Z" fill="white"/>
<path d="M230.285 237.509C230.258 237.509 230.23 237.502 230.205 237.489L199.388 220.597C199.308 220.553 199.278 220.452 199.322 220.372C199.366 220.291 199.467 220.261 199.548 220.306L230.364 237.198C230.444 237.242 230.474 237.343 230.43 237.423C230.4 237.478 230.343 237.509 230.284 237.509H230.285Z" fill="white"/>
<path d="M221.154 231.346C221.092 231.346 221.033 231.31 221.004 231.251C220.964 231.168 220.999 231.068 221.082 231.029L239.8 222.126C239.883 222.087 239.983 222.123 240.022 222.205C240.062 222.287 240.027 222.387 239.944 222.426L221.226 231.329C221.203 231.34 221.178 231.345 221.154 231.345V231.346Z" fill="white"/>
<path d="M213.85 224.726C213.781 224.726 213.718 224.684 213.693 224.616C213.662 224.53 213.707 224.435 213.793 224.404C216.942 223.279 221.713 220.785 221.762 220.761C221.844 220.718 221.944 220.749 221.986 220.831C222.028 220.912 221.998 221.013 221.917 221.056C221.868 221.081 217.076 223.585 213.906 224.717C213.887 224.724 213.869 224.727 213.85 224.727L213.85 224.726Z" fill="white"/>
<path d="M171.62 196.648C171.542 196.648 171.473 196.595 171.457 196.516C171.438 196.426 171.495 196.338 171.585 196.319C171.747 196.285 187.9 192.896 196.699 191.296L201.751 190.381H205.175C205.267 190.381 205.341 190.456 205.341 190.547C205.341 190.639 205.267 190.714 205.175 190.714H201.766L196.759 191.624C187.964 193.223 171.816 196.61 171.654 196.645C171.642 196.647 171.631 196.648 171.62 196.648Z" fill="#1A1A1A"/>
<path d="M185.544 211.486C185.469 211.486 185.401 211.435 185.383 211.359C185.361 211.27 185.416 211.18 185.505 211.158C193.59 209.191 204.545 203.799 205.29 203.429L207.549 200.042C207.6 199.966 207.703 199.945 207.779 199.996C207.856 200.048 207.876 200.151 207.825 200.227L205.518 203.688L205.478 203.707C205.363 203.765 193.951 209.446 185.584 211.481C185.57 211.485 185.557 211.486 185.544 211.486Z" fill="#1A1A1A"/>
<path d="M184.402 193.909C184.366 193.909 184.33 193.898 184.3 193.874C184.228 193.818 184.215 193.713 184.272 193.641L191.804 184.053C191.862 183.981 191.965 183.969 192.038 184.025C192.11 184.082 192.122 184.186 192.066 184.258L184.533 193.846C184.501 193.887 184.451 193.909 184.402 193.909Z" fill="#1A1A1A"/>
<path d="M251.971 195.735C251.94 195.735 251.908 195.727 251.88 195.708C247.558 192.899 243.598 191.72 243.273 191.627H239.416C239.325 191.627 239.25 191.552 239.25 191.46C239.25 191.369 239.325 191.294 239.416 191.294L243.341 191.3C243.383 191.311 247.527 192.482 252.061 195.43C252.138 195.48 252.16 195.583 252.11 195.66C252.078 195.709 252.025 195.735 251.971 195.735Z" fill="#1A1A1A"/>
<path d="M233.481 201.67C233.401 201.67 233.33 201.613 233.317 201.531L232.632 197.422C232.617 197.332 232.678 197.246 232.768 197.231C232.859 197.216 232.945 197.277 232.959 197.368L233.644 201.476C233.659 201.567 233.599 201.653 233.508 201.667C233.498 201.669 233.489 201.67 233.481 201.67Z" fill="#1A1A1A"/>
<path d="M231.075 152.82C231.688 151.737 232.03 150.527 232.366 149.329C232.531 148.743 232.695 148.157 232.86 147.571C233.055 146.88 233.25 146.17 233.185 145.455C233.114 144.686 232.717 143.94 232.074 143.512C231.432 143.085 230.549 143.014 229.879 143.397C229.363 143.692 229.016 144.207 228.689 144.703C228.228 145.4 227.768 146.098 227.307 146.794C226.846 147.493 226.378 148.206 226.144 149.011C225.763 150.325 226.049 151.738 226.464 153.042C226.632 153.573 226.83 154.112 227.202 154.527C228.617 156.11 230.37 154.065 231.075 152.82H231.075Z" fill="#1E3AE5"/>
<path d="M231.794 141.04C230.951 139.255 228.984 138.293 227.074 137.804C223.276 136.834 219.14 137.246 215.605 138.948C214.351 139.552 213.15 140.331 212.277 141.418C210.59 143.522 210.356 146.451 209.109 148.829C208.818 148.635 208.484 148.504 208.138 148.459C207.203 148.336 206.244 148.771 205.607 149.469C204.971 150.167 204.631 151.099 204.515 152.038C204.38 153.128 204.554 154.303 205.231 155.165C206.165 156.352 207.791 156.689 209.278 156.946C208.65 159.616 209.592 162.48 211.086 164.697C212.846 167.309 215.453 168.941 218.543 169.549C221.339 170.099 223.841 168.972 225.492 166.686C226.94 164.679 227.571 162.213 228.172 159.812C229.471 154.622 230.769 149.432 232.068 144.242C232.327 143.204 232.252 142.006 231.795 141.04H231.794Z" fill="#EF9A9A"/>
<path d="M217.474 149.459C217.137 149.418 216.794 149.389 216.508 149.428C216.222 149.467 216.004 149.587 216.028 149.758C216.059 149.987 216.482 150.221 216.895 150.387C217.873 150.778 218.98 150.986 220.045 151.145C220.557 151.222 221.126 151.284 221.447 151.145C221.72 151.026 221.722 150.776 221.48 150.553C221.309 150.397 221.036 150.324 220.761 150.233C219.68 149.876 218.603 149.596 217.473 149.459H217.474Z" fill="#1E3AE5"/>
<path d="M228.595 151.421C228.913 151.539 229.233 151.671 229.468 151.84C229.704 152.01 229.842 152.224 229.741 152.377C229.606 152.578 229.122 152.605 228.677 152.569C227.626 152.486 226.545 152.17 225.524 151.826C225.032 151.66 224.497 151.456 224.277 151.174C224.09 150.935 224.204 150.697 224.523 150.598C224.747 150.529 225.024 150.586 225.312 150.628C226.439 150.792 227.526 151.026 228.595 151.421Z" fill="#1E3AE5"/>
<path d="M218.12 153.811C217.997 154.325 217.648 154.682 217.339 154.609C217.03 154.535 216.879 154.059 217.001 153.545C217.124 153.031 217.473 152.673 217.782 152.746C218.091 152.82 218.242 153.297 218.12 153.811Z" fill="#1A1A1A"/>
<path d="M226.148 155.799C226.026 156.313 225.676 156.67 225.367 156.597C225.058 156.523 224.907 156.047 225.03 155.533C225.152 155.019 225.502 154.661 225.811 154.735C226.12 154.809 226.27 155.285 226.148 155.8V155.799Z" fill="#1A1A1A"/>
<path d="M220.747 162.844C220.735 162.844 220.724 162.843 220.712 162.84C219.01 162.515 217.509 161.259 216.891 159.64C216.854 159.546 216.902 159.44 216.996 159.404C217.091 159.368 217.196 159.415 217.232 159.51C217.807 161.013 219.201 162.179 220.781 162.482C220.88 162.5 220.946 162.596 220.926 162.696C220.91 162.783 220.833 162.845 220.747 162.845V162.844Z" fill="black"/>
<path d="M217.222 169.247C217.208 169.247 217.194 169.245 217.18 169.242C215.128 168.76 213.213 167.664 211.789 166.155C209.924 164.18 208.856 161.491 208.857 158.774C208.857 158.673 208.939 158.591 209.04 158.591C209.141 158.591 209.223 158.673 209.223 158.774C209.223 161.398 210.255 163.996 212.055 165.904C213.431 167.361 215.281 168.421 217.265 168.887C217.363 168.91 217.424 169.008 217.401 169.107C217.382 169.191 217.306 169.248 217.223 169.248L217.222 169.247Z" fill="black"/>
<path d="M208.956 150.604C209.046 150.594 209.138 150.56 209.229 150.496C210.161 149.836 210.944 148.646 211.677 147.777C212.497 146.805 213.807 146.719 214.631 145.751C215.041 145.268 214.947 143.889 215.374 143.421C215.559 143.219 216.308 142.18 216.568 142.18C219.842 142.501 222.635 143.93 225.807 144.796C227.393 145.228 229.252 145.207 231.002 145.502C231.768 145.631 232.662 146.124 233.246 145.543C233.741 145.049 234.211 144.523 234.599 143.939C235.025 143.299 235.353 142.59 235.492 141.829C235.843 139.9 234.958 137.982 234.097 136.219C233.427 134.847 231.9 133.072 230.526 132.408C229.24 131.787 227.682 132.01 226.366 131.457C225.388 131.045 224.589 130.221 223.551 130.003C222.419 129.765 221.288 130.296 220.201 130.688C218.464 131.314 216.608 131.606 214.763 131.546C213.718 131.511 212.672 131.364 211.632 131.465C210.591 131.564 209.522 131.952 208.881 132.778C208.104 133.778 208.12 135.166 207.674 136.351C207.19 137.636 206.179 138.646 205.513 139.847C204.737 141.249 205.371 143.072 205.102 144.652C204.982 145.359 204.863 146.098 205.079 146.781C205.371 147.711 206.21 148.343 207.002 148.911C207.55 149.305 207.184 149.492 207.733 149.885C208.108 150.155 208.527 150.647 208.956 150.603V150.604Z" fill="#1E3AE5"/>
<path d="M223.001 154.324C223.06 154.586 223.206 154.826 223.336 155.066C223.691 155.718 223.953 156.412 224.115 157.125C224.152 157.289 224.184 157.461 224.138 157.621C224.075 157.839 223.88 157.995 223.682 158.118C223.101 158.477 222.417 158.658 221.744 158.836C221.575 158.881 221.375 158.92 221.235 158.814C221.088 158.704 221.089 158.498 221.116 158.326C221.244 157.517 221.646 156.772 221.793 155.966C221.912 155.304 221.856 154.617 221.987 153.958C222.029 153.747 222.094 153.533 222.236 153.369C222.379 153.204 222.614 153.098 222.837 153.151C223.049 153.202 223.219 153.428 223.135 153.622C223.03 153.866 222.94 154.044 223.002 154.324H223.001Z" fill="#EF9A9A"/>
<path d="M221.633 159.236C221.564 159.236 221.497 159.195 221.466 159.128C221.425 159.036 221.466 158.927 221.558 158.886L223.455 158.035C223.908 157.832 224.125 157.308 223.947 156.843L222.96 154.269C222.806 153.866 222.861 153.416 223.111 153.063C223.169 152.981 223.283 152.961 223.365 153.019C223.448 153.077 223.467 153.192 223.409 153.274C223.231 153.526 223.191 153.849 223.302 154.137L224.289 156.711C224.536 157.356 224.236 158.084 223.604 158.367L221.707 159.218C221.683 159.229 221.658 159.234 221.632 159.234L221.633 159.236Z" fill="black"/>
<path d="M209.437 148.822C209.807 148.966 210.17 149.169 210.398 149.495C210.663 149.875 210.707 150.368 210.667 150.829C210.627 151.294 210.502 151.773 210.182 152.113C209.889 152.425 209.464 152.584 209.039 152.638C208.296 152.731 207.519 152.518 206.929 152.056C206.661 151.848 206.424 151.573 206.357 151.24C206.288 150.891 206.416 150.537 206.543 150.204C206.68 149.845 206.1 149.35 206.236 148.992C206.324 148.76 207.108 148.584 207.381 148.52C208.01 148.371 208.853 148.593 209.436 148.822H209.437Z" fill="#EF9A9A"/>
<path d="M206.996 153.515C206.98 153.515 206.963 153.512 206.947 153.508C206.85 153.482 206.792 153.38 206.82 153.283C207.124 152.178 208.039 151.281 209.15 151C209.247 150.975 209.347 151.034 209.372 151.132C209.397 151.229 209.338 151.329 209.24 151.354C208.254 151.604 207.442 152.4 207.172 153.38C207.15 153.461 207.076 153.515 206.996 153.515Z" fill="black"/>
<path d="M213.623 174.744C212.104 174.744 210.586 174.387 209.254 173.662C206.328 172.072 204.396 168.765 204.447 165.435C204.449 165.344 204.523 165.271 204.613 165.271C204.613 165.271 204.615 165.271 204.616 165.271C204.708 165.273 204.782 165.348 204.78 165.44C204.73 168.65 206.593 171.837 209.413 173.371C212.234 174.903 215.921 174.733 218.588 172.944C218.665 172.893 218.768 172.914 218.819 172.99C218.87 173.067 218.849 173.17 218.773 173.221C217.266 174.232 215.443 174.744 213.624 174.745L213.623 174.744Z" fill="#1A1A1A"/>
<path d="M172.017 221.235C171.991 221.235 171.964 221.229 171.939 221.215C171.858 221.172 171.828 221.071 171.871 220.99C172.93 219.021 174.179 217.141 175.585 215.403C175.643 215.331 175.747 215.321 175.819 215.378C175.89 215.436 175.902 215.54 175.844 215.612C174.451 217.335 173.213 219.197 172.165 221.147C172.135 221.203 172.077 221.234 172.018 221.234L172.017 221.235Z" fill="white"/>
<path d="M260.131 216.913C260.113 216.913 260.093 216.91 260.075 216.904L256.135 215.485C256.049 215.455 256.004 215.359 256.036 215.272C256.066 215.186 256.162 215.141 256.249 215.173L260.188 216.591C260.274 216.622 260.319 216.717 260.288 216.803C260.263 216.871 260.2 216.913 260.131 216.913Z" fill="white"/>
<path d="M184.436 252.402C184.386 252.402 184.339 252.384 184.303 252.349C184.265 252.314 184.243 252.265 184.241 252.213L184.13 248.557C184.127 248.454 184.204 248.367 184.305 248.357L195.608 247.248C195.715 247.237 195.81 247.316 195.821 247.423C195.831 247.53 195.753 247.625 195.647 247.636L184.525 248.726L184.625 252.003L195.73 251.568C195.832 251.568 195.928 251.647 195.933 251.754C195.937 251.862 195.853 251.952 195.746 251.957L184.443 252.4C184.443 252.4 184.438 252.4 184.436 252.4V252.402Z" fill="white"/>
<path d="M173.643 254.977C173.576 254.977 173.511 254.943 173.475 254.881C172.051 252.461 172.215 249.188 173.872 246.921C173.936 246.835 174.058 246.815 174.144 246.879C174.232 246.942 174.25 247.064 174.187 247.151C172.618 249.295 172.463 252.392 173.81 254.683C173.865 254.776 173.834 254.895 173.74 254.95C173.71 254.969 173.675 254.977 173.642 254.977H173.643Z" fill="white"/>
<path d="M252.997 249.326C250.212 249.326 247.027 249.299 245.475 249.188C245.368 249.18 245.288 249.087 245.295 248.979C245.303 248.872 245.393 248.793 245.503 248.799C248.316 249 256.538 248.925 257.921 248.911L257.821 245.195L245.265 244.977C245.157 244.975 245.072 244.886 245.074 244.779C245.076 244.672 245.163 244.588 245.268 244.588H245.272L258.015 244.81C258.119 244.811 258.203 244.895 258.206 244.999L258.317 249.099C258.319 249.151 258.299 249.202 258.262 249.239C258.226 249.277 258.177 249.298 258.124 249.299C258.076 249.299 255.728 249.326 252.997 249.326H252.997Z" fill="white"/>
<path d="M266.199 251.065C266.162 251.065 266.124 251.054 266.092 251.032C266.002 250.972 265.978 250.852 266.037 250.762C267.219 248.983 267.19 246.517 265.966 244.765C265.905 244.677 265.926 244.555 266.014 244.494C266.102 244.432 266.224 244.453 266.285 244.541C267.599 246.421 267.63 249.066 266.362 250.977C266.324 251.033 266.262 251.064 266.199 251.064V251.065Z" fill="white"/>
<g opacity="0.2">
<path d="M160.982 259.999C230.116 259.999 286.161 258.416 286.161 256.463C286.161 254.509 230.116 252.926 160.982 252.926C91.847 252.926 35.8023 254.509 35.8023 256.463C35.8023 258.416 91.847 259.999 160.982 259.999Z" fill="#5C49D8"/>
</g>
</g>
<defs>
<clipPath id="clip0_11_18305">
<rect width="286.161" height="260" fill="white"/>
</clipPath>
</defs>
</svg>
