<svg width="369" height="260" viewBox="0 0 369 260" fill="none" xmlns="http://www.w3.org/2000/svg">
<g clip-path="url(#clip0_11_18221)">
<path d="M95.6195 110.924C95.6195 61.9552 135.421 22.249 184.52 22.249C233.619 22.249 273.421 61.9465 273.421 110.924" stroke="#A4ABFF" stroke-width="3.47" stroke-linecap="round" stroke-linejoin="round" stroke-dasharray="6.94 6.94"/>
<path d="M368.435 242.685V259.5H317.46L286.687 226.27L323.43 199.649L368.435 242.685Z" fill="#EF9A9A" stroke="#1D2869"/>
<path d="M325.472 199.1L368.436 240.177V243.812L323.655 201L323.353 200.712L323.016 200.956L288.371 226.061L287.915 226.392L288.298 226.805L318.562 259.5H314.986L286.366 228.592L283.963 226.001L286.821 223.927L286.822 223.928L321.476 198.823L321.475 198.822L323.586 197.296L325.472 199.1Z" fill="#EAEBFF" stroke="#1D2869"/>
<path d="M322.884 209.764C325.202 203.8 325.488 195.111 324.516 188.357C323.457 181.022 321.157 164.103 315.618 157.436C311.486 152.462 295.696 135.786 290.6 132.852C276.832 124.917 246.658 178.183 251.962 192.793C253.915 198.175 269.28 214.347 274.827 219.408C287.102 230.615 290.652 229.843 300.887 227.811" fill="#EF9A9A"/>
<path d="M322.884 209.764C325.202 203.8 325.488 195.111 324.516 188.357C323.457 181.022 321.157 164.103 315.618 157.436C311.486 152.462 295.696 135.786 290.6 132.852C276.832 124.917 246.658 178.183 251.962 192.793C253.915 198.175 269.28 214.347 274.827 219.408C287.102 230.615 290.652 229.843 300.887 227.811" stroke="#A4ABFF" stroke-width="4.18" stroke-linecap="round" stroke-linejoin="round"/>
<path d="M236.796 74.6691H298.994C302.086 74.6691 304.588 77.1792 304.588 80.2629V197.637C304.588 200.72 302.077 203.231 298.994 203.231H236.796C233.704 203.231 231.202 200.721 231.202 197.637V80.2629C231.202 77.1715 233.712 74.6692 236.796 74.6691Z" fill="#A4ABFF" stroke="#A4ABFF"/>
<path d="M236.796 73.6101H298.995C302.659 73.6102 305.647 76.5985 305.647 80.2634V197.636C305.647 201.301 302.659 204.29 298.995 204.29H236.796C233.131 204.29 230.143 201.301 230.143 197.636V80.2634C230.143 76.7129 232.947 73.7976 236.455 73.6189L236.796 73.6101ZM236.796 74.7195C233.734 74.7195 231.252 77.2007 231.252 80.2634V197.636C231.252 200.699 233.734 203.18 236.796 203.18H298.995C302.049 203.18 304.529 200.698 304.529 197.636V80.2634C304.529 77.2019 302.058 74.7196 298.995 74.7195H236.796Z" fill="#EAEBFF" stroke="#A4ABFF"/>
<path d="M241.866 83.1243H293.916C295.977 83.1245 297.635 84.7601 297.635 86.7473V182.819C297.635 184.806 295.977 186.441 293.916 186.442H241.866C239.804 186.442 238.147 184.806 238.147 182.819V86.7473L238.152 86.5628C238.25 84.6592 239.861 83.1243 241.866 83.1243Z" fill="#F1F0EF" stroke="#A4ABFF"/>
<path d="M257.986 193.076H277.813C279.757 193.076 281.219 194.443 281.219 195.979C281.219 197.515 279.757 198.881 277.813 198.882H257.986C256.033 198.882 254.571 197.515 254.571 195.979C254.571 194.443 256.033 193.076 257.986 193.076Z" fill="#FDD835" stroke="#A4ABFF"/>
<path d="M257.978 192.017H277.805C280.315 192.017 282.27 193.839 282.27 195.979C282.27 198.118 280.315 199.94 277.805 199.941H257.978C255.467 199.941 253.512 198.118 253.512 195.979C253.512 193.838 255.459 192.017 257.978 192.017ZM257.978 193.126C256.217 193.126 254.621 194.314 254.621 195.979C254.621 197.643 256.217 198.831 257.978 198.831H277.805C279.566 198.831 281.16 197.643 281.16 195.979C281.16 194.314 279.566 193.126 277.805 193.126H257.978Z" fill="#EAEBFF" stroke="#A4ABFF"/>
<g style="mix-blend-mode:multiply">
<path d="M298.994 75.2195H268.195V202.672H298.994C301.781 202.672 304.029 200.415 304.029 197.628V80.2631C304.029 77.4765 301.772 75.2195 298.994 75.2195Z" fill="#E6E7E8"/>
</g>
<path d="M241.293 96.0796V176.603" stroke="#A4ABFF" stroke-width="2.43" stroke-linecap="round" stroke-linejoin="round"/>
<path d="M324.117 186.412C324.49 173.322 321.486 165.309 317.189 160.144C314.863 157.358 292.362 150.708 288.195 150.326C281.85 150.326 282.77 156.455 282.813 159.276C282.987 170.353 305.974 175.006 312.25 184.911" fill="#EF9A9A"/>
<path d="M324.117 186.412C324.49 173.322 321.486 165.309 317.189 160.144C314.863 157.358 292.362 150.708 288.195 150.326C281.85 150.326 282.77 156.455 282.813 159.276C282.987 170.353 305.974 175.006 312.25 184.911" stroke="#A4ABFF" stroke-width="4.18" stroke-linecap="round" stroke-linejoin="round"/>
<path d="M229.469 116.433C231.792 116.433 233.854 116.829 236.788 117.395V117.396C238.264 117.682 239.945 118.005 241.992 118.345H241.995C242.58 118.439 243.442 118.771 244.126 119.855V119.854C244.98 121.208 245.29 123.383 245.308 125.49C245.326 127.582 245.057 129.478 244.849 130.203C244.48 131.473 243.173 132.289 241.392 132.779C239.72 133.24 237.789 133.363 236.297 133.373L236.292 133.367H236.085C235.346 133.367 233.116 133.324 230.858 132.872C229.729 132.646 228.612 132.322 227.678 131.862C226.741 131.401 226.03 130.823 225.647 130.114C224.585 128.148 224.203 125.741 224.254 123.504C224.304 121.261 224.789 119.259 225.397 118.111L225.398 118.11C226.056 116.864 226.846 116.594 227.342 116.542C228.071 116.466 228.765 116.433 229.469 116.433Z" fill="#EF9A9A" stroke="#A4ABFF"/>
<path d="M229.97 114.616C231.655 114.654 233.255 114.885 235.059 115.213L237.135 115.608C238.602 115.894 240.266 116.215 242.287 116.546V116.547C243.646 116.774 244.846 117.586 245.661 118.881L245.662 118.882C246.752 120.604 247.112 123.157 247.124 125.537C247.136 127.908 246.803 129.993 246.595 130.706H246.594C246.076 132.483 244.598 133.605 242.621 134.288C240.644 134.972 238.253 135.182 236.093 135.182C227.688 135.182 224.999 132.482 224.187 131.207L224.05 130.973C222.823 128.702 222.382 125.973 222.443 123.441C222.505 120.903 223.069 118.624 223.791 117.261V117.26C224.864 115.234 226.381 114.821 227.155 114.737L227.156 114.738C227.951 114.661 228.707 114.618 229.47 114.618H229.97V114.616ZM229.47 117.247C228.818 117.247 228.141 117.283 227.432 117.354H227.431C227.047 117.393 226.742 117.632 226.516 117.899C226.284 118.172 226.083 118.533 225.912 118.941C225.569 119.76 225.31 120.857 225.179 122.065C224.917 124.471 225.148 127.454 226.373 129.729V129.73C226.667 130.274 227.207 130.704 227.844 131.045C228.489 131.39 229.284 131.671 230.159 131.893C231.911 132.337 234.048 132.562 236.102 132.562C237.951 132.562 239.763 132.38 241.183 131.996C241.891 131.805 242.524 131.557 243.02 131.242C243.513 130.928 243.918 130.516 244.073 129.979C244.368 128.962 244.617 126.464 244.445 124.168C244.359 123.018 244.165 121.873 243.792 120.971C243.424 120.082 242.826 119.303 241.868 119.146C238.852 118.652 236.632 118.183 234.71 117.83C232.796 117.479 231.191 117.247 229.47 117.247Z" fill="#EAEBFF" stroke="#A4ABFF"/>
<path d="M229.565 137.032C232.063 137.032 234.309 137.448 237.485 138.048H237.486C239.117 138.352 240.972 138.701 243.228 139.058H243.231C243.848 139.152 244.761 139.501 245.488 140.644V140.645C246.419 142.12 246.75 144.49 246.762 146.782C246.774 149.06 246.472 151.128 246.239 151.921L246.238 151.922C245.836 153.3 244.383 154.183 242.412 154.709C240.476 155.226 238.227 155.347 236.553 155.347H236.435L236.419 155.355C235.254 155.35 232.929 155.272 230.66 154.8C229.486 154.555 228.347 154.209 227.398 153.726C226.447 153.241 225.726 152.636 225.327 151.895H225.326C224.178 149.768 223.764 147.155 223.82 144.725C223.876 142.288 224.403 140.104 225.067 138.849C225.773 137.515 226.603 137.221 227.115 137.169L227.121 137.168C227.952 137.075 228.758 137.032 229.565 137.032Z" fill="#EF9A9A" stroke="#A4ABFF"/>
<mask id="path-18-inside-1_11_18221" fill="white">
<path d="M229.556 138.347C233.202 138.347 236.423 139.31 243.012 140.352C246.093 140.838 245.572 149.484 244.965 151.55C244.47 153.226 240.616 154.033 236.536 154.033C232.134 154.033 227.464 153.087 226.483 151.264C223.94 146.55 225.485 138.65 227.256 138.468C228.063 138.381 228.818 138.338 229.565 138.338M229.565 134.709C228.671 134.709 227.794 134.761 226.865 134.857C225.954 134.952 224.235 135.465 223.02 137.756C221.37 140.881 220.554 147.913 223.289 152.983C225.563 157.201 233.306 157.653 236.536 157.653C241.284 157.653 247.213 156.767 248.446 152.557C248.932 150.89 249.93 143.347 247.43 139.388C246.51 137.93 245.138 136.992 243.576 136.749C241.354 136.393 239.522 136.055 237.899 135.751C234.756 135.161 232.282 134.701 229.556 134.701L229.565 134.709Z"/>
</mask>
<path d="M229.556 138.347C233.202 138.347 236.423 139.31 243.012 140.352C246.093 140.838 245.572 149.484 244.965 151.55C244.47 153.226 240.616 154.033 236.536 154.033C232.134 154.033 227.464 153.087 226.483 151.264C223.94 146.55 225.485 138.65 227.256 138.468C228.063 138.381 228.818 138.338 229.565 138.338M229.565 134.709C228.671 134.709 227.794 134.761 226.865 134.857C225.954 134.952 224.235 135.465 223.02 137.756C221.37 140.881 220.554 147.913 223.289 152.983C225.563 157.201 233.306 157.653 236.536 157.653C241.284 157.653 247.213 156.767 248.446 152.557C248.932 150.89 249.93 143.347 247.43 139.388C246.51 137.93 245.138 136.992 243.576 136.749C241.354 136.393 239.522 136.055 237.899 135.751C234.756 135.161 232.282 134.701 229.556 134.701L229.565 134.709Z" fill="#EAEBFF"/>
<path d="M243.012 140.352L242.855 141.34L242.856 141.34L243.012 140.352ZM244.965 151.55L245.924 151.833L245.924 151.832L244.965 151.55ZM226.483 151.264L227.364 150.79L227.363 150.789L226.483 151.264ZM227.256 138.468L227.358 139.463L227.363 139.462L227.256 138.468ZM229.565 134.709V135.709H231.982L230.272 134.002L229.565 134.709ZM226.865 134.857L226.763 133.862L226.761 133.862L226.865 134.857ZM223.02 137.756L222.136 137.288L222.135 137.29L223.02 137.756ZM223.289 152.983L224.169 152.508L224.169 152.508L223.289 152.983ZM248.446 152.557L249.406 152.838L249.406 152.837L248.446 152.557ZM247.43 139.388L246.584 139.922L246.585 139.922L247.43 139.388ZM243.576 136.749L243.418 137.737L243.422 137.737L243.576 136.749ZM237.899 135.751L237.714 136.734L237.715 136.734L237.899 135.751ZM229.556 134.701V133.701H227.139L228.85 135.408L229.556 134.701ZM229.556 139.347C231.289 139.347 232.936 139.575 235.005 139.943C237.059 140.309 239.551 140.817 242.855 141.34L243.168 139.364C239.884 138.845 237.471 138.351 235.356 137.974C233.255 137.6 231.469 137.347 229.556 137.347V139.347ZM242.856 141.34C243.108 141.379 243.451 141.603 243.778 142.397C244.094 143.165 244.288 144.235 244.374 145.431C244.548 147.835 244.265 150.385 244.005 151.268L245.924 151.832C246.272 150.649 246.554 147.843 246.369 145.287C246.276 144.002 246.061 142.69 245.627 141.636C245.204 140.607 244.456 139.567 243.167 139.364L242.856 141.34ZM244.006 151.267C243.978 151.361 243.867 151.555 243.48 151.799C243.101 152.037 242.55 152.263 241.836 152.454C240.412 152.835 238.522 153.033 236.536 153.033V155.033C238.629 155.033 240.706 154.827 242.353 154.386C243.175 154.166 243.935 153.875 244.545 153.491C245.148 153.112 245.704 152.577 245.924 151.833L244.006 151.267ZM236.536 153.033C234.397 153.033 232.214 152.802 230.472 152.362C229.599 152.142 228.87 151.878 228.321 151.584C227.757 151.282 227.476 150.998 227.364 150.79L225.603 151.738C225.981 152.441 226.652 152.959 227.377 153.347C228.117 153.743 229.014 154.057 229.982 154.302C231.921 154.791 234.274 155.033 236.536 155.033V153.033ZM227.363 150.789C226.225 148.679 225.968 145.755 226.245 143.278C226.383 142.05 226.645 140.997 226.952 140.27C227.106 139.904 227.254 139.662 227.371 139.526C227.498 139.376 227.501 139.448 227.358 139.463L227.153 137.473C226.568 137.534 226.135 137.892 225.849 138.228C225.552 138.577 225.309 139.02 225.109 139.493C224.707 140.446 224.41 141.697 224.258 143.055C223.956 145.752 224.198 149.135 225.603 151.739L227.363 150.789ZM227.363 139.462C228.139 139.379 228.858 139.338 229.565 139.338V137.338C228.779 137.338 227.988 137.384 227.149 137.474L227.363 139.462ZM229.565 133.709C228.631 133.709 227.719 133.764 226.763 133.862L226.967 135.852C227.869 135.759 228.711 135.709 229.565 135.709V133.709ZM226.761 133.862C225.587 133.985 223.537 134.646 222.136 137.288L223.903 138.225C224.933 136.283 226.321 135.919 226.969 135.851L226.761 133.862ZM222.135 137.29C221.219 139.026 220.581 141.728 220.511 144.616C220.439 147.514 220.935 150.725 222.409 153.457L224.169 152.508C222.908 150.17 222.444 147.331 222.51 144.665C222.576 141.988 223.171 139.612 223.904 138.223L222.135 137.29ZM222.408 153.457C223.758 155.96 226.633 157.216 229.317 157.871C232.054 158.539 234.888 158.653 236.536 158.653V156.653C234.954 156.653 232.302 156.541 229.791 155.928C227.227 155.303 225.094 154.224 224.169 152.508L222.408 153.457ZM236.536 158.653C238.953 158.653 241.747 158.43 244.127 157.632C246.501 156.836 248.657 155.394 249.406 152.838L247.486 152.276C247.002 153.93 245.577 155.036 243.491 155.736C241.411 156.433 238.867 156.653 236.536 156.653V158.653ZM249.406 152.837C249.682 151.889 250.06 149.487 250.058 146.831C250.056 144.198 249.683 141.082 248.276 138.854L246.585 139.922C247.677 141.653 248.056 144.288 248.058 146.833C248.06 149.355 247.695 151.559 247.486 152.277L249.406 152.837ZM248.276 138.855C247.217 137.176 245.605 136.053 243.73 135.761L243.422 137.737C244.672 137.932 245.803 138.684 246.584 139.922L248.276 138.855ZM243.734 135.762C241.525 135.408 239.704 135.072 238.083 134.768L237.715 136.734C239.34 137.038 241.182 137.379 243.418 137.737L243.734 135.762ZM238.083 134.768C234.955 134.181 232.39 133.701 229.556 133.701V135.701C232.174 135.701 234.557 136.141 237.714 136.734L238.083 134.768ZM228.85 135.408L228.858 135.417L230.272 134.002L230.263 133.993L228.85 135.408Z" fill="#A4ABFF" mask="url(#path-18-inside-1_11_18221)"/>
<path d="M230.78 154.351C233.278 154.351 235.524 154.766 238.7 155.366H238.701C240.333 155.67 242.188 156.019 244.443 156.376H244.446C245.062 156.47 245.968 156.818 246.705 157.966C247.635 159.441 247.966 161.81 247.978 164.101C247.989 166.378 247.688 168.446 247.454 169.239C247.048 170.618 245.593 171.503 243.623 172.031C241.688 172.55 239.441 172.674 237.769 172.674H237.76C236.64 172.674 234.232 172.607 231.883 172.119C230.708 171.875 229.568 171.53 228.618 171.048C227.666 170.564 226.942 169.961 226.541 169.221H226.54C225.392 167.094 224.979 164.482 225.035 162.051C225.092 159.613 225.619 157.427 226.283 156.167L226.282 156.166C226.988 154.833 227.818 154.539 228.33 154.487L228.336 154.486C229.168 154.393 229.965 154.351 230.78 154.351Z" fill="#EF9A9A" stroke="#A4ABFF"/>
<mask id="path-21-inside-2_11_18221" fill="white">
<path d="M230.78 155.665C234.426 155.665 237.647 156.628 244.236 157.67C247.317 158.156 246.796 166.802 246.189 168.868C245.694 170.544 241.84 171.351 237.76 171.351C233.35 171.351 228.688 170.405 227.699 168.582C225.155 163.868 226.7 155.969 228.471 155.786C229.278 155.7 230.034 155.656 230.772 155.656M230.772 152.028C229.877 152.028 229.001 152.08 228.081 152.175C227.169 152.271 225.442 152.783 224.235 155.075C222.586 158.2 221.77 165.231 224.504 170.301C226.778 174.52 234.53 174.971 237.76 174.971C242.508 174.971 248.437 174.086 249.67 169.875C250.156 168.2 251.154 160.656 248.654 156.707C247.734 155.248 246.362 154.319 244.8 154.068C242.578 153.712 240.746 153.373 239.123 153.069C235.98 152.479 233.497 152.019 230.78 152.019L230.772 152.028Z"/>
</mask>
<path d="M230.78 155.665C234.426 155.665 237.647 156.628 244.236 157.67C247.317 158.156 246.796 166.802 246.189 168.868C245.694 170.544 241.84 171.351 237.76 171.351C233.35 171.351 228.688 170.405 227.699 168.582C225.155 163.868 226.7 155.969 228.471 155.786C229.278 155.7 230.034 155.656 230.772 155.656M230.772 152.028C229.877 152.028 229.001 152.08 228.081 152.175C227.169 152.271 225.442 152.783 224.235 155.075C222.586 158.2 221.77 165.231 224.504 170.301C226.778 174.52 234.53 174.971 237.76 174.971C242.508 174.971 248.437 174.086 249.67 169.875C250.156 168.2 251.154 160.656 248.654 156.707C247.734 155.248 246.362 154.319 244.8 154.068C242.578 153.712 240.746 153.373 239.123 153.069C235.98 152.479 233.497 152.019 230.78 152.019L230.772 152.028Z" fill="#EAEBFF"/>
<path d="M244.236 157.67L244.079 158.658L244.08 158.658L244.236 157.67ZM246.189 168.868L247.148 169.152L247.148 169.151L246.189 168.868ZM227.699 168.582L226.818 169.057L226.82 169.059L227.699 168.582ZM228.471 155.786L228.574 156.781L228.578 156.781L228.471 155.786ZM230.772 152.028V153.028H231.186L231.479 152.735L230.772 152.028ZM228.081 152.175L227.977 151.181L227.976 151.181L228.081 152.175ZM224.235 155.075L225.119 155.541L225.12 155.54L224.235 155.075ZM224.504 170.301L225.384 169.826L225.384 169.826L224.504 170.301ZM249.67 169.875L250.629 170.156L250.63 170.154L249.67 169.875ZM248.654 156.707L247.808 157.24L247.809 157.241L248.654 156.707ZM244.8 154.068L244.959 153.08L244.958 153.08L244.8 154.068ZM239.123 153.069L238.938 154.052L238.939 154.052L239.123 153.069ZM230.78 152.019V151.019H230.366L230.073 151.312L230.78 152.019ZM230.78 156.665C232.513 156.665 234.16 156.893 236.229 157.261C238.283 157.627 240.775 158.135 244.079 158.658L244.392 156.682C241.108 156.163 238.695 155.669 236.58 155.292C234.479 154.918 232.693 154.665 230.78 154.665V156.665ZM244.08 158.658C244.332 158.698 244.675 158.922 245.002 159.715C245.318 160.484 245.512 161.553 245.598 162.749C245.772 165.153 245.489 167.703 245.229 168.586L247.148 169.151C247.496 167.968 247.778 165.162 247.593 162.605C247.5 161.32 247.285 160.008 246.851 158.954C246.428 157.925 245.68 156.886 244.391 156.682L244.08 158.658ZM245.23 168.585C245.202 168.68 245.091 168.873 244.704 169.117C244.325 169.355 243.774 169.581 243.06 169.772C241.636 170.153 239.746 170.351 237.76 170.351V172.351C239.853 172.351 241.93 172.145 243.577 171.704C244.399 171.484 245.159 171.194 245.769 170.81C246.372 170.43 246.928 169.895 247.148 169.152L245.23 168.585ZM237.76 170.351C235.616 170.351 233.433 170.12 231.691 169.681C230.819 169.461 230.089 169.196 229.54 168.902C228.975 168.6 228.692 168.316 228.577 168.105L226.82 169.059C227.2 169.76 227.871 170.277 228.596 170.666C229.337 171.062 230.234 171.375 231.202 171.62C233.14 172.109 235.493 172.351 237.76 172.351V170.351ZM228.579 168.107C227.44 165.997 227.183 163.073 227.461 160.596C227.598 159.368 227.861 158.315 228.167 157.588C228.322 157.222 228.47 156.981 228.586 156.844C228.714 156.694 228.717 156.766 228.574 156.781L228.369 154.792C227.783 154.852 227.35 155.211 227.064 155.547C226.767 155.895 226.524 156.338 226.324 156.811C225.923 157.764 225.625 159.015 225.473 160.374C225.171 163.07 225.414 166.453 226.819 169.057L228.579 168.107ZM228.578 156.781C229.354 156.697 230.074 156.656 230.772 156.656V154.656C229.994 154.656 229.203 154.702 228.364 154.792L228.578 156.781ZM230.772 151.028C229.838 151.028 228.926 151.082 227.977 151.181L228.184 153.17C229.075 153.077 229.917 153.028 230.772 153.028V151.028ZM227.976 151.181C226.805 151.303 224.743 151.963 223.35 154.609L225.12 155.54C226.14 153.603 227.533 153.238 228.185 153.17L227.976 151.181ZM223.351 154.608C222.434 156.344 221.797 159.046 221.726 161.934C221.655 164.833 222.15 168.044 223.624 170.776L225.384 169.826C224.123 167.488 223.66 164.649 223.725 161.983C223.791 159.307 224.386 156.93 225.119 155.541L223.351 154.608ZM223.624 170.775C224.973 173.279 227.851 174.535 230.537 175.19C233.275 175.857 236.112 175.971 237.76 175.971V173.971C236.178 173.971 233.524 173.859 231.011 173.247C228.444 172.621 226.309 171.542 225.384 169.826L223.624 170.775ZM237.76 175.971C240.177 175.971 242.971 175.748 245.351 174.95C247.725 174.154 249.881 172.713 250.629 170.156L248.71 169.594C248.226 171.248 246.801 172.355 244.715 173.054C242.635 173.751 240.091 173.971 237.76 173.971V175.971ZM250.63 170.154C250.906 169.203 251.284 166.799 251.282 164.143C251.28 161.51 250.907 158.396 249.499 156.172L247.809 157.241C248.901 158.967 249.28 161.599 249.282 164.145C249.284 166.667 248.919 168.873 248.709 169.597L250.63 170.154ZM249.5 156.173C248.439 154.491 246.826 153.381 244.959 153.08L244.641 155.055C245.898 155.258 247.029 156.005 247.808 157.24L249.5 156.173ZM244.958 153.08C242.749 152.726 240.928 152.39 239.307 152.086L238.939 154.052C240.564 154.356 242.406 154.697 244.642 155.055L244.958 153.08ZM239.307 152.087C236.179 151.499 233.606 151.019 230.78 151.019V153.019C233.389 153.019 235.781 153.459 238.938 154.052L239.307 152.087ZM230.073 151.312L230.064 151.321L231.479 152.735L231.487 152.726L230.073 151.312Z" fill="#A4ABFF" mask="url(#path-21-inside-2_11_18221)"/>
<path d="M229.348 169.776C231.813 169.776 233.865 170.272 236.799 170.985V170.986C238.112 171.308 239.61 171.665 241.422 172.057L241.424 172.058C241.969 172.172 242.765 172.517 243.377 173.571V173.572C244.108 174.837 244.339 176.805 244.309 178.7C244.279 180.583 243.995 182.268 243.794 182.9C243.539 183.696 242.906 184.337 241.782 184.788C240.648 185.244 239.054 185.487 236.978 185.487H236.97C236.794 185.487 234.534 185.476 232.1 185.014C230.881 184.783 229.641 184.442 228.603 183.946C227.559 183.448 226.774 182.818 226.383 182.038V182.037L226.216 181.69C225.421 179.932 225.169 177.883 225.263 175.987C225.363 173.958 225.858 172.175 226.438 171.177V171.176C227.088 170.052 227.852 169.828 228.333 169.802L228.332 169.801C228.68 169.784 229.018 169.776 229.348 169.776Z" fill="#EF9A9A" stroke="#A4ABFF"/>
<path d="M229.348 167.962H229.356C232.039 167.962 234.178 168.483 237.232 169.223V169.224C238.537 169.546 240.018 169.903 241.805 170.286H241.806C243.088 170.558 244.215 171.392 244.949 172.66C245.695 173.95 246.112 175.795 246.133 178.186L246.132 178.671C246.106 180.512 245.857 182.393 245.521 183.457C244.744 185.904 242.038 187.31 236.978 187.31C236.134 187.31 233.58 187.252 230.969 186.645C228.403 186.049 225.95 184.961 224.868 183.05L224.768 182.863C223.778 180.894 223.382 178.46 223.453 176.14C223.524 173.814 224.062 171.666 224.876 170.266L224.877 170.264C225.978 168.355 227.474 168.025 228.244 167.988L228.243 167.987C228.608 167.97 228.982 167.962 229.348 167.962ZM229.348 170.591C229.187 170.591 229.026 170.593 228.864 170.598L228.375 170.617C228.01 170.636 227.718 170.848 227.504 171.082C227.284 171.322 227.093 171.641 226.931 172C226.603 172.722 226.347 173.693 226.203 174.767C225.915 176.906 226.057 179.583 227.113 181.672V181.671C227.395 182.233 227.953 182.679 228.606 183.033C229.271 183.394 230.095 183.695 230.998 183.935C232.804 184.415 234.988 184.673 236.978 184.673C238.396 184.673 239.743 184.541 240.799 184.25C241.326 184.105 241.802 183.914 242.182 183.664C242.562 183.415 242.879 183.084 243.018 182.652L243.019 182.648C243.303 181.749 243.58 179.528 243.476 177.473C243.424 176.442 243.275 175.408 242.959 174.582C242.647 173.769 242.122 173.035 241.249 172.85H241.25C238.306 172.218 236.253 171.668 234.423 171.255C232.613 170.847 231.089 170.591 229.348 170.591Z" fill="#EAEBFF" stroke="#A4ABFF"/>
<path d="M82.3516 226.27L51.5801 259.5H0.5V242.791L45.6182 199.649L82.3516 226.27Z" fill="#EF9A9A" stroke="#1D2869"/>
<path d="M47.5645 198.823L82.2178 223.928V223.927L85.0771 226.001L82.6748 228.592H82.6738L54.0547 259.5H50.4775L80.752 226.805L81.1348 226.392L80.6777 226.061L46.0244 200.956L45.6865 200.712L45.3848 201L0.5 243.916V240.273L43.5674 199.1L45.4531 197.296L47.5645 198.823Z" fill="#EAEBFF" stroke="#1D2869"/>
<path d="M46.1561 209.764C43.8383 203.8 43.5518 195.111 44.5241 188.357C45.5831 181.022 47.8836 164.103 53.4219 157.436C57.554 152.462 73.3445 135.786 78.4401 132.852C92.208 124.917 122.383 178.183 117.079 192.793C115.125 198.175 99.7603 214.347 94.2132 219.408C81.9385 230.615 78.3794 229.843 68.1446 227.811" fill="#EF9A9A"/>
<path d="M46.1561 209.764C43.8383 203.8 43.5518 195.111 44.5241 188.357C45.5831 181.022 47.8836 164.103 53.4219 157.436C57.554 152.462 73.3445 135.786 78.4401 132.852C92.2079 124.917 122.383 178.183 117.079 192.793C115.125 198.175 99.7603 214.347 94.2132 219.408C81.9385 230.615 78.3794 229.843 68.1446 227.811" stroke="#A4ABFF" stroke-width="4.18" stroke-linecap="round" stroke-linejoin="round"/>
<path d="M70.0542 74.6691H132.252C135.344 74.6691 137.846 77.1792 137.846 80.2629V197.637C137.846 200.72 135.336 203.231 132.252 203.231H70.0542C66.9628 203.231 64.4605 200.721 64.4605 197.637V80.2629C64.4606 77.1715 66.9706 74.6693 70.0542 74.6691Z" fill="#A4ABFF" stroke="#A4ABFF"/>
<path d="M70.0461 73.6101H132.244C135.909 73.6102 138.897 76.5985 138.897 80.2634V197.636C138.897 201.301 135.909 204.29 132.244 204.29H70.0461C66.3811 204.29 63.3927 201.301 63.3927 197.636V80.2634C63.3927 76.713 66.197 73.7976 69.7043 73.6189L70.0461 73.6101ZM70.0461 74.7195C66.9834 74.7195 64.5021 77.2007 64.5021 80.2634V197.636C64.5021 200.699 66.9834 203.18 70.0461 203.18H132.244C135.299 203.18 137.778 200.698 137.778 197.636V80.2634C137.778 77.2014 135.299 74.7196 132.244 74.7195H70.0461Z" fill="#EAEBFF" stroke="#A4ABFF"/>
<path d="M75.1239 83.1243H127.175C129.236 83.1244 130.893 84.7601 130.893 86.7473V182.819C130.893 184.806 129.236 186.442 127.175 186.442H75.1239C73.0627 186.442 71.4052 184.806 71.4052 182.819V86.7473L71.41 86.5628C71.5054 84.7205 73.0171 83.2237 74.9315 83.1292L75.1239 83.1243Z" fill="#F1F0EF" stroke="#A4ABFF"/>
<path d="M91.2357 193.076H111.063C113.006 193.076 114.469 194.443 114.469 195.979C114.469 197.515 113.006 198.881 111.063 198.882H91.2357C89.2827 198.882 87.8209 197.515 87.8206 195.979C87.8206 194.443 89.2825 193.076 91.2357 193.076Z" fill="#FDD835" stroke="#A4ABFF"/>
<path d="M91.2361 192.017H111.063C113.574 192.017 115.528 193.839 115.528 195.979C115.528 198.118 113.574 199.94 111.063 199.941H91.2361C88.7255 199.941 86.7702 198.118 86.7702 195.979C86.7703 193.838 88.7174 192.017 91.2361 192.017ZM91.2361 193.126C89.4752 193.126 87.8796 194.314 87.8796 195.979C87.8796 197.643 89.4752 198.831 91.2361 198.831H111.063C112.824 198.831 114.419 197.643 114.419 195.979C114.419 194.314 112.824 193.126 111.063 193.126H91.2361Z" fill="#EAEBFF" stroke="#A4ABFF"/>
<g style="mix-blend-mode:multiply">
<path d="M132.244 75.2195H101.444V202.672H132.244C135.022 202.672 137.279 200.415 137.279 197.628V80.2631C137.279 77.4765 135.022 75.2195 132.244 75.2195Z" fill="#E6E7E8"/>
</g>
<path d="M74.5424 96.0796V176.603" stroke="#A4ABFF" stroke-width="2.43" stroke-linecap="round" stroke-linejoin="round"/>
<path d="M44.9234 186.412C44.5501 173.322 47.5537 165.309 51.8507 160.144C54.1771 157.358 76.6779 150.708 80.8447 150.326C87.1904 150.326 86.2702 156.455 86.2268 159.276C86.0532 170.353 63.0663 175.006 56.7988 184.911" fill="#EF9A9A"/>
<path d="M44.9234 186.412C44.5501 173.322 47.5537 165.309 51.8507 160.144C54.1771 157.358 76.6779 150.708 80.8447 150.326C87.1904 150.326 86.2702 156.455 86.2268 159.276C86.0532 170.353 63.0663 175.006 56.7988 184.911" stroke="#A4ABFF" stroke-width="4.18" stroke-linecap="round" stroke-linejoin="round"/>
<path d="M139.571 116.424C140.274 116.424 140.968 116.458 141.697 116.534C142.161 116.583 142.886 116.828 143.518 117.881L143.643 118.103C144.251 119.25 144.734 121.252 144.784 123.495C144.833 125.732 144.451 128.139 143.393 130.106C143.01 130.817 142.299 131.395 141.361 131.858C140.426 132.318 139.309 132.642 138.178 132.867C135.918 133.318 133.685 133.359 132.947 133.359H132.447V133.361C131.002 133.337 129.212 133.201 127.648 132.772C125.867 132.283 124.56 131.468 124.191 130.203C123.979 129.476 123.71 127.577 123.729 125.483C123.748 123.374 124.061 121.2 124.915 119.845L124.914 119.844C125.598 118.761 126.46 118.43 127.045 118.336H127.048C128.071 118.166 129.003 118.001 129.864 117.842L132.252 117.387C135.186 116.821 137.248 116.424 139.571 116.424Z" fill="#EF9A9A" stroke="#A4ABFF"/>
<path d="M139.571 114.627C140.336 114.627 141.091 114.661 141.878 114.745L141.884 114.746C142.658 114.821 144.171 115.235 145.248 117.269L145.249 117.27C145.971 118.632 146.535 120.91 146.597 123.447C146.658 125.978 146.218 128.706 144.99 130.982C144.006 132.806 141.826 133.879 139.392 134.484C136.981 135.083 134.453 135.191 132.955 135.191C130.795 135.191 128.404 134.98 126.427 134.296C124.451 133.612 122.972 132.488 122.454 130.707V130.706L122.371 130.376C122.168 129.467 121.914 127.611 121.924 125.537C121.936 123.158 122.297 120.606 123.385 118.885C124.212 117.593 125.405 116.775 126.759 116.557L126.76 116.556C127.771 116.39 128.693 116.227 129.545 116.07L131.914 115.616C134.599 115.096 136.722 114.688 138.99 114.627H139.571ZM139.579 117.247C137.858 117.247 136.253 117.479 134.339 117.83C132.417 118.183 130.196 118.652 127.18 119.146C126.222 119.303 125.625 120.083 125.257 120.973C124.884 121.875 124.689 123.02 124.603 124.171C124.431 126.465 124.68 128.962 124.975 129.977V129.978C125.13 130.515 125.535 130.929 126.028 131.242C126.524 131.558 127.158 131.805 127.866 131.996C129.286 132.379 131.098 132.562 132.948 132.562C135.001 132.562 137.139 132.337 138.89 131.893C139.765 131.671 140.56 131.39 141.204 131.045C141.842 130.704 142.381 130.274 142.675 129.73L142.676 129.729C143.9 127.454 144.132 124.471 143.87 122.065C143.739 120.857 143.479 119.761 143.136 118.942C142.965 118.534 142.765 118.172 142.533 117.899C142.307 117.631 142.002 117.393 141.618 117.354H141.617C140.908 117.283 140.24 117.247 139.579 117.247Z" fill="#EAEBFF" stroke="#A4ABFF"/>
<path d="M139.484 137.032C140.29 137.032 141.097 137.075 141.928 137.168L141.933 137.169C142.438 137.221 143.275 137.516 143.972 138.848V138.849C144.637 140.109 145.164 142.292 145.22 144.729C145.273 147.007 144.913 149.446 143.921 151.498L143.714 151.903C143.315 152.645 142.592 153.248 141.641 153.733C140.692 154.215 139.552 154.56 138.377 154.804C136.028 155.291 133.62 155.356 132.504 155.356C130.827 155.356 128.578 155.232 126.643 154.713C124.673 154.184 123.221 153.3 122.819 151.922V151.921C122.585 151.128 122.283 149.06 122.295 146.782C122.307 144.49 122.638 142.12 123.57 140.645C124.296 139.494 125.207 139.153 125.826 139.058H125.829C128.085 138.701 129.94 138.352 131.572 138.048C134.75 137.456 136.986 137.032 139.484 137.032Z" fill="#EF9A9A" stroke="#A4ABFF"/>
<mask id="path-41-inside-3_11_18221" fill="white">
<path d="M139.484 138.347C140.222 138.347 140.986 138.39 141.793 138.477C143.564 138.668 145.109 146.559 142.566 151.272C141.585 153.095 136.914 154.042 132.513 154.042C128.433 154.042 124.579 153.234 124.084 151.559C123.476 149.493 122.955 140.847 126.037 140.361C132.626 139.319 135.847 138.355 139.492 138.355M139.492 134.727C136.767 134.727 134.293 135.187 131.15 135.777C129.536 136.081 127.695 136.419 125.473 136.775C123.91 137.018 122.539 137.956 121.619 139.414C119.119 143.373 120.108 150.916 120.603 152.583C121.836 156.793 127.756 157.67 132.513 157.67C135.742 157.67 143.486 157.219 145.76 153C148.495 147.93 147.679 140.899 146.029 137.774C144.823 135.473 143.095 134.97 142.175 134.874C141.255 134.779 140.378 134.727 139.484 134.727H139.492Z"/>
</mask>
<path d="M139.484 138.347C140.222 138.347 140.986 138.39 141.793 138.477C143.564 138.668 145.109 146.559 142.566 151.272C141.585 153.095 136.914 154.042 132.513 154.042C128.433 154.042 124.579 153.234 124.084 151.559C123.476 149.493 122.955 140.847 126.037 140.361C132.626 139.319 135.847 138.355 139.492 138.355M139.492 134.727C136.767 134.727 134.293 135.187 131.15 135.777C129.536 136.081 127.695 136.419 125.473 136.775C123.91 137.018 122.539 137.956 121.619 139.414C119.119 143.373 120.108 150.916 120.603 152.583C121.836 156.793 127.756 157.67 132.513 157.67C135.742 157.67 143.486 157.219 145.76 153C148.495 147.93 147.679 140.899 146.029 137.774C144.823 135.473 143.095 134.97 142.175 134.874C141.255 134.779 140.378 134.727 139.484 134.727H139.492Z" fill="#EAEBFF"/>
<path d="M141.793 138.477L141.9 137.483L141.9 137.483L141.793 138.477ZM142.566 151.272L141.685 150.798L141.685 150.799L142.566 151.272ZM124.084 151.559L123.125 151.841L123.125 151.842L124.084 151.559ZM126.037 140.361L126.193 141.348L126.193 141.348L126.037 140.361ZM131.15 135.777L130.966 134.794L130.965 134.794L131.15 135.777ZM125.473 136.775L125.627 137.764L125.631 137.763L125.473 136.775ZM121.619 139.414L122.464 139.948L122.464 139.948L121.619 139.414ZM120.603 152.583L121.563 152.302L121.562 152.299L120.603 152.583ZM145.76 153L144.88 152.525L144.88 152.525L145.76 153ZM146.029 137.774L145.144 138.238L145.145 138.24L146.029 137.774ZM139.484 139.347C140.182 139.347 140.91 139.388 141.686 139.471L141.9 137.483C141.061 137.392 140.261 137.347 139.484 137.347V139.347ZM141.686 139.471C141.545 139.456 141.549 139.385 141.677 139.536C141.794 139.674 141.942 139.916 142.097 140.282C142.404 141.01 142.666 142.062 142.803 143.29C143.081 145.766 142.824 148.687 141.685 150.798L143.446 151.747C144.85 149.144 145.093 145.763 144.791 143.067C144.639 141.709 144.342 140.458 143.94 139.505C143.74 139.032 143.497 138.589 143.201 138.241C142.915 137.904 142.484 137.546 141.9 137.483L141.686 139.471ZM141.685 150.799C141.573 151.007 141.292 151.29 140.728 151.593C140.179 151.886 139.449 152.151 138.577 152.371C136.835 152.811 134.652 153.042 132.513 153.042V155.042C134.775 155.042 137.128 154.799 139.067 154.31C140.035 154.066 140.932 153.752 141.672 153.356C142.397 152.968 143.068 152.449 143.446 151.746L141.685 150.799ZM132.513 153.042C130.526 153.042 128.636 152.844 127.213 152.463C126.499 152.271 125.948 152.046 125.569 151.807C125.182 151.564 125.071 151.37 125.043 151.276L123.125 151.842C123.345 152.586 123.901 153.121 124.503 153.5C125.114 153.884 125.874 154.174 126.695 154.394C128.343 154.836 130.42 155.042 132.513 155.042V153.042ZM125.043 151.277C124.784 150.394 124.501 147.843 124.674 145.439C124.761 144.243 124.955 143.174 125.271 142.405C125.598 141.612 125.941 141.388 126.193 141.348L125.881 139.373C124.593 139.576 123.845 140.615 123.422 141.644C122.988 142.698 122.772 144.011 122.68 145.295C122.495 147.852 122.777 150.658 123.125 151.841L125.043 151.277ZM126.193 141.348C129.498 140.826 131.99 140.317 134.044 139.952C136.112 139.584 137.759 139.355 139.492 139.355V137.355C137.58 137.355 135.793 137.609 133.693 137.983C131.578 138.359 129.165 138.854 125.881 139.373L126.193 141.348ZM139.492 133.727C136.658 133.727 134.094 134.207 130.966 134.794L131.335 136.76C134.492 136.167 136.875 135.727 139.492 135.727V133.727ZM130.965 134.794C129.354 135.098 127.524 135.434 125.315 135.788L125.631 137.763C127.866 137.405 129.717 137.064 131.335 136.76L130.965 134.794ZM125.319 135.787C123.444 136.079 121.832 137.202 120.773 138.881L122.464 139.948C123.246 138.71 124.377 137.958 125.627 137.764L125.319 135.787ZM120.773 138.88C119.366 141.108 118.991 144.224 118.988 146.857C118.984 149.512 119.362 151.916 119.644 152.868L121.562 152.299C121.349 151.584 120.985 149.383 120.988 146.859C120.991 144.315 121.371 141.679 122.464 139.948L120.773 138.88ZM119.643 152.864C120.392 155.42 122.546 156.86 124.919 157.654C127.298 158.45 130.092 158.67 132.513 158.67V156.67C130.177 156.67 127.632 156.452 125.554 155.757C123.469 155.06 122.047 153.956 121.563 152.302L119.643 152.864ZM132.513 158.67C134.161 158.67 136.995 158.556 139.732 157.889C142.416 157.234 145.291 155.977 146.64 153.474L144.88 152.525C143.955 154.241 141.821 155.32 139.258 155.946C136.747 156.558 134.095 156.67 132.513 156.67V158.67ZM146.64 153.475C148.114 150.743 148.609 147.532 148.538 144.633C148.467 141.745 147.83 139.043 146.914 137.307L145.145 138.24C145.878 139.629 146.473 142.006 146.539 144.682C146.604 147.348 146.141 150.187 144.88 152.525L146.64 153.475ZM146.915 137.309C145.52 134.651 143.456 134.002 142.278 133.88L142.072 135.869C142.734 135.938 144.125 136.296 145.144 138.238L146.915 137.309ZM142.278 133.88C141.329 133.781 140.418 133.727 139.484 133.727V135.727C140.338 135.727 141.18 135.776 142.072 135.869L142.278 133.88ZM139.484 135.727H139.492V133.727H139.484V135.727Z" fill="#A4ABFF" mask="url(#path-41-inside-3_11_18221)"/>
<path d="M138.268 154.342C139.075 154.342 139.873 154.384 140.714 154.478L140.718 154.479C141.223 154.53 142.06 154.826 142.766 156.158C143.43 157.419 143.957 159.602 144.014 162.037C144.07 164.467 143.656 167.078 142.508 169.204H142.507C142.108 169.946 141.386 170.55 140.434 171.034C139.485 171.517 138.345 171.862 137.171 172.106C134.822 172.592 132.413 172.656 131.298 172.656H131.091L131.074 172.672C129.422 172.662 127.275 172.53 125.419 172.031C123.449 171.503 121.997 170.618 121.595 169.24H121.596L121.595 169.239C121.361 168.447 121.059 166.378 121.071 164.101C121.082 161.952 121.374 159.734 122.178 158.25L122.346 157.963C123.07 156.815 123.979 156.47 124.604 156.366L124.605 156.367C126.861 156.01 128.716 155.661 130.348 155.358C133.526 154.765 135.771 154.342 138.268 154.342Z" fill="#EF9A9A" stroke="#A4ABFF"/>
<mask id="path-44-inside-4_11_18221" fill="white">
<path d="M138.26 155.665C138.998 155.665 139.753 155.708 140.56 155.795C142.331 155.986 143.876 163.877 141.333 168.591C140.352 170.414 135.682 171.36 131.272 171.36C127.192 171.36 123.337 170.553 122.843 168.877C122.235 166.811 121.714 158.165 124.796 157.679C131.385 156.637 134.605 155.674 138.251 155.674M138.251 152.045C135.525 152.045 133.051 152.514 129.909 153.095C128.294 153.399 126.454 153.738 124.232 154.094C122.669 154.337 121.297 155.274 120.377 156.733C117.877 160.691 118.867 168.235 119.362 169.901C120.594 174.112 126.515 174.988 131.272 174.988C134.501 174.988 142.244 174.537 144.527 170.318C147.262 165.249 146.446 158.217 144.796 155.092C143.581 152.792 141.862 152.279 140.942 152.184C140.022 152.088 139.145 152.036 138.26 152.036L138.251 152.045Z"/>
</mask>
<path d="M138.26 155.665C138.998 155.665 139.753 155.708 140.56 155.795C142.331 155.986 143.876 163.877 141.333 168.591C140.352 170.414 135.682 171.36 131.272 171.36C127.192 171.36 123.337 170.553 122.843 168.877C122.235 166.811 121.714 158.165 124.796 157.679C131.385 156.637 134.605 155.674 138.251 155.674M138.251 152.045C135.525 152.045 133.051 152.514 129.909 153.095C128.294 153.399 126.454 153.738 124.232 154.094C122.669 154.337 121.297 155.274 120.377 156.733C117.877 160.691 118.867 168.235 119.362 169.901C120.594 174.112 126.515 174.988 131.272 174.988C134.501 174.988 142.244 174.537 144.527 170.318C147.262 165.249 146.446 158.217 144.796 155.092C143.581 152.792 141.862 152.279 140.942 152.184C140.022 152.088 139.145 152.036 138.26 152.036L138.251 152.045Z" fill="#EAEBFF"/>
<path d="M140.56 155.795L140.667 154.801L140.667 154.801L140.56 155.795ZM141.333 168.591L140.453 168.116L140.452 168.117L141.333 168.591ZM122.843 168.877L121.883 169.159L121.884 169.16L122.843 168.877ZM124.796 157.679L124.952 158.667L124.952 158.667L124.796 157.679ZM138.251 152.045V153.045H138.665L138.958 152.753L138.251 152.045ZM129.909 153.095L129.727 152.112L129.724 152.113L129.909 153.095ZM124.232 154.094L124.385 155.082L124.39 155.081L124.232 154.094ZM120.377 156.733L121.223 157.267L121.223 157.266L120.377 156.733ZM119.362 169.901L120.321 169.621L120.32 169.617L119.362 169.901ZM144.527 170.318L145.407 170.794L145.408 170.793L144.527 170.318ZM144.796 155.092L145.681 154.625L145.681 154.625L144.796 155.092ZM138.26 152.036V151.036H137.846L137.553 151.329L138.26 152.036ZM138.26 156.665C138.958 156.665 139.677 156.706 140.453 156.789L140.667 154.801C139.829 154.711 139.038 154.665 138.26 154.665V156.665ZM140.453 156.789C140.312 156.774 140.316 156.704 140.444 156.854C140.561 156.992 140.71 157.234 140.864 157.601C141.171 158.328 141.433 159.38 141.571 160.608C141.848 163.084 141.591 166.006 140.453 168.116L142.213 169.066C143.618 166.462 143.86 163.081 143.558 160.386C143.406 159.028 143.109 157.777 142.707 156.824C142.508 156.35 142.265 155.907 141.968 155.559C141.682 155.223 141.251 154.864 140.667 154.801L140.453 156.789ZM140.452 168.117C140.34 168.325 140.06 168.609 139.495 168.911C138.946 169.205 138.216 169.469 137.344 169.689C135.6 170.129 133.415 170.36 131.272 170.36V172.36C133.538 172.36 135.893 172.118 137.833 171.629C138.801 171.384 139.699 171.07 140.439 170.674C141.164 170.286 141.835 169.768 142.213 169.065L140.452 168.117ZM131.272 170.36C129.285 170.36 127.395 170.162 125.971 169.781C125.257 169.59 124.706 169.364 124.327 169.126C123.94 168.882 123.83 168.688 123.802 168.594L121.884 169.16C122.103 169.904 122.66 170.439 123.262 170.818C123.872 171.202 124.633 171.493 125.454 171.713C127.101 172.154 129.178 172.36 131.272 172.36V170.36ZM123.802 168.595C123.542 167.712 123.26 165.162 123.433 162.758C123.519 161.561 123.714 160.492 124.03 159.724C124.356 158.93 124.699 158.706 124.952 158.667L124.64 156.691C123.352 156.894 122.604 157.934 122.18 158.963C121.747 160.017 121.531 161.329 121.438 162.614C121.254 165.17 121.535 167.976 121.883 169.159L123.802 168.595ZM124.952 158.667C128.257 158.144 130.749 157.636 132.802 157.27C134.871 156.902 136.518 156.674 138.251 156.674V154.674C136.338 154.674 134.552 154.927 132.452 155.301C130.336 155.678 127.924 156.172 124.64 156.691L124.952 158.667ZM138.251 151.045C135.417 151.045 132.85 151.534 129.727 152.112L130.091 154.079C133.253 153.493 135.634 153.045 138.251 153.045V151.045ZM129.724 152.113C128.113 152.416 126.283 152.752 124.073 153.106L124.39 155.081C126.625 154.723 128.476 154.383 130.094 154.078L129.724 152.113ZM124.078 153.106C122.203 153.397 120.591 154.52 119.532 156.199L121.223 157.266C122.004 156.028 123.135 155.276 124.385 155.082L124.078 153.106ZM119.532 156.199C118.125 158.426 117.75 161.542 117.746 164.175C117.743 166.83 118.12 169.234 118.403 170.186L120.32 169.617C120.108 168.902 119.743 166.701 119.746 164.178C119.75 161.633 120.13 158.997 121.223 157.267L119.532 156.199ZM118.402 170.182C119.15 172.739 121.304 174.178 123.678 174.972C126.057 175.768 128.851 175.988 131.272 175.988V173.988C128.935 173.988 126.391 173.771 124.312 173.075C122.228 172.378 120.806 171.274 120.321 169.621L118.402 170.182ZM131.272 175.988C132.92 175.988 135.754 175.875 138.491 175.207C141.176 174.552 144.053 173.296 145.407 170.794L143.648 169.842C142.719 171.559 140.582 172.638 138.017 173.264C135.505 173.877 132.853 173.988 131.272 173.988V175.988ZM145.408 170.793C146.881 168.061 147.377 164.85 147.306 161.951C147.235 159.063 146.597 156.362 145.681 154.625L143.912 155.559C144.645 156.947 145.24 159.324 145.306 162C145.372 164.666 144.908 167.506 143.647 169.843L145.408 170.793ZM145.681 154.625C144.28 151.973 142.229 151.312 141.045 151.189L140.839 153.179C141.495 153.247 142.882 153.61 143.912 155.559L145.681 154.625ZM141.045 151.189C140.097 151.091 139.185 151.036 138.26 151.036V153.036C139.105 153.036 139.947 153.086 140.839 153.179L141.045 151.189ZM137.553 151.329L137.545 151.337L138.958 152.753L138.966 152.744L137.553 151.329Z" fill="#A4ABFF" mask="url(#path-44-inside-4_11_18221)"/>
<path d="M139.701 169.776C140.03 169.776 140.368 169.784 140.716 169.801V169.802C141.197 169.828 141.953 170.045 142.611 171.169C143.192 172.168 143.685 173.95 143.786 175.98C143.886 178.002 143.592 180.202 142.666 182.038C142.272 182.818 141.486 183.448 140.442 183.946C139.404 184.442 138.164 184.783 136.946 185.014C134.512 185.476 132.254 185.487 132.079 185.487H132.07C129.991 185.487 128.397 185.242 127.263 184.785C126.141 184.333 125.508 183.692 125.254 182.9C125.052 182.266 124.768 180.579 124.737 178.696C124.706 176.8 124.936 174.833 125.671 173.573V173.572C126.283 172.517 127.08 172.172 127.625 172.058L127.627 172.057C128.537 171.861 129.365 171.674 130.129 171.495L132.25 170.986C135.174 170.273 137.236 169.776 139.701 169.776Z" fill="#EF9A9A" stroke="#A4ABFF"/>
<path d="M139.693 167.971C140.049 167.971 140.422 167.978 140.796 167.995V167.996C141.566 168.034 143.063 168.364 144.164 170.265V170.266C144.978 171.666 145.516 173.816 145.587 176.143C145.658 178.465 145.262 180.899 144.272 182.863C143.248 184.895 140.72 186.033 138.072 186.648C135.461 187.254 132.906 187.31 132.062 187.31C127.011 187.31 124.303 185.904 123.518 183.455C123.225 182.525 123.005 180.97 122.937 179.363L122.917 178.671C122.892 176.041 123.304 174.035 124.1 172.66C124.834 171.392 125.961 170.558 127.243 170.286H127.244C129.04 169.903 130.524 169.537 131.822 169.225L131.823 169.224C134.647 168.538 136.7 168.04 139.122 167.971H139.693ZM139.701 170.591C137.96 170.591 136.434 170.847 134.622 171.255C133.018 171.617 131.245 172.083 128.854 172.617L127.79 172.85C126.919 173.035 126.396 173.771 126.085 174.583C125.77 175.409 125.621 176.442 125.568 177.473C125.465 179.528 125.74 181.75 126.029 182.651L126.03 182.65C126.168 183.083 126.483 183.415 126.862 183.664C127.242 183.914 127.719 184.105 128.247 184.25C129.304 184.541 130.653 184.673 132.07 184.673C134.061 184.673 136.245 184.415 138.051 183.935C138.953 183.695 139.778 183.394 140.443 183.033C141.096 182.679 141.652 182.233 141.935 181.671L141.936 181.672C142.991 179.584 143.136 176.908 142.85 174.77C142.706 173.697 142.449 172.726 142.121 172.004C141.958 171.645 141.767 171.325 141.547 171.084C141.334 170.851 141.045 170.642 140.686 170.618H140.687C140.334 170.591 140.003 170.591 139.701 170.591Z" fill="#EAEBFF" stroke="#A4ABFF"/>
<path d="M185.675 43.5171C173.947 43.5171 164.407 33.9768 164.407 22.249C164.407 10.5212 173.947 0.980927 185.675 0.980927C197.402 0.980927 206.943 10.5212 206.943 22.249C206.943 33.9768 197.402 43.5171 185.675 43.5171Z" fill="#FDD835"/>
<path d="M185.675 1.97055C196.873 1.97055 205.953 11.0507 205.953 22.249C205.953 33.4473 196.873 42.5275 185.675 42.5275C174.476 42.5275 165.396 33.4473 165.396 22.249C165.396 11.0507 174.476 1.97055 185.675 1.97055ZM185.675 0C173.409 0 163.426 9.98297 163.426 22.249C163.426 34.515 173.409 44.498 185.675 44.498C197.941 44.498 207.924 34.515 207.924 22.249C207.924 9.98297 197.941 0 185.675 0Z" fill="#1D2869"/>
<path d="M180.978 25.5477C180.978 27.6658 183.079 29.3847 185.675 29.3847C188.27 29.3847 190.371 27.4228 190.371 25.5477C190.371 23.6727 189.078 22.4313 186.004 22.249C182.923 22.0667 180.978 20.8774 180.978 18.9503C180.978 16.4502 183.079 15.1133 185.675 15.1133C188.27 15.1133 190.371 16.8321 190.371 18.9503" stroke="white" stroke-width="1.93" stroke-linecap="round" stroke-linejoin="round"/>
<path d="M185.675 29.7926V32.4143" stroke="white" stroke-width="1.93" stroke-linecap="round" stroke-linejoin="round"/>
<path d="M185.675 12.0924V14.9658" stroke="white" stroke-width="1.93" stroke-linecap="round" stroke-linejoin="round"/>
<path d="M193.947 9.93088C194.746 10.4691 195.493 11.0767 196.17 11.7625L193.947 9.93088Z" fill="#FDD835"/>
<path d="M193.947 9.93088C194.746 10.4691 195.493 11.0767 196.17 11.7625" stroke="#1D2869" stroke-width="2.1" stroke-linecap="round" stroke-linejoin="round"/>
<path d="M200.51 22.249C200.51 30.4437 193.869 37.0846 185.675 37.0846C177.48 37.0846 170.839 30.4437 170.839 22.249C170.839 14.0543 177.48 7.41345 185.675 7.41345" fill="#FDD835"/>
<path d="M200.51 22.249C200.51 30.4437 193.869 37.0846 185.675 37.0846C177.48 37.0846 170.839 30.4437 170.839 22.249C170.839 14.0543 177.48 7.41345 185.675 7.41345" stroke="#1D2869" stroke-width="2.1" stroke-linecap="round" stroke-linejoin="round"/>
<path d="M180.978 25.5477C180.978 27.6658 183.079 29.3847 185.675 29.3847C188.27 29.3847 190.371 27.4228 190.371 25.5477C190.371 23.6727 189.078 22.4313 186.004 22.249C182.923 22.0667 180.978 20.8774 180.978 18.9503C180.978 16.4502 183.079 15.1133 185.675 15.1133C188.27 15.1133 190.371 16.8321 190.371 18.9503" stroke="#1D2869" stroke-width="1.93" stroke-linecap="round" stroke-linejoin="round"/>
<path d="M185.675 29.7926V32.4143" stroke="#1D2869" stroke-width="1.93" stroke-linecap="round" stroke-linejoin="round"/>
<path d="M185.675 12.0924V14.9658" stroke="#1D2869" stroke-width="1.93" stroke-linecap="round" stroke-linejoin="round"/>
<path d="M171.612 21.9018C171.612 21.9018 170.509 15.122 170.136 14.7488C169.789 14.4015 163.078 13.3772 163.078 13.3772C163.078 13.3772 169.875 12.2574 170.249 11.8841C170.587 11.5455 171.603 4.8526 171.603 4.8526C171.603 4.8526 172.61 11.5369 172.948 11.8754C173.322 12.2487 180.128 13.3772 180.128 13.3772C180.128 13.3772 173.356 14.471 172.992 14.8269C172.645 15.1741 171.603 21.9018 171.603 21.9018H171.612Z" fill="white"/>
<g style="mix-blend-mode:multiply">
<path d="M185.675 1.97055C185.675 1.97055 185.614 1.97055 185.579 1.97055V42.5275C185.579 42.5275 185.64 42.5275 185.675 42.5275C196.873 42.5275 205.953 33.4473 205.953 22.249C205.953 11.0507 196.873 1.97055 185.675 1.97055Z" fill="white"/>
</g>
</g>
<defs>
<clipPath id="clip0_11_18221">
<rect width="368.936" height="260" fill="white"/>
</clipPath>
</defs>
</svg>
