<svg width="236" height="260" viewBox="0 0 236 260" fill="none" xmlns="http://www.w3.org/2000/svg">
<g clip-path="url(#clip0_11_18198)">
<path d="M58.8136 35.1995H81.1704V30.1984H58.663C55.988 30.1984 53.8092 32.3739 53.8092 35.0489V109.648L58.8136 114.062V35.1995Z" fill="#EAEBFF"/>
<path d="M176.767 35.1995V114.067L181.771 109.657V35.0489C181.771 32.3739 179.591 30.1984 176.917 30.1984H151.907V35.1995H176.767Z" fill="#EAEBFF"/>
<path d="M166.204 101.401H96.8023V106.406H166.204V101.401Z" fill="#EAEBFF"/>
<path d="M166.204 80.3134H96.8023V85.3178H166.204V80.3134Z" fill="#EAEBFF"/>
<path d="M166.204 59.2255H96.8023V64.2299H166.204V59.2255Z" fill="#EAEBFF"/>
<path d="M153.629 122.488H96.8023V127.492H153.629V122.488Z" fill="#EAEBFF"/>
<path d="M78.2339 115.824L72.9119 110.502L69.3749 114.039L74.6969 119.361L78.2339 122.898L81.7709 119.361L91.5977 109.534L88.0607 105.997L78.2339 115.824Z" fill="#EAEBFF"/>
<path d="M78.2339 91.0485L72.9119 85.7264L69.3749 89.2634L74.6969 94.5855L78.2339 98.1224L81.7709 94.5855L91.5977 84.7587L88.0607 81.2217L78.2339 91.0485Z" fill="#EAEBFF"/>
<path d="M78.2339 66.2747L72.9119 60.9527L69.3749 64.4896L74.6969 69.81V69.8117L78.2339 73.347L81.7709 69.8117L91.5977 59.9849L88.0607 56.4479L78.2339 66.2747Z" fill="#EAEBFF"/>
<path d="M81.1704 40.237C81.1704 42.151 82.7288 43.7094 84.6429 43.7094H148.434C150.35 43.7094 151.907 42.151 151.907 40.237V18.8215C151.907 16.9074 150.348 15.349 148.434 15.349H133.322C132.559 6.75799 125.323 0 116.539 0C107.754 0 100.523 6.75303 99.7553 15.349H84.6429C82.7288 15.349 81.1704 16.9074 81.1704 18.8215V40.237ZM101.221 20.3534C102.166 20.3534 103.047 19.9812 103.706 19.3029C104.344 18.6461 104.695 17.7776 104.694 16.8495C104.694 10.3181 110.007 5.00439 116.539 5.00439C123.07 5.00439 128.384 10.3181 128.384 16.8578C128.384 17.7776 128.733 18.6461 129.371 19.3029C130.03 19.9812 130.912 20.3534 131.856 20.3534H146.902V38.705H86.1748V20.3534H101.221Z" fill="#EAEBFF"/>
<path d="M116.539 18.5187C118.013 18.5187 119.209 17.3243 119.209 15.8503C119.209 14.3762 118.014 13.1801 116.539 13.1801C115.063 13.1801 113.87 14.3746 113.87 15.8503C113.87 17.3259 115.065 18.5187 116.539 18.5187Z" fill="#EAEBFF"/>
<path d="M235.13 182.357C234.392 181.258 232.955 180.881 231.772 181.468L202.295 196.098C200.253 197.108 197.75 196.458 196.46 194.589L181.771 173.245L177.801 167.476L176.765 165.97L174.3 162.395L165.593 149.745L161.964 144.471L159.854 141.407C158.537 139.496 158.857 136.892 160.605 135.353L176.765 121.101L181.769 116.687L183.497 115.165L183.518 115.195L185.761 113.225C186.764 112.34 186.956 110.853 186.21 109.746C185.313 108.412 183.447 108.174 182.244 109.24L181.771 109.658L176.767 114.069L157.115 131.398C153.376 134.702 152.688 140.288 155.518 144.401L155.568 144.472H104.48L103.775 144.376L93.6888 142.985L81.4814 141.304C82.3996 137.787 81.3259 133.922 78.4672 131.398L58.8119 114.064L53.8075 109.65L53.3543 109.251C52.1433 108.186 50.2739 108.426 49.3673 109.766C49.0579 110.222 48.9107 110.738 48.9107 111.258C48.9107 112.004 49.22 112.742 49.8206 113.266L52.0457 115.223L52.0837 115.165L53.8059 116.683L58.8103 121.096L74.9782 135.353C76.7219 136.892 77.0412 139.494 75.7243 141.407L58.8103 165.984L53.8059 173.256L39.1252 194.589C37.8382 196.458 35.3269 197.108 33.2904 196.098L3.78348 181.48C2.60559 180.901 1.17955 181.278 0.446673 182.368C-0.44171 183.68 0.0363953 185.478 1.45748 186.183L30.9478 200.821C32.3358 201.509 33.828 201.84 35.3037 201.84C37.8233 201.84 40.3048 200.872 42.161 199.102L51.5725 209.9C50.5915 211.963 50.2474 214.259 50.6047 216.56C51.0696 219.603 52.6925 222.286 55.174 224.111L55.71 224.504C57.7052 225.967 60.0659 226.739 62.5342 226.739C63.5649 226.739 64.5839 226.597 65.56 226.329C65.7403 229.77 67.3963 233.099 70.3808 235.292C72.4305 236.798 74.8574 237.594 77.3935 237.594C78.6095 237.594 79.7989 237.405 80.9272 237.049C81.0314 240.583 82.6957 244.032 85.7562 246.276C87.806 247.784 90.2329 248.577 92.7739 248.577C93.9816 248.577 95.1711 248.388 96.2994 248.036C96.2745 251.717 97.9471 255.355 101.133 257.699C103.183 259.208 105.61 260 108.151 260C111.081 260 113.898 258.902 116.049 256.986L116.871 257.59C118.975 259.136 121.465 259.954 124.077 259.954C127.679 259.954 131.027 258.369 133.257 255.611C135.127 253.305 136.045 250.476 135.894 247.549L138.108 249.181C140.163 250.686 142.585 251.482 145.129 251.482C148.889 251.482 152.469 249.67 154.694 246.644C156.342 244.401 157.135 241.71 156.979 238.968L158.321 239.953C160.37 241.458 162.794 242.254 165.338 242.254C169.099 242.254 172.679 240.442 174.904 237.417C176.489 235.258 177.284 232.675 177.202 230.035C178.833 230.849 180.618 231.271 182.476 231.271C186.236 231.271 189.811 229.459 192.038 226.433C193.916 223.876 194.683 220.749 194.205 217.617C193.727 214.481 192.059 211.723 189.502 209.849L174.26 198.695L167.423 193.689L153.598 183.569L150.001 180.932L146.396 178.3H143.488C141.258 178.3 138.965 177.772 136.918 176.598C133.309 174.54 130.475 170.495 130.127 163.854C130.103 163.33 129.671 162.92 129.146 162.92H101.957C101.064 162.92 100.343 163.641 100.343 164.534V170.244C100.343 173.504 99.0224 176.452 96.8883 178.59C94.7509 180.724 91.8029 182.047 88.5421 182.047C88.165 182.047 87.8175 181.892 87.5694 181.64C87.3179 181.389 87.1624 181.05 87.1624 180.664V165.092C87.1624 164.212 87.5313 163.373 88.1765 162.782L101.365 150.701C101.704 150.386 102.103 150.143 102.53 149.98C102.94 149.824 103.38 149.741 103.825 149.741H159.196L171.981 168.316L173.867 171.058L175.749 173.795L176.763 175.271L181.768 182.54L192.114 197.573C194 200.32 197.107 201.84 200.28 201.84C201.756 201.84 203.243 201.509 204.631 200.821L234.113 186.191C235.537 185.478 236.015 183.677 235.127 182.357H235.13ZM67.5833 218.918C66.3557 220.587 64.4566 221.47 62.5359 221.47C61.2488 221.47 59.9452 221.072 58.8351 220.254L58.2941 219.861C55.5148 217.819 54.911 213.9 56.9607 211.112C58.1849 209.445 60.0841 208.565 62.0081 208.565C63.2952 208.565 64.5906 208.959 65.7056 209.781L66.2416 210.171C69.0292 212.221 69.6247 216.132 67.5833 218.919V218.918ZM82.7122 229.633C81.4219 231.39 79.43 232.32 77.3968 232.32C76.0469 232.32 74.6804 231.909 73.5025 231.041C70.5727 228.89 69.939 224.766 72.0947 221.831L77.5573 214.395C78.8477 212.638 80.8478 211.708 82.8727 211.708C84.226 211.708 85.5941 212.118 86.772 212.987C88.5289 214.277 89.4586 216.277 89.4586 218.302C89.4586 219.657 89.0434 221.022 88.1798 222.202L82.7139 229.635L82.7122 229.633ZM99.8446 238.235L98.0927 240.616C97.598 241.283 97.0074 241.832 96.349 242.256C95.2753 242.952 94.0313 243.308 92.7773 243.308C91.4224 243.308 90.0575 242.892 88.878 242.029C85.9481 239.875 85.3145 235.749 87.4734 232.816L95.7187 221.589C97.0091 219.833 99.0092 218.903 101.034 218.903C102.387 218.903 103.754 219.318 104.933 220.182C105.729 220.769 106.358 221.502 106.808 222.319C107.742 224.03 107.89 226.091 107.152 227.932C106.95 228.44 106.682 228.93 106.343 229.391L99.8463 238.235H99.8446ZM114.067 251.227L113.468 252.041C112.178 253.798 110.181 254.733 108.153 254.733C106.799 254.733 105.433 254.317 104.253 253.454C101.324 251.3 100.69 247.174 102.849 244.241L103.444 243.427C104.737 241.67 106.735 240.735 108.76 240.735C110.113 240.735 111.48 241.15 112.659 242.014C115.589 244.168 116.223 248.294 114.067 251.227ZM84.618 158.895C82.8826 160.488 81.8933 162.743 81.8933 165.095V180.668C81.8933 184.34 84.8745 187.32 88.5421 187.32C93.1032 187.32 97.3912 185.546 100.616 182.324C103.843 179.091 105.617 174.808 105.617 170.247V168.197H125.369C126.38 173.19 128.731 176.899 131.754 179.419C133.254 180.668 134.927 181.632 136.679 182.307C138.871 183.162 141.188 183.573 143.486 183.573H144.672L158.498 193.692L165.335 198.698L186.378 214.099C189.317 216.257 189.942 220.382 187.791 223.312C186.501 225.069 184.501 225.998 182.476 225.998C181.118 225.998 179.751 225.588 178.576 224.719L148.479 202.607C147.96 202.225 147.361 202.045 146.76 202.045C145.864 202.045 144.983 202.455 144.413 203.231C143.461 204.522 143.743 206.346 145.033 207.298L169.246 225.08C172.181 227.239 172.809 231.363 170.654 234.293C169.363 236.05 167.363 236.98 165.338 236.98C163.98 236.98 162.619 236.57 161.444 235.701L137.395 218.036C136.842 217.629 136.196 217.432 135.559 217.432C134.599 217.432 133.656 217.869 133.047 218.698C132.028 220.086 132.326 222.029 133.709 223.049L149.035 234.303C151.97 236.462 152.598 240.586 150.443 243.516C149.152 245.273 147.152 246.203 145.127 246.203C143.769 246.203 142.403 245.792 141.233 244.924L125.887 233.651C125.338 233.249 124.696 233.056 124.064 233.056C123.113 233.056 122.178 233.487 121.578 234.31C121.171 234.862 120.974 235.501 120.974 236.138C120.974 237.089 121.414 238.024 122.236 238.624L127.945 242.82C130.963 245.041 131.547 249.346 129.161 252.289C127.882 253.869 125.992 254.675 124.076 254.675C122.65 254.675 121.212 254.23 119.993 253.333L119.272 252.805C121.938 247.708 120.554 241.27 115.776 237.761C113.731 236.255 111.299 235.459 108.758 235.459C108.641 235.459 108.528 235.464 108.414 235.468L110.586 232.508C112.623 229.737 113.273 226.367 112.669 223.236C112.292 221.278 111.423 219.409 110.092 217.836C109.504 217.131 108.821 216.491 108.05 215.923C106 214.418 103.574 213.622 101.032 213.622C98.6552 213.622 96.354 214.347 94.4217 215.642C93.8063 212.964 92.271 210.482 89.8855 208.73C87.8391 207.225 85.4088 206.429 82.8678 206.429C79.1289 206.429 75.5737 208.219 73.3437 211.217C72.5926 209.162 71.2476 207.306 69.3567 205.918L68.824 205.524C66.8322 204.057 64.4731 203.286 62.0032 203.286C59.5332 203.286 56.9227 204.171 54.9226 205.726L45.3853 194.776L53.8026 182.549L58.807 175.276L78.7898 146.247L95.8428 148.598L84.6131 158.89L84.618 158.895Z" fill="#EAEBFF"/>
<path d="M34.0299 189.1C35.4261 190.054 37.3501 189.692 38.3047 188.296L38.4833 188.033C39.4379 186.636 39.0756 184.712 37.6793 183.758C36.2831 182.803 34.3591 183.166 33.4045 184.562L33.2242 184.825C32.2696 186.221 32.6319 188.145 34.0282 189.1H34.0299Z" fill="#EAEBFF"/>
<path d="M39.7406 181.192C41.1369 182.147 43.0609 181.784 44.0155 180.388L44.1941 180.125C45.1487 178.729 44.7864 176.805 43.3901 175.85C41.9939 174.896 40.0699 175.258 39.1153 176.656L38.9366 176.919C37.9821 178.315 38.3444 180.239 39.7406 181.194V181.192Z" fill="#EAEBFF"/>
<path d="M197.097 188.033L197.276 188.296C198.23 189.692 200.152 190.054 201.55 189.1C202.947 188.145 203.309 186.223 202.354 184.825L202.176 184.562C201.221 183.166 199.299 182.803 197.901 183.758C196.505 184.712 196.142 186.635 197.095 188.033H197.097Z" fill="#EAEBFF"/>
<path d="M191.565 180.388C192.519 181.784 194.442 182.147 195.84 181.192C197.236 180.237 197.598 178.315 196.644 176.917L196.465 176.654C195.51 175.258 193.588 174.896 192.19 175.848C190.792 176.801 190.432 178.725 191.386 180.123L191.565 180.386V180.388Z" fill="#EAEBFF"/>
</g>
<defs>
<clipPath id="clip0_11_18198">
<rect width="235.579" height="260" fill="white"/>
</clipPath>
</defs>
</svg>
