<svg width="272" height="260" viewBox="0 0 272 260" fill="none" xmlns="http://www.w3.org/2000/svg">
<g clip-path="url(#clip0_11_18186)">
<path d="M201.142 30.8577C201.142 60.7619 196.013 81.7413 184.002 101.002C177.981 110.653 170.452 119.317 161.545 126.852H151.762C162.786 118.71 171.885 108.948 178.846 97.7888C189.854 80.1376 194.75 60.8054 195.048 33.5535C169.265 30.3527 149.826 21.8119 135.755 7.47122C121.683 21.8103 102.245 30.3527 76.4609 33.5535C76.7594 60.8054 81.6558 80.1376 92.6633 97.7888C99.5908 108.898 108.643 118.625 119.601 126.741L107.975 125.136C99.9296 118.012 93.0731 109.931 87.5088 101.004C75.4929 81.7429 70.3691 60.7651 70.3691 30.8593C70.3691 29.325 71.5178 28.0295 73.0423 27.8472L75.1945 27.5843C101.135 24.4545 120.209 15.7604 133.496 1.00671C134.074 0.369459 134.893 0.00485229 135.755 0.00485229C136.616 0.00485229 137.436 0.369459 138.013 1.00671C151.3 15.762 170.375 24.4561 196.315 27.5843L198.467 27.8472C199.992 28.0295 201.14 29.3266 201.14 30.8593L201.142 30.8577Z" fill="#EAEBFF"/>
<path d="M270.993 170.513C270.143 169.247 268.486 168.811 267.124 169.49L233.148 186.351C230.799 187.516 227.913 186.766 226.424 184.609L204.919 153.362L200.889 147.504L190.852 132.927L186.671 126.851L184.239 123.316C182.72 121.114 183.091 118.112 185.101 116.339L211.486 93.0715L211.512 93.107L214.095 90.8338C215.25 89.8158 215.473 88.0993 214.611 86.8232C213.579 85.2889 211.432 85.0163 210.044 86.2408L181.08 111.781C176.771 115.584 175.976 122.024 179.238 126.764L179.299 126.849H120.415L119.606 126.738L107.98 125.133L93.9137 123.193C94.972 119.142 93.7362 114.687 90.4402 111.781L61.4975 86.2553C60.1004 85.0243 57.9434 85.3034 56.8996 86.8474C56.5447 87.3733 56.3737 87.9718 56.3737 88.5687C56.3737 89.4303 56.7335 90.2805 57.4223 90.8822L59.9891 93.136L60.0343 93.0699L86.4199 116.337C88.43 118.11 88.7995 121.112 87.2814 123.314L45.0967 184.609C43.6125 186.766 40.7214 187.516 38.3724 186.351L4.36562 169.505C3.00883 168.837 1.36326 169.273 0.517886 170.528C-0.504949 172.041 0.0468013 174.113 1.68269 174.922L35.6734 191.794C37.2738 192.59 38.9903 192.969 40.6908 192.969C43.5979 192.969 46.4535 191.854 48.5943 189.815L59.4406 202.261C58.3113 204.636 57.916 207.285 58.3274 209.938C58.8646 213.447 60.7328 216.536 63.5932 218.637L64.2111 219.091C66.5101 220.777 69.2285 221.67 72.0744 221.67C73.265 221.67 74.4395 221.502 75.5623 221.194C75.7704 225.158 77.679 228.997 81.1169 231.524C83.482 233.259 86.2763 234.177 89.2028 234.177C90.5999 234.177 91.9728 233.96 93.2732 233.55C93.3942 237.62 95.314 241.595 98.8375 244.183C101.203 245.921 103.997 246.837 106.923 246.837C108.316 246.837 109.689 246.619 110.989 246.214C110.958 250.452 112.888 254.65 116.558 257.349C118.923 259.085 121.717 260.003 124.644 260.003C128.02 260.003 131.266 258.737 133.748 256.53L134.695 257.224C137.12 259.006 139.991 259.948 142.998 259.948C147.151 259.948 151.008 258.125 153.582 254.946C155.734 252.287 156.792 249.026 156.62 245.655L159.172 247.532C161.537 249.27 164.331 250.186 167.263 250.186C171.597 250.186 175.718 248.1 178.286 244.611C180.185 242.023 181.097 238.924 180.919 235.765L182.463 236.899C184.828 238.635 187.622 239.553 190.554 239.553C194.889 239.553 199.009 237.467 201.577 233.977C203.405 231.486 204.322 228.513 204.227 225.47C206.104 226.408 208.166 226.893 210.302 226.893C214.637 226.893 218.758 224.807 221.326 221.318C223.488 218.37 224.373 214.766 223.822 211.156C223.27 207.545 221.345 204.365 218.399 202.203L177.02 171.918L172.874 168.881L168.721 165.843H165.368C162.797 165.843 160.153 165.235 157.799 163.883C153.637 161.513 150.371 156.85 149.971 149.193C149.94 148.59 149.445 148.121 148.842 148.121H117.503C116.476 148.121 115.645 148.951 115.645 149.979V156.561C115.645 160.319 114.12 163.716 111.66 166.177C109.2 168.637 105.802 170.162 102.045 170.162C101.609 170.162 101.209 169.984 100.92 169.695C100.631 169.407 100.454 169.011 100.454 168.571V150.621C100.454 149.608 100.88 148.642 101.624 147.958L116.819 134.033C117.215 133.673 117.67 133.39 118.166 133.202C118.638 133.025 119.144 132.93 119.66 132.93H183.476L198.211 154.338L200.382 157.497L202.554 160.651L221.415 188.055C223.586 191.22 227.166 192.972 230.822 192.972C232.524 192.972 234.24 192.593 235.839 191.798L269.815 174.935C271.461 174.116 272.013 172.039 270.985 170.515L270.993 170.513ZM77.8919 212.651C76.4738 214.576 74.2862 215.594 72.0744 215.594C70.5901 215.594 69.0914 215.137 67.8104 214.197L67.1877 213.742C63.982 211.386 63.2883 206.871 65.6486 203.66C67.0618 201.736 69.2495 200.718 71.4661 200.718C72.9504 200.718 74.4427 201.174 75.7301 202.12L76.348 202.57C79.5585 204.93 80.2474 209.441 77.8919 212.651ZM95.3301 225.001C93.8411 227.026 91.5421 228.1 89.2028 228.1C87.6427 228.1 86.0682 227.624 84.7114 226.627C81.3347 224.146 80.6055 219.392 83.0916 216.008L89.3851 207.44C90.8742 205.416 93.178 204.341 95.5124 204.341C97.0725 204.341 98.6471 204.817 100.004 205.814C102.029 207.303 103.103 209.607 103.103 211.941C103.103 213.501 102.622 215.076 101.63 216.433L95.3317 224.999L95.3301 225.001ZM115.072 234.915L113.052 237.659C112.486 238.429 111.802 239.061 111.042 239.548C109.806 240.348 108.374 240.758 106.925 240.758C105.365 240.758 103.79 240.282 102.434 239.285C99.0569 236.804 98.3277 232.05 100.814 228.666L110.318 215.729C111.807 213.705 114.111 212.63 116.445 212.63C118.005 212.63 119.58 213.111 120.936 214.103C121.858 214.782 122.582 215.628 123.098 216.568C124.178 218.538 124.344 220.918 123.494 223.039C123.261 223.622 122.951 224.188 122.561 224.72L115.072 234.913V234.915ZM131.468 249.888L130.774 250.825C129.285 252.85 126.986 253.924 124.647 253.924C123.087 253.924 121.512 253.448 120.156 252.451C116.779 249.97 116.05 245.216 118.536 241.833L119.225 240.895C120.714 238.871 123.018 237.796 125.352 237.796C126.912 237.796 128.487 238.272 129.844 239.269C133.22 241.75 133.949 246.505 131.468 249.888ZM97.5275 143.474C95.527 145.307 94.3831 147.909 94.3831 150.618V168.568C94.3831 172.796 97.8211 176.234 102.05 176.234C107.306 176.234 112.247 174.188 115.964 170.471C119.681 166.749 121.727 161.813 121.727 156.557V154.191H144.492C145.657 159.943 148.366 164.223 151.849 167.124C153.58 168.568 155.505 169.676 157.525 170.455C160.051 171.438 162.724 171.914 165.373 171.914H166.74L214.808 207.095C218.191 209.581 218.914 214.335 216.433 217.714C214.944 219.738 212.64 220.813 210.305 220.813C208.741 220.813 207.166 220.337 205.814 219.34L171.125 193.856C170.528 193.416 169.834 193.208 169.145 193.208C168.113 193.208 167.095 193.679 166.441 194.574C165.343 196.063 165.667 198.164 167.154 199.258L195.06 219.755C198.443 222.241 199.166 226.995 196.684 230.373C195.195 232.398 192.891 233.472 190.557 233.472C188.992 233.472 187.418 232.997 186.066 232L158.347 211.64C157.71 211.169 156.965 210.941 156.231 210.941C155.127 210.941 154.038 211.448 153.34 212.404C152.165 214 152.509 216.242 154.104 217.417L171.765 230.389C175.148 232.876 175.871 237.63 173.39 241.008C171.901 243.033 169.597 244.107 167.263 244.107C165.698 244.107 164.123 243.631 162.771 242.634L145.084 229.641C144.452 229.175 143.712 228.952 142.982 228.952C141.888 228.952 140.811 229.454 140.117 230.401C139.651 231.038 139.423 231.774 139.423 232.508C139.423 233.602 139.93 234.679 140.877 235.375L147.459 240.21C150.937 242.767 151.605 247.729 148.856 251.122C147.383 252.945 145.205 253.871 142.998 253.871C141.358 253.871 139.698 253.36 138.294 252.327L137.463 251.714C140.532 245.84 138.941 238.422 133.433 234.378C131.073 232.64 128.274 231.724 125.347 231.724C125.21 231.724 125.079 231.728 124.947 231.733L127.454 228.321C129.798 225.132 130.549 221.247 129.855 217.638C129.419 215.379 128.417 213.227 126.883 211.415C126.204 210.605 125.42 209.867 124.529 209.213C122.169 207.477 119.37 206.559 116.443 206.559C113.704 206.559 111.05 207.395 108.822 208.889C108.114 205.799 106.346 202.939 103.597 200.924C101.236 199.188 98.4374 198.27 95.5108 198.27C91.2017 198.27 87.1055 200.33 84.5339 203.784C83.6676 201.419 82.1188 199.278 79.9408 197.678L79.3229 197.228C77.0288 195.537 74.3104 194.645 71.4645 194.645C68.6187 194.645 65.6115 195.663 63.3028 197.455L52.3146 184.838L90.8129 128.906L110.469 131.615L97.5275 143.479V143.474Z" fill="#EAEBFF"/>
<path d="M39.221 178.285C37.6109 177.184 37.1947 174.968 38.2934 173.359L38.4999 173.056C39.6001 171.446 41.8168 171.03 43.4253 172.128C45.0354 173.228 45.4516 175.445 44.3529 177.054L44.1464 177.357C43.0462 178.967 40.8295 179.383 39.221 178.285Z" fill="#EAEBFF"/>
<path d="M45.8033 169.171C44.1932 168.071 43.777 165.854 44.8756 164.246L45.0821 163.942C46.1824 162.332 48.3991 161.916 50.0076 163.015C51.6176 164.115 52.0339 166.332 50.9352 167.94L50.7287 168.243C49.6284 169.853 47.4118 170.27 45.8033 169.171Z" fill="#EAEBFF"/>
<path d="M232.293 178.285C233.903 177.184 234.319 174.968 233.221 173.359L233.014 173.056C231.914 171.446 229.697 171.03 228.089 172.128C226.479 173.228 226.063 175.445 227.161 177.054L227.368 177.357C228.468 178.967 230.685 179.383 232.293 178.285Z" fill="#EAEBFF"/>
<path d="M225.711 169.171C227.321 168.071 227.737 165.854 226.639 164.246L226.432 163.942C225.332 162.332 223.115 161.916 221.507 163.015C219.897 164.115 219.48 166.332 220.579 167.94L220.785 168.243C221.886 169.853 224.102 170.27 225.711 169.171Z" fill="#EAEBFF"/>
<path d="M168.873 54.5087C167.661 53.3681 165.73 53.4875 164.552 54.6636L133.751 85.4648L116.368 68.0814C115.191 66.9053 113.259 66.7859 112.049 67.9265C110.795 69.1075 110.773 71.0789 111.983 72.2873L131.478 91.7825C131.52 91.8244 131.568 91.868 131.62 91.9115C132.838 92.9408 134.667 92.9408 135.885 91.9115C135.937 91.868 135.985 91.8244 136.027 91.7825L168.94 58.8694C170.149 57.6611 170.126 55.688 168.874 54.5087H168.873Z" fill="#EAEBFF"/>
</g>
<defs>
<clipPath id="clip0_11_18186">
<rect width="271.513" height="260" fill="white"/>
</clipPath>
</defs>
</svg>
