<svg width="242" height="260" viewBox="0 0 242 260" fill="none" xmlns="http://www.w3.org/2000/svg">
<path d="M211.491 109.683H161.683C159.454 109.683 157.597 107.863 157.597 105.597V38.5542C157.597 36.3256 159.417 34.4685 161.683 34.4685H211.491C213.72 34.4685 215.577 36.2885 215.577 38.5542V105.634C215.54 107.863 213.72 109.683 211.491 109.683ZM161.683 34.8399C159.64 34.8399 157.969 36.5114 157.969 38.5542V105.634C157.969 107.677 159.64 109.349 161.683 109.349H211.491C213.534 109.349 215.206 107.677 215.206 105.634V38.5542C215.206 36.5114 213.534 34.8399 211.491 34.8399H161.683Z" fill="black"/>
<path d="M163.622 28.9912L160.497 32.1167L161.285 32.9046L164.41 29.7791L163.622 28.9912Z" fill="#FB6A69"/>
<path d="M161.289 28.9706L160.501 29.7585L163.627 32.8839L164.415 32.096L161.289 28.9706Z" fill="#FB6A69"/>
<path d="M167.031 32.2399C167.749 32.2399 168.331 31.6579 168.331 30.9399C168.331 30.2219 167.749 29.6399 167.031 29.6399C166.313 29.6399 165.731 30.2219 165.731 30.9399C165.731 31.6579 166.313 32.2399 167.031 32.2399Z" fill="#FB6A69"/>
<path d="M171.117 32.2399C171.835 32.2399 172.417 31.6579 172.417 30.9399C172.417 30.2219 171.835 29.6399 171.117 29.6399C170.399 29.6399 169.817 30.2219 169.817 30.9399C169.817 31.6579 170.399 32.2399 171.117 32.2399Z" fill="#FB6A69"/>
<path d="M186.569 62.2515C192.559 62.2515 197.414 57.3957 197.414 51.4058C197.414 45.4158 192.559 40.5601 186.569 40.5601C180.579 40.5601 175.723 45.4158 175.723 51.4058C175.723 57.3957 180.579 62.2515 186.569 62.2515Z" fill="#FFAEC2"/>
<path d="M195.111 51.4056C195.111 53.6342 194.257 55.7142 192.809 57.237C191.249 58.9085 189.057 59.9485 186.569 59.9485C184.117 59.9485 181.889 58.9085 180.329 57.237C178.917 55.7142 178.026 53.6713 178.026 51.4056C178.026 46.6885 181.851 42.8999 186.531 42.8999C191.286 42.8999 195.111 46.6885 195.111 51.4056Z" fill="white"/>
<path d="M186.569 51.6658C188.066 51.6658 189.28 50.4518 189.28 48.9543C189.28 47.4569 188.066 46.2429 186.569 46.2429C185.071 46.2429 183.857 47.4569 183.857 48.9543C183.857 50.4518 185.071 51.6658 186.569 51.6658Z" fill="#FB99B1"/>
<path d="M192.809 57.2371C191.249 58.9086 189.057 59.9486 186.569 59.9486C184.117 59.9486 181.889 58.9086 180.329 57.2371C181.257 54.7114 183.709 52.8914 186.569 52.8914C189.429 52.8543 191.88 54.6743 192.809 57.2371Z" fill="#FB99B1"/>
<path d="M206.626 78.3714H166.511C165.397 78.3714 164.506 77.48 164.506 76.3657V69.7543C164.506 68.64 165.397 67.7485 166.511 67.7485H206.626C207.74 67.7485 208.631 68.64 208.631 69.7543V76.3657C208.631 77.4428 207.74 78.3714 206.626 78.3714ZM166.511 68.12C165.62 68.12 164.877 68.8628 164.877 69.7543V76.3657C164.877 77.2571 165.62 78 166.511 78H206.626C207.517 78 208.26 77.2571 208.26 76.3657V69.7543C208.26 68.8628 207.517 68.12 206.626 68.12H166.511ZM206.626 91.9285H166.511C165.397 91.9285 164.506 91.0371 164.506 89.9228V83.3114C164.506 82.1971 165.397 81.3057 166.511 81.3057H206.626C207.74 81.3057 208.631 82.1971 208.631 83.3114V89.9228C208.631 91.0371 207.74 91.9285 206.626 91.9285ZM166.511 81.6771C165.62 81.6771 164.877 82.42 164.877 83.3114V89.9228C164.877 90.8143 165.62 91.5571 166.511 91.5571H206.626C207.517 91.5571 208.26 90.8143 208.26 89.9228V83.3114C208.26 82.42 207.517 81.6771 206.626 81.6771H166.511Z" fill="#98D3FE"/>
<path d="M171.749 78.3714H166.957C165.62 78.3714 164.506 77.2942 164.506 75.92V70.2C164.506 68.8628 165.583 67.7485 166.957 67.7485H171.749V78.3714ZM166.957 68.12C165.806 68.12 164.877 69.0485 164.877 70.2V75.9571C164.877 77.1085 165.806 78.0371 166.957 78.0371H171.377V68.1571H166.957V68.12ZM171.749 91.9285H166.957C165.62 91.9285 164.506 90.8514 164.506 89.4771V83.72C164.506 82.3828 165.583 81.2685 166.957 81.2685H171.749V91.9285ZM166.957 81.6771C165.806 81.6771 164.877 82.6057 164.877 83.7571V89.5143C164.877 90.6657 165.806 91.5943 166.957 91.5943H171.377V81.7143H166.957V81.6771Z" fill="#98D3FE"/>
<path d="M203.729 72.8743H200.794V73.2457H203.729V72.8743Z" fill="#98D3FE"/>
<path d="M196.709 72.8743H174.98V73.2457H196.709V72.8743Z" fill="#98D3FE"/>
<path d="M178.026 88.2144C178.928 88.2144 179.66 87.4827 179.66 86.5801C179.66 85.6775 178.928 84.9458 178.026 84.9458C177.123 84.9458 176.391 85.6775 176.391 86.5801C176.391 87.4827 177.123 88.2144 178.026 88.2144Z" fill="#A9D1FF"/>
<path d="M184.191 88.2144C185.094 88.2144 185.826 87.4827 185.826 86.5801C185.826 85.6775 185.094 84.9458 184.191 84.9458C183.289 84.9458 182.557 85.6775 182.557 86.5801C182.557 87.4827 183.289 88.2144 184.191 88.2144Z" fill="#A9D1FF"/>
<path d="M190.394 88.2144C191.297 88.2144 192.029 87.4827 192.029 86.5801C192.029 85.6775 191.297 84.9458 190.394 84.9458C189.492 84.9458 188.76 85.6775 188.76 86.5801C188.76 87.4827 189.492 88.2144 190.394 88.2144Z" fill="#A9D1FF"/>
<path d="M196.56 88.2144C197.463 88.2144 198.194 87.4827 198.194 86.5801C198.194 85.6775 197.463 84.9458 196.56 84.9458C195.657 84.9458 194.926 85.6775 194.926 86.5801C194.926 87.4827 195.657 88.2144 196.56 88.2144Z" fill="#A9D1FF"/>
<path d="M202.763 88.2144C203.665 88.2144 204.397 87.4827 204.397 86.5801C204.397 85.6775 203.665 84.9458 202.763 84.9458C201.86 84.9458 201.129 85.6775 201.129 86.5801C201.129 87.4827 201.86 88.2144 202.763 88.2144Z" fill="#A9D1FF"/>
<path d="M93.86 220.554L90.2571 226.683L84.76 227.612L82.6429 217.62L82.7914 213.497L82.8657 211.009C82.8657 211.009 92.82 208.892 92.9314 208.929C93.0057 208.966 93.34 213.386 93.6 216.766C93.7486 218.846 93.86 220.554 93.86 220.554Z" fill="#FFC5B2"/>
<path d="M82.6429 213.089L93.6371 217.434L93.1171 211.677L82.6429 213.089Z" fill="black"/>
<path d="M82.0486 226.348C79.8943 225.866 77.8886 225.011 76.0686 223.86C75.4371 223.451 74.6571 222.931 74.0629 222.188C73.1343 221.074 72.5771 219.217 73.5429 218.288C74.3229 217.546 75.4372 217.88 76.3657 218.4C78.3343 219.551 79.82 221.223 81.2686 222.857L80.8229 223.266C79.4114 221.668 77.9257 220.034 76.0314 218.957C75.3629 218.548 74.4714 218.214 73.9143 218.771C73.2086 219.44 73.7286 221 74.4714 221.891C75.0286 222.56 75.7714 223.08 76.3657 223.451C78.1486 224.566 80.1171 225.383 82.16 225.866L82.0486 226.348Z" fill="#453447"/>
<path d="M80.3771 223.897C79.4485 223.526 78.6314 222.82 78.1114 221.966C77.1457 220.406 77.4428 218.846 78.3714 218.066C79.56 217.063 81.38 217.471 81.8628 219.811C82.0485 220.703 82.0485 222.114 82.8285 222.671C83.0514 222.82 83.3114 222.894 83.5343 222.82L83.6828 223.377C83.3114 223.488 82.8657 223.377 82.4943 223.154C81.4914 222.448 81.4914 220.926 81.3057 219.96C80.9343 218.103 79.6343 217.806 78.78 218.548C78.0743 219.143 77.8143 220.406 78.6314 221.706C79.1143 222.448 79.82 223.08 80.6371 223.414L80.3771 223.897Z" fill="#453447"/>
<path d="M94.5286 234.334L66.4114 234.297C66.4114 234.297 65.26 229.394 74.3229 227.686C74.3229 227.686 81.4171 223.377 82.6429 217.434C82.6429 217.434 85.1686 216.989 84.3143 220.331C84.2771 220.406 84.2771 220.48 84.2771 220.48C84.2771 220.48 84.2771 220.48 84.2771 220.517C84.2771 220.517 93.8972 220.591 93.8229 220.517C93.7857 220.48 94.5286 234.334 94.5286 234.334Z" fill="#FDD835"/>
<path d="M66.5971 232.477C66.2257 233.517 66.4114 234.297 66.4114 234.297L94.5286 234.334C94.5286 234.334 94.4914 233.591 94.4171 232.514L66.5971 232.477Z" fill="#231826"/>
<path d="M84.3514 220.331C84.3143 220.406 84.3143 220.48 84.3143 220.48C84.3143 220.48 84.3143 220.48 84.3143 220.517C84.3143 220.517 82.0857 229.32 74.36 227.686C74.36 227.686 81.4543 223.377 82.68 217.434C82.68 217.471 85.2057 217.026 84.3514 220.331Z" fill="#DCEBFF"/>
<path d="M84.7229 221.929H80.4143C80.2657 221.929 80.1172 221.817 80.1172 221.631C80.1172 221.483 80.2286 221.334 80.4143 221.334H84.7229C84.8714 221.334 85.02 221.446 85.02 221.631C85.02 221.817 84.9086 221.929 84.7229 221.929ZM83.0514 224.751L78.0743 224.417C77.9257 224.417 77.8143 224.269 77.8143 224.12C77.8143 223.971 77.9629 223.86 78.1114 223.86L83.0886 224.194C83.2372 224.194 83.3486 224.343 83.3486 224.491C83.3486 224.677 83.2 224.788 83.0514 224.751ZM80.86 226.98L76.8486 225.68C76.7 225.643 76.6257 225.457 76.6629 225.308C76.7 225.16 76.8857 225.086 77.0343 225.123L81.0457 226.423C81.1943 226.46 81.2686 226.646 81.2314 226.794C81.1572 226.943 81.0086 227.017 80.86 226.98ZM78.26 228.54L75.3257 226.794C75.1772 226.72 75.14 226.534 75.2143 226.423C75.2886 226.274 75.4743 226.237 75.5857 226.311L78.52 228.057C78.6686 228.131 78.7057 228.317 78.6314 228.429C78.5572 228.577 78.3714 228.651 78.26 228.54Z" fill="#453447"/>
<path d="M117.743 170.783L121.94 176.503L120.64 181.926L110.611 179.957L106.86 178.212L104.631 177.172C104.631 177.172 106.6 167.18 106.674 167.069C106.711 166.994 110.946 168.443 114.14 169.52C116.146 170.226 117.743 170.783 117.743 170.783Z" fill="#FFC5B2"/>
<path d="M106.526 178.174L114.846 169.78L109.311 167.997L106.526 178.174Z" fill="black"/>
<path d="M118.449 183.932C116.851 186.16 113.843 188.946 111.466 189.652C110.091 190.06 108.123 189.837 107.677 188.574C107.306 187.572 108.011 186.68 108.903 186.049C110.723 184.712 112.84 183.969 114.92 183.263L115.106 183.82C113.1 184.526 110.983 185.232 109.237 186.532C108.606 186.977 107.937 187.683 108.234 188.389C108.569 189.317 110.203 189.429 111.317 189.094C113.509 188.426 116.406 185.752 117.966 183.56L118.449 183.932Z" fill="#453447"/>
<path d="M115.551 184.526C114.846 185.231 113.88 185.714 112.877 185.863C111.094 186.123 109.757 185.269 109.386 184.08C108.94 182.594 110.017 181.071 112.357 181.554C113.286 181.74 114.549 182.26 115.366 181.777C115.589 181.629 115.737 181.406 115.774 181.22L116.369 181.294C116.071 183.374 112.989 182.297 112.246 182.149C110.389 181.74 109.609 182.817 109.943 183.894C110.203 184.786 111.28 185.491 112.803 185.269C113.694 185.12 114.511 184.711 115.143 184.08L115.551 184.526Z" fill="#453447"/>
<path d="M130.743 175.574L119.674 201.426C119.674 201.426 114.734 200.534 116.703 191.546C116.703 191.546 115.514 183.337 110.537 179.883C110.537 179.883 111.131 177.394 113.843 179.474C113.917 179.511 113.954 179.549 113.954 179.586C113.954 179.586 117.817 170.746 117.706 170.783C117.669 170.82 130.743 175.574 130.743 175.574Z" fill="#FDD835"/>
<path d="M118.077 200.534C118.894 201.277 119.711 201.426 119.711 201.426L130.78 175.574C130.78 175.574 130.111 175.314 129.034 174.943L118.077 200.534Z" fill="#231826"/>
<path d="M113.843 179.437C113.917 179.474 113.954 179.511 113.954 179.549C113.954 179.549 121.197 185.046 116.629 191.509C116.629 191.509 115.44 183.3 110.463 179.846C110.537 179.846 111.131 177.357 113.843 179.437Z" fill="#DCEBFF"/>
<path d="M115.477 179.734L113.769 183.709C113.694 183.857 113.546 183.931 113.397 183.857C113.249 183.783 113.174 183.634 113.249 183.486L114.957 179.511C115.031 179.363 115.18 179.289 115.329 179.363C115.477 179.4 115.514 179.586 115.477 179.734ZM117.409 182.371L115.143 186.791C115.069 186.94 114.883 186.977 114.771 186.903C114.623 186.829 114.586 186.643 114.66 186.531L116.926 182.111C117 181.963 117.186 181.926 117.297 182C117.446 182.074 117.483 182.26 117.409 182.371ZM118.597 185.269L115.849 188.426C115.737 188.537 115.551 188.574 115.44 188.463C115.329 188.351 115.291 188.166 115.403 188.054L118.151 184.897C118.263 184.786 118.449 184.749 118.56 184.86C118.671 184.971 118.671 185.157 118.597 185.269ZM119.006 188.277L116.257 190.32C116.146 190.394 115.96 190.394 115.849 190.246C115.737 190.134 115.774 189.949 115.923 189.837L118.671 187.794C118.783 187.72 118.969 187.72 119.08 187.869C119.154 188.017 119.154 188.203 119.006 188.277Z" fill="#453447"/>
<path d="M98.9486 88.6228L86.4314 102.217C82.1229 106.897 74.6571 106.674 70.6457 101.771L57.4229 85.6142L65.9286 77.2199L78.1857 91.2971L87.36 81.8999C89.7 79.5228 92.56 77.7771 95.7543 76.8114L99.2086 75.9199L98.9486 88.6228Z" fill="#FDD835"/>
<path d="M93.7857 83.8313L90.2943 98.0942L96.98 90.8142L93.7857 83.8313Z" fill="#1D2869"/>
<path d="M125.914 117.037L103.109 163.949L100.88 215.503L70.7571 215.02L76.0314 168.666C76.6257 163.169 78.2229 157.857 80.7114 152.917L100.583 113.806L125.951 110.24V117.037H125.914Z" fill="#394084"/>
<path d="M75.9571 168.666L101.66 195.557L102.477 177.246L75.9571 168.666Z" fill="black"/>
<path d="M115.626 138.134L84.24 145.897L86.3943 141.663L115.626 138.134Z" fill="black"/>
<path d="M155.034 64.517C155.034 64.517 155.926 60.4313 157.486 59.6142C159.046 58.8342 160.271 59.7628 160.271 59.7628C160.271 59.7628 167.737 50.6999 169.594 51.9999C171.451 53.2999 166.734 58.2399 166.734 58.2399C166.734 58.2399 169.78 61.2856 170.077 63.8485C170.411 66.8942 161.423 72.0942 161.051 71.1656L155.034 64.517Z" fill="#EF9A9A"/>
<path d="M107.566 140.734L79.8571 143.928L115.7 163.8L104.334 188.908C104.334 188.908 48.2857 155.257 54.2286 134.866C58.9457 118.634 93.5257 118.003 93.5257 118.003L126.509 112.803L126.694 118.448C127.14 129.74 118.783 139.434 107.566 140.734Z" fill="#394084"/>
<path d="M110.871 168.034L72.3914 141.923L103.629 136.054C115.551 134.68 123.946 126.026 123.574 115.477H123.946C124.317 126.248 115.811 135.051 103.703 136.463L73.3571 142.146L111.094 167.774L110.871 168.034Z" fill="white"/>
<path d="M130.111 114.994L95.1971 117.631L93.7857 83.7942C93.6371 79.857 96.3485 76.4027 100.211 75.6227L117.706 71.6856C122.46 70.7199 126.954 74.1742 127.289 79.0399L130.111 114.994Z" fill="#FDD835"/>
<path d="M160.271 59.7627C160.866 59.9856 161.497 60.2827 162.054 60.6541C162.611 61.0256 163.169 61.397 163.577 61.9913C164.097 62.8084 163.911 63.5141 162.983 63.7741C162.277 63.9598 161.609 63.8856 160.94 63.8113L161.126 63.5884C161.386 64.3684 161.534 65.3341 161.423 66.1513C161.311 67.0798 160.94 67.7856 160.16 68.3056C160.791 67.7113 161.126 67.117 161.163 66.1141C161.2 65.4084 161.014 64.4056 160.754 63.6998L160.643 63.4027L160.94 63.4398C161.571 63.5141 162.24 63.5513 162.834 63.4027C163.54 63.217 163.614 62.7341 163.243 62.1398C162.909 61.6198 162.389 61.2113 161.869 60.8027C161.386 60.4313 160.829 60.097 160.271 59.7627Z" fill="#E57373"/>
<path d="M164.654 60.9885C163.54 61.88 163.206 63.4028 165.137 63.96C165.286 63.9971 165.286 64.1828 165.211 64.2571C164.914 64.48 164.469 64.9628 164.654 65.26C164.877 65.5942 165.88 65.9657 166.734 65.5942C166.809 65.5571 166.92 65.5942 166.957 65.6685C166.994 65.7428 166.957 65.8171 166.883 65.8542C166.511 66.0771 165.954 66.4857 166.103 66.8942C166.251 67.3028 166.92 67.5628 167.329 67.7114C166.846 67.6371 166.14 67.4142 165.917 66.9685C165.694 66.4485 166.251 65.8914 166.734 65.5942L166.883 65.8542C165.843 66.3742 164.654 65.8914 164.357 65.4457C164.023 64.9257 164.58 64.3314 165.026 63.9971L165.063 64.2942C162.871 63.5514 163.354 61.6942 164.654 60.9885Z" fill="#E57373"/>
<path d="M117 130.334C110.871 119.823 119.563 116.777 123.574 119.154L123.389 119.488C119.6 117.26 111.429 120.083 117.297 130.186L117 130.334Z" fill="white"/>
<path d="M107.6 172.932L102.13 182.554L102.453 182.738L107.923 173.115L107.6 172.932Z" fill="white"/>
<path d="M76.7454 208.267L76.7276 208.638L95.5735 209.543L95.5913 209.172L76.7454 208.267Z" fill="white"/>
<path d="M121.791 84.9457C122.014 85.1314 128.849 98.7257 128.849 98.7257L127.4 80.4143L121.791 84.9457Z" fill="#1D2869"/>
<path d="M163.689 71.6113L147.42 87.4713C144.783 89.9227 141.106 90.9256 137.577 90.0713L126.991 87.5456C121.977 86.357 118.114 82.3456 117.111 77.3313L115.997 72.1313L122.943 70.6456C125.097 70.1999 127.289 70.3484 129.369 71.0913L141.18 74.7684L154.626 62.177L163.689 71.6113Z" fill="#FDD835"/>
<path d="M194.554 102.403H179.363C177.357 102.403 175.723 100.769 175.723 98.7628C175.723 96.7571 177.357 95.1228 179.363 95.1228H194.554C196.56 95.1228 198.194 96.7571 198.194 98.7628C198.194 100.769 196.56 102.403 194.554 102.403Z" fill="#FEE8A0"/>
<path d="M107.714 52.8915C108.791 53.6715 109.906 54.4886 111.094 55.0829C112.32 55.6772 113.657 56.0486 114.994 55.9372C116.331 55.8258 117.669 55.1944 118.449 54.0429C118.82 53.4858 119.006 52.8172 119.043 52.1486C119.563 52.3715 120.194 52.3344 120.64 52.0001C121.197 51.5544 121.309 50.7372 121.271 49.9944C121.123 47.9515 120.194 46.0201 118.746 44.6086L107.714 52.8915Z" fill="black"/>
<path d="M111.466 65.8913C111.243 67.1913 111.02 69.0856 111.131 71.1656C111.169 71.8342 111.243 72.4656 111.354 73.1342C111.354 73.1342 107.826 81.9742 102.886 81.1199C97.9828 80.2656 101.214 73.6171 101.214 73.6171V62.6599L111.8 64.2199C111.8 64.2199 111.614 64.8513 111.466 65.8913Z" fill="#EF9A9A"/>
<path d="M111.466 65.8914C111.243 67.1914 111.02 69.0857 111.131 71.1657C109.46 69.8285 106.414 68.0457 104.891 66.4857C102.774 64.2942 110.871 64.2571 110.871 64.2571L111.429 64.9257V65.8914H111.466Z" fill="#E57373"/>
<path d="M113.657 67.86C106.934 70.3485 100.694 62.92 100.694 62.92C100.694 62.92 97.5743 63.4028 97.5743 59.3542C97.5372 55.3428 101.029 58.7971 101.029 58.7971C101.029 58.7971 99.1714 48.6942 104.186 47.1714C109.2 45.6485 116.629 49.6971 116.629 49.6971C116.629 49.6971 116.666 49.8085 116.703 49.9942C117.186 52.1485 119.823 65.5571 113.657 67.86Z" fill="#EF9A9A"/>
<path d="M102.254 60.4313C101.363 61.0627 101.066 58.7599 101.066 58.7599C101.066 58.7599 97.5743 55.3056 97.6114 59.317C97.6486 63.3656 100.731 62.8827 100.731 62.8827C101.103 63.4399 101.289 64.2942 101.437 65.2227C98.6143 65.2227 96.0886 63.3284 95.3457 60.617C94.3429 57.0513 94.3057 53.2627 95.4943 50.8484C96.46 48.8799 96.7571 47.8399 96.9429 47.2456C96.98 45.9827 97.4629 44.6827 98.2429 43.6799C99.6171 41.9342 101.846 41.0056 104.037 40.9684C106.229 40.9313 108.42 41.7856 110.166 43.0856C110.611 43.4199 111.057 43.7542 111.577 43.8284C112.171 43.9027 112.691 43.6056 113.211 43.3456C114.957 42.4913 117 41.9713 118.894 42.677C119.637 42.9742 120.306 43.457 120.789 44.1256C122.051 45.8713 121.309 47.617 120.269 48.9542C118.783 50.8484 116.629 52.1856 114.251 52.5942C111.911 53.0399 109.386 52.557 107.343 51.3313C107.269 51.2942 107.231 51.257 107.157 51.2199C106.117 52.4084 104.594 53.1142 103.034 53.2256C103.777 55.6027 104.186 59.0199 102.254 60.4313Z" fill="black"/>
<path d="M108.494 56.9772C108.905 56.9772 109.237 56.6446 109.237 56.2343C109.237 55.824 108.905 55.4915 108.494 55.4915C108.084 55.4915 107.751 55.824 107.751 56.2343C107.751 56.6446 108.084 56.9772 108.494 56.9772Z" fill="black"/>
<path d="M114.474 55.9742C114.885 55.9742 115.217 55.6417 115.217 55.2314C115.217 54.8211 114.885 54.4885 114.474 54.4885C114.064 54.4885 113.731 54.8211 113.731 55.2314C113.731 55.6417 114.064 55.9742 114.474 55.9742Z" fill="black"/>
<path d="M112.357 61.9543C112.283 61.8429 112.32 61.6572 112.431 61.5829C112.654 61.4343 112.877 61.3229 113.026 61.1372C113.471 60.6543 113.211 60.2829 112.84 59.8C112.803 59.7629 111.689 58.5 111.206 56.5686C111.169 56.42 111.243 56.2715 111.391 56.2343C111.54 56.1972 111.689 56.2715 111.726 56.42C112.171 58.1657 113.1 59.2057 113.249 59.4286C113.843 60.1343 114.103 60.8029 113.434 61.5086C113.211 61.7315 112.989 61.88 112.729 62.0286C112.617 62.1029 112.431 62.1029 112.357 61.9543Z" fill="#E57373"/>
<path d="M110.463 63.6258C110.389 63.5144 110.389 63.3286 110.537 63.2544C110.649 63.1801 110.834 63.1801 110.909 63.3286C111.466 64.1086 112.617 64.2944 113.36 63.7001C113.471 63.5886 113.657 63.6258 113.769 63.7372C113.88 63.8486 113.843 64.0344 113.731 64.1458C112.691 64.8886 111.206 64.6658 110.463 63.6258Z" fill="#E57373"/>
<path d="M50.2543 97.0542C29.4543 91.6685 25.8885 67.9714 25.8885 67.9714L43.9771 58.5742L64.1086 61.6942C64.0714 61.7314 68.2686 85.3171 50.2543 97.0542Z" fill="#DCEBFF"/>
<path d="M50.2543 97.0542L43.94 58.6113L64.0714 61.7313C64.0714 61.7313 68.2685 85.317 50.2543 97.0542Z" fill="#A9D1FF"/>
<path d="M49.8457 94.4542C38.3686 91.0371 31.2743 80.7113 28.5629 69.2342L44.3486 61.0256L61.9543 63.7371C62.1772 65.9285 62.3629 70.0142 61.5829 74.6942C60.1343 83.3856 56.1972 89.9971 49.8457 94.4542Z" fill="#67DECA"/>
<path d="M61.9543 63.7742C62.1771 65.9656 62.3628 70.0513 61.5828 74.7313C60.1343 83.3485 56.1971 89.997 49.8457 94.4542L44.3485 61.0627L61.9543 63.7742Z" fill="#2ED5B8"/>
<path d="M47.6914 76.9972L49.5486 81.0829L45.7971 81.7144L46.2429 77.2572C44.8686 77.1458 43.68 76.1058 43.42 74.6944C43.16 73.0229 44.2743 71.4258 45.9457 71.1658C47.6171 70.9058 49.2143 72.0201 49.4743 73.6915C49.7714 75.1029 48.9914 76.4772 47.6914 76.9972Z" fill="black"/>
<path d="M65.9657 77.2199L65.8543 73.9513C65.8171 72.9113 65.26 71.9827 64.3314 71.4627L61.9914 70.1627C60.7657 69.457 59.2057 69.977 58.6114 71.277C58.0543 72.5027 58.6114 73.9142 59.8 74.4713L63.7 76.2542L62.6228 80.5256L65.9657 77.2199Z" fill="#EF9A9A"/>
<path d="M83.9429 64.5172C80.7114 63.7001 77.8886 61.3972 76.1429 58.203C74.5829 55.343 74.1371 52.1487 74.8057 49.2887C70.46 47.7287 65.3714 45.463 64.7029 40.8944C63.96 35.5087 68.9371 32.2772 73.9886 30.3087C86.2457 25.5544 100.063 24.403 112.914 27.0772L112.84 27.4487C100.063 24.8115 86.2829 25.963 74.1371 30.6801C69.2714 32.5744 64.3314 35.6944 65.0743 40.8572C65.7057 45.2401 70.72 47.4687 74.88 48.9544C75.3629 47.2087 76.2914 45.3887 77.9257 44.6087C79.3743 43.903 81.4543 44.3858 82.0857 45.8715C82.7914 47.5801 81.2686 49.5115 79.4857 49.9201C78 50.2544 76.4771 49.8458 75.14 49.4001C74.5086 52.1858 74.9543 55.2687 76.44 58.0172C78.1114 61.1372 80.8971 63.3658 83.98 64.1458L83.9429 64.5172ZM75.2514 49.0287C76.5514 49.4744 78 49.883 79.4114 49.5487C80.9714 49.1772 82.3457 47.5058 81.7514 46.0201C81.2314 44.7201 79.3743 44.3115 78.1114 44.943C76.5886 45.6487 75.6971 47.3944 75.2514 49.0287Z" fill="#DCEBFF"/>
<path d="M152.36 148.571C143.631 146.714 135.98 140.14 132.86 131.82L133.194 131.671C136.277 139.88 143.854 146.38 152.434 148.2C164.691 150.8 173.086 143.149 171.414 134.457C170.114 134.754 168.814 134.977 167.477 135.089C162.686 135.497 160.68 133.343 160.606 131.263C160.494 128.217 164.506 126.026 168.369 128.811C170.077 130 171.229 131.82 171.711 134.011C176.614 132.749 181.183 130.111 184.637 126.36C189.057 121.606 191.657 115.106 191.731 108.606H192.103C192.029 115.217 189.429 121.791 184.934 126.62C181.443 130.409 176.8 133.083 171.786 134.346C173.494 143.409 164.766 151.209 152.36 148.571ZM160.94 131.263C161.014 133.12 162.834 135.089 167.44 134.717C168.74 134.606 170.077 134.383 171.34 134.086C170.857 131.969 169.743 130.26 168.146 129.109C164.58 126.62 160.829 128.403 160.94 131.263Z" fill="#DCEBFF"/>
</svg>
