<svg width="393" height="852" viewBox="0 0 393 852" fill="none" xmlns="http://www.w3.org/2000/svg">
<g id="Decoration_shape">
<g id="Vector">
<path d="M-682 166.783L-558.143 42.9266L579.573 1180.64L455.717 1304.5L-682 166.783Z" fill="#59A7F6" style="fill:#59A7F6;fill:color(display-p3 0.3490 0.6549 0.9647);fill-opacity:1;"/>
<path d="M-558.143 42.9266L-434.287 -80.93L703.43 1056.79L579.573 1180.64L-558.143 42.9266Z" fill="#3892F3" style="fill:#3892F3;fill:color(display-p3 0.2196 0.5725 0.9529);fill-opacity:1;"/>
<path d="M-434.287 -80.93L-310.43 -204.787L827.287 932.93L703.43 1056.79L-434.287 -80.93Z" fill="#147AF3" style="fill:#147AF3;fill:color(display-p3 0.0784 0.4784 0.9529);fill-opacity:1;"/>
<path d="M-310.43 -204.787L-186.573 -328.643L951.143 809.073L827.287 932.93L-310.43 -204.787Z" fill="#0265DC" style="fill:#0265DC;fill:color(display-p3 0.0078 0.3961 0.8627);fill-opacity:1;"/>
<path d="M-186.573 -328.643L-62.7166 -452.5L1075 685.217L951.143 809.073L-186.573 -328.643Z" fill="#0054B6" style="fill:#0054B6;fill:color(display-p3 0.0000 0.3294 0.7137);fill-opacity:1;"/>
</g>
<g id="Vector_2" style="mix-blend-mode:multiply">
<path d="M-682 685.217L-558.143 809.073L579.573 -328.643L455.717 -452.5L-682 685.217Z" fill="#59A7F6" style="fill:#59A7F6;fill:color(display-p3 0.3490 0.6549 0.9647);fill-opacity:1;"/>
<path d="M-558.143 809.073L-434.287 932.93L703.43 -204.787L579.573 -328.643L-558.143 809.073Z" fill="#3892F3" style="fill:#3892F3;fill:color(display-p3 0.2196 0.5725 0.9529);fill-opacity:1;"/>
<path d="M-434.287 932.93L-310.43 1056.79L827.287 -80.9301L703.43 -204.787L-434.287 932.93Z" fill="#147AF3" style="fill:#147AF3;fill:color(display-p3 0.0784 0.4784 0.9529);fill-opacity:1;"/>
<path d="M-310.43 1056.79L-186.573 1180.64L951.143 42.9266L827.287 -80.9301L-310.43 1056.79Z" fill="#0265DC" style="fill:#0265DC;fill:color(display-p3 0.0078 0.3961 0.8627);fill-opacity:1;"/>
<path d="M-186.573 1180.64L-62.7166 1304.5L1075 166.783L951.143 42.9266L-186.573 1180.64Z" fill="#0054B6" style="fill:#0054B6;fill:color(display-p3 0.0000 0.3294 0.7137);fill-opacity:1;"/>
</g>
</g>
</svg>
