<svg width="120" height="107" viewBox="0 0 120 107" fill="none" xmlns="http://www.w3.org/2000/svg">
<path d="M45.9333 36.6672C45.9333 48.9383 51.9487 59.7957 61.1077 66.3003C70.2122 59.6912 76.1598 48.806 76.1598 36.493C76.1598 24.1801 70.3073 13.4829 61.3317 6.85986C52.037 13.3506 45.9265 24.2846 45.9265 36.6672H45.9333Z" fill="white"/>
<path d="M41.0314 36.6671C41.0314 23.3723 47.2301 11.5329 56.8167 4.02538C51.9487 1.46251 46.4357 0 40.5833 0C20.9279 0 5 16.3383 5 36.5C5 56.6617 20.9279 73 40.5833 73C46.3339 73 51.7586 71.5932 56.5655 69.1069C47.1283 61.5855 41.0314 49.8506 41.0314 36.6671Z" fill="white"/>
<path d="M81.0617 72.5055C61.7934 72.5055 46.1234 56.4249 46.1234 36.6671C46.1234 16.9093 61.8001 0.828735 81.0617 0.828735C100.323 0.828735 116 16.9093 116 36.6671C116 56.4249 100.323 72.5055 81.0617 72.5055ZM81.0617 5.85001C64.4955 5.85001 51.0254 19.6742 51.0254 36.6671C51.0254 53.6601 64.5023 67.4773 81.0617 67.4773C97.6211 67.4773 111.105 53.6531 111.105 36.6671C111.105 19.6812 97.6278 5.85001 81.0617 5.85001Z" fill="white"/>
<path d="M11.2435 91.624C11.2435 89.992 11.6195 88.528 12.3715 87.232C13.1395 85.936 14.1715 84.928 15.4675 84.208C16.7795 83.472 18.2115 83.104 19.7635 83.104C21.5395 83.104 23.1155 83.544 24.4915 84.424C25.8835 85.288 26.8915 86.52 27.5155 88.12H24.2275C23.7955 87.24 23.1955 86.584 22.4275 86.152C21.6595 85.72 20.7715 85.504 19.7635 85.504C18.6595 85.504 17.6755 85.752 16.8115 86.248C15.9475 86.744 15.2675 87.456 14.7715 88.384C14.2915 89.312 14.0515 90.392 14.0515 91.624C14.0515 92.856 14.2915 93.936 14.7715 94.864C15.2675 95.792 15.9475 96.512 16.8115 97.024C17.6755 97.52 18.6595 97.768 19.7635 97.768C20.7715 97.768 21.6595 97.552 22.4275 97.12C23.1955 96.688 23.7955 96.032 24.2275 95.152H27.5155C26.8915 96.752 25.8835 97.984 24.4915 98.848C23.1155 99.712 21.5395 100.144 19.7635 100.144C18.1955 100.144 16.7635 99.784 15.4675 99.064C14.1715 98.328 13.1395 97.312 12.3715 96.016C11.6195 94.72 11.2435 93.256 11.2435 91.624ZM36.454 100.216C35.206 100.216 34.078 99.936 33.07 99.376C32.062 98.8 31.27 98 30.694 96.976C30.118 95.936 29.83 94.736 29.83 93.376C29.83 92.032 30.126 90.84 30.718 89.8C31.31 88.76 32.118 87.96 33.142 87.4C34.166 86.84 35.31 86.56 36.574 86.56C37.838 86.56 38.982 86.84 40.006 87.4C41.03 87.96 41.838 88.76 42.43 89.8C43.022 90.84 43.318 92.032 43.318 93.376C43.318 94.72 43.014 95.912 42.406 96.952C41.798 97.992 40.966 98.8 39.91 99.376C38.87 99.936 37.718 100.216 36.454 100.216ZM36.454 97.84C37.158 97.84 37.814 97.672 38.422 97.336C39.046 97 39.55 96.496 39.934 95.824C40.318 95.152 40.51 94.336 40.51 93.376C40.51 92.416 40.326 91.608 39.958 90.952C39.59 90.28 39.102 89.776 38.494 89.44C37.886 89.104 37.23 88.936 36.526 88.936C35.822 88.936 35.166 89.104 34.558 89.44C33.966 89.776 33.494 90.28 33.142 90.952C32.79 91.608 32.614 92.416 32.614 93.376C32.614 94.8 32.974 95.904 33.694 96.688C34.43 97.456 35.35 97.84 36.454 97.84ZM47.4147 85.024C46.9187 85.024 46.5027 84.856 46.1667 84.52C45.8307 84.184 45.6627 83.768 45.6627 83.272C45.6627 82.776 45.8307 82.36 46.1667 82.024C46.5027 81.688 46.9187 81.52 47.4147 81.52C47.8947 81.52 48.3027 81.688 48.6387 82.024C48.9747 82.36 49.1427 82.776 49.1427 83.272C49.1427 83.768 48.9747 84.184 48.6387 84.52C48.3027 84.856 47.8947 85.024 47.4147 85.024ZM48.7587 86.776V100H46.0227V86.776H48.7587ZM59.0228 86.56C60.0628 86.56 60.9908 86.776 61.8068 87.208C62.6388 87.64 63.2868 88.28 63.7508 89.128C64.2148 89.976 64.4468 91 64.4468 92.2V100H61.7348V92.608C61.7348 91.424 61.4388 90.52 60.8468 89.896C60.2548 89.256 59.4468 88.936 58.4228 88.936C57.3988 88.936 56.5828 89.256 55.9748 89.896C55.3828 90.52 55.0868 91.424 55.0868 92.608V100H52.3508V86.776H55.0868V88.288C55.5348 87.744 56.1028 87.32 56.7908 87.016C57.4948 86.712 58.2388 86.56 59.0228 86.56ZM79.6007 88.288C79.6007 89.136 79.4007 89.936 79.0007 90.688C78.6007 91.44 77.9607 92.056 77.0807 92.536C76.2007 93 75.0727 93.232 73.6967 93.232H70.6727V100H67.9367V83.32H73.6967C74.9767 83.32 76.0567 83.544 76.9367 83.992C77.8327 84.424 78.4967 85.016 78.9287 85.768C79.3767 86.52 79.6007 87.36 79.6007 88.288ZM73.6967 91C74.7367 91 75.5127 90.768 76.0247 90.304C76.5367 89.824 76.7927 89.152 76.7927 88.288C76.7927 86.464 75.7607 85.552 73.6967 85.552H70.6727V91H73.6967ZM81.2982 93.328C81.2982 92 81.5702 90.824 82.1142 89.8C82.6742 88.776 83.4262 87.984 84.3702 87.424C85.3302 86.848 86.3862 86.56 87.5382 86.56C88.5782 86.56 89.4822 86.768 90.2502 87.184C91.0342 87.584 91.6582 88.088 92.1222 88.696V86.776H94.8822V100H92.1222V98.032C91.6582 98.656 91.0262 99.176 90.2262 99.592C89.4262 100.008 88.5142 100.216 87.4902 100.216C86.3542 100.216 85.3142 99.928 84.3702 99.352C83.4262 98.76 82.6742 97.944 82.1142 96.904C81.5702 95.848 81.2982 94.656 81.2982 93.328ZM92.1222 93.376C92.1222 92.464 91.9302 91.672 91.5462 91C91.1782 90.328 90.6902 89.816 90.0822 89.464C89.4742 89.112 88.8182 88.936 88.1142 88.936C87.4102 88.936 86.7542 89.112 86.1462 89.464C85.5382 89.8 85.0422 90.304 84.6582 90.976C84.2902 91.632 84.1062 92.416 84.1062 93.328C84.1062 94.24 84.2902 95.04 84.6582 95.728C85.0422 96.416 85.5382 96.944 86.1462 97.312C86.7702 97.664 87.4262 97.84 88.1142 97.84C88.8182 97.84 89.4742 97.664 90.0822 97.312C90.6902 96.96 91.1782 96.448 91.5462 95.776C91.9302 95.088 92.1222 94.288 92.1222 93.376ZM110.38 86.776L102.268 106.216H99.4358L102.124 99.784L96.9158 86.776H99.9638L103.684 96.856L107.548 86.776H110.38Z" fill="white"/>
</svg>
