<svg width="247" height="170" viewBox="0 0 247 170" fill="none" xmlns="http://www.w3.org/2000/svg">
<path d="M6.18983 117.799C3.97983 131.549 0.649822 142.199 -0.960178 146.889C-1.52018 148.529 -2.97017 149.709 -4.69017 149.939C-6.71017 150.219 -8.63018 150.389 -10.4102 150.319C-15.5002 150.129 -19.4402 148.009 -21.1902 141.009C-21.4002 140.169 -21.6102 139.089 -21.8002 137.819C-24.0802 123.299 -25.4602 83.9794 -25.4602 83.9794C-35.2602 88.4994 -51.0802 90.3894 -51.0802 90.3894C-58.6202 82.0994 -54.4702 62.1294 -54.4702 62.1294C-54.4702 62.1294 -24.3202 54.9694 -6.78017 65.0794C10.7698 75.1894 6.18983 117.789 6.18983 117.789V117.799Z" fill="#FD977D"/>
<path d="M25.2699 125.909C25.3499 127.679 24.5899 129.369 23.2199 130.489C22.3599 131.199 21.2799 131.989 20.0699 132.649C16.5599 134.579 11.9399 135.519 8.21992 130.719C5.56992 127.309 4.14991 122.229 3.39991 117.229C2.16991 108.979 2.76992 100.949 2.76992 100.949C-4.41008 93.7894 -8.80009 72.3094 -8.80009 72.3094C-18.5101 73.0594 -25.4701 69.6694 -25.4701 69.6694C-37.9001 72.3094 -51.4701 65.8994 -51.4701 65.8994C-51.4701 65.8994 -51.0901 47.8094 -51.4701 46.3094C-51.8501 44.7994 -23.5901 34.2494 -7.38008 46.3094C8.81992 58.3694 26.6499 89.1694 26.6499 89.1694C24.6999 105.749 25.0199 120.229 25.2599 125.909H25.2699Z" fill="#FD977D"/>
<path d="M4.37984 127.429C4.37984 127.429 2.48984 128.659 0.449835 136.319C-1.59016 143.979 -0.890161 146.689 -0.890161 146.689C-0.890161 146.689 4.41984 135.759 4.37984 127.429Z" fill="#FDE8D7"/>
<path d="M3.3999 117.189L25.7499 98.6794L26.6599 89.1694L3.3999 108.699V117.189Z" fill="#DF7C73"/>
<path d="M3.39995 108.699V115.889C3.39995 115.889 -11.85 126.749 -14.14 135.039C-16.43 143.329 -13.82 148.819 -10.41 150.309C-15.5 150.119 -19.44 147.999 -21.19 140.999C-21.4 140.159 -21.61 139.079 -21.8 137.809C-21.26 133.579 -20.18 129.919 -20.18 129.919L3.40996 108.689L3.39995 108.699Z" fill="#DF7C73"/>
<path d="M25.3299 105.879C25.3299 105.879 23.0199 107.969 22.8899 115.889C22.7599 123.809 25.2699 125.899 25.2699 125.899C25.2699 125.899 27.3899 113.949 25.3299 105.869V105.879Z" fill="#FDE8D7"/>
<path d="M20.0699 132.649C16.5599 134.579 11.9399 135.519 8.21991 130.719C5.56991 127.309 4.1499 122.229 3.3999 117.229V117.189L12.0299 110.049C10.7999 111.129 7.29991 115.229 8.26991 121.199C9.39991 128.169 14.9299 134.769 20.0799 132.649H20.0699Z" fill="#DF7C73"/>
<path d="M-8.14014 50.9694C-8.14014 50.9694 -3.19014 55.5594 1.04986 51.9494C7.92986 45.8394 21.2899 35.2394 31.7499 34.5194C30.2899 33.1194 28.7398 32.0294 26.5398 30.4894C18.9998 25.2094 2.77985 11.6494 2.77985 11.6494C2.77985 11.6494 -9.66015 31.0894 -14.6501 42.6994C-14.3301 42.7394 -14.1301 42.8094 -14.1301 42.8094C-14.1301 42.8094 -11.8701 46.7894 -8.14014 50.9794V50.9694Z" fill="#FDB084"/>
<path d="M48.3899 60.9994C42.7999 51.1494 39.3999 45.1394 36.8699 41.1594C36.8699 41.1594 36.8699 41.1694 36.8699 41.1794C36.8699 41.1794 9.99986 59.6394 2.35986 64.9094C3.62986 65.7394 4.89986 66.4494 6.17986 67.0294C6.17986 67.0294 23.5099 92.6494 36.6999 93.4094C49.8899 94.1594 62.7699 86.3694 48.3799 60.9994H48.3899Z" fill="#FDB084"/>
<path d="M36.87 41.1494C35.52 37.7294 31.76 34.5094 31.76 34.5094C33.35 36.0294 34.82 37.9194 36.87 41.1494Z" fill="#DF7C73"/>
<path d="M36.87 41.1594C36.87 41.1594 36.87 41.1594 36.87 41.1494C34.82 37.9194 33.34 36.0294 31.76 34.5094C21.3 35.2294 7.93997 45.8394 1.05997 51.9394C-3.18003 55.5494 -8.13003 50.9594 -8.13003 50.9594C-11.86 46.7694 -14.12 42.7894 -14.12 42.7894C-14.12 42.7894 -14.32 42.7294 -14.64 42.6794C-15.21 43.9994 -15.68 45.2194 -16.03 46.2994C-16.03 46.2994 -11.4 52.7794 -5.20003 58.7294C-4.33003 59.5694 -3.43003 60.3894 -2.51003 61.1894C-0.930033 62.5494 0.709974 63.8194 2.37997 64.9094C10.02 59.6394 36.89 41.1794 36.89 41.1794C36.89 41.1794 36.89 41.1694 36.89 41.1594H36.87Z" fill="#DF7C73"/>
<path d="M52.5699 69.7294C52.5699 69.7294 46.2999 84.1794 28.5099 90.3994L26.6599 89.1694C26.6599 89.1694 44.8399 73.0294 50.5699 65.1294C50.5699 65.1294 51.9699 68.0494 52.5699 69.7294Z" fill="#DF7C73"/>
<path d="M245.59 17.1095C244.75 16.1095 243.49 15.4695 242.08 15.4695H21.3501C18.8501 15.4695 16.8 17.4895 16.8 19.9595V40.8295V154.609C16.8 155.999 17.4501 157.249 18.4601 158.069C19.2501 158.709 20.2601 159.099 21.3501 159.099H242.08C244.58 159.099 246.63 157.079 246.63 154.609V40.8295V19.9595C246.63 18.8795 246.24 17.8895 245.59 17.1095Z" fill="#ABABAB"/>
<path d="M31.8 144.929L207.37 37.2095H16.8V149.699C16.8 151.069 17.4501 152.309 18.4601 153.119L31.19 145.309L31.8 144.929Z" fill="white"/>
<path d="M207.37 37.2095L203.29 39.7195L198.68 42.5495L31.8 144.939L29.58 146.299L18.46 153.119C19.25 153.759 20.26 154.139 21.35 154.139H242.08C244.58 154.139 246.63 152.139 246.63 149.699V39.7095V37.1995H207.37V37.2095Z" fill="white"/>
<path d="M242.08 12.1294H21.3501C18.8501 12.1294 16.8 14.1294 16.8 16.5694V37.1994H207.37L245.59 13.7494C244.75 12.7594 243.49 12.1294 242.08 12.1294Z" fill="#304FFE"/>
<path d="M116.46 54.8995H113.65V43.2095H116.46V54.8995Z" fill="#013047"/>
<path d="M118.42 54.8995V43.2095H122.19C123.22 43.2095 124.15 43.4395 124.98 43.9095C125.81 44.3795 126.45 45.0395 126.91 45.8895C127.37 46.7395 127.61 47.6995 127.61 48.7595V49.2995C127.61 50.3695 127.38 51.3295 126.93 52.1795C126.48 53.0295 125.84 53.6895 125.02 54.1695C124.2 54.6495 123.28 54.8895 122.27 54.8995H118.42ZM121.24 45.3795V52.7295H122.22C123.03 52.7295 123.65 52.4395 124.08 51.8695C124.51 51.2995 124.73 50.4395 124.73 49.2995V48.7895C124.73 47.6595 124.51 46.8095 124.08 46.2395C123.65 45.6695 123.01 45.3795 122.18 45.3795H121.23H121.24Z" fill="#013047"/>
<path d="M142.61 50.9394C142.57 51.7494 142.35 52.4694 141.95 53.0994C141.55 53.7194 140.99 54.2094 140.26 54.5494C139.53 54.8894 138.71 55.0594 137.77 55.0594C136.23 55.0594 135.02 54.5594 134.14 53.5594C133.26 52.5594 132.81 51.1394 132.81 49.3194V48.7394C132.81 47.5894 133.01 46.5894 133.41 45.7294C133.81 44.8694 134.38 44.2094 135.13 43.7394C135.88 43.2694 136.75 43.0394 137.73 43.0394C139.15 43.0394 140.29 43.4094 141.15 44.1594C142.01 44.9094 142.5 45.9394 142.62 47.2494H139.81C139.79 46.5394 139.61 46.0294 139.27 45.7194C138.93 45.4094 138.42 45.2494 137.73 45.2494C137.04 45.2494 136.52 45.5094 136.19 46.0394C135.86 46.5594 135.69 47.3994 135.68 48.5494V49.3794C135.68 50.6294 135.84 51.5194 136.15 52.0494C136.46 52.5894 137 52.8494 137.77 52.8494C138.42 52.8494 138.91 52.6994 139.26 52.3894C139.61 52.0794 139.78 51.5994 139.81 50.9394H142.61Z" fill="#013047"/>
<path d="M150.59 52.7195H146.73L146.06 54.8995H143.05L147.34 43.2095H149.99L154.31 54.8995H151.28L150.6 52.7195H150.59ZM147.4 50.5395H149.91L148.65 46.4795L147.4 50.5395Z" fill="#013047"/>
<path d="M159.49 50.7595H157.96V54.8995H155.14V43.2095H159.74C161.13 43.2095 162.21 43.5195 162.99 44.1295C163.77 44.7495 164.16 45.6095 164.16 46.7395C164.16 47.5495 163.99 48.2295 163.67 48.7595C163.34 49.2995 162.83 49.7295 162.12 50.0595L164.56 54.7795V54.8995H161.54L159.48 50.7595H159.49ZM157.96 48.5895H159.74C160.28 48.5895 160.68 48.4495 160.95 48.1695C161.22 47.8895 161.36 47.4995 161.36 46.9895C161.36 46.4795 161.22 46.0895 160.95 45.7995C160.68 45.5095 160.28 45.3695 159.75 45.3695H157.97V48.5895H157.96Z" fill="#013047"/>
<path d="M165.88 54.8995V43.2095H169.65C170.68 43.2095 171.61 43.4395 172.44 43.9095C173.27 44.3795 173.91 45.0395 174.37 45.8895C174.83 46.7395 175.07 47.6995 175.07 48.7595V49.2995C175.07 50.3695 174.84 51.3295 174.39 52.1795C173.94 53.0295 173.3 53.6895 172.48 54.1695C171.66 54.6495 170.74 54.8895 169.73 54.8995H165.88ZM168.7 45.3795V52.7295H169.68C170.49 52.7295 171.11 52.4395 171.54 51.8695C171.97 51.2995 172.19 50.4395 172.19 49.2995V48.7895C172.19 47.6595 171.97 46.8095 171.54 46.2395C171.11 45.6695 170.47 45.3795 169.64 45.3795H168.69H168.7Z" fill="#013047"/>
<path d="M114.01 72.5695H113.05V67.8895H114.01V72.5695Z" fill="#013047"/>
<path d="M114.91 72.5695V67.8895H116.35C116.76 67.8895 117.13 67.9795 117.45 68.1695C117.77 68.3595 118.03 68.6195 118.21 68.9595C118.39 69.2995 118.48 69.6895 118.48 70.1195V70.3395C118.48 70.7695 118.39 71.1595 118.21 71.4995C118.03 71.8395 117.78 72.0995 117.45 72.2895C117.12 72.4795 116.76 72.5695 116.35 72.5695H114.9H114.91ZM115.87 68.6695V71.7895H116.34C116.72 71.7895 117.01 71.6695 117.2 71.4195C117.4 71.1695 117.5 70.8195 117.5 70.3595V70.1095C117.5 69.6295 117.4 69.2695 117.21 69.0295C117.01 68.7795 116.72 68.6595 116.35 68.6595H115.87V68.6695Z" fill="#013047"/>
<path d="M119.17 69.4895C119.17 69.3395 119.22 69.2195 119.32 69.1295C119.42 69.0395 119.54 68.9895 119.69 68.9895C119.84 68.9895 119.97 69.0395 120.07 69.1295C120.17 69.2195 120.22 69.3395 120.22 69.4895C120.22 69.6395 120.17 69.7495 120.07 69.8395C119.97 69.9295 119.85 69.9795 119.69 69.9795C119.53 69.9795 119.41 69.9295 119.31 69.8395C119.21 69.7495 119.16 69.6295 119.16 69.4895H119.17ZM119.17 72.1195C119.17 71.9695 119.22 71.8495 119.32 71.7595C119.42 71.6695 119.54 71.6195 119.69 71.6195C119.84 71.6195 119.97 71.6695 120.07 71.7595C120.17 71.8495 120.22 71.9695 120.22 72.1195C120.22 72.2695 120.17 72.3795 120.07 72.4695C119.97 72.5595 119.85 72.6095 119.69 72.6095C119.53 72.6095 119.41 72.5595 119.31 72.4695C119.21 72.3795 119.16 72.2595 119.16 72.1195H119.17Z" fill="#013047"/>
<path d="M124.83 72.5695H123.9V68.9895L122.79 69.3295V68.5795L124.73 67.8895H124.83V72.5695Z" fill="#013047"/>
<path d="M129.55 72.5695H126.34V71.9295L127.85 70.3195C128.06 70.0895 128.21 69.8895 128.31 69.7295C128.41 69.5595 128.46 69.3995 128.46 69.2495C128.46 69.0395 128.41 68.8795 128.3 68.7595C128.2 68.6395 128.05 68.5795 127.85 68.5795C127.64 68.5795 127.47 68.6495 127.35 68.7995C127.23 68.9495 127.17 69.1295 127.17 69.3695H126.24C126.24 69.0795 126.31 68.8295 126.44 68.5895C126.58 68.3495 126.77 68.1695 127.02 68.0395C127.27 67.9095 127.55 67.8395 127.86 67.8395C128.34 67.8395 128.72 67.9595 128.98 68.1895C129.25 68.4195 129.38 68.7495 129.38 69.1695C129.38 69.3995 129.32 69.6395 129.2 69.8795C129.08 70.1195 128.87 70.3995 128.58 70.7195L127.52 71.8395H129.53V72.5895L129.55 72.5695Z" fill="#013047"/>
<path d="M131.07 69.8295H131.57C131.81 69.8295 131.98 69.7695 132.09 69.6495C132.2 69.5295 132.26 69.3795 132.26 69.1795C132.26 68.9795 132.2 68.8395 132.09 68.7395C131.98 68.6395 131.82 68.5795 131.63 68.5795C131.45 68.5795 131.3 68.6295 131.18 68.7295C131.06 68.8295 131 68.9495 131 69.1095H130.07C130.07 68.8695 130.14 68.6495 130.27 68.4495C130.4 68.2495 130.59 68.0995 130.82 67.9995C131.06 67.8895 131.32 67.8395 131.6 67.8395C132.1 67.8395 132.48 67.9595 132.76 68.1895C133.04 68.4295 133.18 68.7495 133.18 69.1695C133.18 69.3795 133.11 69.5795 132.98 69.7595C132.85 69.9395 132.68 70.0795 132.47 70.1695C132.73 70.2595 132.93 70.4095 133.06 70.5895C133.19 70.7795 133.25 70.9995 133.25 71.2595C133.25 71.6795 133.1 72.0095 132.8 72.2595C132.5 72.5095 132.1 72.6395 131.6 72.6395C131.13 72.6395 130.75 72.5195 130.46 72.2695C130.17 72.0195 130.01 71.6995 130.01 71.2895H130.94C130.94 71.4695 131.01 71.6095 131.14 71.7195C131.27 71.8295 131.43 71.8895 131.63 71.8895C131.85 71.8895 132.02 71.8295 132.15 71.7195C132.27 71.5995 132.34 71.4495 132.34 71.2595C132.34 70.7895 132.08 70.5595 131.57 70.5595H131.08V69.8295H131.07Z" fill="#013047"/>
<path d="M136.64 70.8194H137.17V71.5694H136.64V72.5794H135.71V71.5694H133.79L133.75 70.9894L135.7 67.9094H136.64V70.8294V70.8194ZM134.68 70.8194H135.71V69.1694L135.65 69.2794L134.68 70.8194Z" fill="#013047"/>
<path d="M137.81 70.2795L138.08 67.8995H140.7V68.6695H138.84L138.72 69.6795C138.94 69.5595 139.18 69.4995 139.42 69.4995C139.87 69.4995 140.21 69.6395 140.47 69.9095C140.72 70.1895 140.85 70.5695 140.85 71.0695C140.85 71.3695 140.79 71.6395 140.66 71.8795C140.53 72.1195 140.35 72.2995 140.11 72.4395C139.87 72.5695 139.59 72.6395 139.27 72.6395C138.99 72.6395 138.73 72.5795 138.48 72.4695C138.24 72.3595 138.05 72.1895 137.91 71.9895C137.77 71.7795 137.7 71.5495 137.69 71.2795H138.61C138.63 71.4695 138.7 71.6295 138.81 71.7295C138.93 71.8395 139.08 71.8895 139.27 71.8895C139.48 71.8895 139.64 71.8095 139.76 71.6595C139.88 71.5095 139.93 71.2995 139.93 71.0195C139.93 70.7395 139.86 70.5495 139.73 70.4095C139.6 70.2695 139.41 70.1995 139.17 70.1995C138.95 70.1995 138.77 70.2595 138.63 70.3695L138.54 70.4495L137.8 70.2695L137.81 70.2795Z" fill="#013047"/>
<path d="M143.96 67.8495V68.6095H143.87C143.45 68.6095 143.11 68.7295 142.86 68.9395C142.61 69.1495 142.45 69.4495 142.4 69.8195C142.65 69.5695 142.96 69.4395 143.34 69.4395C143.75 69.4395 144.07 69.5895 144.31 69.8795C144.55 70.1695 144.67 70.5495 144.67 71.0295C144.67 71.3295 144.6 71.6095 144.47 71.8595C144.34 72.1095 144.15 72.2995 143.91 72.4395C143.67 72.5795 143.4 72.6495 143.09 72.6495C142.6 72.6495 142.2 72.4795 141.9 72.1395C141.6 71.7995 141.45 71.3395 141.45 70.7695V70.4395C141.45 69.9295 141.55 69.4795 141.74 69.0995C141.93 68.7195 142.21 68.4095 142.57 68.1995C142.93 67.9895 143.35 67.8795 143.82 67.8795H143.97L143.96 67.8495ZM143.05 70.1895C142.9 70.1895 142.76 70.2295 142.64 70.3095C142.52 70.3895 142.43 70.4895 142.37 70.6195V70.8995C142.37 71.2095 142.43 71.4495 142.55 71.6295C142.67 71.8095 142.84 71.8895 143.06 71.8895C143.26 71.8895 143.42 71.8095 143.54 71.6495C143.66 71.4895 143.72 71.2895 143.72 71.0395C143.72 70.7895 143.66 70.5795 143.53 70.4195C143.41 70.2595 143.24 70.1895 143.03 70.1895H143.05Z" fill="#013047"/>
<path d="M148.4 68.4195L146.59 72.5795H145.61L147.42 68.6495H145.09V67.8995H148.39V68.4195H148.4Z" fill="#013047"/>
<path d="M152.04 69.1395C152.04 69.3695 151.98 69.5695 151.87 69.7395C151.76 69.9195 151.6 70.0595 151.4 70.1595C151.63 70.2695 151.81 70.4195 151.94 70.6095C152.07 70.7995 152.14 71.0295 152.14 71.2895C152.14 71.7095 152 72.0295 151.72 72.2695C151.44 72.5095 151.05 72.6295 150.57 72.6295C150.09 72.6295 149.7 72.5095 149.41 72.2695C149.12 72.0295 148.98 71.6995 148.98 71.2895C148.98 71.0295 149.05 70.7995 149.18 70.6095C149.31 70.4195 149.49 70.2695 149.72 70.1595C149.52 70.0595 149.36 69.9095 149.25 69.7395C149.14 69.5595 149.08 69.3595 149.08 69.1395C149.08 68.7395 149.21 68.4195 149.48 68.1895C149.75 67.9495 150.11 67.8395 150.56 67.8395C151.01 67.8395 151.37 67.9595 151.64 68.1895C151.91 68.4195 152.04 68.7395 152.04 69.1495V69.1395ZM151.21 71.2195C151.21 71.0195 151.15 70.8495 151.03 70.7295C150.91 70.6095 150.75 70.5495 150.55 70.5495C150.35 70.5495 150.2 70.6095 150.08 70.7295C149.96 70.8495 149.9 71.0095 149.9 71.2195C149.9 71.4295 149.96 71.5795 150.07 71.6995C150.19 71.8195 150.35 71.8795 150.55 71.8795C150.75 71.8795 150.91 71.8195 151.02 71.6995C151.13 71.5795 151.19 71.4195 151.19 71.2095L151.21 71.2195ZM151.11 69.1795C151.11 68.9995 151.06 68.8495 150.97 68.7395C150.87 68.6295 150.74 68.5695 150.56 68.5695C150.38 68.5695 150.25 68.6195 150.15 68.7295C150.05 68.8395 150.01 68.9795 150.01 69.1695C150.01 69.3595 150.06 69.5095 150.15 69.6195C150.25 69.7295 150.38 69.7895 150.56 69.7895C150.74 69.7895 150.87 69.7295 150.97 69.6195C151.06 69.5095 151.11 69.3595 151.11 69.1695V69.1795Z" fill="#013047"/>
<path d="M154.94 70.7095C154.7 70.9495 154.42 71.0695 154.09 71.0695C153.68 71.0695 153.35 70.9295 153.1 70.6395C152.85 70.3595 152.73 69.9695 152.73 69.4895C152.73 69.1795 152.8 68.8995 152.93 68.6495C153.06 68.3995 153.25 68.1995 153.49 68.0495C153.73 67.9095 154 67.8395 154.3 67.8395C154.6 67.8395 154.88 67.9195 155.12 68.0695C155.36 68.2195 155.55 68.4495 155.68 68.7395C155.81 69.0295 155.88 69.3595 155.88 69.7295V70.0695C155.88 70.8495 155.69 71.4595 155.3 71.9095C154.91 72.3595 154.36 72.5895 153.65 72.6195H153.42V71.8495H153.63C154.44 71.8095 154.87 71.4295 154.94 70.7095ZM154.32 70.3595C154.47 70.3595 154.6 70.3195 154.71 70.2395C154.82 70.1595 154.9 70.0695 154.96 69.9595V69.5795C154.96 69.2695 154.9 69.0195 154.78 68.8495C154.66 68.6795 154.5 68.5895 154.3 68.5895C154.11 68.5895 153.96 68.6695 153.84 68.8495C153.72 69.0295 153.66 69.2295 153.66 69.4895C153.66 69.7495 153.72 69.9495 153.83 70.1195C153.95 70.2795 154.11 70.3695 154.32 70.3695V70.3595Z" fill="#013047"/>
<path d="M158.79 72.5695H157.86V68.9895L156.75 69.3295V68.5795L158.69 67.8895H158.79V72.5695Z" fill="#013047"/>
<path d="M163.52 72.5695H160.31V71.9295L161.82 70.3195C162.03 70.0895 162.18 69.8895 162.28 69.7295C162.38 69.5595 162.43 69.3995 162.43 69.2495C162.43 69.0395 162.38 68.8795 162.27 68.7595C162.17 68.6395 162.02 68.5795 161.82 68.5795C161.61 68.5795 161.44 68.6495 161.32 68.7995C161.2 68.9495 161.14 69.1295 161.14 69.3695H160.21C160.21 69.0795 160.28 68.8295 160.41 68.5895C160.55 68.3495 160.74 68.1695 160.99 68.0395C161.24 67.9095 161.52 67.8395 161.83 67.8395C162.31 67.8395 162.69 67.9595 162.95 68.1895C163.22 68.4195 163.35 68.7495 163.35 69.1695C163.35 69.3995 163.29 69.6395 163.17 69.8795C163.05 70.1195 162.84 70.3995 162.55 70.7195L161.49 71.8395H163.5V72.5895L163.52 72.5695Z" fill="#013047"/>
<path d="M165.03 69.8295H165.53C165.77 69.8295 165.94 69.7695 166.05 69.6495C166.16 69.5295 166.22 69.3795 166.22 69.1795C166.22 68.9795 166.16 68.8395 166.05 68.7395C165.94 68.6395 165.78 68.5795 165.59 68.5795C165.41 68.5795 165.26 68.6295 165.14 68.7295C165.02 68.8295 164.96 68.9495 164.96 69.1095H164.03C164.03 68.8695 164.1 68.6495 164.23 68.4495C164.36 68.2495 164.55 68.0995 164.78 67.9995C165.02 67.8895 165.28 67.8395 165.56 67.8395C166.06 67.8395 166.44 67.9595 166.72 68.1895C167 68.4295 167.14 68.7495 167.14 69.1695C167.14 69.3795 167.07 69.5795 166.94 69.7595C166.81 69.9395 166.64 70.0795 166.43 70.1695C166.69 70.2595 166.89 70.4095 167.02 70.5895C167.15 70.7795 167.21 70.9995 167.21 71.2595C167.21 71.6795 167.06 72.0095 166.76 72.2595C166.46 72.5095 166.06 72.6395 165.56 72.6395C165.09 72.6395 164.71 72.5195 164.42 72.2695C164.13 72.0195 163.97 71.6995 163.97 71.2895H164.9C164.9 71.4695 164.97 71.6095 165.1 71.7195C165.23 71.8295 165.39 71.8895 165.59 71.8895C165.81 71.8895 165.98 71.8295 166.11 71.7195C166.23 71.5995 166.3 71.4495 166.3 71.2595C166.3 70.7895 166.04 70.5595 165.53 70.5595H165.04V69.8295H165.03Z" fill="#013047"/>
<path d="M170.61 70.8194H171.14V71.5694H170.61V72.5794H169.68V71.5694H167.76L167.72 70.9894L169.67 67.9094H170.61V70.8294V70.8194ZM168.65 70.8194H169.68V69.1694L169.62 69.2794L168.65 70.8194Z" fill="#013047"/>
<path d="M171.77 70.2795L172.04 67.8995H174.66V68.6695H172.8L172.68 69.6795C172.9 69.5595 173.14 69.4995 173.38 69.4995C173.83 69.4995 174.17 69.6395 174.43 69.9095C174.68 70.1895 174.81 70.5695 174.81 71.0695C174.81 71.3695 174.75 71.6395 174.62 71.8795C174.49 72.1195 174.31 72.2995 174.07 72.4395C173.83 72.5695 173.55 72.6395 173.23 72.6395C172.95 72.6395 172.69 72.5795 172.44 72.4695C172.2 72.3595 172.01 72.1895 171.87 71.9895C171.73 71.7795 171.66 71.5495 171.65 71.2795H172.57C172.59 71.4695 172.66 71.6295 172.77 71.7295C172.89 71.8395 173.04 71.8895 173.23 71.8895C173.44 71.8895 173.6 71.8095 173.72 71.6595C173.84 71.5095 173.89 71.2995 173.89 71.0195C173.89 70.7395 173.82 70.5495 173.69 70.4095C173.56 70.2695 173.37 70.1995 173.13 70.1995C172.91 70.1995 172.73 70.2595 172.59 70.3695L172.5 70.4495L171.76 70.2695L171.77 70.2795Z" fill="#013047"/>
<path d="M177.93 67.8495V68.6095H177.84C177.42 68.6095 177.08 68.7295 176.83 68.9395C176.58 69.1495 176.42 69.4495 176.37 69.8195C176.62 69.5695 176.93 69.4395 177.31 69.4395C177.72 69.4395 178.04 69.5895 178.28 69.8795C178.52 70.1695 178.64 70.5495 178.64 71.0295C178.64 71.3295 178.57 71.6095 178.44 71.8595C178.31 72.1095 178.12 72.2995 177.88 72.4395C177.64 72.5795 177.37 72.6495 177.06 72.6495C176.57 72.6495 176.17 72.4795 175.87 72.1395C175.57 71.7995 175.42 71.3395 175.42 70.7695V70.4395C175.42 69.9295 175.52 69.4795 175.71 69.0995C175.9 68.7195 176.18 68.4095 176.54 68.1995C176.9 67.9895 177.32 67.8795 177.79 67.8795H177.94L177.93 67.8495ZM177.02 70.1895C176.87 70.1895 176.73 70.2295 176.61 70.3095C176.49 70.3895 176.4 70.4895 176.34 70.6195V70.8995C176.34 71.2095 176.4 71.4495 176.52 71.6295C176.64 71.8095 176.81 71.8895 177.03 71.8895C177.23 71.8895 177.39 71.8095 177.51 71.6495C177.63 71.4895 177.69 71.2895 177.69 71.0395C177.69 70.7895 177.63 70.5795 177.5 70.4195C177.38 70.2595 177.21 70.1895 177 70.1895H177.02Z" fill="#013047"/>
<path d="M182.36 68.4195L180.55 72.5795H179.57L181.38 68.6495H179.05V67.8995H182.35V68.4195H182.36Z" fill="#013047"/>
<path d="M186 69.1395C186 69.3695 185.94 69.5695 185.83 69.7395C185.72 69.9195 185.56 70.0595 185.36 70.1595C185.59 70.2695 185.77 70.4195 185.9 70.6095C186.03 70.7995 186.1 71.0295 186.1 71.2895C186.1 71.7095 185.96 72.0295 185.68 72.2695C185.4 72.5095 185.01 72.6295 184.53 72.6295C184.05 72.6295 183.66 72.5095 183.37 72.2695C183.08 72.0295 182.94 71.6995 182.94 71.2895C182.94 71.0295 183.01 70.7995 183.14 70.6095C183.27 70.4195 183.45 70.2695 183.68 70.1595C183.48 70.0595 183.32 69.9095 183.21 69.7395C183.1 69.5595 183.04 69.3595 183.04 69.1395C183.04 68.7395 183.17 68.4195 183.44 68.1895C183.71 67.9495 184.07 67.8395 184.52 67.8395C184.97 67.8395 185.33 67.9595 185.6 68.1895C185.87 68.4195 186 68.7395 186 69.1495V69.1395ZM185.17 71.2195C185.17 71.0195 185.11 70.8495 184.99 70.7295C184.87 70.6095 184.71 70.5495 184.51 70.5495C184.31 70.5495 184.16 70.6095 184.04 70.7295C183.92 70.8495 183.86 71.0095 183.86 71.2195C183.86 71.4295 183.92 71.5795 184.03 71.6995C184.15 71.8195 184.31 71.8795 184.51 71.8795C184.71 71.8795 184.87 71.8195 184.98 71.6995C185.09 71.5795 185.15 71.4195 185.15 71.2095L185.17 71.2195ZM185.07 69.1795C185.07 68.9995 185.02 68.8495 184.93 68.7395C184.83 68.6295 184.7 68.5695 184.52 68.5695C184.34 68.5695 184.21 68.6195 184.11 68.7295C184.01 68.8395 183.97 68.9795 183.97 69.1695C183.97 69.3595 184.02 69.5095 184.11 69.6195C184.21 69.7295 184.34 69.7895 184.52 69.7895C184.7 69.7895 184.83 69.7295 184.93 69.6195C185.02 69.5095 185.07 69.3595 185.07 69.1695V69.1795Z" fill="#013047"/>
<path d="M115.66 102.029H113.85L113.47 103.119H112.63L114.4 98.4395H115.13L116.9 103.119H116.05L115.67 102.029H115.66ZM114.08 101.369H115.44L114.76 99.4295L114.08 101.369Z" fill="#013047"/>
<path d="M117.2 101.359C117.2 100.819 117.32 100.399 117.57 100.069C117.82 99.7494 118.15 99.5794 118.57 99.5794C118.94 99.5794 119.24 99.7094 119.46 99.9594V98.1794H120.24V103.109H119.53L119.49 102.749C119.26 103.029 118.95 103.169 118.56 103.169C118.17 103.169 117.82 103.009 117.57 102.679C117.32 102.349 117.19 101.909 117.19 101.339L117.2 101.359ZM117.98 101.429C117.98 101.779 118.05 102.059 118.18 102.259C118.32 102.459 118.51 102.559 118.76 102.559C119.08 102.559 119.31 102.419 119.46 102.129V100.649C119.32 100.369 119.09 100.229 118.77 100.229C118.52 100.229 118.32 100.329 118.19 100.529C118.05 100.729 117.98 101.029 117.98 101.429Z" fill="#013047"/>
<path d="M122.88 100.359C122.78 100.339 122.67 100.329 122.56 100.329C122.2 100.329 121.96 100.469 121.84 100.739V103.119H121.06V99.6495H121.81L121.83 100.039C122.02 99.7395 122.28 99.5895 122.61 99.5895C122.72 99.5895 122.81 99.5995 122.89 99.6295V100.359H122.88Z" fill="#013047"/>
<path d="M124.84 103.189C124.34 103.189 123.94 103.029 123.64 102.719C123.33 102.409 123.18 101.989 123.18 101.479V101.379C123.18 101.029 123.25 100.719 123.38 100.449C123.51 100.179 123.7 99.9595 123.94 99.8095C124.18 99.6595 124.45 99.5795 124.75 99.5795C125.22 99.5795 125.59 99.7295 125.85 100.029C126.11 100.329 126.24 100.759 126.24 101.309V101.619H123.97C123.99 101.909 124.09 102.129 124.26 102.299C124.43 102.469 124.64 102.549 124.89 102.549C125.25 102.549 125.54 102.409 125.76 102.119L126.18 102.519C126.04 102.729 125.85 102.889 125.62 102.999C125.39 103.109 125.13 103.169 124.84 103.169V103.189ZM124.75 100.209C124.54 100.209 124.36 100.289 124.23 100.429C124.1 100.579 124.01 100.789 123.98 101.059H125.47V100.999C125.45 100.739 125.38 100.539 125.26 100.409C125.14 100.279 124.97 100.209 124.75 100.209Z" fill="#013047"/>
<path d="M128.79 102.179C128.79 102.039 128.73 101.929 128.62 101.859C128.51 101.789 128.32 101.719 128.05 101.669C127.78 101.619 127.56 101.539 127.39 101.459C127 101.269 126.81 100.999 126.81 100.639C126.81 100.339 126.94 100.089 127.19 99.8895C127.44 99.6895 127.76 99.5895 128.15 99.5895C128.57 99.5895 128.9 99.6895 129.16 99.8995C129.42 100.109 129.54 100.369 129.54 100.699H128.76C128.76 100.549 128.7 100.429 128.59 100.329C128.48 100.229 128.33 100.179 128.15 100.179C127.98 100.179 127.84 100.219 127.73 100.299C127.62 100.379 127.57 100.489 127.57 100.619C127.57 100.739 127.62 100.829 127.72 100.899C127.82 100.969 128.02 101.029 128.33 101.099C128.64 101.169 128.88 101.249 129.05 101.339C129.22 101.429 129.35 101.549 129.44 101.679C129.52 101.809 129.57 101.969 129.57 102.149C129.57 102.459 129.44 102.719 129.18 102.909C128.92 103.099 128.58 103.199 128.16 103.199C127.87 103.199 127.62 103.149 127.4 103.049C127.18 102.949 127 102.809 126.88 102.629C126.76 102.449 126.69 102.259 126.69 102.049H127.45C127.46 102.229 127.53 102.379 127.66 102.469C127.79 102.569 127.96 102.619 128.17 102.619C128.38 102.619 128.53 102.579 128.64 102.499C128.75 102.419 128.8 102.319 128.8 102.189L128.79 102.179Z" fill="#013047"/>
<path d="M132.18 102.179C132.18 102.039 132.12 101.929 132.01 101.859C131.9 101.789 131.71 101.719 131.44 101.669C131.17 101.619 130.95 101.539 130.78 101.459C130.39 101.269 130.2 100.999 130.2 100.639C130.2 100.339 130.33 100.089 130.58 99.8895C130.83 99.6895 131.15 99.5895 131.54 99.5895C131.96 99.5895 132.29 99.6895 132.55 99.8995C132.81 100.109 132.93 100.369 132.93 100.699H132.15C132.15 100.549 132.09 100.429 131.98 100.329C131.87 100.229 131.72 100.179 131.54 100.179C131.37 100.179 131.23 100.219 131.12 100.299C131.01 100.379 130.96 100.489 130.96 100.619C130.96 100.739 131.01 100.829 131.11 100.899C131.21 100.969 131.41 101.029 131.72 101.099C132.03 101.169 132.27 101.249 132.44 101.339C132.61 101.429 132.74 101.549 132.83 101.679C132.91 101.809 132.96 101.969 132.96 102.149C132.96 102.459 132.83 102.719 132.57 102.909C132.31 103.099 131.97 103.199 131.55 103.199C131.26 103.199 131.01 103.149 130.79 103.049C130.57 102.949 130.39 102.809 130.27 102.629C130.15 102.449 130.08 102.259 130.08 102.049H130.84C130.85 102.229 130.92 102.379 131.05 102.469C131.18 102.569 131.35 102.619 131.56 102.619C131.77 102.619 131.92 102.579 132.03 102.499C132.14 102.419 132.19 102.319 132.19 102.189L132.18 102.179Z" fill="#013047"/>
<path d="M134.1 99.5695C134.25 99.5695 134.36 99.6095 134.44 99.6895C134.52 99.7695 134.56 99.8795 134.56 99.9995C134.56 100.119 134.52 100.219 134.44 100.299C134.36 100.379 134.25 100.419 134.1 100.419C133.95 100.419 133.85 100.379 133.77 100.299C133.69 100.219 133.65 100.119 133.65 99.9995C133.65 99.8795 133.69 99.7695 133.77 99.6895C133.85 99.6095 133.96 99.5695 134.1 99.5695ZM134.1 102.299C134.25 102.299 134.36 102.339 134.44 102.419C134.52 102.499 134.56 102.609 134.56 102.729C134.56 102.849 134.52 102.949 134.44 103.029C134.36 103.109 134.25 103.149 134.1 103.149C133.95 103.149 133.85 103.109 133.77 103.029C133.69 102.949 133.65 102.849 133.65 102.729C133.65 102.609 133.69 102.499 133.77 102.419C133.85 102.339 133.96 102.299 134.1 102.299Z" fill="#013047"/>
<path d="M115.26 111.009H114.18V107.549L113.11 107.859V107.039L115.16 106.329H115.26V111.009Z" fill="#013047"/>
<path d="M119.93 111.009H116.67V110.299L118.17 108.719C118.54 108.299 118.73 107.959 118.73 107.719C118.73 107.519 118.69 107.369 118.6 107.259C118.51 107.149 118.39 107.099 118.22 107.099C118.05 107.099 117.92 107.169 117.82 107.309C117.72 107.449 117.67 107.629 117.67 107.839H116.58C116.58 107.549 116.65 107.289 116.79 107.049C116.93 106.809 117.13 106.619 117.39 106.479C117.65 106.339 117.93 106.269 118.24 106.269C118.74 106.269 119.13 106.389 119.41 106.619C119.68 106.849 119.82 107.189 119.82 107.619C119.82 107.799 119.79 107.979 119.72 108.159C119.65 108.329 119.55 108.519 119.4 108.709C119.26 108.899 119.02 109.159 118.7 109.479L118.1 110.179H119.94V111.009H119.93Z" fill="#013047"/>
<path d="M121.46 108.219H121.97C122.37 108.219 122.58 108.019 122.58 107.629C122.58 107.479 122.53 107.349 122.44 107.249C122.35 107.149 122.21 107.099 122.03 107.099C121.89 107.099 121.76 107.139 121.66 107.219C121.55 107.299 121.5 107.409 121.5 107.529H120.42C120.42 107.279 120.49 107.059 120.63 106.869C120.77 106.679 120.96 106.529 121.2 106.419C121.44 106.309 121.71 106.259 122 106.259C122.52 106.259 122.93 106.379 123.23 106.619C123.53 106.859 123.68 107.179 123.68 107.599C123.68 107.799 123.62 107.989 123.5 108.169C123.38 108.349 123.2 108.489 122.96 108.609C123.21 108.699 123.4 108.839 123.54 109.019C123.68 109.199 123.75 109.429 123.75 109.699C123.75 110.119 123.59 110.449 123.27 110.699C122.95 110.949 122.53 111.079 122 111.079C121.69 111.079 121.41 111.019 121.15 110.909C120.89 110.789 120.69 110.629 120.55 110.419C120.41 110.209 120.35 109.979 120.35 109.709H121.44C121.44 109.849 121.5 109.979 121.61 110.079C121.73 110.179 121.87 110.239 122.04 110.239C122.23 110.239 122.38 110.189 122.5 110.079C122.61 109.969 122.67 109.839 122.67 109.669C122.67 109.429 122.61 109.269 122.49 109.169C122.37 109.069 122.21 109.019 122 109.019H121.47V108.209L121.46 108.219Z" fill="#013047"/>
<path d="M128.65 110.139H127.11L126.84 111.009H125.64L127.35 106.329H128.41L130.14 111.009H128.93L128.66 110.139H128.65ZM127.37 109.269H128.37L127.87 107.649L127.37 109.269Z" fill="#013047"/>
<path d="M134.38 111.009H133.26L131.6 108.099V111.009H130.47V106.329H131.6L133.25 109.239V106.329H134.37V111.009H134.38Z" fill="#013047"/>
<path d="M136.71 108.369L137.57 106.339H138.79L137.28 109.339V111.019H136.14V109.339L134.64 106.339H135.85L136.71 108.369Z" fill="#013047"/>
<path d="M142.81 109.269L143.35 106.339H144.47L143.48 111.019H142.31L141.68 108.349L141.07 111.019H139.9L138.9 106.339H140.02L140.56 109.269L141.2 106.339H142.16L142.81 109.269Z" fill="#013047"/>
<path d="M147.8 109.029H146.03V110.149H148.12V111.019H144.9V106.339H148.13V107.209H146.03V108.199H147.8V109.039V109.029Z" fill="#013047"/>
<path d="M150.32 109.359H149.71V111.009H148.58V106.329H150.42C150.97 106.329 151.41 106.449 151.72 106.699C152.03 106.949 152.19 107.289 152.19 107.739C152.19 108.069 152.12 108.329 151.99 108.549C151.86 108.769 151.65 108.939 151.37 109.069L152.35 110.959V111.009H151.14L150.31 109.359H150.32ZM149.71 108.489H150.42C150.63 108.489 150.8 108.429 150.9 108.319C151.01 108.209 151.06 108.049 151.06 107.849C151.06 107.649 151.01 107.489 150.9 107.379C150.79 107.259 150.63 107.209 150.42 107.209H149.71V108.499V108.489Z" fill="#013047"/>
<path d="M155.77 109.029H154V110.149H156.09V111.019H152.87V106.339H156.1V107.209H154V108.199H155.77V109.039V109.029Z" fill="#013047"/>
<path d="M160.6 109.769C160.6 109.599 160.54 109.479 160.42 109.389C160.3 109.299 160.1 109.199 159.81 109.099C159.52 108.999 159.28 108.909 159.09 108.809C158.48 108.509 158.18 108.099 158.18 107.579C158.18 107.319 158.26 107.089 158.41 106.889C158.56 106.689 158.77 106.539 159.05 106.429C159.33 106.319 159.64 106.259 159.98 106.259C160.32 106.259 160.62 106.319 160.88 106.439C161.14 106.559 161.35 106.729 161.5 106.949C161.65 107.169 161.72 107.429 161.72 107.709H160.6C160.6 107.519 160.54 107.369 160.43 107.269C160.31 107.169 160.15 107.109 159.96 107.109C159.77 107.109 159.6 107.149 159.48 107.239C159.36 107.329 159.31 107.439 159.31 107.579C159.31 107.699 159.37 107.809 159.5 107.909C159.63 108.009 159.85 108.109 160.18 108.209C160.5 108.309 160.77 108.429 160.98 108.539C161.48 108.829 161.74 109.229 161.74 109.749C161.74 110.159 161.59 110.479 161.28 110.709C160.97 110.939 160.55 111.059 160.01 111.059C159.63 111.059 159.29 110.989 158.98 110.859C158.67 110.719 158.44 110.539 158.29 110.299C158.13 110.059 158.06 109.789 158.06 109.479H159.19C159.19 109.729 159.25 109.909 159.38 110.029C159.51 110.149 159.72 110.209 160.01 110.209C160.2 110.209 160.34 110.169 160.45 110.089C160.56 110.009 160.61 109.899 160.61 109.749L160.6 109.769Z" fill="#013047"/>
<path d="M165.98 107.209H164.58V111.019H163.45V107.209H162.07V106.339H165.98V107.209Z" fill="#013047"/>
<path d="M168.19 109.359H167.58V111.009H166.45V106.329H168.29C168.84 106.329 169.28 106.449 169.59 106.699C169.9 106.949 170.06 107.289 170.06 107.739C170.06 108.069 169.99 108.329 169.86 108.549C169.73 108.769 169.52 108.939 169.24 109.069L170.22 110.959V111.009H169.01L168.18 109.359H168.19ZM167.58 108.489H168.29C168.5 108.489 168.67 108.429 168.77 108.319C168.88 108.209 168.93 108.049 168.93 107.849C168.93 107.649 168.88 107.489 168.77 107.379C168.66 107.259 168.5 107.209 168.29 107.209H167.58V108.499V108.489Z" fill="#013047"/>
<path d="M173.65 109.029H171.88V110.149H173.97V111.019H170.75V106.339H173.98V107.209H171.88V108.199H173.65V109.039V109.029Z" fill="#013047"/>
<path d="M177.33 109.029H175.56V110.149H177.65V111.019H174.43V106.339H177.66V107.209H175.56V108.199H177.33V109.039V109.029Z" fill="#013047"/>
<path d="M181.84 107.209H180.44V111.019H179.31V107.209H177.93V106.339H181.84V107.209Z" fill="#013047"/>
<path d="M116.71 117.329C116.7 117.659 116.61 117.939 116.45 118.189C116.29 118.439 116.06 118.629 115.77 118.769C115.48 118.909 115.15 118.979 114.78 118.979C114.17 118.979 113.68 118.779 113.33 118.379C112.98 117.979 112.8 117.409 112.8 116.679V116.449C112.8 115.989 112.88 115.589 113.04 115.249C113.2 114.909 113.43 114.639 113.73 114.449C114.03 114.259 114.38 114.169 114.77 114.169C115.34 114.169 115.79 114.319 116.14 114.619C116.49 114.919 116.68 115.329 116.73 115.859H115.61C115.61 115.569 115.53 115.369 115.39 115.249C115.26 115.129 115.05 115.059 114.77 115.059C114.49 115.059 114.28 115.159 114.15 115.369C114.02 115.579 113.95 115.909 113.94 116.379V116.709C113.94 117.209 114 117.569 114.13 117.779C114.26 117.989 114.47 118.099 114.78 118.099C115.04 118.099 115.24 118.039 115.37 117.919C115.51 117.799 115.58 117.599 115.59 117.339H116.71V117.329Z" fill="#013047"/>
<path d="M118.44 118.909H117.32V114.229H118.44V118.909Z" fill="#013047"/>
<path d="M122.8 115.099H121.4V118.909H120.27V115.099H118.89V114.229H122.8V115.099Z" fill="#013047"/>
<path d="M125.04 116.259L125.9 114.229H127.12L125.61 117.229V118.909H124.47V117.229L122.97 114.229H124.18L125.04 116.259Z" fill="#013047"/>
<path d="M127.05 120.169L126.5 119.909L126.61 119.689C126.76 119.409 126.84 119.149 126.84 118.889V118.089H127.71V118.789C127.71 119.039 127.64 119.289 127.52 119.539C127.4 119.789 127.24 119.999 127.05 120.169Z" fill="#013047"/>
<path d="M132.46 118.909H131.38V115.449L130.31 115.759V114.939L132.36 114.229H132.46V118.909Z" fill="#013047"/>
<path d="M137.13 118.909H133.87V118.199L135.37 116.619C135.74 116.199 135.93 115.859 135.93 115.619C135.93 115.419 135.89 115.269 135.8 115.159C135.71 115.049 135.59 114.999 135.42 114.999C135.25 114.999 135.12 115.069 135.02 115.209C134.92 115.349 134.87 115.529 134.87 115.739H133.78C133.78 115.449 133.85 115.189 133.99 114.949C134.13 114.709 134.33 114.519 134.59 114.379C134.85 114.239 135.13 114.169 135.44 114.169C135.94 114.169 136.33 114.289 136.61 114.519C136.88 114.749 137.02 115.089 137.02 115.519C137.02 115.699 136.99 115.879 136.92 116.059C136.85 116.229 136.75 116.419 136.6 116.609C136.46 116.799 136.22 117.059 135.9 117.379L135.3 118.079H137.14V118.909H137.13Z" fill="#013047"/>
<path d="M138.67 116.119H139.18C139.58 116.119 139.79 115.919 139.79 115.529C139.79 115.379 139.74 115.249 139.65 115.149C139.56 115.049 139.42 114.999 139.24 114.999C139.1 114.999 138.97 115.039 138.87 115.119C138.76 115.199 138.71 115.309 138.71 115.429H137.63C137.63 115.179 137.7 114.959 137.84 114.769C137.98 114.579 138.17 114.429 138.41 114.319C138.65 114.209 138.92 114.159 139.21 114.159C139.73 114.159 140.14 114.279 140.44 114.519C140.74 114.759 140.89 115.079 140.89 115.499C140.89 115.699 140.83 115.889 140.71 116.069C140.59 116.249 140.41 116.389 140.17 116.509C140.42 116.599 140.61 116.739 140.75 116.919C140.89 117.099 140.96 117.329 140.96 117.599C140.96 118.019 140.8 118.349 140.48 118.599C140.16 118.849 139.74 118.979 139.21 118.979C138.9 118.979 138.62 118.919 138.36 118.809C138.1 118.689 137.9 118.529 137.76 118.319C137.62 118.109 137.56 117.879 137.56 117.609H138.65C138.65 117.749 138.71 117.879 138.82 117.979C138.94 118.079 139.08 118.139 139.25 118.139C139.44 118.139 139.59 118.089 139.71 117.979C139.82 117.869 139.88 117.739 139.88 117.569C139.88 117.329 139.82 117.169 139.7 117.069C139.58 116.969 139.42 116.919 139.21 116.919H138.68V116.109L138.67 116.119Z" fill="#013047"/>
<path d="M144.35 117.08H144.82V117.91H144.35V118.9H143.27V117.91H141.46L141.4 117.25L143.27 114.24H144.35V117.09V117.08ZM142.43 117.08H143.27V115.64L143.2 115.75L142.43 117.08Z" fill="#013047"/>
<path d="M145.36 116.619L145.65 114.229H148.38V115.069H146.53L146.42 115.999C146.5 115.959 146.6 115.919 146.72 115.879C146.84 115.849 146.97 115.829 147.09 115.829C147.55 115.829 147.91 115.969 148.16 116.239C148.41 116.519 148.53 116.899 148.53 117.399C148.53 117.699 148.46 117.969 148.33 118.209C148.2 118.449 148.01 118.639 147.77 118.769C147.53 118.899 147.24 118.969 146.91 118.969C146.62 118.969 146.34 118.909 146.08 118.789C145.82 118.669 145.62 118.499 145.48 118.289C145.34 118.079 145.26 117.839 145.26 117.579H146.35C146.36 117.749 146.42 117.889 146.51 117.989C146.61 118.089 146.74 118.139 146.9 118.139C147.26 118.139 147.45 117.869 147.45 117.329C147.45 116.829 147.23 116.579 146.78 116.579C146.53 116.579 146.34 116.659 146.21 116.819L145.35 116.619H145.36Z" fill="#013047"/>
<path d="M151.24 117.309H149.31V116.479H151.24V117.309Z" fill="#013047"/>
<path d="M155.22 115.479C155.22 115.709 155.16 115.909 155.05 116.079C154.94 116.249 154.78 116.389 154.59 116.499C154.81 116.609 154.99 116.759 155.12 116.949C155.25 117.139 155.32 117.359 155.32 117.619C155.32 118.039 155.18 118.369 154.89 118.609C154.6 118.849 154.21 118.969 153.7 118.969C153.19 118.969 152.79 118.849 152.5 118.599C152.21 118.359 152.06 118.029 152.06 117.609C152.06 117.359 152.12 117.139 152.25 116.939C152.38 116.749 152.56 116.599 152.8 116.479C152.6 116.379 152.44 116.239 152.33 116.059C152.22 115.889 152.16 115.689 152.16 115.459C152.16 115.049 152.3 114.729 152.57 114.499C152.85 114.259 153.22 114.149 153.69 114.149C154.16 114.149 154.54 114.269 154.81 114.499C155.08 114.729 155.22 115.059 155.22 115.459V115.479ZM154.23 117.529C154.23 117.339 154.18 117.189 154.08 117.089C153.98 116.989 153.85 116.929 153.69 116.929C153.53 116.929 153.4 116.979 153.3 117.089C153.2 117.199 153.15 117.339 153.15 117.529C153.15 117.719 153.2 117.859 153.3 117.969C153.4 118.079 153.54 118.129 153.7 118.129C153.86 118.129 153.99 118.079 154.09 117.969C154.19 117.859 154.24 117.719 154.24 117.529H154.23ZM153.68 114.999C153.53 114.999 153.42 115.049 153.35 115.139C153.27 115.229 153.24 115.369 153.24 115.539C153.24 115.709 153.28 115.839 153.36 115.939C153.44 116.039 153.55 116.089 153.7 116.089C153.85 116.089 153.96 116.039 154.03 115.939C154.1 115.839 154.14 115.699 154.14 115.539C154.14 115.379 154.1 115.239 154.03 115.149C153.95 115.049 153.84 115.009 153.69 115.009L153.68 114.999Z" fill="#013047"/>
<path d="M159.12 114.81L157.37 118.91H156.23L157.98 115.07H155.75V114.24H159.12V114.82V114.81Z" fill="#013047"/>
<path d="M159.75 116.619L160.04 114.229H162.77V115.069H160.92L160.81 115.999C160.89 115.959 160.99 115.919 161.11 115.879C161.23 115.849 161.36 115.829 161.48 115.829C161.94 115.829 162.3 115.969 162.55 116.239C162.8 116.519 162.92 116.899 162.92 117.399C162.92 117.699 162.85 117.969 162.72 118.209C162.59 118.449 162.4 118.639 162.16 118.769C161.92 118.899 161.63 118.969 161.3 118.969C161.01 118.969 160.73 118.909 160.47 118.789C160.21 118.669 160.01 118.499 159.87 118.289C159.73 118.079 159.65 117.839 159.65 117.579H160.74C160.75 117.749 160.81 117.889 160.9 117.989C161 118.089 161.13 118.139 161.29 118.139C161.65 118.139 161.84 117.869 161.84 117.329C161.84 116.829 161.62 116.579 161.17 116.579C160.92 116.579 160.73 116.659 160.6 116.819L159.74 116.619H159.75Z" fill="#013047"/>
<path d="M164.18 117.859C164.35 117.859 164.49 117.909 164.61 118.009C164.73 118.109 164.78 118.239 164.78 118.399C164.78 118.559 164.72 118.689 164.61 118.789C164.5 118.889 164.35 118.939 164.18 118.939C164.01 118.939 163.86 118.889 163.75 118.789C163.64 118.689 163.58 118.559 163.58 118.399C163.58 118.239 163.64 118.109 163.75 118.009C163.86 117.909 164.01 117.859 164.18 117.859Z" fill="#013047"/>
<path d="M113.86 128.44V130.17H113.05V125.49H114.84C115.36 125.49 115.78 125.63 116.08 125.9C116.39 126.17 116.54 126.53 116.54 126.98C116.54 127.43 116.39 127.8 116.09 128.05C115.79 128.3 115.37 128.429 114.83 128.429H113.86V128.44ZM113.86 127.78H114.84C115.13 127.78 115.35 127.71 115.5 127.58C115.65 127.44 115.73 127.25 115.73 126.99C115.73 126.73 115.65 126.53 115.5 126.38C115.35 126.23 115.13 126.15 114.86 126.15H113.86V127.78Z" fill="#013047"/>
<path d="M117.94 127.08C118.19 126.78 118.52 126.64 118.91 126.64C119.65 126.64 120.03 127.06 120.04 127.91V130.18H119.26V127.94C119.26 127.7 119.21 127.53 119.1 127.43C119 127.33 118.84 127.28 118.64 127.28C118.33 127.28 118.09 127.42 117.94 127.7V130.18H117.16V125.25H117.94V127.09V127.08Z" fill="#013047"/>
<path d="M120.68 128.4C120.68 128.06 120.75 127.75 120.88 127.48C121.01 127.21 121.2 127 121.45 126.85C121.7 126.7 121.97 126.63 122.29 126.63C122.76 126.63 123.14 126.78 123.43 127.08C123.72 127.38 123.88 127.78 123.9 128.28V128.46C123.9 128.8 123.84 129.11 123.71 129.38C123.58 129.65 123.39 129.86 123.14 130.01C122.89 130.16 122.61 130.23 122.29 130.23C121.8 130.23 121.41 130.07 121.11 129.74C120.82 129.41 120.67 128.98 120.67 128.43V128.39L120.68 128.4ZM121.46 128.47C121.46 128.83 121.53 129.11 121.68 129.31C121.83 129.51 122.03 129.61 122.3 129.61C122.57 129.61 122.77 129.51 122.92 129.3C123.07 129.09 123.14 128.79 123.14 128.4C123.14 128.05 123.06 127.77 122.91 127.57C122.76 127.36 122.55 127.26 122.29 127.26C122.03 127.26 121.83 127.36 121.68 127.56C121.53 127.76 121.46 128.06 121.46 128.47Z" fill="#013047"/>
<path d="M125.3 126.7L125.32 127.1C125.58 126.79 125.91 126.63 126.33 126.63C127.05 126.63 127.42 127.04 127.43 127.87V130.17H126.65V127.92C126.65 127.7 126.6 127.54 126.51 127.43C126.41 127.32 126.26 127.27 126.04 127.27C125.73 127.27 125.49 127.41 125.34 127.7V130.17H124.56V126.7H125.3Z" fill="#013047"/>
<path d="M129.76 130.24C129.26 130.24 128.86 130.08 128.56 129.77C128.25 129.46 128.1 129.04 128.1 128.53V128.43C128.1 128.08 128.17 127.77 128.3 127.5C128.43 127.23 128.62 127.01 128.86 126.86C129.1 126.71 129.37 126.63 129.67 126.63C130.14 126.63 130.51 126.78 130.77 127.08C131.03 127.38 131.16 127.81 131.16 128.36V128.67H128.89C128.91 128.96 129.01 129.18 129.18 129.35C129.35 129.52 129.56 129.6 129.81 129.6C130.17 129.6 130.46 129.46 130.68 129.17L131.1 129.57C130.96 129.78 130.77 129.94 130.54 130.05C130.31 130.16 130.05 130.22 129.76 130.22V130.24ZM129.67 127.26C129.46 127.26 129.28 127.34 129.15 127.48C129.02 127.63 128.93 127.84 128.9 128.11H130.39V128.05C130.37 127.79 130.3 127.59 130.18 127.46C130.06 127.33 129.89 127.26 129.67 127.26Z" fill="#013047"/>
<path d="M132.23 126.62C132.38 126.62 132.49 126.66 132.57 126.74C132.65 126.82 132.69 126.93 132.69 127.05C132.69 127.17 132.65 127.27 132.57 127.35C132.49 127.43 132.38 127.47 132.23 127.47C132.08 127.47 131.98 127.43 131.9 127.35C131.82 127.27 131.78 127.17 131.78 127.05C131.78 126.93 131.82 126.82 131.9 126.74C131.98 126.66 132.09 126.62 132.23 126.62ZM132.23 129.35C132.38 129.35 132.49 129.39 132.57 129.47C132.65 129.55 132.69 129.66 132.69 129.78C132.69 129.9 132.65 130 132.57 130.08C132.49 130.16 132.38 130.2 132.23 130.2C132.08 130.2 131.98 130.16 131.9 130.08C131.82 130 131.78 129.9 131.78 129.78C131.78 129.66 131.82 129.55 131.9 129.47C131.98 129.39 132.09 129.35 132.23 129.35Z" fill="#013047"/>
<path d="M114.83 135.409H115.92V136.339H114.83V137.599H113.82V136.339H112.72V135.409H113.82V134.189H114.83V135.409Z" fill="#013047"/>
<path d="M116.44 135.78L116.73 133.39H119.46V134.23H117.61L117.5 135.16C117.58 135.12 117.68 135.08 117.8 135.04C117.92 135.01 118.05 134.99 118.17 134.99C118.63 134.99 118.99 135.13 119.24 135.4C119.49 135.68 119.61 136.06 119.61 136.56C119.61 136.86 119.54 137.13 119.41 137.37C119.28 137.61 119.09 137.8 118.85 137.93C118.61 138.06 118.32 138.13 117.99 138.13C117.7 138.13 117.42 138.07 117.16 137.95C116.9 137.83 116.7 137.66 116.56 137.45C116.42 137.24 116.34 137 116.34 136.74H117.43C117.44 136.91 117.5 137.05 117.59 137.15C117.69 137.25 117.82 137.3 117.98 137.3C118.34 137.3 118.53 137.03 118.53 136.49C118.53 135.99 118.31 135.74 117.86 135.74C117.61 135.74 117.42 135.82 117.29 135.98L116.43 135.78H116.44Z" fill="#013047"/>
<path d="M120.24 135.78L120.53 133.39H123.26V134.23H121.41L121.3 135.16C121.38 135.12 121.48 135.08 121.6 135.04C121.72 135.01 121.85 134.99 121.97 134.99C122.43 134.99 122.79 135.13 123.04 135.4C123.29 135.68 123.41 136.06 123.41 136.56C123.41 136.86 123.34 137.13 123.21 137.37C123.08 137.61 122.89 137.8 122.65 137.93C122.41 138.06 122.12 138.13 121.79 138.13C121.5 138.13 121.22 138.07 120.97 137.95C120.71 137.83 120.51 137.66 120.37 137.45C120.23 137.24 120.15 137 120.15 136.74H121.24C121.25 136.91 121.31 137.05 121.4 137.15C121.5 137.25 121.63 137.3 121.79 137.3C122.15 137.3 122.34 137.03 122.34 136.49C122.34 135.99 122.12 135.74 121.67 135.74C121.42 135.74 121.23 135.82 121.1 135.98L120.24 135.78Z" fill="#013047"/>
<path d="M127.14 134.64C127.14 134.87 127.08 135.07 126.97 135.24C126.86 135.41 126.7 135.55 126.51 135.66C126.73 135.77 126.91 135.92 127.04 136.11C127.17 136.3 127.24 136.52 127.24 136.78C127.24 137.2 127.1 137.53 126.81 137.77C126.52 138.01 126.13 138.13 125.62 138.13C125.11 138.13 124.71 138.01 124.42 137.76C124.13 137.52 123.98 137.19 123.98 136.77C123.98 136.52 124.04 136.3 124.17 136.1C124.3 135.91 124.48 135.76 124.72 135.64C124.52 135.54 124.36 135.4 124.25 135.22C124.14 135.05 124.08 134.85 124.08 134.62C124.08 134.21 124.22 133.89 124.49 133.66C124.77 133.42 125.14 133.31 125.61 133.31C126.08 133.31 126.46 133.43 126.73 133.66C127 133.89 127.14 134.22 127.14 134.62V134.64ZM126.15 136.69C126.15 136.5 126.1 136.35 126 136.25C125.9 136.15 125.77 136.09 125.61 136.09C125.45 136.09 125.32 136.14 125.22 136.25C125.12 136.36 125.07 136.5 125.07 136.69C125.07 136.88 125.12 137.02 125.22 137.13C125.32 137.24 125.46 137.29 125.62 137.29C125.78 137.29 125.91 137.24 126.01 137.13C126.11 137.02 126.16 136.88 126.16 136.69H126.15ZM125.6 134.16C125.45 134.16 125.34 134.21 125.27 134.3C125.19 134.39 125.16 134.53 125.16 134.7C125.16 134.87 125.2 135 125.28 135.1C125.36 135.2 125.47 135.25 125.62 135.25C125.77 135.25 125.88 135.2 125.95 135.1C126.02 135 126.06 134.86 126.06 134.7C126.06 134.54 126.02 134.4 125.95 134.31C125.87 134.21 125.76 134.17 125.61 134.17L125.6 134.16Z" fill="#013047"/>
<path d="M130.2 138.06H129.12V134.6L128.05 134.91V134.09L130.1 133.38H130.2V138.06Z" fill="#013047"/>
<path d="M134.47 136.24H134.94V137.07H134.47V138.06H133.39V137.07H131.58L131.52 136.41L133.39 133.4H134.47V136.25V136.24ZM132.55 136.24H133.39V134.8L133.32 134.91L132.55 136.24Z" fill="#013047"/>
<path d="M138.57 134.64C138.57 134.87 138.51 135.07 138.4 135.24C138.29 135.41 138.13 135.55 137.94 135.66C138.16 135.77 138.34 135.92 138.47 136.11C138.6 136.3 138.67 136.52 138.67 136.78C138.67 137.2 138.53 137.53 138.24 137.77C137.95 138.01 137.56 138.13 137.05 138.13C136.54 138.13 136.14 138.01 135.85 137.76C135.56 137.52 135.41 137.19 135.41 136.77C135.41 136.52 135.47 136.3 135.6 136.1C135.73 135.91 135.91 135.76 136.15 135.64C135.95 135.54 135.79 135.4 135.68 135.22C135.57 135.05 135.51 134.85 135.51 134.62C135.51 134.21 135.65 133.89 135.92 133.66C136.2 133.42 136.57 133.31 137.04 133.31C137.51 133.31 137.89 133.43 138.16 133.66C138.43 133.89 138.57 134.22 138.57 134.62V134.64ZM137.58 136.69C137.58 136.5 137.53 136.35 137.43 136.25C137.33 136.15 137.2 136.09 137.04 136.09C136.88 136.09 136.75 136.14 136.65 136.25C136.55 136.36 136.5 136.5 136.5 136.69C136.5 136.88 136.55 137.02 136.65 137.13C136.75 137.24 136.89 137.29 137.05 137.29C137.21 137.29 137.34 137.24 137.44 137.13C137.54 137.02 137.59 136.88 137.59 136.69H137.58ZM137.03 134.16C136.88 134.16 136.77 134.21 136.7 134.3C136.62 134.39 136.59 134.53 136.59 134.7C136.59 134.87 136.63 135 136.71 135.1C136.79 135.2 136.9 135.25 137.05 135.25C137.2 135.25 137.31 135.2 137.38 135.1C137.45 135 137.49 134.86 137.49 134.7C137.49 134.54 137.45 134.4 137.38 134.31C137.3 134.21 137.19 134.17 137.04 134.17L137.03 134.16Z" fill="#013047"/>
<path d="M142.48 133.97L140.73 138.07H139.59L141.34 134.23H139.11V133.4H142.48V133.98V133.97Z" fill="#013047"/>
<path d="M146.19 134.64C146.19 134.87 146.13 135.07 146.02 135.24C145.91 135.41 145.75 135.55 145.56 135.66C145.78 135.77 145.96 135.92 146.09 136.11C146.22 136.3 146.29 136.52 146.29 136.78C146.29 137.2 146.15 137.53 145.86 137.77C145.57 138.01 145.18 138.13 144.67 138.13C144.16 138.13 143.76 138.01 143.47 137.76C143.18 137.52 143.03 137.19 143.03 136.77C143.03 136.52 143.09 136.3 143.22 136.1C143.35 135.91 143.53 135.76 143.77 135.64C143.57 135.54 143.41 135.4 143.3 135.22C143.19 135.05 143.13 134.85 143.13 134.62C143.13 134.21 143.27 133.89 143.54 133.66C143.82 133.42 144.19 133.31 144.66 133.31C145.13 133.31 145.51 133.43 145.78 133.66C146.05 133.89 146.19 134.22 146.19 134.62V134.64ZM145.2 136.69C145.2 136.5 145.15 136.35 145.05 136.25C144.95 136.15 144.82 136.09 144.66 136.09C144.5 136.09 144.37 136.14 144.27 136.25C144.17 136.36 144.12 136.5 144.12 136.69C144.12 136.88 144.17 137.02 144.27 137.13C144.37 137.24 144.51 137.29 144.67 137.29C144.83 137.29 144.96 137.24 145.06 137.13C145.16 137.02 145.21 136.88 145.21 136.69H145.2ZM144.65 134.16C144.5 134.16 144.39 134.21 144.32 134.3C144.24 134.39 144.21 134.53 144.21 134.7C144.21 134.87 144.25 135 144.33 135.1C144.41 135.2 144.52 135.25 144.67 135.25C144.82 135.25 144.93 135.2 145 135.1C145.07 135 145.11 134.86 145.11 134.7C145.11 134.54 145.07 134.4 145 134.31C144.92 134.21 144.81 134.17 144.66 134.17L144.65 134.16Z" fill="#013047"/>
<path d="M148.98 136.259C148.75 136.469 148.49 136.579 148.2 136.579C147.78 136.579 147.44 136.439 147.19 136.149C146.94 135.859 146.82 135.479 146.82 134.999C146.82 134.699 146.89 134.419 147.03 134.169C147.17 133.909 147.36 133.709 147.62 133.559C147.87 133.409 148.15 133.329 148.45 133.329C148.75 133.329 149.04 133.409 149.29 133.559C149.54 133.709 149.73 133.939 149.87 134.219C150.01 134.499 150.08 134.829 150.08 135.199V135.609C150.08 136.129 149.98 136.569 149.78 136.949C149.58 137.329 149.29 137.619 148.91 137.819C148.53 138.019 148.1 138.129 147.6 138.129H147.53V137.259H147.74C148.49 137.219 148.9 136.889 148.98 136.249V136.259ZM148.49 135.799C148.73 135.799 148.9 135.699 149 135.489V135.039C149 134.739 148.95 134.519 148.85 134.369C148.75 134.219 148.61 134.159 148.44 134.159C148.29 134.159 148.16 134.239 148.06 134.399C147.96 134.559 147.91 134.759 147.91 134.989C147.91 135.229 147.96 135.429 148.07 135.569C148.17 135.709 148.32 135.789 148.5 135.789L148.49 135.799Z" fill="#013047"/>
<path d="M153.81 134.64C153.81 134.87 153.75 135.07 153.64 135.24C153.53 135.41 153.37 135.55 153.18 135.66C153.4 135.77 153.58 135.92 153.71 136.11C153.84 136.3 153.91 136.52 153.91 136.78C153.91 137.2 153.77 137.53 153.48 137.77C153.19 138.01 152.8 138.13 152.29 138.13C151.78 138.13 151.38 138.01 151.09 137.76C150.8 137.52 150.65 137.19 150.65 136.77C150.65 136.52 150.71 136.3 150.84 136.1C150.97 135.91 151.15 135.76 151.39 135.64C151.19 135.54 151.03 135.4 150.92 135.22C150.81 135.05 150.75 134.85 150.75 134.62C150.75 134.21 150.89 133.89 151.16 133.66C151.44 133.42 151.81 133.31 152.28 133.31C152.75 133.31 153.13 133.43 153.4 133.66C153.67 133.89 153.81 134.22 153.81 134.62V134.64ZM152.82 136.69C152.82 136.5 152.77 136.35 152.67 136.25C152.57 136.15 152.44 136.09 152.28 136.09C152.12 136.09 151.99 136.14 151.89 136.25C151.79 136.36 151.74 136.5 151.74 136.69C151.74 136.88 151.79 137.02 151.89 137.13C151.99 137.24 152.13 137.29 152.29 137.29C152.45 137.29 152.58 137.24 152.68 137.13C152.78 137.02 152.83 136.88 152.83 136.69H152.82ZM152.27 134.16C152.12 134.16 152.01 134.21 151.94 134.3C151.86 134.39 151.83 134.53 151.83 134.7C151.83 134.87 151.87 135 151.95 135.1C152.03 135.2 152.14 135.25 152.29 135.25C152.44 135.25 152.55 135.2 152.62 135.1C152.69 135 152.73 134.86 152.73 134.7C152.73 134.54 152.69 134.4 152.62 134.31C152.54 134.21 152.43 134.17 152.28 134.17L152.27 134.16Z" fill="#013047"/>
<path d="M116.76 84.3594H115.95L113.87 81.0394V84.3594H113.06V79.6794H113.87L115.96 83.0094V79.6794H116.77V84.3594H116.76Z" fill="#013047"/>
<path d="M119.72 84.3595C119.69 84.2895 119.66 84.1895 119.63 84.0395C119.38 84.2995 119.08 84.4295 118.72 84.4295C118.36 84.4295 118.09 84.3295 117.87 84.1295C117.65 83.9295 117.54 83.6795 117.54 83.3895C117.54 83.0195 117.68 82.7295 117.95 82.5395C118.22 82.3395 118.62 82.2395 119.13 82.2395H119.61V82.0095C119.61 81.8295 119.56 81.6895 119.46 81.5795C119.36 81.4695 119.21 81.4195 119 81.4195C118.82 81.4195 118.68 81.4595 118.56 81.5495C118.45 81.6395 118.39 81.7495 118.39 81.8895H117.61C117.61 81.6995 117.67 81.5195 117.8 81.3595C117.93 81.1895 118.1 81.0595 118.32 80.9695C118.54 80.8795 118.78 80.8295 119.05 80.8295C119.46 80.8295 119.78 80.9295 120.02 81.1395C120.26 81.3495 120.39 81.6295 120.39 81.9995V83.5695C120.39 83.8795 120.43 84.1295 120.52 84.3195V84.3695H119.72V84.3595ZM118.86 83.7995C119.01 83.7995 119.16 83.7595 119.29 83.6895C119.43 83.6195 119.53 83.5195 119.6 83.3895V82.7295H119.18C118.89 82.7295 118.67 82.7795 118.53 82.8795C118.39 82.9795 118.31 83.1195 118.31 83.3095C118.31 83.4595 118.36 83.5795 118.46 83.6695C118.56 83.7595 118.69 83.7995 118.86 83.7995Z" fill="#013047"/>
<path d="M121.93 80.8794L121.95 81.2394C122.19 80.9494 122.53 80.8094 122.95 80.8094C123.41 80.8094 123.73 80.9894 123.9 81.3394C124.15 80.9894 124.51 80.8094 124.97 80.8094C125.35 80.8094 125.64 80.9194 125.83 81.1294C126.02 81.3394 126.11 81.6595 126.12 82.0695V84.3494H125.34V82.0894C125.34 81.8694 125.29 81.7094 125.2 81.5994C125.1 81.4994 124.94 81.4494 124.72 81.4494C124.54 81.4494 124.4 81.4994 124.29 81.5894C124.18 81.6794 124.1 81.8094 124.05 81.9594V84.3394H123.27V82.0495C123.26 81.6395 123.05 81.4395 122.64 81.4395C122.33 81.4395 122.11 81.5695 121.97 81.8195V84.3394H121.19V80.8595H121.93V80.8794Z" fill="#013047"/>
<path d="M128.45 84.4194C127.95 84.4194 127.55 84.2594 127.25 83.9494C126.94 83.6394 126.79 83.2194 126.79 82.7094V82.6095C126.79 82.2595 126.86 81.9495 126.99 81.6795C127.12 81.4095 127.31 81.1895 127.55 81.0395C127.79 80.8895 128.06 80.8094 128.36 80.8094C128.83 80.8094 129.2 80.9595 129.46 81.2595C129.72 81.5595 129.85 81.9895 129.85 82.5395V82.8494H127.58C127.6 83.1394 127.7 83.3594 127.87 83.5294C128.04 83.6994 128.25 83.7794 128.5 83.7794C128.86 83.7794 129.15 83.6394 129.37 83.3494L129.79 83.7495C129.65 83.9595 129.46 84.1195 129.23 84.2295C129 84.3395 128.74 84.3995 128.45 84.3995V84.4194ZM128.36 81.4395C128.15 81.4395 127.97 81.5195 127.84 81.6595C127.71 81.8095 127.62 82.0195 127.59 82.2895H129.08V82.2295C129.06 81.9695 128.99 81.7695 128.87 81.6395C128.75 81.5095 128.58 81.4395 128.36 81.4395Z" fill="#013047"/>
<path d="M130.92 80.8094C131.07 80.8094 131.18 80.8494 131.26 80.9294C131.34 81.0094 131.38 81.1194 131.38 81.2394C131.38 81.3594 131.34 81.4594 131.26 81.5394C131.18 81.6194 131.07 81.6594 130.92 81.6594C130.77 81.6594 130.67 81.6194 130.59 81.5394C130.51 81.4594 130.47 81.3594 130.47 81.2294C130.47 81.0994 130.51 80.9994 130.59 80.9194C130.67 80.8394 130.78 80.7994 130.92 80.7994V80.8094ZM130.92 83.5394C131.07 83.5394 131.18 83.5794 131.26 83.6594C131.34 83.7394 131.38 83.8494 131.38 83.9694C131.38 84.0894 131.34 84.1894 131.26 84.2694C131.18 84.3494 131.07 84.3894 130.92 84.3894C130.77 84.3894 130.67 84.3494 130.59 84.2694C130.51 84.1894 130.47 84.0894 130.47 83.9694C130.47 83.8494 130.51 83.7394 130.59 83.6594C130.67 83.5794 130.78 83.5394 130.92 83.5394Z" fill="#013047"/>
<path d="M116.83 92.2495H115.71L114.05 89.3395V92.2495H112.92V87.5695H114.05L115.7 90.4795V87.5695H116.82V92.2495H116.83Z" fill="#013047"/>
<path d="M120.26 91.3795H118.72L118.45 92.2495H117.25L118.96 87.5695H120.02L121.75 92.2495H120.54L120.27 91.3795H120.26ZM118.98 90.5095H119.98L119.48 88.8895L118.98 90.5095Z" fill="#013047"/>
<path d="M123.56 87.5795L124.6 90.8295L125.64 87.5795H127.12V92.2595H125.99V91.1695L126.1 88.9295L124.97 92.2595H124.22L123.09 88.9295L123.2 91.1695V92.2595H122.07V87.5795H123.55H123.56Z" fill="#013047"/>
<path d="M130.75 90.2695H128.98V91.3895H131.07V92.2595H127.85V87.5795H131.08V88.4495H128.98V89.4395H130.75V90.2795V90.2695Z" fill="#013047"/>
<path d="M135.58 91.0094C135.58 90.8394 135.52 90.7194 135.4 90.6294C135.28 90.5394 135.08 90.4394 134.79 90.3394C134.5 90.2394 134.26 90.1494 134.07 90.0494C133.46 89.7494 133.16 89.3394 133.16 88.8194C133.16 88.5594 133.24 88.3294 133.39 88.1294C133.54 87.9294 133.75 87.7794 134.03 87.6694C134.31 87.5594 134.62 87.4994 134.96 87.4994C135.3 87.4994 135.6 87.5594 135.86 87.6794C136.12 87.7994 136.33 87.9694 136.48 88.1894C136.63 88.4094 136.7 88.6694 136.7 88.9494H135.58C135.58 88.7594 135.52 88.6094 135.41 88.5094C135.29 88.4094 135.13 88.3494 134.94 88.3494C134.75 88.3494 134.58 88.3894 134.46 88.4794C134.34 88.5694 134.29 88.6794 134.29 88.8194C134.29 88.9394 134.35 89.0494 134.48 89.1494C134.61 89.2494 134.83 89.3494 135.16 89.4494C135.48 89.5494 135.75 89.6694 135.96 89.7794C136.46 90.0694 136.72 90.4694 136.72 90.9894C136.72 91.3994 136.57 91.7194 136.26 91.9494C135.95 92.1794 135.53 92.2994 134.99 92.2994C134.61 92.2994 134.27 92.2294 133.96 92.0994C133.65 91.9594 133.42 91.7794 133.27 91.5394C133.11 91.2994 133.04 91.0294 133.04 90.7194H134.17C134.17 90.9694 134.23 91.1494 134.36 91.2694C134.49 91.3894 134.7 91.4494 134.99 91.4494C135.18 91.4494 135.32 91.4094 135.43 91.3294C135.54 91.2494 135.59 91.1394 135.59 90.9894L135.58 91.0094Z" fill="#013047"/>
<path d="M140.95 87.5795V90.6395C140.95 90.9895 140.88 91.2895 140.73 91.5395C140.58 91.7895 140.37 91.9895 140.09 92.1195C139.81 92.2495 139.49 92.3195 139.11 92.3195C138.54 92.3195 138.09 92.1695 137.76 91.8795C137.43 91.5795 137.27 91.1795 137.26 90.6695V87.5895H138.39V90.6995C138.4 91.2095 138.64 91.4695 139.1 91.4695C139.33 91.4695 139.51 91.4095 139.63 91.2795C139.75 91.1495 139.81 90.9395 139.81 90.6495V87.5995H140.94L140.95 87.5795Z" fill="#013047"/>
<path d="M143.39 90.5995H142.78V92.2495H141.65V87.5695H143.49C144.04 87.5695 144.48 87.6895 144.79 87.9395C145.1 88.1895 145.26 88.5295 145.26 88.9795C145.26 89.3095 145.19 89.5695 145.06 89.7895C144.93 90.0095 144.72 90.1795 144.44 90.3095L145.42 92.1995V92.2495H144.21L143.38 90.5995H143.39ZM142.78 89.7295H143.49C143.7 89.7295 143.87 89.6695 143.97 89.5595C144.08 89.4495 144.13 89.2895 144.13 89.0895C144.13 88.8895 144.08 88.7295 143.97 88.6195C143.86 88.4995 143.7 88.4495 143.49 88.4495H142.78V89.7395V89.7295Z" fill="#013047"/>
<path d="M149.85 92.2495H148.73L147.07 89.3395V92.2495H145.94V87.5695H147.07L148.72 90.4795V87.5695H149.84V92.2495H149.85Z" fill="#013047"/>
<path d="M153.28 91.3795H151.74L151.47 92.2495H150.27L151.98 87.5695H153.04L154.77 92.2495H153.56L153.29 91.3795H153.28ZM152 90.5095H153L152.5 88.8895L152 90.5095Z" fill="#013047"/>
<path d="M156.58 87.5795L157.62 90.8295L158.66 87.5795H160.14V92.2595H159.01V91.1695L159.12 88.9295L157.99 92.2595H157.24L156.11 88.9295L156.22 91.1695V92.2595H155.09V87.5795H156.57H156.58Z" fill="#013047"/>
<path d="M163.77 90.2695H162V91.3895H164.09V92.2595H160.87V87.5795H164.1V88.4495H162V89.4395H163.77V90.2795V90.2695Z" fill="#013047"/>
<path d="M180.89 128.289H179.16V129.589H181.18V130.169H178.43V125.959H181.16V126.549H179.16V127.709H180.89V128.289Z" fill="#013047"/>
<path d="M182.84 128.07L183.44 127.04H184.22L183.26 128.58L184.25 130.17H183.47L182.85 129.1L182.23 130.17H181.45L182.44 128.58L181.48 127.04H182.26L182.84 128.07Z" fill="#013047"/>
<path d="M187.43 128.639C187.43 129.119 187.32 129.509 187.1 129.799C186.88 130.089 186.58 130.229 186.21 130.229C185.87 130.229 185.59 130.119 185.38 129.889V131.369H184.68V127.039H185.33L185.36 127.359C185.57 127.109 185.85 126.979 186.2 126.979C186.58 126.979 186.88 127.119 187.1 127.409C187.32 127.689 187.43 128.089 187.43 128.589V128.629V128.639ZM186.73 128.579C186.73 128.269 186.67 128.019 186.54 127.839C186.42 127.659 186.24 127.559 186.01 127.559C185.72 127.559 185.52 127.679 185.39 127.919V129.309C185.52 129.549 185.73 129.669 186.01 129.669C186.23 129.669 186.41 129.579 186.54 129.399C186.67 129.219 186.73 128.949 186.73 128.579Z" fill="#013047"/>
<path d="M189.41 130.229C188.96 130.229 188.6 130.089 188.33 129.809C188.05 129.529 187.91 129.159 187.91 128.689V128.599C187.91 128.289 187.97 128.009 188.09 127.759C188.21 127.509 188.38 127.319 188.6 127.189C188.82 127.059 189.06 126.979 189.33 126.979C189.76 126.979 190.09 127.119 190.32 127.389C190.55 127.659 190.67 128.049 190.67 128.539V128.819H188.62C188.64 129.079 188.73 129.279 188.88 129.429C189.03 129.579 189.22 129.659 189.45 129.659C189.77 129.659 190.03 129.529 190.24 129.269L190.62 129.629C190.5 129.819 190.33 129.959 190.12 130.069C189.91 130.169 189.68 130.219 189.42 130.219L189.41 130.229ZM189.33 127.549C189.14 127.549 188.98 127.619 188.86 127.749C188.74 127.879 188.67 128.069 188.63 128.309H189.97V128.259C189.95 128.019 189.89 127.849 189.78 127.729C189.67 127.609 189.52 127.549 189.32 127.549H189.33Z" fill="#013047"/>
<path d="M191.08 128.579C191.08 128.099 191.19 127.709 191.42 127.419C191.64 127.129 191.94 126.979 192.32 126.979C192.65 126.979 192.92 127.099 193.12 127.329V125.729H193.82V130.169H193.18L193.15 129.849C192.94 130.099 192.66 130.229 192.31 130.229C191.96 130.229 191.65 130.079 191.42 129.789C191.19 129.499 191.08 129.089 191.08 128.589V128.579ZM191.78 128.639C191.78 128.959 191.84 129.209 191.96 129.389C192.08 129.569 192.26 129.659 192.48 129.659C192.77 129.659 192.98 129.529 193.11 129.279V127.939C192.98 127.689 192.77 127.559 192.49 127.559C192.26 127.559 192.09 127.649 191.96 127.829C191.84 128.009 191.77 128.279 191.77 128.649L191.78 128.639Z" fill="#013047"/>
<path d="M194.56 126.229C194.56 126.119 194.59 126.029 194.66 125.959C194.73 125.889 194.83 125.849 194.95 125.849C195.07 125.849 195.18 125.889 195.25 125.959C195.32 126.029 195.35 126.119 195.35 126.229C195.35 126.339 195.32 126.419 195.25 126.499C195.18 126.569 195.08 126.609 194.95 126.609C194.82 126.609 194.73 126.569 194.66 126.499C194.59 126.429 194.56 126.339 194.56 126.229ZM195.31 130.169H194.61V127.039H195.31V130.169Z" fill="#013047"/>
<path d="M196.95 126.28V127.04H197.5V127.56H196.95V129.31C196.95 129.43 196.97 129.52 197.02 129.57C197.07 129.62 197.15 129.65 197.27 129.65C197.35 129.65 197.43 129.65 197.52 129.62V130.16C197.36 130.2 197.21 130.23 197.06 130.23C196.52 130.23 196.25 129.93 196.25 129.34V127.57H195.74V127.05H196.25V126.29H196.95V126.28Z" fill="#013047"/>
<path d="M198.04 126.229C198.04 126.119 198.07 126.029 198.14 125.959C198.21 125.889 198.31 125.849 198.43 125.849C198.55 125.849 198.66 125.889 198.73 125.959C198.8 126.029 198.83 126.119 198.83 126.229C198.83 126.339 198.8 126.419 198.73 126.499C198.66 126.569 198.56 126.609 198.43 126.609C198.3 126.609 198.21 126.569 198.14 126.499C198.07 126.429 198.04 126.339 198.04 126.229ZM198.79 130.169H198.09V127.039H198.79V130.169Z" fill="#013047"/>
<path d="M199.42 128.579C199.42 128.269 199.48 127.999 199.6 127.749C199.72 127.499 199.89 127.309 200.11 127.179C200.33 127.049 200.58 126.979 200.87 126.979C201.29 126.979 201.64 127.119 201.9 127.389C202.16 127.659 202.31 128.019 202.33 128.469V128.639C202.33 128.949 202.27 129.219 202.16 129.469C202.04 129.709 201.87 129.899 201.65 130.029C201.43 130.159 201.17 130.229 200.88 130.229C200.44 130.229 200.09 130.079 199.82 129.789C199.56 129.499 199.42 129.099 199.42 128.609V128.569V128.579ZM200.12 128.639C200.12 128.959 200.19 129.209 200.32 129.399C200.45 129.579 200.64 129.669 200.87 129.669C201.1 129.669 201.29 129.579 201.42 129.389C201.55 129.199 201.62 128.929 201.62 128.579C201.62 128.259 201.55 128.009 201.42 127.829C201.29 127.649 201.1 127.549 200.87 127.549C200.64 127.549 200.46 127.639 200.32 127.819C200.19 127.999 200.12 128.269 200.12 128.639Z" fill="#013047"/>
<path d="M203.58 127.039L203.6 127.399C203.83 127.119 204.14 126.979 204.51 126.979C205.16 126.979 205.49 127.349 205.51 128.099V130.169H204.81V128.139C204.81 127.939 204.77 127.789 204.68 127.699C204.59 127.599 204.45 127.559 204.26 127.559C203.98 127.559 203.77 127.689 203.63 127.949V130.179H202.93V127.049H203.59L203.58 127.039Z" fill="#013047"/>
<path d="M209.24 130.169V125.959H210.48C210.85 125.959 211.18 126.039 211.47 126.209C211.76 126.379 211.98 126.609 212.14 126.919C212.3 127.229 212.38 127.569 212.38 127.969V128.179C212.38 128.579 212.3 128.929 212.14 129.229C211.98 129.529 211.75 129.769 211.46 129.929C211.17 130.089 210.83 130.179 210.45 130.179H209.24V130.169ZM209.97 126.549V129.589H210.45C210.83 129.589 211.13 129.469 211.33 129.229C211.54 128.989 211.64 128.649 211.64 128.189V127.959C211.64 127.499 211.54 127.149 211.34 126.909C211.14 126.669 210.85 126.549 210.47 126.549H209.96H209.97Z" fill="#013047"/>
<path d="M214.91 130.169C214.88 130.109 214.85 130.009 214.83 129.879C214.61 130.109 214.33 130.229 214.01 130.229C213.69 130.229 213.44 130.139 213.24 129.959C213.04 129.779 212.94 129.559 212.94 129.289C212.94 128.959 213.06 128.699 213.31 128.519C213.56 128.339 213.91 128.249 214.37 128.249H214.8V128.039C214.8 127.879 214.75 127.749 214.66 127.649C214.57 127.549 214.43 127.499 214.25 127.499C214.09 127.499 213.96 127.539 213.86 127.619C213.76 127.699 213.71 127.799 213.71 127.929H213.01C213.01 127.759 213.07 127.599 213.18 127.449C213.29 127.299 213.45 127.179 213.64 127.099C213.84 127.019 214.05 126.969 214.3 126.969C214.67 126.969 214.96 127.059 215.18 127.249C215.4 127.429 215.51 127.689 215.52 128.029V129.439C215.52 129.719 215.56 129.949 215.64 130.109V130.159H214.92L214.91 130.169ZM214.14 129.659C214.28 129.659 214.41 129.629 214.53 129.559C214.65 129.489 214.74 129.399 214.81 129.289V128.699H214.43C214.17 128.699 213.97 128.739 213.84 128.839C213.71 128.939 213.64 129.059 213.64 129.219C213.64 129.349 213.68 129.459 213.77 129.539C213.86 129.619 213.98 129.659 214.13 129.659H214.14Z" fill="#013047"/>
<path d="M217.13 126.28V127.04H217.68V127.56H217.13V129.31C217.13 129.43 217.15 129.52 217.2 129.57C217.25 129.62 217.33 129.65 217.45 129.65C217.53 129.65 217.61 129.65 217.7 129.62V130.16C217.54 130.2 217.39 130.23 217.24 130.23C216.7 130.23 216.43 129.93 216.43 129.34V127.57H215.92V127.05H216.43V126.29H217.13V126.28Z" fill="#013047"/>
<path d="M219.6 130.229C219.15 130.229 218.79 130.089 218.52 129.809C218.24 129.529 218.1 129.159 218.1 128.689V128.599C218.1 128.289 218.16 128.009 218.28 127.759C218.4 127.509 218.57 127.319 218.79 127.189C219.01 127.059 219.25 126.979 219.52 126.979C219.95 126.979 220.28 127.119 220.51 127.389C220.74 127.659 220.86 128.049 220.86 128.539V128.819H218.81C218.83 129.079 218.92 129.279 219.07 129.429C219.22 129.579 219.41 129.659 219.64 129.659C219.96 129.659 220.22 129.529 220.43 129.269L220.81 129.629C220.69 129.819 220.52 129.959 220.31 130.069C220.1 130.169 219.87 130.219 219.61 130.219L219.6 130.229ZM219.52 127.549C219.33 127.549 219.17 127.619 219.05 127.749C218.93 127.879 218.86 128.069 218.82 128.309H220.16V128.259C220.14 128.019 220.08 127.849 219.97 127.729C219.86 127.609 219.71 127.549 219.51 127.549H219.52Z" fill="#013047"/>
<path d="M221.82 126.969C221.95 126.969 222.05 127.009 222.12 127.079C222.19 127.149 222.23 127.249 222.23 127.359C222.23 127.469 222.19 127.559 222.12 127.629C222.05 127.699 221.95 127.739 221.82 127.739C221.69 127.739 221.6 127.699 221.52 127.629C221.44 127.559 221.41 127.469 221.41 127.359C221.41 127.249 221.45 127.149 221.52 127.079C221.59 127.009 221.69 126.969 221.82 126.969ZM221.82 129.429C221.95 129.429 222.05 129.469 222.12 129.539C222.19 129.609 222.23 129.709 222.23 129.819C222.23 129.929 222.19 130.019 222.12 130.089C222.05 130.159 221.95 130.199 221.82 130.199C221.69 130.199 221.6 130.159 221.52 130.089C221.44 130.019 221.41 129.929 221.41 129.809C221.41 129.689 221.45 129.609 221.52 129.529C221.59 129.449 221.69 129.419 221.82 129.419V129.429Z" fill="#013047"/>
<path d="M191.11 135.56C191.11 136.13 190.98 136.57 190.73 136.88C190.47 137.19 190.11 137.34 189.65 137.34C189.19 137.34 188.82 137.18 188.56 136.87C188.3 136.56 188.18 136.12 188.18 135.56V134.79C188.18 134.22 188.31 133.78 188.56 133.47C188.82 133.16 189.18 133.01 189.64 133.01C190.1 133.01 190.47 133.17 190.72 133.48C190.97 133.79 191.1 134.23 191.1 134.8V135.57L191.11 135.56ZM190.14 134.67C190.14 134.37 190.1 134.14 190.02 133.99C189.94 133.84 189.82 133.77 189.64 133.77C189.46 133.77 189.35 133.84 189.27 133.98C189.19 134.12 189.15 134.33 189.15 134.61V135.69C189.15 136 189.19 136.23 189.27 136.38C189.35 136.53 189.47 136.6 189.65 136.6C189.83 136.6 189.94 136.53 190.02 136.39C190.1 136.25 190.14 136.03 190.14 135.72V134.68V134.67Z" fill="#013047"/>
<path d="M194.54 135.56C194.54 136.13 194.41 136.57 194.16 136.88C193.9 137.19 193.54 137.34 193.08 137.34C192.62 137.34 192.25 137.18 191.99 136.87C191.73 136.56 191.61 136.12 191.61 135.56V134.79C191.61 134.22 191.74 133.78 191.99 133.47C192.25 133.16 192.61 133.01 193.07 133.01C193.53 133.01 193.9 133.17 194.15 133.48C194.4 133.79 194.53 134.23 194.53 134.8V135.57L194.54 135.56ZM193.57 134.67C193.57 134.37 193.53 134.14 193.45 133.99C193.37 133.84 193.25 133.77 193.07 133.77C192.89 133.77 192.78 133.84 192.7 133.98C192.62 134.12 192.58 134.33 192.58 134.61V135.69C192.58 136 192.62 136.23 192.7 136.38C192.78 136.53 192.9 136.6 193.08 136.6C193.26 136.6 193.37 136.53 193.45 136.39C193.53 136.25 193.57 136.03 193.57 135.72V134.68V134.67Z" fill="#013047"/>
<path d="M195.4 137.639H194.71L196.15 133.069H196.84L195.4 137.639Z" fill="#013047"/>
<path d="M200.06 135.56C200.06 136.13 199.93 136.57 199.68 136.88C199.42 137.19 199.06 137.34 198.6 137.34C198.14 137.34 197.77 137.18 197.51 136.87C197.25 136.56 197.13 136.12 197.13 135.56V134.79C197.13 134.22 197.26 133.78 197.51 133.47C197.77 133.16 198.13 133.01 198.59 133.01C199.05 133.01 199.42 133.17 199.67 133.48C199.92 133.79 200.05 134.23 200.05 134.8V135.57L200.06 135.56ZM199.09 134.67C199.09 134.37 199.05 134.14 198.97 133.99C198.89 133.84 198.77 133.77 198.59 133.77C198.41 133.77 198.3 133.84 198.22 133.98C198.14 134.12 198.1 134.33 198.1 134.61V135.69C198.1 136 198.14 136.23 198.22 136.38C198.3 136.53 198.42 136.6 198.6 136.6C198.78 136.6 198.89 136.53 198.97 136.39C199.05 136.25 199.09 136.03 199.09 135.72V134.68V134.67Z" fill="#013047"/>
<path d="M203.49 135.56C203.49 136.13 203.36 136.57 203.11 136.88C202.85 137.19 202.49 137.34 202.03 137.34C201.57 137.34 201.2 137.18 200.94 136.87C200.68 136.56 200.56 136.12 200.56 135.56V134.79C200.56 134.22 200.69 133.78 200.94 133.47C201.2 133.16 201.56 133.01 202.02 133.01C202.48 133.01 202.85 133.17 203.1 133.48C203.35 133.79 203.48 134.23 203.48 134.8V135.57L203.49 135.56ZM202.52 134.67C202.52 134.37 202.48 134.14 202.4 133.99C202.32 133.84 202.2 133.77 202.02 133.77C201.84 133.77 201.73 133.84 201.65 133.98C201.57 134.12 201.53 134.33 201.53 134.61V135.69C201.53 136 201.57 136.23 201.65 136.38C201.73 136.53 201.85 136.6 202.03 136.6C202.21 136.6 202.32 136.53 202.4 136.39C202.48 136.25 202.52 136.03 202.52 135.72V134.68V134.67Z" fill="#013047"/>
<path d="M204.35 137.639H203.66L205.1 133.069H205.79L204.35 137.639Z" fill="#013047"/>
<path d="M209 135.56C209 136.13 208.87 136.57 208.62 136.88C208.36 137.19 208 137.34 207.54 137.34C207.08 137.34 206.71 137.18 206.45 136.87C206.19 136.56 206.07 136.12 206.07 135.56V134.79C206.07 134.22 206.2 133.78 206.45 133.47C206.71 133.16 207.07 133.01 207.53 133.01C207.99 133.01 208.36 133.17 208.61 133.48C208.86 133.79 208.99 134.23 208.99 134.8V135.57L209 135.56ZM208.03 134.67C208.03 134.37 207.99 134.14 207.91 133.99C207.83 133.84 207.71 133.77 207.53 133.77C207.35 133.77 207.24 133.84 207.16 133.98C207.08 134.12 207.04 134.33 207.04 134.61V135.69C207.04 136 207.08 136.23 207.16 136.38C207.24 136.53 207.36 136.6 207.54 136.6C207.72 136.6 207.83 136.53 207.91 136.39C207.99 136.25 208.03 136.03 208.03 135.72V134.68V134.67Z" fill="#013047"/>
<path d="M212.43 135.56C212.43 136.13 212.3 136.57 212.05 136.88C211.79 137.19 211.43 137.34 210.97 137.34C210.51 137.34 210.14 137.18 209.88 136.87C209.62 136.56 209.5 136.12 209.5 135.56V134.79C209.5 134.22 209.63 133.78 209.88 133.47C210.14 133.16 210.5 133.01 210.96 133.01C211.42 133.01 211.79 133.17 212.04 133.48C212.29 133.79 212.42 134.23 212.42 134.8V135.57L212.43 135.56ZM211.46 134.67C211.46 134.37 211.42 134.14 211.34 133.99C211.26 133.84 211.14 133.77 210.96 133.77C210.78 133.77 210.67 133.84 210.59 133.98C210.51 134.12 210.47 134.33 210.47 134.61V135.69C210.47 136 210.51 136.23 210.59 136.38C210.67 136.53 210.79 136.6 210.97 136.6C211.15 136.6 211.26 136.53 211.34 136.39C211.42 136.25 211.46 136.03 211.46 135.72V134.68V134.67Z" fill="#013047"/>
<path d="M40.9001 122.189H38.8401V136.989H40.9001V122.189Z" fill="#013047"/>
<path d="M44.89 122.189H41.73V136.989H44.89V122.189Z" fill="#013047"/>
<path d="M46.5401 122.189H45.5901V136.989H46.5401V122.189Z" fill="#013047"/>
<path d="M48.6002 122.189H47.6501V136.989H48.6002V122.189Z" fill="#013047"/>
<path d="M51.7001 122.189H49.6401V136.989H51.7001V122.189Z" fill="#013047"/>
<path d="M55.69 122.189H52.53V136.989H55.69V122.189Z" fill="#013047"/>
<path d="M57.3401 122.189H56.3901V136.989H57.3401V122.189Z" fill="#013047"/>
<path d="M59.3902 122.189H58.4402V136.989H59.3902V122.189Z" fill="#013047"/>
<path d="M70.32 122.189H68.26V136.989H70.32V122.189Z" fill="#013047"/>
<path d="M67.44 122.189H64.28V136.989H67.44V122.189Z" fill="#013047"/>
<path d="M63.5801 122.189H62.6301V136.989H63.5801V122.189Z" fill="#013047"/>
<path d="M61.5201 122.189H60.5701V136.989H61.5201V122.189Z" fill="#013047"/>
<path d="M73.4602 122.189H71.4001V136.989H73.4602V122.189Z" fill="#013047"/>
<path d="M77.4403 122.189H74.2803V136.989H77.4403V122.189Z" fill="#013047"/>
<path d="M79.1002 122.189H78.1501V136.989H79.1002V122.189Z" fill="#013047"/>
<path d="M81.1502 122.189H80.2002V136.989H81.1502V122.189Z" fill="#013047"/>
<path d="M84.2502 122.189H82.1902V136.989H84.2502V122.189Z" fill="#013047"/>
<path d="M88.2401 122.189H85.0801V136.989H88.2401V122.189Z" fill="#013047"/>
<path d="M89.8902 122.189H88.9402V136.989H89.8902V122.189Z" fill="#013047"/>
<path d="M91.9502 122.189H91.0002V136.989H91.9502V122.189Z" fill="#013047"/>
<path d="M96.1302 122.189H95.1802V136.989H96.1302V122.189Z" fill="#013047"/>
<path d="M94.0701 122.189H93.1201V136.989H94.0701V122.189Z" fill="#013047"/>
<path d="M66.83 113.189C84.3982 113.189 98.64 98.9476 98.64 81.3795C98.64 63.8113 84.3982 49.5695 66.83 49.5695C49.2618 49.5695 35.02 63.8113 35.02 81.3795C35.02 98.9476 49.2618 113.189 66.83 113.189Z" fill="#F2E9E9"/>
<path d="M70.69 95.9294H62.95V103.669H70.69V95.9294Z" fill="#EC7665"/>
<path d="M78.8298 78.0495C78.8298 78.0495 80.1798 76.1795 83.0998 77.1195C86.0198 78.0495 84.2198 87.5095 78.8098 88.3295L78.8298 78.0495Z" fill="#FFB286"/>
<path d="M80.0398 80.5294C80.0398 80.5294 80.7298 78.8095 82.1798 78.8695C83.6298 78.9395 83.1498 83.1494 80.0398 85.4894V80.5194V80.5294Z" fill="#EC7665"/>
<path d="M54.1498 78.0495C54.1498 78.0495 52.7999 76.1795 49.8799 77.1195C46.9599 78.0495 48.7598 87.5095 54.1698 88.3295L54.1498 78.0495Z" fill="#FFB286"/>
<path d="M52.9399 80.5294C52.9399 80.5294 52.2499 78.8095 50.7999 78.8695C49.3499 78.9395 49.8299 83.1494 52.9399 85.4894V80.5194V80.5294Z" fill="#EC7665"/>
<path d="M66.8199 58.0394C62.3999 58.0394 58.4299 60.0794 55.8199 63.2594C55.8199 63.2594 53.5499 77.9794 55.4799 86.9094C57.0099 94.0194 62.8999 97.9594 66.0299 98.3694C66.2899 98.3794 66.5599 98.3894 66.8299 98.3894C74.6699 98.3894 81.0799 91.9794 81.0799 84.1394V72.2794C81.0799 64.4394 74.6699 58.0294 66.8299 58.0294L66.8199 58.0394Z" fill="#FFB286"/>
<path d="M52.5698 84.1594C52.5698 91.7294 58.5498 97.9694 66.0198 98.3894C62.8898 97.9794 56.9998 94.0294 55.4698 86.9294C53.5498 77.9894 55.8098 63.2794 55.8098 63.2794C53.7798 65.7394 52.5598 68.8894 52.5598 72.3094V84.1694L52.5698 84.1594Z" fill="#EC7665"/>
<path d="M58.27 66.8395C58.27 66.8395 68.36 73.6395 77.34 68.3595C77.34 68.3595 58.62 61.8395 58.53 64.0795C58.44 66.3295 58.28 66.8295 58.28 66.8295L58.27 66.8395Z" fill="#EC7665"/>
<path d="M50.7799 111.499C51.7699 110.489 52.4299 109.899 52.4299 109.899C52.5899 110.329 52.6699 110.869 52.6999 111.499H53.5499C55.4899 109.609 56.8899 108.609 56.9299 108.589L54.9799 105.809L53.0399 103.019C52.7699 103.209 48.6599 106.109 44.3999 111.509H50.7799V111.499Z" fill="#304FFE"/>
<path d="M52.1198 111.499V110.189C51.8398 110.459 51.3698 110.909 50.7798 111.499H52.1198Z" fill="#0009CA"/>
<path d="M80.95 111.499C80.98 110.869 81.06 110.319 81.22 109.889C81.22 109.889 81.88 110.479 82.88 111.499H89.26C85 106.099 80.88 103.189 80.61 102.999L78.67 105.789L76.72 108.569C76.72 108.569 78.16 109.599 80.11 111.489H80.94L80.95 111.499Z" fill="#304FFE"/>
<path d="M82.89 111.499C82.3 110.899 81.82 110.439 81.54 110.169V111.499H82.89Z" fill="#0009CA"/>
<path d="M80.8099 65.9094L79.9298 66.2994C78.6298 64.2294 75.1699 64.6894 75.1699 64.6894C74.8299 67.4194 78.1999 69.6094 78.1999 69.6094L78.4199 74.8494L81.0898 79.0494C81.0898 79.0494 81.0898 78.9794 81.0898 78.9394L81.1099 78.9994C85.4799 68.8094 80.7999 65.9094 80.7999 65.9094H80.8099Z" fill="#00222D"/>
<path d="M53 65.9094L53.88 66.2994C55.18 64.2294 58.6399 64.6894 58.6399 64.6894C58.9799 67.4194 55.61 69.6094 55.61 69.6094L55.3899 74.8494L52.72 79.0494C52.72 79.0494 52.72 78.9794 52.72 78.9394L52.6999 78.9994C48.3299 68.8094 53.0099 65.9094 53.0099 65.9094H53Z" fill="#00222D"/>
<path d="M55.6299 60.7794C55.3099 61.6794 56.0499 62.6094 56.9899 62.4994C57.7299 62.4094 58.6799 62.4094 59.7999 62.6494C62.6999 63.2494 66.0999 67.7194 74.7499 66.2094C77.3399 65.7594 79.4699 64.7194 81.1899 63.4394C81.3799 60.0794 80.3899 54.3494 71.8099 53.2094C68.7199 53.1794 65.1899 53.3594 61.9999 54.0494C61.8899 54.0794 59.8299 54.6294 57.3399 55.8494C57.3399 55.9794 57.3199 56.1194 57.2799 56.2694C57.0399 57.3594 56.1799 59.2094 55.6199 60.7894L55.6299 60.7794Z" fill="#013047"/>
<path d="M74.7498 66.2094C66.0998 67.7194 62.6898 63.2494 59.7998 62.6494C58.6898 62.4194 57.7398 62.4194 56.9998 62.4994C56.0498 62.6094 55.3098 61.6894 55.6298 60.7894C56.1898 59.2094 57.0398 57.3494 57.2898 56.2694C57.3198 56.1294 57.3398 55.9894 57.3498 55.8494C56.7498 56.1394 56.1898 56.6094 55.5898 57.0394C55.1298 57.3694 54.6898 57.7294 54.3098 58.1494C53.2298 59.3294 52.5498 60.7294 52.5798 62.6494C52.6998 72.2594 54.3498 65.7294 58.4998 65.1594C58.4998 65.1594 63.9798 70.4494 73.7998 68.9394C76.4798 68.5294 78.8498 67.4194 80.8198 65.9094C80.8198 65.9094 81.1198 64.8994 81.1998 63.4394C79.4798 64.7194 77.3498 65.7594 74.7598 66.2094H74.7498Z" fill="#00222D"/>
<path d="M79.2699 102.599H70.6999C70.6999 102.599 70.1799 104.959 66.9299 104.959C63.6799 104.959 62.9299 102.599 62.9299 102.599H54.3999C52.9399 102.599 52.1299 103.619 52.1299 104.869V114.179L81.5399 114.119V104.869C81.5399 103.619 80.6399 102.599 79.2699 102.599Z" fill="#304FFE"/>
<path d="M66.9299 104.959C70.1799 104.959 70.6999 102.599 70.6999 102.599H62.9399C62.9399 102.599 63.6899 104.959 66.9399 104.959H66.9299Z" fill="#EC7665"/>
<path d="M245.59 13.7594L231.91 22.1494H246.63V16.5694C246.63 15.4994 246.24 14.5194 245.59 13.7494V13.7594Z" fill="#0009CA"/>
<path d="M207.37 37.2094H246.63V26.4094H224.97L207.37 37.2094Z" fill="#0009CA"/>
<path d="M16.8 22.1494V26.4094H224.97L231.91 22.1494H16.8Z" fill="white"/>
<path d="M224.97 26.4094H246.63V22.1494H231.91L224.97 26.4094Z" fill="#F2E9E9"/>
<path d="M211.51 105.74C217.955 105.74 223.18 100.515 223.18 94.0695C223.18 87.6244 217.955 82.3995 211.51 82.3995C205.065 82.3995 199.84 87.6244 199.84 94.0695C199.84 100.515 205.065 105.74 211.51 105.74Z" fill="#BDBBBB"/>
<path d="M211.51 76.0895C201.58 76.0895 193.53 84.1395 193.53 94.0695C193.53 103.999 201.58 112.049 211.51 112.049C221.44 112.049 229.49 103.999 229.49 94.0695C229.49 84.1395 221.44 76.0895 211.51 76.0895ZM211.51 108.229C203.7 108.229 197.35 101.879 197.35 94.0695C197.35 86.2595 203.7 79.9095 211.51 79.9095C219.32 79.9095 225.67 86.2595 225.67 94.0695C225.67 101.879 219.32 108.229 211.51 108.229Z" fill="#BDBBBB"/>
<path d="M210.9 115.76C209.6 115.72 208.3 115.569 207.04 115.31L207.38 113.68C208.54 113.92 209.74 114.07 210.94 114.1L210.89 115.76H210.9ZM215.63 115.38L215.32 113.75C216.49 113.52 217.65 113.19 218.76 112.76L219.36 114.31C218.15 114.78 216.9 115.14 215.63 115.39V115.38ZM202.54 113.82C201.36 113.28 200.23 112.63 199.17 111.89L200.12 110.53C201.1 111.21 202.15 111.81 203.23 112.31L202.54 113.82ZM223.57 112.1L222.64 110.72C223.63 110.05 224.57 109.29 225.42 108.46L226.58 109.65C225.65 110.55 224.64 111.38 223.56 112.1H223.57ZM195.6 108.77C194.73 107.819 193.93 106.78 193.24 105.69L194.65 104.8C195.29 105.81 196.02 106.77 196.83 107.65L195.61 108.77H195.6ZM229.6 106L228.21 105.09C228.87 104.09 229.43 103.03 229.9 101.93L231.43 102.58C230.93 103.77 230.31 104.92 229.6 106.01V106ZM191.16 101.42C190.73 100.2 190.4 98.9395 190.19 97.6595L191.83 97.3895C192.02 98.5695 192.32 99.7395 192.72 100.86L191.15 101.42H191.16ZM232.79 98.0195L231.15 97.7195C231.36 96.5495 231.47 95.3495 231.47 94.1495H233.13C233.13 95.4495 233.01 96.7495 232.79 98.0195ZM191.61 93.0095L189.95 92.9195C190.02 91.6195 190.21 90.3295 190.52 89.0795L192.14 89.4695C191.86 90.6295 191.69 91.8195 191.62 93.0195L191.61 93.0095ZM231.37 92.0495C231.25 90.8595 231.01 89.6795 230.68 88.5295L232.28 88.0595C232.64 89.2995 232.9 90.5795 233.03 91.8695L231.38 92.0395L231.37 92.0495ZM193.62 85.3495L192.13 84.6195C192.7 83.4595 193.38 82.3395 194.15 81.2995L195.49 82.2895C194.78 83.2495 194.15 84.2795 193.62 85.3495ZM228.99 84.4995C228.41 83.4595 227.73 82.4595 226.98 81.5295L228.27 80.4795C229.09 81.4795 229.82 82.5595 230.45 83.6895L229 84.4995H228.99ZM198.47 79.0795L197.38 77.8195C198.36 76.9695 199.42 76.2095 200.53 75.5495L201.38 76.9795C200.35 77.5895 199.37 78.2895 198.47 79.0795ZM223.85 78.4695C222.91 77.7295 221.9 77.0695 220.84 76.5195L221.62 75.0495C222.76 75.6495 223.86 76.3695 224.88 77.1695L223.85 78.4795V78.4695ZM205.37 75.1795L204.86 73.5995C206.09 73.1995 207.36 72.9095 208.65 72.7395L208.87 74.3895C207.68 74.5495 206.51 74.8195 205.37 75.1795ZM216.77 74.8995C215.62 74.5895 214.43 74.3795 213.24 74.2795L213.38 72.6195C214.67 72.7295 215.96 72.9595 217.2 73.2995L216.76 74.8995H216.77Z" fill="#BDBBBB"/>
<g opacity="0.11" style="mix-blend-mode:multiply">
<path d="M16.8 43.3695C16.8 43.3695 24.84 35.6995 37.84 35.5795C48.01 35.4795 58.73 42.2895 58.26 55.6995C57.76 69.8195 16.81 104.079 16.81 104.079V43.3695H16.8Z" fill="#00222D"/>
</g>
<path d="M51.78 45.1794C46.75 40.6494 41.67 38.3694 36.21 38.2694C29.41 38.1294 22.01 41.3594 13.34 47.8194C8.38998 51.5094 2.64999 56.4694 -2.63 61.2694C-11.71 69.5094 -19.42 77.2694 -19.42 77.2694C-20.2 77.4995 -21.16 77.8295 -22.25 78.2295C-26.43 79.7495 -32.56 82.3094 -38.08 84.6795C-45.05 87.6795 -51.08 90.3895 -51.08 90.3895C-55.6 60.2394 -41.61 45.1694 -41.61 45.1694C-27.99 51.1994 -16.04 46.2994 -16.04 46.2994L-14.13 42.7894L2.77998 11.6294C-6.98002 0.559448 -9.80001 -3.34055 -32.4 3.13945C-33.59 3.47945 -34.85 3.84945 -36.15 4.25945C-37.87 4.77945 -39.68 5.35945 -41.61 5.98945C-70.9 15.5294 -106.96 20.4294 -116.61 27.8494C-117.25 28.3394 -117.77 28.8394 -118.17 29.3494C-119.28 30.7794 -121.25 33.7494 -123.84 37.7994C-125.63 40.5994 -127.72 43.9294 -130.01 47.6194V210.309C-127.42 208.889 -124.61 207.469 -121.56 206.079C-95.94 194.399 -50.72 162.369 -39.41 149.559C-34.79 144.319 -27.83 137.249 -20.32 130.049C-20.23 129.969 -20.19 129.929 -20.19 129.929C-9.37001 119.569 2.56999 108.969 10.33 103.209C23.52 93.4094 45.37 70.7995 45.37 70.7995C45.37 70.7995 63.08 55.3494 51.78 45.1794Z" fill="#FDB084"/>
<path d="M21.6399 56.9495C21.6399 56.9495 34.8799 67.5095 37.8199 75.5395C37.8199 75.5395 53.3099 63.3195 51.4799 54.9095C48.4999 41.1595 29.3599 45.1995 21.6399 56.9595V56.9495Z" fill="#FCECE0"/>
<path d="M-9.39994 82.1095C-9.39994 82.1095 -8.12995 97.0495 4.37005 100.759C4.37005 100.759 -11.8999 103.179 -9.39994 82.1095Z" fill="#DF7C73"/>
<path d="M-4.23999 77.3295C-4.23999 77.3295 4.46002 84.5195 7.57001 93.9095C7.57001 93.9095 8.87001 83.1295 -4.23999 77.3295Z" fill="#DF7C73"/>
<path d="M3.3999 75.5294C3.3999 75.5294 9.67991 81.9894 11.6299 91.6894C11.6299 91.6894 14.3499 82.5394 3.3999 75.5294Z" fill="#DF7C73"/>
</svg>
