<svg width="233" height="260" viewBox="0 0 233 260" fill="none" xmlns="http://www.w3.org/2000/svg">
<g clip-path="url(#clip0_11_18691)">
<path d="M86.1227 9.3957V170.979C86.1227 176.169 90.3288 180.375 95.5184 180.375H223.355C228.544 180.375 232.75 176.169 232.75 170.979V39.848L192.904 0H95.5184C90.3288 0 86.1227 4.20609 86.1227 9.3957Z" fill="url(#paint0_linear_11_18691)"/>
<g opacity="0.2">
<path d="M127.394 35.6896H120.879V38.6002H127.394V35.6896Z" fill="#304FFE"/>
<path d="M169.227 35.6896H159.836V38.6002H169.227V35.6896Z" fill="#304FFE"/>
<path d="M178.191 35.6896H172.673V38.6002H178.191V35.6896Z" fill="#304FFE"/>
<path d="M156.392 35.6896H130.838V38.6002H156.392V35.6896Z" fill="#304FFE"/>
<path d="M117.436 35.6896H104.115V38.6002H117.436V35.6896Z" fill="#304FFE"/>
<path d="M208.298 35.6896H181.635V38.6002H208.298V35.6896Z" fill="#304FFE"/>
<path d="M188.069 41.1328H163.28V44.0434H188.069V41.1328Z" fill="#304FFE"/>
<path d="M150.803 41.1328H114.52V44.0434H150.803V41.1328Z" fill="#304FFE"/>
<path d="M159.836 41.1328H154.245V44.0434H159.836V41.1328Z" fill="#304FFE"/>
<path d="M218.349 41.1328H212.444V44.0434H218.349V41.1328Z" fill="#304FFE"/>
<path d="M111.076 41.1328H101.323V44.0434H111.076V41.1328Z" fill="#304FFE"/>
<path d="M209 41.1328H191.513V44.0434H209V41.1328Z" fill="#304FFE"/>
<path d="M148.504 46.5759H123.191V49.4865H148.504V46.5759Z" fill="#304FFE"/>
<path d="M173.71 46.5759H151.949V49.4865H173.71V46.5759Z" fill="#304FFE"/>
<path d="M181.856 46.5759H177.154V49.4865H181.856V46.5759Z" fill="#304FFE"/>
<path d="M119.747 46.5759H109.435V49.4865H119.747V46.5759Z" fill="#304FFE"/>
<path d="M177.784 52.0192H169.229V54.9298H177.784V52.0192Z" fill="#304FFE"/>
<path d="M165.785 52.0192H137.41V54.9298H165.785V52.0192Z" fill="#304FFE"/>
<path d="M207.277 52.0192H181.226V54.9298H207.277V52.0192Z" fill="#304FFE"/>
<path d="M133.966 52.0192H116.662V54.9298H133.966V52.0192Z" fill="#304FFE"/>
<path d="M187.021 57.4639H152.524V60.3745H187.021V57.4639Z" fill="#304FFE"/>
<path d="M149.079 57.4639H127.036V60.3745H149.079V57.4639Z" fill="#304FFE"/>
<path d="M195.427 57.4639H190.465V60.3745H195.427V57.4639Z" fill="#304FFE"/>
<path d="M123.592 57.4639H109.435V60.3745H123.592V57.4639Z" fill="#304FFE"/>
<path d="M158.914 62.907H133.966V65.8176H158.914V62.907Z" fill="#304FFE"/>
<path d="M178.583 62.907H169.229V65.8176H178.583V62.907Z" fill="#304FFE"/>
<path d="M165.785 62.907H162.358V65.8176H165.785V62.907Z" fill="#304FFE"/>
<path d="M218.349 62.907H212.307V65.8176H218.349V62.907Z" fill="#304FFE"/>
<path d="M130.522 62.907H116.662V65.8176H130.522V62.907Z" fill="#304FFE"/>
<path d="M208.863 62.907H182.027V65.8176H208.863V62.907Z" fill="#304FFE"/>
<path d="M154.671 68.3502H149.884V71.2608H154.671V68.3502Z" fill="#304FFE"/>
<path d="M146.44 68.3502H120.879V71.2608H146.44V68.3502Z" fill="#304FFE"/>
<path d="M117.435 68.3502H101.323V71.2608H117.435V68.3502Z" fill="#304FFE"/>
<path d="M165.444 73.7933H127.036V76.7039H165.444V73.7933Z" fill="#304FFE"/>
<path d="M178.583 73.7933H168.889V76.7039H178.583V73.7933Z" fill="#304FFE"/>
<path d="M123.592 73.7933H113.823V76.7039H123.592V73.7933Z" fill="#304FFE"/>
<path d="M186.347 79.238H150.227V82.1486H186.347V79.238Z" fill="#304FFE"/>
<path d="M146.783 79.238H120.879V82.1486H146.783V79.238Z" fill="#304FFE"/>
<path d="M218.351 79.238H189.792V82.1486H218.351V79.238Z" fill="#304FFE"/>
<path d="M117.435 79.238H107.459V82.1486H117.435V79.238Z" fill="#304FFE"/>
<path d="M138.862 84.6813H132.832V87.5919H138.862V84.6813Z" fill="#304FFE"/>
<path d="M173.905 84.6813H142.306V87.5919H173.905V84.6813Z" fill="#304FFE"/>
<path d="M188.069 84.6813H177.349V87.5919H188.069V84.6813Z" fill="#304FFE"/>
<path d="M129.388 84.6813H115.983V87.5919H129.388V84.6813Z" fill="#304FFE"/>
<path d="M154.946 90.1244H149.684V93.035H154.946V90.1244Z" fill="#304FFE"/>
<path d="M193.236 90.1244H158.39V93.035H193.236V90.1244Z" fill="#304FFE"/>
<path d="M146.24 90.1244H120.879V93.035H146.24V90.1244Z" fill="#304FFE"/>
<path d="M117.435 90.1244H101.323V93.035H117.435V90.1244Z" fill="#304FFE"/>
<path d="M139.368 95.5676H132.394V98.4782H139.368V95.5676Z" fill="#304FFE"/>
<path d="M167.66 95.5676H142.812V98.4782H167.66V95.5676Z" fill="#304FFE"/>
<path d="M128.949 95.5676H109.435V98.4782H128.949V95.5676Z" fill="#304FFE"/>
<path d="M140.364 101.347H120.879V104.258H140.364V101.347Z" fill="#304FFE"/>
<path d="M150.593 101.347H143.808V104.258H150.593V101.347Z" fill="#304FFE"/>
<path d="M218.351 101.347H184.432V104.258H218.351V101.347Z" fill="#304FFE"/>
<path d="M180.988 101.347H154.038V104.258H180.988V101.347Z" fill="#304FFE"/>
<path d="M117.436 101.347H100.524V104.258H117.436V101.347Z" fill="#304FFE"/>
<path d="M135.847 106.791H129.871V109.701H135.847V106.791Z" fill="#304FFE"/>
<path d="M158.39 106.791H139.291V109.701H158.39V106.791Z" fill="#304FFE"/>
<path d="M194.957 106.791H161.834V109.701H194.957V106.791Z" fill="#304FFE"/>
<path d="M126.427 106.791H110.382V109.701H126.427V106.791Z" fill="#304FFE"/>
<path d="M140.585 112.235H114.035V115.146H140.585V112.235Z" fill="#304FFE"/>
<path d="M149.684 112.235H144.029V115.146H149.684V112.235Z" fill="#304FFE"/>
<path d="M172.822 112.235H153.128V115.146H172.822V112.235Z" fill="#304FFE"/>
<path d="M110.589 112.235H104.571V115.146H110.589V112.235Z" fill="#304FFE"/>
<path d="M204.072 112.235H176.267V115.146H204.072V112.235Z" fill="#304FFE"/>
<path d="M166.819 117.678H160.111V120.589H166.819V117.678Z" fill="#304FFE"/>
<path d="M156.667 117.678H130.672V120.589H156.667V117.678Z" fill="#304FFE"/>
<path d="M218.349 117.678H212.932V120.589H218.349V117.678Z" fill="#304FFE"/>
<path d="M209.487 117.678H170.263V120.589H209.487V117.678Z" fill="#304FFE"/>
<path d="M127.228 117.678H115.289V120.589H127.228V117.678Z" fill="#304FFE"/>
<path d="M136.92 123.122H120.879V126.032H136.92V123.122Z" fill="#304FFE"/>
<path d="M170.264 123.122H150.563V126.032H170.264V123.122Z" fill="#304FFE"/>
<path d="M147.118 123.122H140.364V126.032H147.118V123.122Z" fill="#304FFE"/>
<path d="M117.435 123.122H108.144V126.032H117.435V123.122Z" fill="#304FFE"/>
<path d="M179.473 123.122H173.708V126.032H179.473V123.122Z" fill="#304FFE"/>
<path d="M165.444 128.877H127.036V131.787H165.444V128.877Z" fill="#304FFE"/>
<path d="M178.583 128.877H168.889V131.787H178.583V128.877Z" fill="#304FFE"/>
<path d="M123.592 128.877H113.823V131.787H123.592V128.877Z" fill="#304FFE"/>
<path d="M186.347 134.32H150.227V137.23H186.347V134.32Z" fill="#304FFE"/>
<path d="M146.783 134.32H120.879V137.23H146.783V134.32Z" fill="#304FFE"/>
<path d="M218.351 134.32H189.792V137.23H218.351V134.32Z" fill="#304FFE"/>
<path d="M117.435 134.32H107.459V137.23H117.435V134.32Z" fill="#304FFE"/>
<path d="M138.862 139.763H132.832V142.674H138.862V139.763Z" fill="#304FFE"/>
<path d="M173.905 139.763H142.306V142.674H173.905V139.763Z" fill="#304FFE"/>
<path d="M188.069 139.763H177.349V142.674H188.069V139.763Z" fill="#304FFE"/>
<path d="M129.388 139.763H115.983V142.674H129.388V139.763Z" fill="#304FFE"/>
<path d="M154.946 145.208H149.684V148.118H154.946V145.208Z" fill="#304FFE"/>
<path d="M193.236 145.208H158.39V148.118H193.236V145.208Z" fill="#304FFE"/>
<path d="M146.24 145.208H120.879V148.118H146.24V145.208Z" fill="#304FFE"/>
<path d="M117.435 145.208H101.323V148.118H117.435V145.208Z" fill="#304FFE"/>
<path d="M139.368 150.651H132.394V153.561H139.368V150.651Z" fill="#304FFE"/>
<path d="M167.66 150.651H142.812V153.561H167.66V150.651Z" fill="#304FFE"/>
<path d="M128.949 150.651H109.435V153.561H128.949V150.651Z" fill="#304FFE"/>
<path d="M140.364 156.431H120.879V159.341H140.364V156.431Z" fill="#304FFE"/>
<path d="M150.593 156.431H143.808V159.341H150.593V156.431Z" fill="#304FFE"/>
<path d="M218.351 156.431H184.432V159.341H218.351V156.431Z" fill="#304FFE"/>
<path d="M180.988 156.431H154.038V159.341H180.988V156.431Z" fill="#304FFE"/>
<path d="M117.436 156.431H100.524V159.341H117.436V156.431Z" fill="#304FFE"/>
<path d="M135.847 161.874H129.871V164.784H135.847V161.874Z" fill="#304FFE"/>
<path d="M158.39 161.874H139.291V164.784H158.39V161.874Z" fill="#304FFE"/>
<path d="M194.957 161.874H161.834V164.784H194.957V161.874Z" fill="#304FFE"/>
<path d="M126.427 161.874H110.382V164.784H126.427V161.874Z" fill="#304FFE"/>
<path d="M183.577 30.2449H176.249V33.1555H183.577V30.2449Z" fill="#304FFE"/>
<path d="M172.805 30.2449H135.688V33.1555H172.805V30.2449Z" fill="#304FFE"/>
<path d="M132.244 30.2449H116.662V33.1555H132.244V30.2449Z" fill="#304FFE"/>
<path d="M218.349 24.8016H210.721V27.7122H218.349V24.8016Z" fill="#304FFE"/>
<path d="M140.796 24.8016H120.879V27.7122H140.796V24.8016Z" fill="#304FFE"/>
<path d="M173.587 24.8016H144.24V27.7122H173.587V24.8016Z" fill="#304FFE"/>
<path d="M183.577 24.8016H177.031V27.7122H183.577V24.8016Z" fill="#304FFE"/>
<path d="M207.277 24.8016H187.021V27.7122H207.277V24.8016Z" fill="#304FFE"/>
<path d="M117.436 24.8016H108.16V27.7122H117.436V24.8016Z" fill="#304FFE"/>
<path d="M167.507 19.3585H122.602V22.2691H167.507V19.3585Z" fill="#304FFE"/>
<path d="M196.205 19.3585H170.95V22.2691H196.205V19.3585Z" fill="#304FFE"/>
<path d="M119.157 19.3585H101.323V22.2691H119.157V19.3585Z" fill="#304FFE"/>
</g>
<path d="M192.904 0L232.752 39.848H201.989C196.972 39.848 192.905 35.7802 192.905 30.7642V0H192.904Z" fill="url(#paint1_linear_11_18691)"/>
<path d="M108.017 93.6605L129.567 79.948C131.348 78.8139 133.176 77.7566 135.048 76.7762L152.776 67.4911C154.5 66.5875 156.258 65.7515 158.049 64.9847L172.605 58.747C175.966 57.3071 179.874 58.5918 181.722 61.7467C183.47 64.7265 182.873 68.5253 180.298 70.8259L169.203 80.741C168.051 81.7691 166.862 82.7541 165.636 83.6915L146.923 98.9192L125.268 116.051L108.018 93.6635L108.017 93.6605Z" fill="#EF9A9A"/>
<path d="M132.494 140.241L149.554 124.652L158.948 116.679C163.02 113.223 169.153 113.858 172.431 118.076C174.887 121.237 175.068 125.608 172.881 128.961L172.42 129.667C167.85 136.674 162.233 142.941 155.767 148.251L140.934 160.426L132.493 140.241H132.494Z" fill="#EF9A9A"/>
<path d="M139.465 162.026L156.61 147.952L160.28 144.207C163.782 140.633 169.651 141.046 172.619 145.076C174.661 147.851 174.73 151.613 172.789 154.461L170.847 157.31C167.385 162.39 163.375 167.074 158.889 171.279L147.501 181.955L139.465 162.026Z" fill="#FFEBEE"/>
<path d="M117.76 120.844L135.901 105.893C140.421 102.169 145.297 98.9008 150.459 96.1377L154.851 93.7865C159.613 91.237 165.533 92.7553 168.48 97.2826C171.366 101.715 170.467 107.608 166.392 110.978L154.462 120.844L133.175 140.296L117.76 120.844Z" fill="#FFEBEE"/>
<g opacity="0.7">
<path opacity="0.5" d="M157.619 70.4955C157.619 70.4955 164.177 77.5338 164.654 81.5878C164.654 81.5878 158.333 72.1045 157.619 70.4955Z" fill="url(#paint2_linear_11_18691)"/>
<path opacity="0.5" d="M153.975 68.2103L159.227 75.9817C159.227 75.9817 154.273 70.477 153.975 68.2103Z" fill="#EF9A9A"/>
<path opacity="0.5" d="M145.71 109.352C145.71 109.352 152.269 116.391 152.745 120.445C152.745 120.445 146.425 110.961 145.71 109.352Z" fill="url(#paint3_linear_11_18691)"/>
<path opacity="0.5" d="M142.068 107.067L147.321 114.838C147.321 114.838 142.366 109.334 142.068 107.067Z" fill="url(#paint4_linear_11_18691)"/>
<path opacity="0.5" d="M149.795 133.035C149.795 133.035 156.354 140.073 156.83 144.127C156.83 144.127 150.51 134.644 149.795 133.035Z" fill="#F57F17"/>
<path opacity="0.5" d="M146.153 130.75L151.405 138.521C151.405 138.521 146.451 133.017 146.153 130.75Z" fill="#EF9A9A"/>
<path opacity="0.5" d="M153.363 156.718C153.363 156.718 159.922 163.756 160.399 167.81C160.399 167.81 154.078 158.327 153.363 156.718Z" fill="#EF9A9A"/>
<path opacity="0.5" d="M149.72 154.431L154.972 162.203C154.972 162.203 150.018 156.698 149.72 154.431Z" fill="#EF9A9A"/>
</g>
<path d="M147.501 181.955L135.502 192.816L132.709 195.344L131.337 196.586L114.405 211.913C111.081 215.291 107.444 218.346 103.542 221.039L86.8142 232.584L86.808 232.589L86.7589 232.623C86.7496 232.63 86.7389 232.637 86.7266 232.644C86.7235 232.646 86.7205 232.649 86.7158 232.65L83.8836 234.607L82.6358 235.467C81.9089 235.968 81.2143 236.511 80.555 237.092C79.5699 237.96 78.6617 238.914 77.8411 239.944L77.8334 239.953L74.7292 252.04H0L22.6656 214.394C26.8839 207.389 31.2852 200.497 35.7064 193.617L35.9784 193.193C36.3949 192.544 36.8114 191.896 37.2294 191.247C37.2493 191.217 37.2693 191.186 37.2878 191.154C37.7242 190.471 38.1253 189.769 38.491 189.051L38.5002 189.03C38.7108 188.619 38.909 188.203 39.095 187.782L39.1103 187.748C40.6609 184.235 41.4124 180.384 41.2618 176.473L39.9463 142.249C39.7112 136.139 40.2568 130.025 41.5722 124.054L47.9835 94.9329L48.2509 93.7173L48.3293 93.3608C48.4507 92.8075 48.5583 92.2512 48.6505 91.6934C48.715 91.3138 48.7719 90.9312 48.8226 90.5485V90.5347C49.0946 88.4539 49.1668 86.3501 49.0362 84.254C48.9917 83.5194 48.921 82.7848 48.8272 82.0533L48.7535 81.4801L47.3243 70.4678C47.2982 70.268 47.2859 70.0697 47.2859 69.873C47.2859 69.0847 47.4887 68.3378 47.8483 67.6847C48.6198 66.2801 50.1119 65.3104 51.8577 65.3104C56.7722 65.3104 61.2196 68.2287 63.1743 72.7406L66.5444 80.5166C67.1376 81.8858 67.6555 83.2812 68.0981 84.6996C68.5115 86.0166 68.8572 87.3521 69.1369 88.7013C69.6133 90.9942 69.8976 93.3239 69.9868 95.6674C70.0067 96.1776 70.016 96.6878 70.0175 97.1996V97.2057C70.019 98.2799 69.9791 99.3556 69.8992 100.43C69.8899 100.556 69.8792 100.682 69.8684 100.808L69.1369 109.477L67.9536 123.501C67.886 124.312 68.012 125.129 68.3225 125.882C68.3225 125.882 68.3225 125.883 68.324 125.886C68.324 125.888 68.324 125.889 68.324 125.891L68.9095 127.314C68.9756 127.474 69.0509 127.624 69.1354 127.767C69.1769 127.836 69.2184 127.902 69.2645 127.965C69.5611 128.396 69.9453 128.737 70.3786 128.98C70.3786 128.98 70.3909 128.989 70.3971 128.99C70.4124 129 70.4278 129.009 70.4432 129.016C70.6015 129.101 70.7644 129.172 70.9319 129.232C70.9457 129.236 70.9534 129.238 70.9534 129.238C71.5174 129.43 72.129 129.476 72.7222 129.359C73.3031 129.245 73.8655 128.975 74.3481 128.537L77.9364 125.274L79.9034 123.487L86.1211 117.834L87.6164 116.475L95.4185 109.381L95.8472 108.993L97.951 107.079L97.9679 107.064L98.1846 106.867L98.3137 107.064L98.9914 108.095L99.9304 109.526L100.258 110.024L102.186 112.96L102.864 113.992L104.72 116.818L105.397 117.849L105.987 118.746L106.482 119.501L108.598 122.722L108.86 123.122L109.274 123.753L110.771 126.031L112.904 129.278L113.821 130.676L114.549 131.786L116.214 134.32L117.434 136.176L119.79 139.763L121.702 142.674L123.364 145.206L125.276 148.117L126.061 149.314L126.939 150.649L127.812 151.977L128.851 153.56L130.735 156.429L132.646 159.34L134.252 161.785L134.311 161.874L135.846 164.211L146.462 180.375L147.499 181.955H147.501Z" fill="#EF9A9A"/>
<path d="M46.7756 68.4792L49.0362 84.254C49.0362 84.254 54.8113 85.8799 49.0362 68.4792C49.0362 68.4792 48.0604 66.6797 46.7756 68.4792Z" fill="#EAEBFF"/>
<path opacity="0.5" d="M49.0363 84.2555L48.6398 81.4939C48.6398 81.4939 50.5653 81.162 51.2077 82.8739C51.2077 82.8739 50.8189 84.6858 49.0347 84.2539L49.0363 84.2555Z" fill="white"/>
<path opacity="0.3" d="M48.8241 90.5363L51.2092 90.9404L48.6412 91.7595L48.8241 90.5363Z" fill="url(#paint5_linear_11_18691)"/>
<path opacity="0.3" d="M48.251 93.7173H53.4621C53.4621 93.7173 50.0536 94.9405 47.9821 94.9344L48.2494 93.7173H48.251Z" fill="url(#paint6_linear_11_18691)"/>
<path opacity="0.3" d="M35.7064 193.617C35.7064 193.617 39.7342 193.071 45.9381 201.17C45.9381 201.17 41.3893 192.338 37.2877 191.154L35.7064 193.617Z" fill="url(#paint7_linear_11_18691)"/>
<path opacity="0.3" d="M38.491 189.053C38.491 189.053 41.1926 190.262 43.1443 192.786C43.1443 192.786 41.1711 188.618 39.1103 187.75L38.491 189.053Z" fill="url(#paint8_linear_11_18691)"/>
<path opacity="0.3" d="M77.8335 239.955C77.8335 239.955 77.6168 235.441 74.7323 231.273L80.5566 237.093L77.835 239.955H77.8335Z" fill="url(#paint9_linear_11_18691)"/>
<path opacity="0.3" d="M86.8142 232.584C86.8142 232.584 83.607 235.252 74.7323 227.223C74.7323 227.223 81.0545 233.127 83.8837 234.607L86.8142 232.584Z" fill="url(#paint10_linear_11_18691)"/>
<path opacity="0.3" d="M79.2872 176.106C79.2872 176.106 83.7346 159.367 79.2872 150.45C79.2872 150.45 86.7681 159.527 79.2872 176.106Z" fill="url(#paint11_linear_11_18691)"/>
<path opacity="0.3" d="M68.3225 125.881C68.3225 125.881 70.6584 134.673 69.1385 135.878C69.1385 135.878 71.5313 135.18 70.9565 129.238C70.9565 129.238 69.0248 128.764 68.3225 125.881Z" fill="url(#paint12_linear_11_18691)"/>
<path opacity="0.3" d="M69.9867 95.6675L66.944 96.0716L69.9867 96.4435V95.6675Z" fill="url(#paint13_linear_11_18691)"/>
<path opacity="0.3" d="M70.0175 97.1996H68.4653L69.9867 97.7805L70.0175 97.1996Z" fill="url(#paint14_linear_11_18691)"/>
<path opacity="0.3" d="M55.8778 212.441L47.4149 228.381C47.4149 228.381 48.8948 219.942 55.8778 212.441Z" fill="url(#paint15_linear_11_18691)"/>
<path opacity="0.3" d="M59.3202 219.717L51.286 235.855C51.286 235.855 59.9825 225.913 59.3202 219.717Z" fill="url(#paint16_linear_11_18691)"/>
<path d="M155.965 94.836V65.0553C158.825 65.0553 158.986 67.3743 158.986 70.2342V89.6556C158.986 92.5155 158.825 94.8345 155.965 94.8345V94.836Z" fill="url(#paint17_linear_11_18691)"/>
<path d="M71.5266 78.1285V59.1758C68.0858 59.1758 67.8922 61.965 67.8922 65.4073V71.8985C67.8922 75.3393 68.0858 78.1301 71.5266 78.1301V78.1285Z" fill="url(#paint18_linear_11_18691)"/>
<path d="M71.5266 100.717V81.7645C68.0858 81.7645 67.8922 84.5537 67.8922 87.9961V94.4873C67.8922 97.9281 68.0858 100.719 71.5266 100.719V100.717Z" fill="url(#paint19_linear_11_18691)"/>
<path d="M144.631 22.8669H82.5528C75.1434 22.8669 69.137 28.8734 69.137 36.2828V183.172C69.137 190.581 75.1434 196.588 82.5528 196.588H144.631C152.041 196.588 158.047 190.581 158.047 183.172V36.2828C158.047 28.8734 152.041 22.8669 144.631 22.8669Z" fill="url(#paint20_linear_11_18691)"/>
<path opacity="0.25" d="M156.806 123.122V123.572C156.819 123.423 156.836 123.272 156.856 123.122H156.806ZM69.8685 100.808L69.137 109.477V127.787C69.18 127.849 69.2215 127.909 69.266 127.965C69.5626 128.396 69.9468 128.737 70.3802 128.98V100.588C70.2081 100.545 70.0483 100.493 69.8992 100.43C69.89 100.556 69.8792 100.682 69.8685 100.808ZM157.68 33.1554C157.437 32.135 157.078 31.1592 156.615 30.2448C156.157 29.3351 155.598 28.4868 154.954 27.7107C153.999 26.5643 152.859 25.5777 151.578 24.8017C149.552 23.5723 147.175 22.8654 144.631 22.8654H82.5543C75.1441 22.8654 69.137 28.8725 69.137 36.2812V183.17C69.137 190.579 75.1441 196.586 82.5543 196.586H144.631C152.042 196.586 158.047 190.579 158.047 183.17V36.2812C158.047 35.2055 157.921 34.1589 157.68 33.1554ZM156.806 183.17C156.806 189.883 151.344 195.344 144.631 195.344H82.5543C75.8403 195.344 70.3802 189.883 70.3802 183.17V36.2812C70.3802 29.5687 75.8403 24.1086 82.5543 24.1086H144.631C146.05 24.1086 147.413 24.3529 148.681 24.8017C150.427 25.4179 151.991 26.4229 153.27 27.7107C154.018 28.4653 154.67 29.3166 155.201 30.2448C155.719 31.1484 156.125 32.1258 156.398 33.1554C156.664 34.1528 156.806 35.2009 156.806 36.2812V183.17Z" fill="url(#paint21_linear_11_18691)"/>
<path d="M144.608 26.6366H82.5789C77.1361 26.6366 72.7238 31.0489 72.7238 36.4918V182.961C72.7238 188.404 77.1361 192.816 82.5789 192.816H144.608C150.051 192.816 154.464 188.404 154.464 182.961V36.4918C154.464 31.0489 150.051 26.6366 144.608 26.6366Z" fill="url(#paint22_linear_11_18691)"/>
<g opacity="0.05">
<path opacity="0.03" d="M168.133 109.242C164.027 113.348 156.315 114.832 152.475 110.99C148.635 107.15 150.119 99.4387 154.224 95.3325C158.33 91.2263 163.375 92.408 167.216 96.2484C171.056 100.089 172.238 105.134 168.133 109.24V109.242Z" fill="#EF9A9A"/>
<path opacity="0.06" d="M168.141 109.171C164.053 113.259 156.375 114.737 152.552 110.912C148.728 107.089 150.205 99.411 154.293 95.3233C158.381 91.2355 163.404 92.4127 167.228 96.2361C171.051 100.06 172.228 105.083 168.141 109.171Z" fill="#EF9A9A"/>
<path opacity="0.1" d="M168.15 109.102C164.08 113.171 156.435 114.643 152.629 110.835C148.822 107.029 150.293 99.3833 154.362 95.314C158.431 91.2447 163.434 92.4157 167.24 96.2222C171.047 100.029 172.219 105.031 168.148 109.1L168.15 109.102Z" fill="#EF9A9A"/>
<path opacity="0.13" d="M168.159 109.031C164.107 113.083 156.497 114.548 152.705 110.757C148.914 106.966 150.38 99.3557 154.431 95.3033C158.484 91.2508 163.463 92.4172 167.252 96.2084C171.043 99.9996 172.208 104.979 168.157 109.03L168.159 109.031Z" fill="#EF9A9A"/>
<path opacity="0.16" d="M168.168 108.962C164.134 112.996 156.557 114.454 152.784 110.68C149.01 106.906 150.468 99.3295 154.502 95.2955C158.536 91.2616 163.493 92.4218 167.268 96.1961C171.042 99.9703 172.202 104.928 168.168 108.962Z" fill="#EF9A9A"/>
<path opacity="0.19" d="M168.176 108.891C164.16 112.907 156.617 114.359 152.859 110.603C149.102 106.846 150.554 99.3034 154.571 95.2864C158.587 91.2708 163.523 92.4265 167.28 96.1838C171.037 99.9412 172.193 104.876 168.178 108.893L168.176 108.891Z" fill="#EF9A9A"/>
<path opacity="0.23" d="M168.185 108.822C164.187 112.821 156.676 114.265 152.938 110.526C149.197 106.786 150.643 99.2758 154.642 95.2787C158.64 91.2801 163.553 92.4311 167.294 96.1715C171.034 99.912 172.185 104.825 168.187 108.824L168.185 108.822Z" fill="#EF9A9A"/>
<path opacity="0.26" d="M168.194 108.751C164.214 112.732 156.738 114.172 153.014 110.448C149.291 106.724 150.729 99.2481 154.711 95.2679C158.691 91.2877 163.583 92.4326 167.306 96.1562C171.03 99.8797 172.175 104.771 168.194 108.751Z" fill="#EF9A9A"/>
<path opacity="0.29" d="M168.202 108.682C164.239 112.645 156.796 114.078 153.09 110.371C149.383 106.664 150.815 99.2219 154.779 95.2587C158.742 91.2954 163.61 92.4372 167.317 96.1438C171.024 99.8505 172.164 104.72 168.202 108.682Z" fill="#EF9A9A"/>
<path opacity="0.32" d="M168.211 108.612C164.266 112.556 156.858 113.983 153.168 110.293C149.478 106.603 150.904 99.1943 154.849 95.2495C158.794 91.3047 163.641 92.4403 167.331 96.13C171.02 99.8198 172.156 104.668 168.211 108.612Z" fill="#EF9A9A"/>
<path opacity="0.35" d="M168.221 108.541C164.294 112.467 156.919 113.887 153.245 110.214C149.572 106.542 150.992 99.1651 154.918 95.2387C158.845 91.3123 163.67 92.4418 167.345 96.1147C171.017 99.7875 172.148 104.613 168.221 108.541Z" fill="#EF9A9A"/>
<path opacity="0.39" d="M168.23 108.472C164.32 112.381 156.979 113.793 153.323 110.138C149.667 106.482 151.08 99.139 154.989 95.2311C158.899 91.3216 163.701 92.4465 167.358 96.1039C171.014 99.7599 172.139 104.564 168.231 108.473L168.23 108.472Z" fill="#EF9A9A"/>
<path opacity="0.42" d="M168.237 108.401C164.346 112.292 157.039 113.698 153.399 110.059C149.758 106.419 151.166 99.1113 155.057 95.2203C158.948 91.3292 163.729 92.4495 167.369 96.0886C171.01 99.7291 172.128 104.51 168.237 108.401Z" fill="#EF9A9A"/>
<path opacity="0.45" d="M168.247 108.332C164.374 112.205 157.099 113.604 153.475 109.982C149.852 106.359 151.253 99.0853 155.126 95.2111C158.998 91.3385 163.758 92.4526 167.381 96.0763C171.005 99.7 172.119 104.459 168.247 108.332Z" fill="#EF9A9A"/>
<path opacity="0.48" d="M168.256 108.261C164.4 112.117 157.16 113.511 153.554 109.904C149.947 106.297 151.341 99.0576 155.196 95.2019C159.052 91.3461 163.788 92.4557 167.395 96.0624C171.002 99.6692 172.112 104.405 168.256 108.261Z" fill="#EF9A9A"/>
<path opacity="0.52" d="M168.265 108.192C164.428 112.029 157.22 113.417 153.631 109.827C150.041 106.237 151.428 99.0299 155.266 95.1927C159.103 91.3554 163.818 92.4603 167.408 96.0486C170.997 99.6385 172.102 104.353 168.264 108.191L168.265 108.192Z" fill="#EF9A9A"/>
<path opacity="0.55" d="M168.273 108.121C164.454 111.94 157.28 113.322 153.707 109.749C150.135 106.176 151.516 99.0022 155.335 95.1834C159.154 91.3646 163.848 92.4633 167.42 96.0363C170.993 99.6092 172.092 104.302 168.273 108.121Z" fill="#EF9A9A"/>
<path opacity="0.58" d="M168.282 108.052C164.48 111.854 157.34 113.228 153.784 109.672C150.228 106.116 151.602 98.976 155.404 95.1741C159.206 91.3722 163.878 92.4664 167.434 96.0224C170.99 99.5785 172.084 104.25 168.282 108.052Z" fill="#EF9A9A"/>
<path opacity="0.61" d="M168.291 107.981C164.508 111.765 157.402 113.133 153.861 109.594C150.322 106.054 151.69 98.9484 155.473 95.1649C159.257 91.3815 163.907 92.471 167.446 96.0102C170.985 99.5493 172.075 104.199 168.291 107.983V107.981Z" fill="#EF9A9A"/>
<path opacity="0.65" d="M168.3 107.912C164.535 111.677 157.462 113.039 153.939 109.517C150.417 105.994 151.779 98.9208 155.544 95.1558C159.309 91.3907 163.938 92.4741 167.46 95.9964C170.982 99.5186 172.067 104.146 168.3 107.912Z" fill="#EF9A9A"/>
<path opacity="0.68" d="M168.308 107.842C164.56 111.59 157.522 112.944 154.015 109.438C150.509 105.933 151.863 98.8932 155.611 95.145C159.36 91.3969 163.965 92.4757 167.471 95.9826C170.976 99.4879 172.055 104.094 168.308 107.842Z" fill="#EF9A9A"/>
<path opacity="0.71" d="M168.317 107.771C164.588 111.501 157.582 112.85 154.093 109.36C150.605 105.871 151.952 98.8654 155.682 95.1357C159.412 91.406 163.996 92.4787 167.484 95.9687C170.973 99.4571 172.047 104.041 168.317 107.771Z" fill="#EF9A9A"/>
<path opacity="0.74" d="M168.327 107.702C164.615 111.413 157.643 112.756 154.17 109.283C150.697 105.81 152.04 98.8394 155.751 95.1266C159.463 91.4153 164.025 92.4834 167.497 95.9549C170.97 99.4279 172.038 103.989 168.325 107.7L168.327 107.702Z" fill="#EF9A9A"/>
<path opacity="0.77" d="M168.334 107.631C164.64 111.325 157.701 112.661 154.247 109.205C150.792 105.749 152.126 98.8101 155.821 95.1173C159.515 91.4229 164.054 92.4864 167.511 95.9425C170.967 99.3987 172.03 103.938 168.336 107.633L168.334 107.631Z" fill="#EF9A9A"/>
<path opacity="0.81" d="M168.343 107.562C164.668 111.238 157.763 112.567 154.324 109.128C150.884 105.689 152.214 98.784 155.89 95.1081C159.566 91.4322 164.084 92.4895 167.523 95.9288C170.962 99.368 172.019 103.885 168.343 107.562Z" fill="#EF9A9A"/>
<path opacity="0.84" d="M168.353 107.491C164.694 111.15 157.823 112.472 154.401 109.05C150.978 105.627 152.301 98.7564 155.959 95.0974C159.618 91.4384 164.113 92.4926 167.535 95.9134C170.958 99.3342 172.01 103.831 168.353 107.49V107.491Z" fill="#EF9A9A"/>
<path opacity="0.87" d="M168.362 107.422C164.721 111.063 157.884 112.378 154.479 108.973C151.073 105.567 152.389 98.7303 156.029 95.0897C159.67 91.4491 164.144 92.4972 167.549 95.9026C170.954 99.3081 172.002 103.782 168.362 107.422Z" fill="#EF9A9A"/>
<path opacity="0.9" d="M168.37 107.351C164.747 110.974 157.943 112.284 154.554 108.894C151.166 105.506 152.475 98.7011 156.097 95.0789C159.719 91.4568 164.171 92.4987 167.56 95.8873C170.948 99.2758 171.992 103.728 168.368 107.35L168.37 107.351Z" fill="#EF9A9A"/>
<path opacity="0.94" d="M168.379 107.282C164.774 110.887 158.004 112.191 154.633 108.817C151.261 105.446 152.564 98.6749 156.168 95.0712C159.773 91.466 164.202 92.5033 167.573 95.8765C170.945 99.2481 171.982 103.679 168.379 107.282Z" fill="#EF9A9A"/>
<path opacity="0.97" d="M168.388 107.212C164.801 110.798 158.064 112.095 154.709 108.739C151.355 105.384 152.65 98.6473 156.237 95.0605C159.824 91.4737 164.231 92.5064 167.586 95.8611C170.941 99.2159 171.973 103.623 168.386 107.21L168.388 107.212Z" fill="#EF9A9A"/>
<path d="M168.397 107.141C164.829 110.709 158.126 112 154.786 108.661C151.448 105.323 152.738 98.6196 156.306 95.0497C159.874 91.4814 164.26 92.5079 167.6 95.8458C170.937 99.1836 171.966 103.569 168.397 107.139V107.141Z" fill="#EF9A9A"/>
</g>
<g opacity="0.05">
<path opacity="0.03" d="M172.298 130.24C168.191 134.346 160.48 135.83 156.64 131.989C152.799 128.148 154.284 120.437 158.388 116.331C162.493 112.224 167.54 113.406 171.38 117.248C175.22 121.088 176.402 126.134 172.298 130.24Z" fill="#EF9A9A"/>
<path opacity="0.06" d="M172.307 130.169C168.219 134.257 160.541 135.735 156.718 131.91C152.895 128.087 154.371 120.409 158.459 116.321C162.547 112.234 167.571 113.411 171.394 117.234C175.217 121.058 176.395 126.081 172.307 130.169Z" fill="#EF9A9A"/>
<path opacity="0.1" d="M172.316 130.098C168.247 134.168 160.601 135.64 156.795 131.832C152.988 128.025 154.459 120.38 158.528 116.311C162.598 112.241 167.6 113.412 171.406 117.219C175.213 121.025 176.385 126.028 172.314 130.097L172.316 130.098Z" fill="#EF9A9A"/>
<path opacity="0.13" d="M172.325 130.029C168.273 134.082 160.663 135.546 156.872 131.755C153.08 127.964 154.546 120.354 158.597 116.301C162.65 112.249 167.629 113.415 171.418 117.207C175.21 120.998 176.374 125.977 172.324 130.028L172.325 130.029Z" fill="#EF9A9A"/>
<path opacity="0.16" d="M172.333 129.959C168.299 133.993 160.721 135.451 156.948 131.678C153.174 127.904 154.633 120.328 158.666 116.294C162.7 112.26 167.658 113.42 171.432 117.194C175.207 120.969 176.367 125.926 172.333 129.96V129.959Z" fill="#EF9A9A"/>
<path opacity="0.19" d="M172.342 129.889C168.327 133.905 160.783 135.357 157.025 131.601C153.268 127.844 154.72 120.302 158.737 116.285C162.753 112.269 167.689 113.425 171.446 117.182C175.204 120.939 176.359 125.874 172.344 129.891L172.342 129.889Z" fill="#EF9A9A"/>
<path opacity="0.23" d="M172.351 129.819C168.353 133.817 160.843 135.262 157.104 131.523C153.363 127.783 154.809 120.272 158.808 116.275C162.807 112.277 167.72 113.428 171.46 117.168C175.2 120.909 176.351 125.822 172.353 129.82L172.351 129.819Z" fill="#EF9A9A"/>
<path opacity="0.26" d="M172.359 129.75C168.379 133.73 160.902 135.17 157.179 131.446C153.455 127.723 154.894 120.246 158.875 116.266C162.856 112.286 167.747 113.431 171.471 117.154C175.194 120.878 176.339 125.769 172.359 129.75Z" fill="#EF9A9A"/>
<path opacity="0.29" d="M172.368 129.679C168.405 133.642 160.964 135.074 157.256 131.368C153.549 127.661 154.981 120.219 158.945 116.255C162.908 112.292 167.776 113.434 171.483 117.141C175.19 120.847 176.33 125.717 172.368 129.679Z" fill="#EF9A9A"/>
<path opacity="0.32" d="M172.377 129.61C168.433 133.555 161.024 134.981 157.334 131.291C153.644 127.601 155.07 120.193 159.015 116.248C162.96 112.303 167.807 113.438 171.497 117.128C175.187 120.818 176.322 125.666 172.377 129.61Z" fill="#EF9A9A"/>
<path opacity="0.35" d="M172.387 129.539C168.46 133.465 161.085 134.885 157.411 131.213C153.737 127.54 155.157 120.163 159.085 116.237C163.011 112.311 167.836 113.44 171.511 117.113C175.184 120.786 176.315 125.611 172.387 129.539Z" fill="#EF9A9A"/>
<path opacity="0.39" d="M172.394 129.468C168.485 133.378 161.144 134.79 157.488 131.134C153.832 127.478 155.244 120.136 159.154 116.228C163.063 112.318 167.866 113.443 171.523 117.101C175.179 120.757 176.304 125.56 172.396 129.47L172.394 129.468Z" fill="#EF9A9A"/>
<path opacity="0.42" d="M172.404 129.399C168.512 133.29 161.205 134.696 157.565 131.057C153.924 127.418 155.332 120.11 159.223 116.218C163.114 112.327 167.895 113.448 171.535 117.087C175.176 120.727 176.295 125.508 172.404 129.399Z" fill="#EF9A9A"/>
<path opacity="0.45" d="M172.413 129.328C168.54 133.201 161.265 134.601 157.642 130.979C154.018 127.355 155.419 120.082 159.292 116.208C163.165 112.335 167.924 113.449 171.548 117.073C175.171 120.697 176.285 125.456 172.413 129.328Z" fill="#EF9A9A"/>
<path opacity="0.48" d="M172.422 129.259C168.566 133.115 161.327 134.509 157.72 130.902C154.113 127.295 155.507 120.056 159.363 116.2C163.218 112.344 167.955 113.454 171.561 117.061C175.168 120.667 176.278 125.405 172.422 129.259Z" fill="#EF9A9A"/>
<path opacity="0.52" d="M172.43 129.189C168.592 133.026 161.385 134.414 157.795 130.824C154.205 127.234 155.593 120.027 159.43 116.189C163.268 112.352 167.982 113.457 171.572 117.047C175.162 120.637 176.267 125.351 172.428 129.189H172.43Z" fill="#EF9A9A"/>
<path opacity="0.55" d="M172.439 129.119C168.62 132.938 161.447 134.32 157.874 130.747C154.301 127.174 155.682 120 159.501 116.182C163.32 112.363 168.015 113.461 171.586 117.034C175.159 120.607 176.258 125.301 172.439 129.119Z" fill="#EF9A9A"/>
<path opacity="0.58" d="M172.448 129.049C168.646 132.851 161.506 134.225 157.95 130.669C154.394 127.112 155.768 119.973 159.57 116.171C163.372 112.369 168.044 113.463 171.6 117.019C175.156 120.575 176.25 125.247 172.448 129.049Z" fill="#EF9A9A"/>
<path opacity="0.61" d="M172.457 128.98C168.674 132.763 161.568 134.131 158.029 130.592C154.49 127.053 155.857 119.947 159.641 116.162C163.424 112.378 168.075 113.468 171.614 117.007C175.153 120.546 176.242 125.196 172.459 128.98H172.457Z" fill="#EF9A9A"/>
<path opacity="0.65" d="M172.465 128.909C168.7 132.674 161.626 134.036 158.104 130.513C154.582 126.991 155.943 119.918 159.708 116.152C163.474 112.387 168.102 113.471 171.624 116.993C175.147 120.515 176.232 125.142 172.465 128.909Z" fill="#EF9A9A"/>
<path opacity="0.68" d="M172.474 128.838C168.726 132.586 161.688 133.94 158.181 130.435C154.676 126.93 156.029 119.89 159.778 116.142C163.526 112.393 168.131 113.472 171.637 116.978C175.142 120.483 176.221 125.089 172.474 128.837V128.838Z" fill="#EF9A9A"/>
<path opacity="0.71" d="M172.483 128.769C168.754 132.499 161.748 133.848 158.259 130.358C154.771 126.87 156.119 119.864 159.848 116.134C163.578 112.404 168.162 113.477 171.651 116.967C175.139 120.455 176.213 125.039 172.483 128.769Z" fill="#EF9A9A"/>
<path opacity="0.74" d="M172.491 128.699C168.78 132.41 161.808 133.753 158.335 130.28C154.862 126.807 156.205 119.836 159.916 116.123C163.627 112.412 168.19 113.48 171.661 116.952C175.134 120.425 176.202 124.986 172.49 128.697L172.491 128.699Z" fill="#EF9A9A"/>
<path opacity="0.77" d="M172.5 128.629C168.806 132.324 161.868 133.659 158.413 130.203C154.957 126.747 156.292 119.808 159.987 116.116C163.681 112.421 168.22 113.485 171.677 116.941C175.133 120.397 176.196 124.937 172.502 128.631L172.5 128.629Z" fill="#EF9A9A"/>
<path opacity="0.81" d="M172.51 128.559C168.834 132.235 161.929 133.564 158.49 130.125C155.051 126.685 156.38 119.781 160.056 116.105C163.732 112.429 168.25 113.486 171.689 116.925C175.128 120.365 176.186 124.881 172.51 128.559Z" fill="#EF9A9A"/>
<path opacity="0.84" d="M172.519 128.489C168.86 132.148 161.989 133.47 158.567 130.048C155.144 126.625 156.467 119.755 160.125 116.096C163.784 112.437 168.279 113.491 171.701 116.913C175.124 120.335 176.176 124.83 172.519 128.489Z" fill="#EF9A9A"/>
<path opacity="0.87" d="M172.527 128.419C168.886 132.059 162.049 133.375 158.644 129.969C155.238 126.564 156.554 119.727 160.194 116.086C163.835 112.446 168.308 113.494 171.714 116.899C175.119 120.305 176.167 124.778 172.527 128.419Z" fill="#EF9A9A"/>
<path opacity="0.9" d="M172.536 128.35C168.914 131.972 162.109 133.281 158.72 129.892C155.332 126.504 156.641 119.699 160.263 116.077C163.885 112.455 168.337 113.497 171.726 116.885C175.114 120.274 176.158 124.726 172.534 128.348L172.536 128.35Z" fill="#EF9A9A"/>
<path opacity="0.94" d="M172.545 128.279C168.94 131.884 162.17 133.187 158.799 129.814C155.427 126.443 156.73 119.672 160.334 116.068C163.939 112.463 168.368 113.5 171.74 116.873C175.111 120.245 176.149 124.675 172.545 128.279Z" fill="#EF9A9A"/>
<path opacity="0.97" d="M172.554 128.208C168.967 131.795 162.23 133.092 158.875 129.736C155.521 126.381 156.816 119.644 160.403 116.057C163.99 112.47 168.397 113.503 171.752 116.858C175.107 120.213 176.139 124.62 172.553 128.207L172.554 128.208Z" fill="#EF9A9A"/>
<path d="M172.562 128.139C168.993 131.707 162.29 132.998 158.951 129.66C155.613 126.323 156.902 119.619 160.471 116.049C164.039 112.48 168.425 113.508 171.764 116.845C175.102 120.183 176.13 124.569 172.56 128.139H172.562Z" fill="#EF9A9A"/>
</g>
<g opacity="0.05">
<path opacity="0.03" d="M171.75 155.87C167.938 159.682 160.775 161.061 157.208 157.494C153.641 153.927 155.02 146.764 158.833 142.952C162.645 139.139 167.332 140.236 170.899 143.803C174.466 147.37 175.563 152.056 171.75 155.87Z" fill="#EF9A9A"/>
<path opacity="0.06" d="M171.758 155.804C167.961 159.601 160.83 160.973 157.279 157.422C153.727 153.87 155.1 146.74 158.897 142.943C162.694 139.145 167.36 140.238 170.911 143.791C174.463 147.342 175.555 152.008 171.76 155.805L171.758 155.804Z" fill="#EF9A9A"/>
<path opacity="0.1" d="M171.766 155.739C167.985 159.52 160.886 160.886 157.35 157.35C153.813 153.814 155.18 146.714 158.96 142.933C162.74 139.153 167.385 140.241 170.921 143.777C174.457 147.313 175.545 151.959 171.764 155.738L171.766 155.739Z" fill="#EF9A9A"/>
<path opacity="0.13" d="M171.775 155.675C168.012 159.438 160.942 160.798 157.423 157.277C153.903 153.757 155.264 146.689 159.026 142.926C162.79 139.162 167.414 140.246 170.934 143.766C174.455 147.287 175.539 151.911 171.775 155.675Z" fill="#EF9A9A"/>
<path opacity="0.16" d="M171.783 155.609C168.036 159.355 160.999 160.711 157.494 157.205C153.989 153.7 155.344 146.663 159.091 142.916C162.837 139.17 167.441 140.249 170.947 143.752C174.452 147.258 175.529 151.862 171.783 155.609Z" fill="#EF9A9A"/>
<path opacity="0.19" d="M171.79 155.544C168.061 159.274 161.055 160.623 157.565 157.133C154.075 153.643 155.424 146.637 159.154 142.907C162.883 139.178 167.467 140.25 170.957 143.74C174.447 147.23 175.52 151.813 171.79 155.544Z" fill="#EF9A9A"/>
<path opacity="0.23" d="M171.8 155.479C168.087 159.192 161.112 160.535 157.637 157.062C154.162 153.589 155.505 146.614 159.22 142.9C162.933 139.187 167.497 140.255 170.971 143.729C174.446 147.204 175.514 151.767 171.801 155.481L171.8 155.479Z" fill="#EF9A9A"/>
<path opacity="0.26" d="M171.807 155.413C168.11 159.111 161.167 160.446 157.709 156.989C154.251 153.531 155.587 146.586 159.284 142.89C162.982 139.193 167.524 140.258 170.982 143.716C174.44 147.173 175.505 151.718 171.807 155.413Z" fill="#EF9A9A"/>
<path opacity="0.29" d="M171.815 155.349C168.134 159.029 161.222 160.36 157.78 156.916C154.337 153.472 155.668 146.562 159.347 142.881C163.028 139.201 167.55 140.259 170.993 143.703C174.435 147.146 175.496 151.668 171.815 155.349Z" fill="#EF9A9A"/>
<path opacity="0.32" d="M171.823 155.284C168.159 158.948 161.277 160.273 157.851 156.846C154.424 153.419 155.748 146.537 159.412 142.873C163.075 139.21 167.578 140.264 171.005 143.691C174.432 147.118 175.486 151.621 171.823 155.284Z" fill="#EF9A9A"/>
<path opacity="0.35" d="M171.832 155.218C168.185 158.865 161.334 160.183 157.923 156.772C154.511 153.36 155.83 146.511 159.476 142.863C163.123 139.216 167.606 140.266 171.017 143.677C174.429 147.089 175.479 151.57 171.832 155.218Z" fill="#EF9A9A"/>
<path opacity="0.39" d="M171.84 155.154C168.21 158.783 161.391 160.096 157.995 156.701C154.599 153.305 155.911 146.486 159.542 142.857C163.172 139.227 167.633 140.272 171.03 143.666C174.426 147.061 175.471 151.524 171.84 155.154Z" fill="#EF9A9A"/>
<path opacity="0.42" d="M171.847 155.089C168.233 158.704 161.446 160.01 158.066 156.629C154.685 153.248 155.991 146.46 159.605 142.847C163.22 139.233 167.66 140.273 171.04 143.654C174.421 147.035 175.462 151.476 171.847 155.089Z" fill="#EF9A9A"/>
<path opacity="0.45" d="M171.856 155.025C168.259 158.622 161.503 159.922 158.138 156.557C154.772 153.191 156.074 146.436 159.67 142.838C163.266 139.241 167.687 140.276 171.053 143.642C174.418 147.007 175.452 151.427 171.856 155.025Z" fill="#EF9A9A"/>
<path opacity="0.48" d="M171.864 154.958C168.284 158.539 161.559 159.833 158.209 156.484C154.858 153.134 156.154 146.41 159.735 142.829C163.315 139.248 167.715 140.279 171.065 143.628C174.415 146.978 175.445 151.378 171.864 154.958Z" fill="#EF9A9A"/>
<path opacity="0.52" d="M171.872 154.894C168.308 158.458 161.614 159.747 158.281 156.412C154.948 153.079 156.235 146.385 159.799 142.821C163.363 139.258 167.743 140.283 171.077 143.617C174.412 146.952 175.437 151.33 171.873 154.894H171.872Z" fill="#EF9A9A"/>
<path opacity="0.55" d="M171.881 154.829C168.334 158.376 161.671 159.659 158.353 156.342C155.035 153.024 156.317 146.36 159.865 142.814C163.414 139.267 167.772 140.287 171.09 143.605C174.407 146.923 175.429 151.283 171.881 154.829Z" fill="#EF9A9A"/>
<path opacity="0.58" d="M171.889 154.763C168.357 158.295 161.726 159.57 158.424 156.268C155.121 152.965 156.397 146.334 159.928 142.803C163.46 139.271 167.798 140.289 171.1 143.591C174.403 146.894 175.419 151.233 171.889 154.763Z" fill="#EF9A9A"/>
<path opacity="0.61" d="M171.896 154.699C168.382 158.213 161.782 159.483 158.494 156.196C155.207 152.908 156.478 146.308 159.991 142.794C163.504 139.279 167.824 140.29 171.111 143.579C174.398 146.866 175.409 151.184 171.896 154.699Z" fill="#EF9A9A"/>
<path opacity="0.65" d="M171.906 154.634C168.408 158.132 161.84 159.397 158.568 156.125C155.296 152.853 156.561 146.283 160.059 142.787C163.556 139.29 167.855 140.296 171.126 143.568C174.398 146.84 175.405 151.138 171.907 154.636L171.906 154.634Z" fill="#EF9A9A"/>
<path opacity="0.68" d="M171.913 154.568C168.433 158.049 161.895 159.307 158.639 156.051C155.382 152.795 156.641 146.257 160.122 142.777C163.603 139.296 167.881 140.298 171.136 143.554C174.392 146.811 175.394 151.087 171.913 154.568Z" fill="#EF9A9A"/>
<path opacity="0.71" d="M171.921 154.504C168.457 157.967 161.95 159.22 158.709 155.979C155.468 152.738 156.721 146.231 160.185 142.767C163.649 139.304 167.905 140.301 171.146 143.54C174.387 146.781 175.385 151.038 171.919 154.502L171.921 154.504Z" fill="#EF9A9A"/>
<path opacity="0.74" d="M171.93 154.439C168.483 157.886 162.007 159.134 158.782 155.908C155.556 152.683 156.802 146.208 160.251 142.76C163.698 139.313 167.935 140.304 171.16 143.53C174.386 146.755 175.377 150.992 171.93 154.439Z" fill="#EF9A9A"/>
<path opacity="0.77" d="M171.938 154.373C168.506 157.804 162.063 159.045 158.854 155.834C155.644 152.624 156.885 146.181 160.315 142.75C163.747 139.319 167.962 140.307 171.173 143.516C174.383 146.725 175.369 150.941 171.938 154.373Z" fill="#EF9A9A"/>
<path opacity="0.81" d="M171.946 154.308C168.531 157.723 162.118 158.957 158.925 155.764C155.731 152.57 156.965 146.157 160.38 142.743C163.795 139.328 167.99 140.312 171.183 143.505C174.377 146.698 175.36 150.895 171.946 154.308Z" fill="#EF9A9A"/>
<path opacity="0.84" d="M171.955 154.244C168.557 157.642 162.175 158.87 158.997 155.692C155.819 152.514 157.047 146.131 160.445 142.734C163.842 139.336 168.018 140.313 171.196 143.493C174.374 146.671 175.353 150.846 171.955 154.244Z" fill="#EF9A9A"/>
<path opacity="0.87" d="M171.963 154.179C168.582 157.56 162.23 158.783 159.068 155.619C155.905 152.457 157.127 146.105 160.508 142.724C163.888 139.344 168.044 140.316 171.206 143.479C174.369 146.642 175.342 150.797 171.961 154.178L171.963 154.179Z" fill="#EF9A9A"/>
<path opacity="0.9" d="M171.97 154.113C168.606 157.477 162.287 158.694 159.14 155.547C155.993 152.4 157.208 146.081 160.574 142.717C163.938 139.353 168.073 140.321 171.22 143.468C174.368 146.615 175.336 150.749 171.972 154.115L171.97 154.113Z" fill="#EF9A9A"/>
<path opacity="0.94" d="M171.979 154.049C168.631 157.397 162.344 158.607 159.212 155.475C156.08 152.343 157.291 146.055 160.638 142.707C163.987 139.359 168.101 140.322 171.233 143.454C174.364 146.586 175.328 150.7 171.979 154.049Z" fill="#EF9A9A"/>
<path opacity="0.97" d="M171.987 153.984C168.655 157.316 162.399 158.519 159.283 155.404C156.166 152.288 157.371 146.031 160.703 142.7C164.034 139.368 168.128 140.327 171.243 143.444C174.36 146.56 175.319 150.654 171.987 153.984Z" fill="#EF9A9A"/>
<path d="M171.995 153.918C168.68 157.233 162.455 158.432 159.353 155.33C156.252 152.229 157.451 146.004 160.766 142.689C164.08 139.374 168.153 140.329 171.254 143.43C174.355 146.531 175.308 150.603 171.995 153.918Z" fill="#EF9A9A"/>
</g>
<path d="M168.878 107.623C165.31 111.192 158.419 112.295 154.851 108.727C151.282 105.158 152.386 98.2677 155.954 94.6993C159.522 91.131 164.096 92.345 167.664 95.9134C171.233 99.4817 172.447 104.055 168.878 107.623Z" fill="#EF9A9A"/>
<path d="M172.72 128.346C169.109 131.958 162.138 133.074 158.528 129.464C154.917 125.852 156.034 118.882 159.645 115.272C163.257 111.66 167.882 112.89 171.494 116.5C175.105 120.109 176.333 124.737 172.722 128.348L172.72 128.346Z" fill="#EF9A9A"/>
<path d="M172.657 154.11C169.115 157.652 162.276 158.748 158.736 155.206C155.193 151.664 156.289 144.825 159.831 141.284C163.374 137.742 167.912 138.947 171.454 142.489C174.996 146.031 176.201 150.57 172.659 154.112L172.657 154.11Z" fill="#EF9A9A"/>
<path d="M171.352 125.159C171.352 125.159 169.911 116.169 161.972 115.144C161.972 115.144 175.883 114.434 171.352 125.159Z" fill="#EAEBFF"/>
<path d="M167.426 105.363C167.426 105.363 165.877 95.6998 157.343 94.5979C157.343 94.5979 172.294 93.8357 167.426 105.363Z" fill="#EAEBFF"/>
<path d="M170.856 150.94C170.856 150.94 169.415 141.95 161.476 140.925C161.476 140.925 175.386 140.215 170.856 150.94Z" fill="white"/>
<path d="M72.7238 161.786V182.961C72.7238 188.404 77.1358 192.816 82.5789 192.816H144.607C150.05 192.816 154.462 188.404 154.462 182.961V161.786H72.7238Z" fill="url(#paint23_linear_11_18691)"/>
<path d="M87.618 68.7035V125.951C87.618 127.789 89.1087 129.279 90.9466 129.279H136.238C138.076 129.279 139.566 127.789 139.566 125.951V79.4931L125.45 65.3765H90.9482C89.1102 65.3765 87.6196 66.8671 87.6196 68.7051L87.618 68.7035Z" fill="url(#paint24_linear_11_18691)"/>
<g opacity="0.2">
<path d="M102.24 78.0178H99.932V79.049H102.24V78.0178Z" fill="#0085FF"/>
<path d="M117.062 78.0178H113.735V79.049H117.062V78.0178Z" fill="#0085FF"/>
<path d="M120.237 78.0178H118.282V79.049H120.237V78.0178Z" fill="#0085FF"/>
<path d="M112.513 78.0178H103.46V79.049H112.513V78.0178Z" fill="#0085FF"/>
<path d="M98.7118 78.0178H93.9924V79.049H98.7118V78.0178Z" fill="#0085FF"/>
<path d="M130.904 78.0178H121.457V79.049H130.904V78.0178Z" fill="#0085FF"/>
<path d="M123.738 79.9464H114.955V80.9776H123.738V79.9464Z" fill="#0085FF"/>
<path d="M110.534 79.9464H97.6791V80.9776H110.534V79.9464Z" fill="#0085FF"/>
<path d="M113.735 79.9464H111.754V80.9776H113.735V79.9464Z" fill="#0085FF"/>
<path d="M134.466 79.9464H132.373V80.9776H134.466V79.9464Z" fill="#0085FF"/>
<path d="M96.4589 79.9464H93.0043V80.9776H96.4589V79.9464Z" fill="#0085FF"/>
<path d="M131.151 79.9464H124.956V80.9776H131.151V79.9464Z" fill="#0085FF"/>
<path d="M109.72 81.875H100.751V82.9062H109.72V81.875Z" fill="#0085FF"/>
<path d="M118.65 81.875H110.94V82.9062H118.65V81.875Z" fill="#0085FF"/>
<path d="M121.536 81.875H119.87V82.9062H121.536V81.875Z" fill="#0085FF"/>
<path d="M99.5309 81.875H95.8781V82.9062H99.5309V81.875Z" fill="#0085FF"/>
<path d="M120.093 83.8037H117.062V84.8349H120.093V83.8037Z" fill="#0085FF"/>
<path d="M115.84 83.8037H105.789V84.8349H115.84V83.8037Z" fill="#0085FF"/>
<path d="M130.542 83.8037H121.313V84.8349H130.542V83.8037Z" fill="#0085FF"/>
<path d="M104.568 83.8037H98.4382V84.8349H104.568V83.8037Z" fill="#0085FF"/>
<path d="M123.366 85.7323H111.144V86.7635H123.366V85.7323Z" fill="#0085FF"/>
<path d="M109.924 85.7323H102.114V86.7635H109.924V85.7323Z" fill="#0085FF"/>
<path d="M126.344 85.7323H124.586V86.7635H126.344V85.7323Z" fill="#0085FF"/>
<path d="M100.894 85.7323H95.8781V86.7635H100.894V85.7323Z" fill="#0085FF"/>
<path d="M113.406 87.6609H104.568V88.6921H113.406V87.6609Z" fill="#0085FF"/>
<path d="M120.377 87.6609H117.062V88.6921H120.377V87.6609Z" fill="#0085FF"/>
<path d="M115.842 87.6609H114.628V88.6921H115.842V87.6609Z" fill="#0085FF"/>
<path d="M134.464 87.6609H132.324V88.6921H134.464V87.6609Z" fill="#0085FF"/>
<path d="M103.348 87.6609H98.4382V88.6921H103.348V87.6609Z" fill="#0085FF"/>
<path d="M131.103 87.6609H121.596V88.6921H131.103V87.6609Z" fill="#0085FF"/>
<path d="M111.905 89.5896H110.208V90.6208H111.905V89.5896Z" fill="#0085FF"/>
<path d="M108.988 89.5896H99.932V90.6208H108.988V89.5896Z" fill="#0085FF"/>
<path d="M98.7133 89.5896H93.0043V90.6208H98.7133V89.5896Z" fill="#0085FF"/>
<path d="M115.722 91.5182H102.114V92.5493H115.722V91.5182Z" fill="#0085FF"/>
<path d="M120.375 91.5182H116.941V92.5493H120.375V91.5182Z" fill="#0085FF"/>
<path d="M100.894 91.5182H97.4332V92.5493H100.894V91.5182Z" fill="#0085FF"/>
<path d="M123.126 93.4468H110.33V94.4779H123.126V93.4468Z" fill="#0085FF"/>
<path d="M109.109 93.4468H99.932V94.4779H109.109V93.4468Z" fill="#0085FF"/>
<path d="M134.464 93.4468H124.346V94.4779H134.464V93.4468Z" fill="#0085FF"/>
<path d="M98.7118 93.4468H95.1772V94.4779H98.7118V93.4468Z" fill="#0085FF"/>
<path d="M106.303 95.3754H104.167V96.4065H106.303V95.3754Z" fill="#0085FF"/>
<path d="M118.719 95.3754H107.523V96.4065H118.719V95.3754Z" fill="#0085FF"/>
<path d="M123.736 95.3754H119.939V96.4065H123.736V95.3754Z" fill="#0085FF"/>
<path d="M102.947 95.3754H98.1985V96.4065H102.947V95.3754Z" fill="#0085FF"/>
<path d="M112.002 97.3041H110.138V98.3352H112.002V97.3041Z" fill="#0085FF"/>
<path d="M125.567 97.3041H113.222V98.3352H125.567V97.3041Z" fill="#0085FF"/>
<path d="M108.917 97.3041H99.932V98.3352H108.917V97.3041Z" fill="#0085FF"/>
<path d="M98.7133 97.3041H93.0043V98.3352H98.7133V97.3041Z" fill="#0085FF"/>
<path d="M106.483 99.2327H104.012V100.264H106.483V99.2327Z" fill="#0085FF"/>
<path d="M116.506 99.2327H107.703V100.264H116.506V99.2327Z" fill="#0085FF"/>
<path d="M102.792 99.2327H95.8781V100.264H102.792V99.2327Z" fill="#0085FF"/>
<path d="M106.835 101.28H99.932V102.311H106.835V101.28Z" fill="#0085FF"/>
<path d="M110.459 101.28H108.055V102.311H110.459V101.28Z" fill="#0085FF"/>
<path d="M134.466 101.28H122.448V102.311H134.466V101.28Z" fill="#0085FF"/>
<path d="M121.228 101.28H111.68V102.311H121.228V101.28Z" fill="#0085FF"/>
<path d="M98.7134 101.28H92.7216V102.311H98.7134V101.28Z" fill="#0085FF"/>
<path d="M105.235 103.208H103.118V104.239H105.235V103.208Z" fill="#0085FF"/>
<path d="M113.222 103.208H106.455V104.239H113.222V103.208Z" fill="#0085FF"/>
<path d="M126.177 103.208H114.442V104.239H126.177V103.208Z" fill="#0085FF"/>
<path d="M101.897 103.208H96.213V104.239H101.897V103.208Z" fill="#0085FF"/>
<path d="M106.914 105.137H97.5071V106.168H106.914V105.137Z" fill="#0085FF"/>
<path d="M110.138 105.137H108.134V106.168H110.138V105.137Z" fill="#0085FF"/>
<path d="M118.335 105.137H111.358V106.168H118.335V105.137Z" fill="#0085FF"/>
<path d="M96.2884 105.137H94.1554V106.168H96.2884V105.137Z" fill="#0085FF"/>
<path d="M129.405 105.137H119.555V106.168H129.405V105.137Z" fill="#0085FF"/>
<path d="M116.208 107.066H113.832V108.097H116.208V107.066Z" fill="#0085FF"/>
<path d="M112.612 107.066H103.402V108.097H112.612V107.066Z" fill="#0085FF"/>
<path d="M134.464 107.066H132.545V108.097H134.464V107.066Z" fill="#0085FF"/>
<path d="M131.325 107.066H117.428V108.097H131.325V107.066Z" fill="#0085FF"/>
<path d="M102.182 107.066H97.9526V108.097H102.182V107.066Z" fill="#0085FF"/>
<path d="M105.615 108.994H99.932V110.025H105.615V108.994Z" fill="#0085FF"/>
<path d="M117.429 108.994H110.449V110.025H117.429V108.994Z" fill="#0085FF"/>
<path d="M109.228 108.994H106.835V110.025H109.228V108.994Z" fill="#0085FF"/>
<path d="M98.7118 108.994H95.42V110.025H98.7118V108.994Z" fill="#0085FF"/>
<path d="M120.69 108.994H118.648V110.025H120.69V108.994Z" fill="#0085FF"/>
<path d="M115.722 111.033H102.114V112.065H115.722V111.033Z" fill="#0085FF"/>
<path d="M120.375 111.033H116.941V112.065H120.375V111.033Z" fill="#0085FF"/>
<path d="M100.894 111.033H97.4332V112.065H100.894V111.033Z" fill="#0085FF"/>
<path d="M123.126 112.962H110.33V113.993H123.126V112.962Z" fill="#0085FF"/>
<path d="M109.109 112.962H99.932V113.993H109.109V112.962Z" fill="#0085FF"/>
<path d="M134.464 112.962H124.346V113.993H134.464V112.962Z" fill="#0085FF"/>
<path d="M98.7118 112.962H95.1772V113.993H98.7118V112.962Z" fill="#0085FF"/>
<path d="M106.303 114.891H104.167V115.922H106.303V114.891Z" fill="#0085FF"/>
<path d="M118.719 114.891H107.523V115.922H118.719V114.891Z" fill="#0085FF"/>
<path d="M123.736 114.891H119.939V115.922H123.736V114.891Z" fill="#0085FF"/>
<path d="M102.947 114.891H98.1985V115.922H102.947V114.891Z" fill="#0085FF"/>
<path d="M112.002 116.818H110.138V117.849H112.002V116.818Z" fill="#0085FF"/>
<path d="M125.567 116.818H113.222V117.849H125.567V116.818Z" fill="#0085FF"/>
<path d="M108.917 116.818H99.932V117.849H108.917V116.818Z" fill="#0085FF"/>
<path d="M98.7133 116.818H93.0043V117.849H98.7133V116.818Z" fill="#0085FF"/>
<path d="M106.483 118.746H104.012V119.777H106.483V118.746Z" fill="#0085FF"/>
<path d="M116.506 118.746H107.703V119.777H116.506V118.746Z" fill="#0085FF"/>
<path d="M102.792 118.746H95.8781V119.777H102.792V118.746Z" fill="#0085FF"/>
<path d="M106.835 120.795H99.932V121.826H106.835V120.795Z" fill="#0085FF"/>
<path d="M110.459 120.795H108.055V121.826H110.459V120.795Z" fill="#0085FF"/>
<path d="M134.466 120.795H122.448V121.826H134.466V120.795Z" fill="#0085FF"/>
<path d="M121.228 120.795H111.68V121.826H121.228V120.795Z" fill="#0085FF"/>
<path d="M98.7134 120.795H92.7216V121.826H98.7134V120.795Z" fill="#0085FF"/>
<path d="M105.235 122.724H103.118V123.755H105.235V122.724Z" fill="#0085FF"/>
<path d="M113.222 122.724H106.455V123.755H113.222V122.724Z" fill="#0085FF"/>
<path d="M126.177 122.724H114.442V123.755H126.177V122.724Z" fill="#0085FF"/>
<path d="M101.897 122.724H96.213V123.755H101.897V122.724Z" fill="#0085FF"/>
<path d="M122.146 76.0892H119.549V77.1204H122.146V76.0892Z" fill="#0085FF"/>
<path d="M118.328 76.0892H105.178V77.1204H118.328V76.0892Z" fill="#0085FF"/>
<path d="M103.958 76.0892H98.4382V77.1204H103.958V76.0892Z" fill="#0085FF"/>
<path d="M134.466 74.1605H131.763V75.1917H134.466V74.1605Z" fill="#0085FF"/>
<path d="M106.989 74.1605H99.932V75.1917H106.989V74.1605Z" fill="#0085FF"/>
<path d="M118.607 74.1605H108.209V75.1917H118.607V74.1605Z" fill="#0085FF"/>
<path d="M122.146 74.1605H119.827V75.1917H122.146V74.1605Z" fill="#0085FF"/>
<path d="M130.543 74.1605H123.366V75.1917H130.543V74.1605Z" fill="#0085FF"/>
<path d="M98.7118 74.1605H95.4263V75.1917H98.7118V74.1605Z" fill="#0085FF"/>
<path d="M116.45 72.2319H100.542V73.2631H116.45V72.2319Z" fill="#0085FF"/>
<path d="M126.619 72.2319H117.672V73.2631H126.619V72.2319Z" fill="#0085FF"/>
<path d="M99.3234 72.2319H93.0043V73.2631H99.3234V72.2319Z" fill="#0085FF"/>
</g>
<path d="M125.45 65.3734L139.566 79.49H128.668C126.89 79.49 125.45 78.0485 125.45 76.2721V65.3734Z" fill="url(#paint25_linear_11_18691)"/>
<path d="M78.9215 76.4596C78.379 76.4596 77.938 76.0185 77.938 75.4761V56.743C77.938 56.2006 78.379 55.7595 78.9215 55.7595H97.6545C98.197 55.7595 98.638 56.2006 98.638 56.743C98.638 57.2855 98.197 57.7266 97.6545 57.7266H79.905V75.4761C79.905 76.0185 79.464 76.4596 78.9215 76.4596Z" fill="#EAEBFF"/>
<path d="M148.264 76.4596C147.72 76.4596 147.281 76.0185 147.281 75.4761V57.7266H129.531C128.989 57.7266 128.548 57.2855 128.548 56.743C128.548 56.2006 128.989 55.7595 129.531 55.7595H148.264C148.808 55.7595 149.248 56.2006 149.248 56.743V75.4761C149.248 76.0185 148.808 76.4596 148.264 76.4596Z" fill="#EAEBFF"/>
<path d="M97.6545 138.892H78.9215C78.379 138.892 77.938 138.451 77.938 137.908V119.175C77.938 118.631 78.379 118.192 78.9215 118.192C79.464 118.192 79.905 118.633 79.905 119.175V136.925H97.6545C98.197 136.925 98.638 137.364 98.638 137.908C98.638 138.452 98.197 138.892 97.6545 138.892Z" fill="#EAEBFF"/>
<path d="M148.264 138.892H129.531C128.989 138.892 128.548 138.451 128.548 137.908C128.548 137.366 128.989 136.925 129.531 136.925H147.281V119.175C147.281 118.631 147.722 118.192 148.264 118.192C148.807 118.192 149.248 118.633 149.248 119.175V137.908C149.248 138.451 148.808 138.892 148.264 138.892Z" fill="#EAEBFF"/>
<path d="M80.0587 97.3256C80.0587 97.9111 79.5838 98.386 78.9983 98.386C78.4128 98.386 77.938 97.9111 77.938 97.3256C77.938 96.7401 78.4128 96.2653 78.9983 96.2653C79.5838 96.2653 80.0587 96.7401 80.0587 97.3256Z" fill="#EAEBFF"/>
<path d="M149.248 97.3256C149.248 97.9111 148.773 98.386 148.188 98.386C147.602 98.386 147.127 97.9111 147.127 97.3256C147.127 96.7401 147.602 96.2653 148.188 96.2653C148.773 96.2653 149.248 96.7401 149.248 97.3256Z" fill="#EAEBFF"/>
<path d="M148.187 97.0198H78.9983V97.6314H148.187V97.0198Z" fill="#EAEBFF"/>
<path d="M113.592 184.673C117.587 184.673 120.826 181.435 120.826 177.44C120.826 173.445 117.587 170.206 113.592 170.206C109.597 170.206 106.359 173.445 106.359 177.44C106.359 181.435 109.597 184.673 113.592 184.673Z" fill="white"/>
<path d="M113.592 167.526C108.127 167.526 103.68 171.972 103.68 177.438C103.68 178.46 103.835 179.447 104.124 180.375C105.378 184.412 109.149 187.352 113.592 187.352C118.035 187.352 121.808 184.412 123.062 180.375C123.35 179.447 123.506 178.46 123.506 177.438C123.506 171.972 119.058 167.526 113.592 167.526ZM113.592 186.184C109.799 186.184 106.563 183.757 105.354 180.375C105.025 179.457 104.846 178.468 104.846 177.438C104.846 172.616 108.77 168.692 113.592 168.692C118.414 168.692 122.338 172.616 122.338 177.438C122.338 178.468 122.16 179.457 121.831 180.375C120.621 183.757 117.385 186.184 113.592 186.184Z" fill="white"/>
<path d="M102.455 47.7792C102.375 47.6532 102.271 47.5518 102.143 47.4719C102.016 47.3919 101.871 47.3289 101.71 47.2828C101.549 47.2367 101.387 47.1968 101.223 47.1599C101.068 47.1292 100.918 47.0938 100.774 47.0554C100.631 47.0185 100.502 46.9663 100.388 46.9002C100.275 46.8341 100.184 46.7527 100.116 46.6528C100.049 46.5529 100.015 46.4238 100.015 46.264C100.015 45.9889 100.119 45.7676 100.328 45.6032C100.536 45.4372 100.814 45.3542 101.163 45.3542C101.512 45.3542 101.776 45.4418 101.977 45.6185C102.18 45.7937 102.282 46.0304 102.282 46.3301H102.474C102.474 46.1533 102.441 45.995 102.38 45.8537C102.318 45.7123 102.231 45.5909 102.117 45.4894C102.003 45.388 101.867 45.3081 101.707 45.2528C101.549 45.1975 101.369 45.1698 101.169 45.1698C100.969 45.1698 100.782 45.1959 100.616 45.2466C100.451 45.2989 100.308 45.3727 100.192 45.4695C100.073 45.5647 99.9826 45.68 99.9196 45.8168C99.855 45.952 99.8243 46.1041 99.8243 46.2717C99.8243 46.4668 99.8643 46.6251 99.9426 46.748C100.023 46.8695 100.127 46.9693 100.255 47.0462C100.382 47.1246 100.525 47.186 100.685 47.229C100.845 47.2736 101.006 47.3136 101.169 47.3489C101.324 47.3858 101.476 47.4227 101.624 47.4596C101.771 47.498 101.9 47.5502 102.013 47.6163C102.123 47.6824 102.214 47.7669 102.282 47.8699C102.349 47.9744 102.383 48.1096 102.383 48.2771C102.383 48.4246 102.354 48.5583 102.297 48.6782C102.239 48.7981 102.157 48.9026 102.051 48.9902C101.945 49.0778 101.819 49.1454 101.676 49.193C101.532 49.2422 101.372 49.2652 101.197 49.2652C101.005 49.2652 100.831 49.2391 100.674 49.1884C100.519 49.1362 100.387 49.0624 100.276 48.9671C100.167 48.8703 100.081 48.7566 100.018 48.6229C99.9565 48.4892 99.9257 48.3401 99.9257 48.1772H99.7336C99.7336 48.3678 99.769 48.543 99.8381 48.6997C99.9088 48.858 100.007 48.9917 100.136 49.1039C100.267 49.2161 100.421 49.3006 100.599 49.3605C100.779 49.4205 100.977 49.4512 101.197 49.4512C101.399 49.4512 101.584 49.4235 101.751 49.3667C101.919 49.3113 102.063 49.2314 102.186 49.1285C102.311 49.024 102.406 48.901 102.474 48.7566C102.541 48.6137 102.575 48.4523 102.575 48.2725C102.575 48.0697 102.535 47.9052 102.455 47.7792Z" fill="#EAEBFF"/>
<path d="M101.197 49.6018C100.963 49.6018 100.746 49.5696 100.553 49.505C100.356 49.4389 100.184 49.3437 100.039 49.2192C99.8935 49.0932 99.7798 48.9395 99.7014 48.7628C99.623 48.5876 99.5846 48.3909 99.5846 48.1788V48.0297H100.075V48.1788C100.075 48.3202 100.101 48.4477 100.153 48.5615C100.205 48.6752 100.279 48.7735 100.373 48.855C100.467 48.938 100.585 49.0025 100.72 49.0471C100.86 49.0932 101.02 49.1178 101.195 49.1178C101.353 49.1178 101.499 49.0962 101.627 49.0532C101.753 49.0117 101.862 48.9518 101.953 48.8765C102.042 48.8027 102.111 48.7151 102.159 48.6152C102.206 48.5169 102.231 48.4032 102.231 48.2787C102.231 48.1419 102.205 48.0313 102.154 47.9529C102.099 47.8684 102.026 47.8008 101.934 47.7454C101.836 47.687 101.718 47.6394 101.584 47.6056C101.438 47.5687 101.287 47.5318 101.134 47.4949C100.971 47.4596 100.805 47.4181 100.643 47.3735C100.471 47.3259 100.313 47.2598 100.175 47.1738C100.029 47.0846 99.9073 46.9678 99.8166 46.828C99.7214 46.682 99.6722 46.4945 99.6722 46.2702C99.6722 46.0811 99.7091 45.9059 99.7828 45.7507C99.8566 45.5955 99.9611 45.4603 100.096 45.3512C100.228 45.2436 100.387 45.1606 100.571 45.1022C100.751 45.0454 100.952 45.0177 101.169 45.0177C101.386 45.0177 101.582 45.0484 101.756 45.1099C101.934 45.1729 102.088 45.262 102.216 45.3758C102.345 45.491 102.446 45.6309 102.515 45.7922C102.584 45.952 102.62 46.1318 102.62 46.327V46.4761H102.129V46.327C102.129 46.0719 102.046 45.8752 101.877 45.7277C101.704 45.5771 101.463 45.5018 101.161 45.5018C100.86 45.5018 100.599 45.574 100.419 45.7169C100.247 45.8537 100.162 46.032 100.162 46.2609C100.162 46.3885 100.189 46.4914 100.238 46.5652C100.293 46.6467 100.367 46.7127 100.461 46.7681C100.562 46.8265 100.68 46.8741 100.809 46.9079C100.948 46.9448 101.097 46.9786 101.25 47.0109C101.416 47.0477 101.584 47.0892 101.748 47.1353C101.922 47.1845 102.082 47.2537 102.22 47.3413C102.366 47.4319 102.486 47.5518 102.578 47.6963C102.673 47.8453 102.721 48.039 102.721 48.2695C102.721 48.4708 102.683 48.6552 102.606 48.8181C102.529 48.981 102.42 49.1224 102.28 49.2392C102.143 49.3544 101.98 49.4435 101.796 49.505C101.615 49.565 101.412 49.5957 101.194 49.5957L101.197 49.6018Z" fill="#EAEBFF"/>
<path d="M106.174 48.44C106.051 48.7074 105.875 48.9134 105.646 49.0594C105.417 49.2053 105.154 49.2776 104.859 49.2776C104.651 49.2776 104.458 49.2392 104.279 49.1639C104.1 49.0886 103.944 48.9841 103.812 48.8504C103.682 48.7167 103.579 48.5584 103.505 48.377C103.431 48.1957 103.394 48.0005 103.394 47.7885C103.394 47.5764 103.431 47.3812 103.505 47.1999C103.579 47.0186 103.682 46.8603 103.812 46.7266C103.944 46.5929 104.1 46.4884 104.279 46.4131C104.458 46.3378 104.651 46.2993 104.859 46.2993C105.154 46.2993 105.417 46.3716 105.649 46.5176C105.879 46.6636 106.051 46.8664 106.162 47.1246H106.36C106.245 46.8172 106.054 46.5729 105.792 46.3885C105.529 46.2056 105.218 46.1134 104.859 46.1134C104.624 46.1134 104.404 46.1564 104.201 46.2425C103.998 46.3285 103.821 46.4453 103.672 46.5944C103.522 46.7435 103.407 46.9217 103.325 47.1261C103.244 47.3305 103.202 47.5533 103.202 47.7915C103.202 48.0297 103.244 48.251 103.328 48.4539C103.411 48.6567 103.528 48.8335 103.679 48.9825C103.828 49.1316 104.003 49.2484 104.204 49.3344C104.405 49.4205 104.624 49.4635 104.859 49.4635C105.209 49.4635 105.518 49.3713 105.785 49.1884C106.053 49.004 106.248 48.7551 106.372 48.44H106.174Z" fill="#EAEBFF"/>
<path d="M104.859 49.6126C104.605 49.6126 104.364 49.5649 104.146 49.4727C103.928 49.3805 103.735 49.2514 103.573 49.0886C103.41 48.9257 103.281 48.732 103.19 48.5123C103.099 48.2925 103.053 48.0497 103.053 47.7931C103.053 47.5364 103.098 47.2936 103.187 47.0723C103.276 46.8495 103.403 46.6543 103.566 46.4914C103.729 46.3285 103.923 46.1995 104.143 46.1073C104.364 46.0135 104.604 45.9674 104.859 45.9674C105.248 45.9674 105.59 46.0688 105.878 46.2686C106.165 46.4684 106.374 46.7404 106.5 47.0739L106.577 47.2767H106.065L106.027 47.1861C105.927 46.954 105.778 46.7773 105.57 46.6467C105.364 46.5176 105.126 46.4515 104.86 46.4515C104.674 46.4515 104.499 46.4853 104.338 46.5529C104.178 46.6205 104.037 46.7158 103.92 46.8341C103.803 46.9525 103.709 47.0954 103.643 47.2583C103.577 47.4212 103.543 47.5994 103.543 47.7915C103.543 47.9836 103.577 48.1619 103.643 48.3248C103.709 48.4877 103.801 48.6291 103.92 48.7489C104.037 48.8673 104.178 48.9625 104.338 49.0302C104.498 49.0978 104.673 49.1316 104.86 49.1316C105.125 49.1316 105.363 49.0655 105.567 48.9364C105.77 48.8073 105.93 48.6198 106.041 48.3816L106.08 48.2956H106.592L106.512 48.5C106.379 48.8411 106.162 49.1162 105.871 49.316C105.58 49.5158 105.24 49.6172 104.86 49.6172L104.859 49.6126Z" fill="#EAEBFF"/>
<path d="M110.056 46.1733L110.041 46.576L110.025 47.017C109.947 46.8495 109.846 46.702 109.719 46.576C109.64 46.4945 109.549 46.4223 109.449 46.3593C109.191 46.1964 108.893 46.1134 108.555 46.1134C108.32 46.1134 108.101 46.1564 107.9 46.2394C107.699 46.3239 107.523 46.4407 107.376 46.5898C107.228 46.7389 107.113 46.9171 107.03 47.1215C106.946 47.3274 106.904 47.5487 106.904 47.7885C106.904 48.0282 106.946 48.2495 107.03 48.4554C107.113 48.6613 107.228 48.8381 107.376 48.9871C107.523 49.1377 107.699 49.2545 107.9 49.3406C108.101 49.4266 108.32 49.4681 108.555 49.4681C108.887 49.4681 109.18 49.3898 109.435 49.2284C109.44 49.2269 109.444 49.2238 109.449 49.2207C109.706 49.0547 109.898 48.835 110.025 48.5599L110.05 49.4036H110.217V46.1733H110.056ZM109.902 48.3878C109.829 48.5691 109.727 48.7274 109.598 48.8611C109.547 48.9134 109.494 48.961 109.435 49.0025C109.345 49.0716 109.246 49.1285 109.137 49.1731C108.96 49.2468 108.765 49.2837 108.555 49.2837C108.344 49.2837 108.155 49.2453 107.977 49.17C107.8 49.0932 107.645 48.9887 107.514 48.855C107.382 48.7213 107.279 48.563 107.205 48.3816C107.132 48.2003 107.095 48.0036 107.095 47.7915C107.095 47.5795 107.132 47.3828 107.205 47.2014C107.279 47.0201 107.382 46.8618 107.514 46.7281C107.645 46.5944 107.8 46.4899 107.977 46.4131C108.155 46.3378 108.347 46.2993 108.555 46.2993C108.762 46.2993 108.96 46.3362 109.137 46.41C109.246 46.4546 109.345 46.5114 109.435 46.5806C109.494 46.6221 109.547 46.6697 109.598 46.722C109.727 46.8557 109.829 47.0139 109.902 47.1953C109.976 47.3766 110.013 47.5764 110.013 47.7915C110.013 48.0067 109.976 48.2065 109.902 48.3878Z" fill="#EAEBFF"/>
<path d="M109.912 46.0243L109.893 46.5422C109.789 46.4238 109.667 46.3209 109.529 46.2333C109.248 46.055 108.92 45.9644 108.555 45.9644C108.301 45.9644 108.061 46.0105 107.842 46.1011C107.623 46.1933 107.431 46.3209 107.27 46.4853C107.11 46.6467 106.983 46.8434 106.892 47.0647C106.801 47.2875 106.755 47.5318 106.755 47.7885C106.755 48.0451 106.801 48.2895 106.892 48.5123C106.983 48.7351 107.11 48.9303 107.27 49.0932C107.431 49.2545 107.623 49.3852 107.842 49.4774C108.06 49.5711 108.3 49.6188 108.555 49.6188C108.88 49.6188 109.177 49.545 109.435 49.4021C109.467 49.3852 109.498 49.3667 109.529 49.3467C109.666 49.2591 109.786 49.1562 109.89 49.0394L109.902 49.4851V49.5527H110.366V46.0243H109.912ZM108.555 49.1347C108.369 49.1347 108.194 49.0993 108.037 49.0317C107.878 48.9641 107.739 48.8704 107.62 48.7505C107.504 48.6306 107.41 48.4877 107.345 48.3248C107.279 48.1634 107.245 47.9836 107.245 47.7916C107.245 47.5995 107.279 47.4197 107.345 47.2583C107.411 47.0954 107.504 46.9525 107.62 46.8326C107.739 46.7128 107.877 46.619 108.037 46.5514C108.194 46.4838 108.369 46.4484 108.555 46.4484C108.741 46.4484 108.922 46.4822 109.08 46.5483C109.212 46.6036 109.332 46.6789 109.435 46.7742C109.454 46.7896 109.472 46.808 109.491 46.8265C109.606 46.9448 109.698 47.0877 109.764 47.2522C109.83 47.4151 109.864 47.5964 109.864 47.7916C109.864 47.9867 109.83 48.1681 109.764 48.331C109.698 48.4938 109.606 48.6383 109.491 48.7566C109.472 48.7751 109.454 48.7935 109.435 48.8089C109.332 48.9042 109.212 48.9795 109.08 49.0348C108.922 49.1009 108.745 49.1347 108.555 49.1347Z" fill="#EAEBFF"/>
<path d="M114.019 46.9248C113.975 46.7942 113.913 46.6774 113.836 46.576C113.815 46.5452 113.79 46.516 113.766 46.4884C113.657 46.367 113.524 46.2717 113.368 46.2041C113.212 46.1365 113.037 46.1027 112.842 46.1027C112.562 46.1027 112.31 46.1795 112.083 46.3332C111.977 46.4039 111.883 46.4853 111.802 46.576C111.709 46.6789 111.634 46.7942 111.574 46.9217L111.56 46.576L111.545 46.1703H111.388V49.4036H111.58V47.5195C111.58 47.352 111.613 47.1953 111.679 47.0462C111.745 46.9002 111.834 46.7696 111.945 46.6559C111.972 46.6282 112.001 46.6021 112.031 46.576C112.121 46.4991 112.224 46.4361 112.336 46.387C112.486 46.3209 112.642 46.2871 112.807 46.2871C113.134 46.2871 113.394 46.3839 113.586 46.576C113.6 46.5867 113.614 46.6021 113.626 46.6159C113.821 46.8357 113.918 47.1384 113.918 47.5257V49.4036H114.11V47.4888C114.11 47.2829 114.079 47.0939 114.019 46.9248Z" fill="#EAEBFF"/>
<path d="M114.259 49.5526H113.769V47.5256C113.769 47.1783 113.683 46.9063 113.514 46.7158C113.346 46.5283 113.116 46.4376 112.807 46.4376C112.665 46.4376 112.527 46.4668 112.398 46.5237C112.266 46.5821 112.151 46.662 112.052 46.7603C111.954 46.8602 111.874 46.977 111.816 47.1076C111.759 47.2352 111.729 47.3735 111.729 47.5195V49.5526H111.239V46.0212H111.688L111.705 46.4607C111.791 46.3669 111.889 46.2839 111.998 46.2102C112.25 46.0411 112.533 45.9551 112.842 45.9551C113.057 45.9551 113.254 45.9935 113.428 46.0688C113.603 46.1456 113.753 46.2532 113.876 46.39C113.999 46.5252 114.095 46.6896 114.161 46.8771C114.225 47.0615 114.259 47.269 114.259 47.4918V49.5541V49.5526Z" fill="#EAEBFF"/>
<path d="M117.854 46.9248C117.807 46.7942 117.746 46.6774 117.671 46.576C117.648 46.5452 117.625 46.516 117.598 46.4884C117.489 46.367 117.357 46.2717 117.202 46.2041C117.045 46.1365 116.87 46.1027 116.675 46.1027C116.397 46.1027 116.143 46.1795 115.916 46.3332C115.81 46.4039 115.716 46.4853 115.635 46.576C115.542 46.6789 115.467 46.7942 115.407 46.9217L115.393 46.576L115.378 46.1703H115.223V49.4036H115.413V47.5195C115.413 47.352 115.447 47.1953 115.512 47.0462C115.578 46.9002 115.667 46.7696 115.779 46.6559C115.807 46.6282 115.834 46.6021 115.863 46.576C115.954 46.4991 116.057 46.4361 116.169 46.387C116.32 46.3209 116.475 46.2871 116.64 46.2871C116.967 46.2871 117.227 46.3839 117.419 46.576C117.433 46.5867 117.446 46.6021 117.459 46.6159C117.654 46.8357 117.752 47.1384 117.752 47.5257V49.4036H117.943V47.4888C117.943 47.2829 117.914 47.0939 117.854 46.9248Z" fill="#EAEBFF"/>
<path d="M118.092 49.5526H117.602V47.5256C117.602 47.1783 117.515 46.9063 117.346 46.7158C117.179 46.5283 116.948 46.4376 116.64 46.4376C116.498 46.4376 116.36 46.4668 116.231 46.5237C116.099 46.5821 115.983 46.662 115.885 46.7603C115.787 46.8602 115.707 46.977 115.648 47.1076C115.591 47.2352 115.562 47.3735 115.562 47.5195V49.5526H115.072V46.0212H115.521L115.538 46.4607C115.624 46.3669 115.722 46.2839 115.831 46.2102C116.083 46.0411 116.366 45.9551 116.675 45.9551C116.89 45.9551 117.087 45.9935 117.26 46.0688C117.436 46.1456 117.586 46.2532 117.709 46.39C117.832 46.5252 117.927 46.6896 117.993 46.8771C118.058 47.0615 118.092 47.269 118.092 47.4918V49.5541V49.5526Z" fill="#EAEBFF"/>
<path d="M119.055 46.1733V49.4036H119.246V46.1733H119.055ZM119.014 45.1222V45.4557H119.295V45.1222H119.014Z" fill="#EAEBFF"/>
<path d="M118.863 44.9716V45.6062H119.444V44.9716H118.863ZM118.906 46.0242V49.5526H119.396V46.0242H118.906Z" fill="#EAEBFF"/>
<path d="M123.055 46.9248C122.995 46.7542 122.911 46.6098 122.802 46.4884C122.691 46.367 122.559 46.2717 122.404 46.2041C122.249 46.1365 122.073 46.1027 121.878 46.1027C121.599 46.1027 121.345 46.1795 121.118 46.3332C120.892 46.4853 120.721 46.682 120.61 46.9217L120.58 46.1703H120.424V49.4036H120.617V47.5195C120.617 47.352 120.649 47.1953 120.715 47.0462C120.781 46.9002 120.869 46.7696 120.981 46.6559C121.091 46.5422 121.224 46.4515 121.373 46.387C121.522 46.3209 121.678 46.2871 121.841 46.2871C122.192 46.2871 122.465 46.3977 122.66 46.6159C122.856 46.8357 122.954 47.1384 122.954 47.5257V49.4036H123.146V47.4888C123.146 47.2829 123.115 47.0939 123.055 46.9248Z" fill="#EAEBFF"/>
<path d="M123.295 49.5526H122.805V47.5256C122.805 47.1783 122.719 46.9063 122.55 46.7158C122.382 46.5283 122.152 46.4376 121.843 46.4376C121.701 46.4376 121.563 46.4668 121.434 46.5237C121.302 46.5821 121.187 46.662 121.088 46.7603C120.99 46.8602 120.91 46.977 120.852 47.1076C120.795 47.2352 120.766 47.3735 120.766 47.5195V49.5526H120.275V46.0212H120.724L120.741 46.4607C120.827 46.3669 120.925 46.2839 121.035 46.2102C121.287 46.0411 121.569 45.9551 121.878 45.9551C122.093 45.9551 122.29 45.9935 122.464 46.0688C122.639 46.1456 122.79 46.2532 122.912 46.39C123.035 46.5252 123.131 46.6896 123.197 46.8771C123.261 47.0615 123.295 47.269 123.295 47.4918V49.5541V49.5526Z" fill="#EAEBFF"/>
<path d="M126.985 46.1733L126.97 46.5759L126.954 46.9878C126.879 46.8326 126.784 46.6958 126.668 46.5759C126.587 46.4914 126.496 46.4161 126.395 46.35C126.15 46.1887 125.868 46.1088 125.55 46.1088C125.325 46.1088 125.119 46.1487 124.927 46.2302C124.737 46.3131 124.569 46.4253 124.428 46.5683C124.425 46.5713 124.423 46.5729 124.422 46.5759C124.283 46.7189 124.174 46.8833 124.096 47.0738C124.016 47.2675 123.976 47.4749 123.976 47.6993C123.976 47.9237 124.016 48.1357 124.096 48.3294C124.176 48.523 124.286 48.6905 124.428 48.8319C124.569 48.9733 124.737 49.0855 124.927 49.1669C125.119 49.2483 125.325 49.2898 125.55 49.2898C125.86 49.2898 126.137 49.213 126.381 49.0624C126.624 48.9103 126.81 48.7074 126.937 48.4523V48.9425C126.937 49.1423 126.916 49.3237 126.87 49.485C126.814 49.7032 126.716 49.8861 126.581 50.0336C126.344 50.2903 126.015 50.4194 125.597 50.4194C125.298 50.4194 125.041 50.3502 124.826 50.2134C124.611 50.0751 124.455 49.8753 124.359 49.6126H124.168C124.271 49.923 124.445 50.1658 124.687 50.3425C124.932 50.5177 125.235 50.6053 125.597 50.6053C125.837 50.6053 126.051 50.5669 126.24 50.4885C126.429 50.4101 126.59 50.2995 126.721 50.1566C126.853 50.0137 126.954 49.8369 127.023 49.631C127.039 49.5834 127.053 49.5357 127.065 49.485C127.106 49.316 127.128 49.1285 127.128 48.9241V46.1733H126.985ZM126.834 48.2602C126.767 48.4323 126.671 48.5814 126.548 48.7059C126.424 48.8319 126.28 48.9302 126.112 48.9994C125.945 49.0685 125.76 49.1039 125.562 49.1039C125.364 49.1039 125.182 49.0685 125.012 48.9963C124.84 48.9241 124.692 48.8257 124.569 48.6997C124.445 48.5752 124.348 48.4262 124.276 48.2556C124.203 48.0835 124.168 47.8975 124.168 47.6993C124.168 47.5011 124.203 47.3136 124.276 47.143C124.348 46.9709 124.445 46.8234 124.569 46.6973C124.612 46.6528 124.66 46.6113 124.709 46.5759C124.8 46.5052 124.901 46.4468 125.012 46.4007C125.182 46.3301 125.365 46.2932 125.562 46.2932C125.759 46.2932 125.945 46.3285 126.112 46.3977C126.223 46.4438 126.324 46.5022 126.415 46.5759C126.461 46.6097 126.504 46.6482 126.545 46.6912C126.667 46.8172 126.762 46.9647 126.831 47.1369C126.902 47.3074 126.937 47.4949 126.937 47.6993C126.937 47.9037 126.903 48.0896 126.834 48.2602Z" fill="#EAEBFF"/>
<path d="M126.84 46.0242L126.822 46.5221C126.722 46.4099 126.607 46.31 126.478 46.2255C126.209 46.0488 125.897 45.9581 125.55 45.9581C125.307 45.9581 125.078 46.0042 124.869 46.0934C124.66 46.1825 124.475 46.307 124.322 46.4637C124.286 46.4991 124.253 46.5375 124.22 46.5759C124.113 46.7065 124.025 46.8541 123.958 47.017C123.871 47.2275 123.827 47.4565 123.827 47.6993C123.827 47.9421 123.871 48.1757 123.958 48.3862C124.045 48.5967 124.168 48.7827 124.322 48.9379C124.477 49.0916 124.66 49.216 124.869 49.3036C125.078 49.3943 125.307 49.4389 125.55 49.4389C125.888 49.4389 126.194 49.3544 126.459 49.1884C126.582 49.1131 126.691 49.0239 126.787 48.9241V48.9425C126.787 49.1454 126.764 49.3267 126.714 49.485C126.662 49.6617 126.581 49.8123 126.47 49.9322C126.261 50.1596 125.975 50.2703 125.597 50.2703C125.328 50.2703 125.096 50.2088 124.906 50.0874C124.718 49.9675 124.585 49.7954 124.5 49.5618L124.472 49.485L124.465 49.4635H123.961L123.968 49.485L124.027 49.6602C124.139 49.9998 124.332 50.2703 124.601 50.4639C124.869 50.656 125.204 50.7543 125.597 50.7543C125.855 50.7543 126.091 50.7113 126.296 50.6268C126.505 50.5407 126.685 50.4162 126.831 50.258C126.977 50.0997 127.089 49.9045 127.165 49.6786C127.186 49.6156 127.203 49.5511 127.219 49.485C127.258 49.3113 127.277 49.1238 127.277 48.9241V46.0242H126.84ZM125.562 48.9548C125.387 48.9548 125.221 48.9225 125.069 48.858C124.916 48.795 124.784 48.7058 124.675 48.5952C124.566 48.4846 124.477 48.3509 124.414 48.1972C124.349 48.045 124.317 47.8775 124.317 47.6993C124.317 47.521 124.349 47.352 124.414 47.1998C124.477 47.0477 124.566 46.914 124.675 46.8018C124.764 46.7111 124.87 46.6343 124.99 46.5759C125.015 46.5621 125.041 46.5498 125.069 46.539C125.221 46.476 125.387 46.4437 125.562 46.4437C125.737 46.4437 125.906 46.4745 126.054 46.536C126.083 46.5482 126.111 46.5605 126.138 46.5759C126.25 46.6328 126.352 46.7065 126.438 46.7957C126.545 46.9063 126.631 47.04 126.693 47.1937C126.756 47.3458 126.787 47.5164 126.787 47.6993C126.787 47.8821 126.756 48.0527 126.696 48.2064C126.636 48.3585 126.55 48.4907 126.441 48.6013C126.332 48.712 126.203 48.7996 126.054 48.8611C125.906 48.9225 125.74 48.9548 125.562 48.9548Z" fill="#EAEBFF"/>
<path d="M128.12 49.027V49.4035H128.414V49.027H128.12Z" fill="#EAEBFF"/>
<path d="M128.563 48.8779H127.971V49.5541H128.563V48.8779Z" fill="#EAEBFF"/>
<path d="M129.227 49.027V49.4035H129.52V49.027H129.227Z" fill="#EAEBFF"/>
<path d="M129.67 48.8779H129.078V49.5541H129.67V48.8779Z" fill="#EAEBFF"/>
<path d="M130.333 49.027V49.4035H130.625V49.027H130.333Z" fill="#EAEBFF"/>
<path d="M130.776 48.8779H130.184V49.5541H130.776V48.8779Z" fill="#EAEBFF"/>
<path opacity="0.5" d="M117.173 155.894C119.151 153.917 119.151 150.711 117.173 148.733C115.196 146.756 111.99 146.756 110.012 148.733C108.035 150.711 108.035 153.917 110.012 155.894C111.99 157.872 115.196 157.872 117.173 155.894Z" fill="white"/>
<path d="M111.994 150.556L111.733 150.649L111.075 150.886L111.272 151.575L111.894 151.404V154.069H112.696V150.556H111.994Z" fill="white"/>
<path d="M115.814 153.56L115.061 152.268L116.005 150.649L116.06 150.556H115.146L115.091 150.649L114.605 151.484L114.118 150.649L114.062 150.556H113.148L113.203 150.649L114.147 152.268L113.395 153.56L113.099 154.069H114.012L114.31 153.56L114.605 153.056L114.9 153.56L115.197 154.069H116.111L115.814 153.56Z" fill="white"/>
<g opacity="0.7">
<path d="M94.0539 171.374H84.2802C83.8796 171.374 83.5548 171.699 83.5548 172.099V181.873C83.5548 182.274 83.8796 182.598 84.2802 182.598H94.0539C94.4545 182.598 94.7792 182.274 94.7792 181.873V172.099C94.7792 171.699 94.4545 171.374 94.0539 171.374Z" fill="white"/>
<path d="M93.4684 183.184H83.6946C83.2936 183.184 82.9693 182.86 82.9693 182.459V172.685C82.9693 172.567 82.9985 172.456 83.0477 172.358C82.811 172.477 82.6497 172.722 82.6497 173.005V182.778C82.6497 183.179 82.9739 183.504 83.375 183.504H93.1488C93.4315 183.504 93.6758 183.341 93.7957 183.106C93.6974 183.155 93.5867 183.184 93.4684 183.184Z" fill="white"/>
</g>
<path d="M141.351 37.4568C141.724 37.4568 142.027 37.1541 142.027 36.7807C142.027 36.4072 141.724 36.1045 141.351 36.1045C140.977 36.1045 140.674 36.4072 140.674 36.7807C140.674 37.1541 140.977 37.4568 141.351 37.4568Z" fill="white"/>
<path d="M144.524 36.7807C144.524 37.1541 144.221 37.4568 143.848 37.4568C143.474 37.4568 143.172 37.1541 143.172 36.7807C143.172 36.4072 143.474 36.1045 143.848 36.1045C144.221 36.1045 144.524 36.4072 144.524 36.7807Z" fill="white"/>
<path d="M146.345 37.4568C146.718 37.4568 147.021 37.1541 147.021 36.7807C147.021 36.4072 146.718 36.1045 146.345 36.1045C145.972 36.1045 145.669 36.4072 145.669 36.7807C145.669 37.1541 145.972 37.4568 146.345 37.4568Z" fill="white"/>
<path d="M83.4979 33.8531C83.5779 33.9331 83.5779 34.0652 83.4979 34.1451L80.8624 36.7807L83.4979 39.4162C83.5779 39.4961 83.5779 39.6283 83.4979 39.7082C83.418 39.7881 83.2859 39.7896 83.206 39.7082L80.4244 36.9267C80.3445 36.8467 80.3445 36.7146 80.4244 36.6347L83.206 33.8531C83.2859 33.7732 83.418 33.7732 83.4979 33.8531Z" fill="white"/>
<path d="M83.6378 39.2764L81.1421 36.7807L83.6378 34.285C83.7177 34.2066 83.7562 34.1037 83.7562 33.9992C83.7562 33.8947 83.7177 33.7917 83.6378 33.7133C83.4795 33.555 83.2229 33.555 83.0646 33.7133L80.2831 36.4948C80.1263 36.6516 80.1263 36.9098 80.2831 37.0665L83.0646 39.848C83.1445 39.9279 83.2475 39.9664 83.352 39.9664C83.4565 39.9664 83.5594 39.9279 83.6378 39.848C83.7961 39.6913 83.7961 39.4331 83.6378 39.2764ZM83.3566 34.0053L80.5812 36.7807L83.3566 39.556L83.3458 39.5683L80.5643 36.7745L83.3458 33.993C83.3458 33.993 83.3489 33.9915 83.352 33.9915C83.3535 33.9915 83.3551 33.9915 83.3566 33.993L83.498 33.8532L83.3566 34.0053Z" fill="white"/>
<path opacity="0.2" d="M127.697 153.262C128.22 151.441 127.169 149.541 125.349 149.017C123.528 148.494 121.628 149.545 121.104 151.365C120.58 153.186 121.631 155.086 123.452 155.61C125.272 156.134 127.173 155.082 127.697 153.262Z" fill="white"/>
<path d="M124.128 150.473L123.755 152.387H124.299L123.696 154.153L125.244 152.048H124.614L125.373 150.473H124.128Z" fill="white"/>
</g>
<defs>
<linearGradient id="paint0_linear_11_18691" x1="159.921" y1="0.651583" x2="158.939" y2="182.274" gradientUnits="userSpaceOnUse">
<stop stop-color="#EDF6FD"/>
<stop offset="0.53" stop-color="#E9F4FD"/>
<stop offset="1" stop-color="#DFF0FD"/>
</linearGradient>
<linearGradient id="paint1_linear_11_18691" x1="212.828" y1="1.63818" x2="212.828" y2="36.0276" gradientUnits="userSpaceOnUse">
<stop stop-color="#E4F2FD"/>
<stop offset="0.32" stop-color="#E0F0FD"/>
<stop offset="0.62" stop-color="#D5EBFD"/>
<stop offset="0.91" stop-color="#C2E3FD"/>
<stop offset="1" stop-color="#BBE0FD"/>
</linearGradient>
<linearGradient id="paint2_linear_11_18691" x1="162.089" y1="75.0151" x2="159.979" y2="77.2879" gradientUnits="userSpaceOnUse">
<stop stop-color="#FF9228"/>
<stop offset="1" stop-color="#BD6F00"/>
</linearGradient>
<linearGradient id="paint3_linear_11_18691" x1="150.182" y1="113.872" x2="148.072" y2="116.145" gradientUnits="userSpaceOnUse">
<stop stop-color="#FF9228"/>
<stop offset="1" stop-color="#BD6F00"/>
</linearGradient>
<linearGradient id="paint4_linear_11_18691" x1="145.298" y1="110.3" x2="143.96" y2="111.742" gradientUnits="userSpaceOnUse">
<stop stop-color="#FF9228"/>
<stop offset="1" stop-color="#BD6F00"/>
</linearGradient>
<linearGradient id="paint5_linear_11_18691" x1="48.6412" y1="91.1479" x2="51.2092" y2="91.1479" gradientUnits="userSpaceOnUse">
<stop stop-color="#FF9228"/>
<stop offset="1" stop-color="#BD6F00"/>
</linearGradient>
<linearGradient id="paint6_linear_11_18691" x1="47.9836" y1="94.3258" x2="53.4637" y2="94.3258" gradientUnits="userSpaceOnUse">
<stop stop-color="#FF9228"/>
<stop offset="1" stop-color="#BD6F00"/>
</linearGradient>
<linearGradient id="paint7_linear_11_18691" x1="42.3191" y1="195.401" x2="40.123" y2="197.765" gradientUnits="userSpaceOnUse">
<stop stop-color="#FF9228"/>
<stop offset="1" stop-color="#BD6F00"/>
</linearGradient>
<linearGradient id="paint8_linear_11_18691" x1="41.4969" y1="189.869" x2="40.501" y2="190.94" gradientUnits="userSpaceOnUse">
<stop stop-color="#FF9228"/>
<stop offset="1" stop-color="#BD6F00"/>
</linearGradient>
<linearGradient id="paint9_linear_11_18691" x1="77.5138" y1="234.322" x2="74.8276" y2="237.215" gradientUnits="userSpaceOnUse">
<stop stop-color="#FF9228"/>
<stop offset="1" stop-color="#BD6F00"/>
</linearGradient>
<linearGradient id="paint10_linear_11_18691" x1="81.9996" y1="228.583" x2="79.2842" y2="231.506" gradientUnits="userSpaceOnUse">
<stop stop-color="#FF9228"/>
<stop offset="1" stop-color="#BD6F00"/>
</linearGradient>
<linearGradient id="paint11_linear_11_18691" x1="84.6582" y1="157.497" x2="72.7745" y2="170.289" gradientUnits="userSpaceOnUse">
<stop stop-color="#FF9228"/>
<stop offset="1" stop-color="#BD6F00"/>
</linearGradient>
<linearGradient id="paint12_linear_11_18691" x1="70.726" y1="128.857" x2="66.4461" y2="133.462" gradientUnits="userSpaceOnUse">
<stop stop-color="#FF9228"/>
<stop offset="1" stop-color="#BD6F00"/>
</linearGradient>
<linearGradient id="paint13_linear_11_18691" x1="69.3352" y1="95.3217" x2="67.8384" y2="96.9322" gradientUnits="userSpaceOnUse">
<stop stop-color="#FF9228"/>
<stop offset="1" stop-color="#BD6F00"/>
</linearGradient>
<linearGradient id="paint14_linear_11_18691" x1="69.6794" y1="97.0013" x2="69.0109" y2="97.7205" gradientUnits="userSpaceOnUse">
<stop stop-color="#FF9228"/>
<stop offset="1" stop-color="#BD6F00"/>
</linearGradient>
<linearGradient id="paint15_linear_11_18691" x1="54.5067" y1="213.41" x2="47.3833" y2="228.565" gradientUnits="userSpaceOnUse">
<stop stop-color="#FF9228"/>
<stop offset="1" stop-color="#BD6F00"/>
</linearGradient>
<linearGradient id="paint16_linear_11_18691" x1="59.1213" y1="221.237" x2="51.9999" y2="236.388" gradientUnits="userSpaceOnUse">
<stop stop-color="#FF9228"/>
<stop offset="1" stop-color="#BD6F00"/>
</linearGradient>
<linearGradient id="paint17_linear_11_18691" x1="155.965" y1="79.9464" x2="158.986" y2="79.9464" gradientUnits="userSpaceOnUse">
<stop/>
<stop offset="1" stop-color="#333333"/>
</linearGradient>
<linearGradient id="paint18_linear_11_18691" x1="67.8922" y1="68.6514" x2="71.5266" y2="68.6514" gradientUnits="userSpaceOnUse">
<stop stop-color="#333333"/>
<stop offset="1"/>
</linearGradient>
<linearGradient id="paint19_linear_11_18691" x1="6.05718e-05" y1="91.2401" x2="0.153736" y2="91.2401" gradientUnits="userSpaceOnUse">
<stop stop-color="#333333"/>
<stop offset="1"/>
</linearGradient>
<linearGradient id="paint20_linear_11_18691" x1="113.592" y1="21.5669" x2="113.592" y2="197.333" gradientUnits="userSpaceOnUse">
<stop stop-color="#333333"/>
<stop offset="1"/>
</linearGradient>
<linearGradient id="paint21_linear_11_18691" x1="113.592" y1="22.1354" x2="113.592" y2="196.202" gradientUnits="userSpaceOnUse">
<stop stop-color="white"/>
<stop offset="1" stop-color="#F3F3F3"/>
</linearGradient>
<linearGradient id="paint22_linear_11_18691" x1="113.592" y1="27.6309" x2="113.592" y2="160.211" gradientUnits="userSpaceOnUse">
<stop stop-color="#00AEFD"/>
<stop offset="1" stop-color="#0069FD"/>
</linearGradient>
<linearGradient id="paint23_linear_11_18691" x1="3.76408e-05" y1="161.61" x2="0.153713" y2="191.986" gradientUnits="userSpaceOnUse">
<stop stop-color="#00AEFD"/>
<stop offset="1" stop-color="#0069FD"/>
</linearGradient>
<linearGradient id="paint24_linear_11_18691" x1="113.764" y1="65.6054" x2="113.417" y2="129.951" gradientUnits="userSpaceOnUse">
<stop stop-color="#EDF6FD"/>
<stop offset="0.53" stop-color="#E9F4FD"/>
<stop offset="1" stop-color="#DFF0FD"/>
</linearGradient>
<linearGradient id="paint25_linear_11_18691" x1="132.508" y1="65.9543" x2="132.508" y2="78.1377" gradientUnits="userSpaceOnUse">
<stop stop-color="#E4F2FD"/>
<stop offset="0.32" stop-color="#E0F0FD"/>
<stop offset="0.62" stop-color="#D5EBFD"/>
<stop offset="0.91" stop-color="#C2E3FD"/>
<stop offset="1" stop-color="#BBE0FD"/>
</linearGradient>
<clipPath id="clip0_11_18691">
<rect width="232.752" height="260" fill="white"/>
</clipPath>
</defs>
</svg>
