<svg width="260" height="260" viewBox="0 0 260 260" fill="none" xmlns="http://www.w3.org/2000/svg">
<path d="M143.764 119.79H66.4643C65.4461 119.79 64.6204 118.965 64.6204 117.946V35.8831C64.6204 34.8649 65.4461 34.0392 66.4643 34.0392H143.764C144.783 34.0392 145.608 34.8649 145.608 35.8831V117.946C145.607 118.965 144.783 119.79 143.764 119.79Z" fill="#141323"/>
<path d="M138.953 120.118H71.2743C67.4242 120.118 64.2917 116.985 64.2917 113.136V40.6931C64.2917 36.843 67.4242 33.7115 71.2743 33.7115H138.954C142.804 33.7115 145.937 36.844 145.937 40.6931V113.136C145.936 116.986 142.804 120.118 138.953 120.118ZM71.2743 34.3678C67.7861 34.3678 64.949 37.2049 64.949 40.6931V113.136C64.949 116.625 67.7861 119.462 71.2743 119.462H138.954C142.443 119.462 145.28 116.625 145.28 113.136V40.6931C145.28 37.2049 142.443 34.3678 138.954 34.3678H71.2743Z" fill="#060F11"/>
<path d="M146.721 119.79H69.4211C68.4029 119.79 67.5771 118.965 67.5771 117.946V35.8831C67.5771 34.8649 68.4029 34.0392 69.4211 34.0392H146.721C147.739 34.0392 148.565 34.8649 148.565 35.8831V117.946C148.565 118.965 147.739 119.79 146.721 119.79Z" fill="white"/>
<path d="M141.911 120.118H74.231C70.381 120.118 67.2495 116.985 67.2495 113.136V40.6931C67.2495 36.843 70.382 33.7115 74.231 33.7115H141.911C145.761 33.7115 148.893 36.844 148.893 40.6931V113.136C148.894 116.986 145.761 120.118 141.911 120.118ZM74.231 34.3678C70.7429 34.3678 67.9058 37.2049 67.9058 40.6931V113.136C67.9058 116.625 70.7429 119.462 74.231 119.462H141.911C145.399 119.462 148.236 116.625 148.236 113.136V40.6931C148.236 37.2049 145.399 34.3678 141.911 34.3678H74.231Z" fill="#060F11"/>
<path d="M128.412 83.9165H84.915C84.1569 83.9165 83.5422 83.3019 83.5422 82.5437V75.3833C83.5422 74.6251 84.1569 74.0105 84.915 74.0105H128.412C129.17 74.0105 129.785 74.6251 129.785 75.3833V82.5437C129.784 83.3019 129.169 83.9165 128.412 83.9165Z" fill="white"/>
<path d="M124.831 84.2452H88.4957C85.5837 84.2452 83.2146 81.8761 83.2146 78.9641C83.2146 76.0521 85.5837 73.683 88.4957 73.683H124.831C127.743 73.683 130.112 76.0521 130.112 78.9641C130.112 81.8761 127.743 84.2452 124.831 84.2452ZM88.4957 74.3392C85.9456 74.3392 83.8708 76.414 83.8708 78.9631C83.8708 81.5131 85.9456 83.5879 88.4957 83.5879H124.831C127.381 83.5879 129.456 81.5131 129.456 78.9631C129.456 76.413 127.381 74.3392 124.831 74.3392H88.4957Z" fill="#060F11"/>
<path d="M128.412 98.5078H84.915C84.1569 98.5078 83.5422 97.8932 83.5422 97.135V89.9746C83.5422 89.2164 84.1569 88.6018 84.915 88.6018H128.412C129.17 88.6018 129.785 89.2164 129.785 89.9746V97.136C129.784 97.8942 129.169 98.5078 128.412 98.5078Z" fill="white"/>
<path d="M124.831 98.8364H88.4957C85.5837 98.8364 83.2146 96.4673 83.2146 93.5553C83.2146 90.6433 85.5837 88.2742 88.4957 88.2742H124.831C127.743 88.2742 130.112 90.6433 130.112 93.5553C130.112 96.4673 127.743 98.8364 124.831 98.8364ZM88.4957 88.9315C85.9456 88.9315 83.8708 91.0063 83.8708 93.5553C83.8708 96.1054 85.9456 98.1802 88.4957 98.1802H124.831C127.381 98.1802 129.456 96.1054 129.456 93.5553C129.456 91.0052 127.381 88.9315 124.831 88.9315H88.4957Z" fill="#060F11"/>
<path d="M118.227 95.1048C119.083 95.1048 119.777 94.411 119.777 93.5552C119.777 92.6994 119.083 92.0056 118.227 92.0056C117.371 92.0056 116.677 92.6994 116.677 93.5552C116.677 94.411 117.371 95.1048 118.227 95.1048Z" fill="#B7BEF8"/>
<path d="M118.447 113.1H94.8801C94.122 113.1 93.5073 112.485 93.5073 111.727V104.567C93.5073 103.809 94.122 103.194 94.8801 103.194H118.447C119.205 103.194 119.819 103.809 119.819 104.567V111.727C119.818 112.485 119.205 113.1 118.447 113.1Z" fill="#1E3AE5"/>
<path d="M114.866 113.429H98.461C95.549 113.429 93.1799 111.06 93.1799 108.148C93.1799 105.236 95.549 102.866 98.461 102.866H114.866C117.778 102.866 120.147 105.236 120.147 108.148C120.147 111.06 117.778 113.429 114.866 113.429ZM98.461 103.523C95.911 103.523 93.8362 105.597 93.8362 108.148C93.8362 110.698 95.911 112.771 98.461 112.771H114.866C117.416 112.771 119.491 110.697 119.491 108.148C119.491 105.597 117.416 103.523 114.866 103.523H98.461Z" fill="#060F11"/>
<path d="M84.7299 121.331L80.3369 121.079C80.3525 120.881 81.77 101.245 72.618 92.9926C69.9587 90.5954 66.7399 89.4639 62.7391 89.4847C58.5125 89.5242 55.0909 90.7837 52.2777 93.3358C43.3514 101.433 44.2967 119.255 44.3071 119.434L39.91 119.623C39.8632 118.826 38.8731 100.013 49.0693 90.7629C52.6958 87.4734 57.278 85.7802 62.6902 85.7293C67.9131 85.6721 72.3195 87.2581 75.8202 90.4166C86.2919 99.866 84.7975 120.458 84.7299 121.331Z" fill="#141323"/>
<path d="M76.9123 114.468C74.9248 114.468 73.3253 116.055 73.2525 118.041C73.1142 121.797 71.6291 127.183 64.2679 127.291C56.1851 127.409 53.3625 120.105 52.4088 115.913C52.0271 114.237 50.5368 113.052 48.8177 113.052H36.8421C34.9327 113.052 33.3363 114.508 33.1709 116.409C32.2183 127.403 31.4539 161.735 58.7726 163.76C89.0355 166.005 91.491 139.545 91.829 131.703C92.0973 125.484 90.8805 120.128 89.9809 117.103C89.515 115.539 88.0798 114.468 86.448 114.468H76.9123Z" fill="#141323"/>
<path d="M79.0681 116.126C77.0806 116.126 75.4811 117.713 75.4083 119.7C75.27 123.456 73.7849 128.841 66.4238 128.95C58.3409 129.068 55.5183 121.764 54.5646 117.572C54.183 115.895 52.6926 114.711 50.9735 114.711H38.9969C37.0874 114.711 35.491 116.167 35.3257 118.068C34.373 129.062 33.6086 163.393 60.9274 165.419C91.1903 167.664 93.6458 141.204 93.9838 133.362C94.2521 127.143 93.0353 121.787 92.1357 118.762C91.6698 117.198 90.2346 116.126 88.6028 116.126H79.0681Z" fill="#304FFE"/>
<path d="M69.7539 140.758C69.7539 142.817 68.5703 144.597 66.8429 145.453V152.516C66.8429 153.506 66.0411 154.308 65.051 154.308H63.9631C62.9731 154.308 62.1712 153.506 62.1712 152.516V145.453C60.4448 144.592 59.2603 142.812 59.2603 140.758C59.2603 137.857 61.6127 135.509 64.5091 135.509C67.4055 135.509 69.7539 137.856 69.7539 140.758Z" fill="#141323"/>
<path opacity="0.3" d="M87.1166 126.734C86.6205 126.043 86.3355 124.08 87.1166 123.331C87.8976 122.581 89.8331 122.55 90.6453 126.953C91.4575 131.355 91.3702 140.342 89.5211 140.538C88.0848 140.692 90.0525 130.826 87.1166 126.734Z" fill="white"/>
<path d="M120.265 54.3285C120.265 57.9862 118.817 61.3153 116.457 63.7603C113.987 66.3301 110.514 67.9276 106.666 67.9276C102.763 67.9276 99.2451 66.2854 96.7689 63.6511C94.4632 61.2154 93.0613 57.9321 93.0613 54.3285C93.0613 46.8177 99.1546 40.7295 106.666 40.7295C114.176 40.7285 120.265 46.8177 120.265 54.3285Z" fill="#304FFE"/>
<path d="M106.666 68.2551C102.839 68.2551 99.1453 66.6587 96.5297 63.8747C94.0815 61.2892 92.7327 57.8978 92.7327 54.3275C92.7327 46.6481 98.9831 40.3998 106.665 40.3998C114.345 40.3998 120.592 46.6481 120.592 54.3275C120.592 57.9519 119.207 61.3828 116.692 63.988C114.049 66.7399 110.488 68.2551 106.666 68.2551ZM106.666 41.0571C99.346 41.0571 93.3899 47.01 93.3899 54.3275C93.3899 57.7293 94.6744 60.9595 97.0081 63.4233C99.5374 66.1159 102.966 67.5979 106.666 67.5979C110.307 67.5979 113.7 66.1543 116.22 63.5315C118.616 61.049 119.936 57.7803 119.936 54.3275C119.937 47.0111 113.983 41.0571 106.666 41.0571Z" fill="#060F11"/>
<path d="M106.579 55.1887C108.878 55.1887 110.741 53.3252 110.741 51.0266C110.741 48.7279 108.878 46.8645 106.579 46.8645C104.281 46.8645 102.417 48.7279 102.417 51.0266C102.417 53.3252 104.281 55.1887 106.579 55.1887Z" fill="white"/>
<path d="M106.579 55.5173C104.103 55.5173 102.088 53.5029 102.088 51.0266C102.088 48.5504 104.103 46.5359 106.579 46.5359C109.055 46.5359 111.07 48.5504 111.07 51.0266C111.07 53.5029 109.055 55.5173 106.579 55.5173ZM106.579 47.1921C104.465 47.1921 102.745 48.9123 102.745 51.0256C102.745 53.1388 104.465 54.859 106.579 54.859C108.693 54.859 110.413 53.1388 110.413 51.0256C110.413 48.9123 108.693 47.1921 106.579 47.1921Z" fill="#060F11"/>
<path d="M116.457 63.7603C113.987 66.3301 110.513 67.9276 106.665 67.9276C102.763 67.9276 99.245 66.2854 96.7688 63.6511C98.6897 60.2181 102.363 57.902 106.58 57.902C110.838 57.9009 114.546 60.2669 116.457 63.7603Z" fill="white"/>
<path d="M106.666 68.2552C102.839 68.2552 99.1453 66.6588 96.5297 63.8747C96.4319 63.7707 96.4122 63.6147 96.4829 63.4899C98.5255 59.8406 102.395 57.5734 106.581 57.5734C110.816 57.5734 114.711 59.8832 116.745 63.6033C116.814 63.7291 116.793 63.8851 116.694 63.9881C114.049 66.7399 110.488 68.2552 106.666 68.2552ZM97.1766 63.6012C99.6872 66.1814 103.047 67.599 106.666 67.599C110.225 67.599 113.548 66.2189 116.051 63.7062C114.101 60.3221 110.495 58.2296 106.581 58.2296C102.714 58.2296 99.1318 60.2815 97.1766 63.6012Z" fill="#060F11"/>
<path d="M94.0307 77.7775H88.345V80.1497H94.0307V77.7775Z" fill="#B7BEF8"/>
<path d="M121.119 77.7775H97.2253V80.1497H121.119V77.7775Z" fill="#B7BEF8"/>
<path d="M95.0996 95.1048C95.9555 95.1048 96.6492 94.411 96.6492 93.5552C96.6492 92.6994 95.9555 92.0056 95.0996 92.0056C94.2438 92.0056 93.55 92.6994 93.55 93.5552C93.55 94.411 94.2438 95.1048 95.0996 95.1048Z" fill="#B7BEF8"/>
<path d="M100.881 95.1048C101.737 95.1048 102.431 94.411 102.431 93.5552C102.431 92.6994 101.737 92.0056 100.881 92.0056C100.025 92.0056 99.3315 92.6994 99.3315 93.5552C99.3315 94.411 100.025 95.1048 100.881 95.1048Z" fill="#B7BEF8"/>
<path d="M106.663 95.1048C107.519 95.1048 108.213 94.411 108.213 93.5552C108.213 92.6994 107.519 92.0056 106.663 92.0056C105.808 92.0056 105.114 92.6994 105.114 93.5552C105.114 94.411 105.808 95.1048 106.663 95.1048Z" fill="#B7BEF8"/>
<path d="M112.445 95.1048C113.301 95.1048 113.994 94.411 113.994 93.5552C113.994 92.6994 113.301 92.0056 112.445 92.0056C111.589 92.0056 110.895 92.6994 110.895 93.5552C110.895 94.411 111.589 95.1048 112.445 95.1048Z" fill="#B7BEF8"/>
<path d="M172.634 212.67L173.619 203.288L161.057 202.507L160.189 213.082" fill="#EF9A9A"/>
<path d="M161.298 207.126L172.874 210.381L173.132 207.642L161.298 207.126Z" fill="#19214C"/>
<path d="M150.991 223.949C150.989 223.969 150.989 223.991 150.99 224.011L151.029 226.289L173.241 225.91L173.203 223.687L173.192 222.976C172.932 218.532 173.312 212.106 173.312 212.106L160.281 212.401L160.077 213.942C159.911 215.19 159.352 216.313 158.524 217.176C157.693 218.042 156.595 218.65 155.355 218.866C152.834 219.237 150.977 221.41 150.991 223.949Z" fill="#FDD835"/>
<path d="M150.991 223.949C150.989 223.969 150.989 223.991 150.99 224.011L151.029 226.289L173.241 225.91L173.206 223.687H173.203L150.991 223.949Z" fill="#19214C"/>
<path d="M162.015 219.439C161.937 219.439 161.859 219.415 161.792 219.365L158.677 217.054C158.542 216.953 158.49 216.774 158.55 216.617C158.611 216.459 158.772 216.363 158.938 216.379L161.976 216.688L160.116 215.188C159.987 215.084 159.942 214.909 160.004 214.755C160.066 214.602 160.217 214.508 160.387 214.523L164.565 214.915C164.771 214.935 164.923 215.118 164.904 215.324C164.885 215.53 164.707 215.681 164.496 215.662L161.559 215.386L163.432 216.896C163.561 217 163.607 217.177 163.543 217.331C163.48 217.485 163.327 217.581 163.158 217.562L160.22 217.263L162.239 218.762C162.405 218.886 162.44 219.121 162.317 219.287C162.243 219.387 162.13 219.439 162.015 219.439ZM159.366 221.315C159.215 221.315 159.072 221.223 159.015 221.073C158.158 218.811 156.466 219.188 156.395 219.206C156.192 219.254 155.992 219.132 155.942 218.931C155.892 218.732 156.011 218.529 156.212 218.478C156.235 218.472 158.616 217.901 159.717 220.807C159.79 221 159.693 221.217 159.499 221.29C159.455 221.308 159.41 221.315 159.366 221.315Z" fill="#060606"/>
<path d="M216.782 208.393L215.752 199.015L203.311 200.92L205.289 211.858" fill="#EF9A9A"/>
<path d="M204.529 205.382L216.531 206.105L216.202 203.374L204.529 205.382Z" fill="#19214C"/>
<path d="M198.028 224.011C198.03 224.031 198.036 224.052 198.041 224.071L198.563 226.289L220.188 221.203L219.678 219.039L219.516 218.346C218.318 214.058 217.325 207.698 217.325 207.698L204.653 210.754L204.781 212.301C204.884 213.556 204.576 214.772 203.951 215.792C203.323 216.815 202.38 217.642 201.213 218.116C198.828 219.015 197.474 221.532 198.028 224.011Z" fill="#FDD835"/>
<path d="M198.029 224.011C198.031 224.031 198.036 224.052 198.041 224.071L198.563 226.289L220.188 221.203L219.681 219.039H219.678L198.029 224.011Z" fill="#19214C"/>
<path d="M207.764 217.272C207.712 217.272 207.66 217.261 207.61 217.238L204.076 215.641C203.922 215.571 203.834 215.408 203.86 215.241C203.886 215.073 204.021 214.945 204.188 214.925L207.223 214.582L205.088 213.512C204.94 213.438 204.858 213.275 204.886 213.112C204.914 212.948 205.046 212.824 205.211 212.804L209.378 212.3C209.588 212.277 209.771 212.422 209.796 212.628C209.821 212.834 209.674 213.021 209.468 213.046L206.54 213.4L208.691 214.478C208.839 214.553 208.921 214.716 208.892 214.88C208.863 215.043 208.73 215.168 208.565 215.186L205.63 215.518L207.921 216.554C208.11 216.639 208.193 216.862 208.108 217.05C208.043 217.189 207.906 217.272 207.764 217.272ZM205.574 219.668C205.451 219.668 205.33 219.607 205.259 219.497C203.94 217.468 202.368 218.197 202.302 218.229C202.118 218.319 201.892 218.243 201.801 218.058C201.71 217.873 201.784 217.649 201.968 217.557C201.99 217.545 204.195 216.482 205.888 219.089C206.001 219.262 205.951 219.495 205.778 219.607C205.715 219.648 205.643 219.668 205.574 219.668Z" fill="#060606"/>
<path d="M170.153 92.2678L156.24 109.782C154.053 112.659 154.524 116.748 157.308 119.052C160.338 121.558 164.862 120.949 167.12 117.729L180.656 98.4267L170.153 92.2678Z" fill="#EF9A9A"/>
<path d="M158.08 207.612H179.492L184.304 160.921L189.701 140.057L195.691 116.899H175.621L166.157 153.708C165.746 155.311 165.401 156.928 165.129 158.558L158.08 207.612Z" fill="#0081FF"/>
<path d="M183.952 137.555L184.304 160.921L189.701 140.057L188.241 138.868L183.952 137.555Z" fill="#19214C"/>
<path d="M188.552 116.899L185.721 154.795C185.316 160.223 186.108 165.675 188.043 170.764L199.747 206.105L219.23 203.041L205.953 161.324L208.68 116.899H188.552Z" fill="#0081FF"/>
<path d="M176.468 199.898H163.569C163.388 199.898 163.24 199.752 163.24 199.57C163.24 199.388 163.387 199.241 163.569 199.241H176.468C176.649 199.241 176.797 199.388 176.797 199.57C176.797 199.752 176.649 199.898 176.468 199.898ZM202.424 199.898C202.263 199.898 202.124 199.782 202.099 199.619C202.072 199.439 202.196 199.272 202.375 199.244L212.39 197.732C212.573 197.704 212.736 197.829 212.763 198.008C212.79 198.188 212.666 198.354 212.488 198.381L202.472 199.893C202.456 199.897 202.44 199.898 202.424 199.898ZM188.043 171.092C187.911 171.092 187.787 171.011 187.737 170.88C185.797 165.781 184.987 160.211 185.394 154.77L187.386 128.097C187.4 127.916 187.55 127.779 187.739 127.794C187.92 127.808 188.055 127.966 188.041 128.147L186.049 154.82C185.649 160.164 186.445 165.638 188.35 170.647C188.415 170.817 188.329 171.006 188.16 171.071C188.121 171.086 188.082 171.092 188.043 171.092Z" fill="white"/>
<path d="M171.398 196.429C171.39 196.429 171.383 196.429 171.374 196.428C171.193 196.415 171.057 196.257 171.07 196.077L173.828 157.645L176.135 143.367C176.524 140.963 178.007 138.98 180.204 137.928C182.401 136.875 184.876 136.963 186.992 138.167C187.15 138.257 187.204 138.457 187.115 138.615C187.025 138.772 186.825 138.829 186.667 138.738C184.738 137.642 182.486 137.563 180.487 138.521C178.487 139.479 177.137 141.283 176.782 143.472L174.478 157.721L171.724 196.124C171.712 196.297 171.569 196.429 171.398 196.429ZM203.234 138.498C203.154 138.498 203.073 138.469 203.009 138.409C201.471 136.972 200.44 134.948 200.182 132.858C199.924 130.768 200.431 128.554 201.574 126.785C201.673 126.634 201.875 126.589 202.028 126.688C202.181 126.785 202.225 126.989 202.126 127.141C201.066 128.783 200.595 130.837 200.834 132.777C201.075 134.716 202.03 136.595 203.458 137.929C203.59 138.053 203.598 138.261 203.474 138.393C203.408 138.462 203.321 138.498 203.234 138.498ZM206.826 193.879C206.694 193.879 206.57 193.799 206.519 193.669L195.279 164.502C194.721 163.055 194.423 161.535 194.393 159.983L195.363 139.647C195.371 139.466 195.529 139.331 195.707 139.335C195.888 139.343 196.029 139.497 196.019 139.678L195.05 159.993C195.078 161.445 195.362 162.89 195.892 164.266L207.133 193.433C207.198 193.602 207.114 193.792 206.944 193.857C206.905 193.872 206.864 193.879 206.826 193.879Z" fill="white"/>
<path d="M174.252 121.892L208.18 126.964L208.495 123.743L174.252 121.892Z" fill="#19214C"/>
<path d="M175.233 135.094C175.099 135.094 174.973 135.012 174.924 134.879C174.861 134.708 174.95 134.52 175.119 134.457C176.451 133.971 177.539 132.887 178.031 131.558C178.524 130.229 178.405 128.697 177.712 127.46C177.624 127.302 177.68 127.102 177.838 127.013C177.997 126.924 178.196 126.981 178.285 127.139C179.07 128.541 179.206 130.278 178.647 131.786C178.089 133.293 176.854 134.522 175.345 135.074C175.308 135.087 175.27 135.094 175.233 135.094Z" fill="white"/>
<path d="M187.345 82.9952L180.808 82.6C177.403 82.3941 173.543 83.6733 171.749 86.5749L167.91 92.4665L181.079 100.123L187.345 82.9952Z" fill="#FDD835"/>
<path d="M183.779 82.967L203.166 83.1189C207.132 83.1501 210.339 86.3564 210.371 90.3219L209.29 124.822L173.371 121.818L176.48 89.6781C176.771 85.8707 179.961 82.9369 183.779 82.967Z" fill="#FDD835"/>
<path d="M175.412 115.454L195.854 111.825L169.884 101.652L175.412 115.454Z" fill="white"/>
<path d="M175.412 115.781C175.28 115.781 175.157 115.701 175.107 115.575L169.579 101.774C169.53 101.653 169.559 101.514 169.651 101.421C169.743 101.327 169.882 101.298 170.004 101.346L195.975 111.518C196.111 111.572 196.196 111.711 196.182 111.856C196.167 112.003 196.057 112.121 195.912 112.147L175.469 115.776C175.45 115.78 175.43 115.781 175.412 115.781ZM170.472 102.235L175.618 115.083L194.65 111.705L170.472 102.235Z" fill="#060F11"/>
<path d="M172.2 107.435L173.68 107.547L181.665 111.588L174.509 113.2L172.2 107.435Z" fill="#B7BEF8"/>
<path d="M171.325 105.297L178.679 108.674L182.77 108.045L173.092 104.211L171.013 104.472L171.325 105.297Z" fill="#B7BEF8"/>
<path d="M175.412 115.454L145.352 102.262C145.081 102.15 144.875 101.928 144.777 101.651L138.013 82.0352C137.724 81.2022 138.554 80.4138 139.373 80.7435L165.566 91.728C165.829 91.833 166.035 92.039 166.137 92.299L175.412 115.454Z" fill="#E7EBFB"/>
<path d="M175.412 115.782C175.367 115.782 175.322 115.773 175.28 115.754L145.219 102.563C144.872 102.418 144.595 102.124 144.468 101.76L137.703 82.1423C137.527 81.6348 137.66 81.0877 138.051 80.7164C138.442 80.3441 138.995 80.238 139.495 80.4398L165.694 91.4253C166.034 91.5616 166.309 91.8372 166.443 92.1793L175.716 115.332C175.766 115.456 175.736 115.597 175.639 115.69C175.578 115.75 175.495 115.782 175.412 115.782ZM138.982 80.9941C138.808 80.9941 138.639 81.0617 138.503 81.1907C138.298 81.3852 138.232 81.6608 138.323 81.926L145.087 101.542C145.155 101.733 145.293 101.881 145.477 101.958L174.807 114.829L165.831 92.4196C165.763 92.2438 165.621 92.1024 165.443 92.0316L139.244 81.0451C139.158 81.0118 139.07 80.9941 138.982 80.9941Z" fill="#060F11"/>
<path d="M165.153 107.476C164.336 107.274 163.466 107.828 163.05 108.146L162.809 108.06C162.79 107.746 162.681 107.239 162.186 106.844C161.413 106.227 160.314 107.195 160.314 107.195C160.314 107.195 160.349 105.407 158.878 105.529C158.019 105.597 156.663 107.944 157.513 110.019C158.363 112.094 160.008 110.985 160.008 110.985C160.008 110.985 160.138 112.034 160.727 112.55C161.315 113.066 162.449 112.675 162.449 112.675C162.449 112.675 162.505 114.054 163.416 114.434C164.33 114.817 164.952 114 164.952 114C164.952 114 164.867 115.984 166.726 116.311C169.458 116.789 170.241 112.895 169.744 110.472C169.566 109.616 169.23 108.941 168.759 108.708C167.914 108.293 166.76 108.984 166.324 109.285L166.148 109.222C166.146 108.777 166.042 107.696 165.153 107.476Z" fill="#EF9A9A"/>
<path d="M167.168 116.679C167.006 116.679 166.84 116.664 166.67 116.634C165.378 116.406 164.847 115.442 164.683 114.649C164.323 114.851 163.834 114.965 163.289 114.736C162.532 114.42 162.265 113.587 162.17 113.085C161.724 113.174 161.001 113.227 160.509 112.796C160.092 112.431 159.877 111.859 159.772 111.464C159.46 111.583 159.008 111.68 158.534 111.537C157.963 111.363 157.517 110.894 157.209 110.142C156.61 108.679 157.011 107.159 157.585 106.226C157.964 105.608 158.426 105.233 158.852 105.2C159.032 105.183 159.191 105.321 159.205 105.502C159.22 105.683 159.085 105.841 158.904 105.855C158.741 105.869 158.436 106.098 158.144 106.571C157.677 107.331 157.311 108.658 157.817 109.895C158.046 110.453 158.349 110.793 158.721 110.908C159.266 111.076 159.82 110.715 159.825 110.711C159.92 110.649 160.04 110.639 160.144 110.686C160.247 110.733 160.319 110.831 160.334 110.943C160.335 110.952 160.457 111.877 160.942 112.302C161.305 112.619 162.076 112.454 162.342 112.363C162.441 112.329 162.549 112.345 162.633 112.402C162.718 112.46 162.771 112.556 162.777 112.659C162.778 112.67 162.838 113.835 163.543 114.13C164.216 114.41 164.687 113.805 164.692 113.799C164.78 113.685 164.929 113.641 165.065 113.69C165.2 113.739 165.287 113.87 165.281 114.013C165.279 114.082 165.237 115.715 166.784 115.987C167.45 116.103 168.017 115.926 168.47 115.461C169.485 114.417 169.751 112.137 169.422 110.537C169.258 109.745 168.955 109.171 168.614 109.002C168.452 108.922 168.384 108.726 168.464 108.562C168.544 108.4 168.741 108.333 168.904 108.414C169.593 108.753 169.915 109.684 170.065 110.405C170.423 112.148 170.15 114.673 168.941 115.919C168.453 116.421 167.847 116.679 167.168 116.679Z" fill="#060606"/>
<path d="M163.05 108.475C163.013 108.475 162.975 108.469 162.94 108.456L162.698 108.37C162.574 108.325 162.488 108.212 162.48 108.08C162.464 107.802 162.364 107.407 161.98 107.101C161.839 106.988 161.815 106.782 161.928 106.639C162.04 106.498 162.247 106.474 162.39 106.587C162.822 106.932 163.014 107.351 163.092 107.712C163.615 107.359 164.429 106.958 165.232 107.156C165.408 107.2 165.515 107.378 165.472 107.554C165.429 107.729 165.251 107.836 165.075 107.794C164.376 107.62 163.566 108.165 163.251 108.406C163.192 108.452 163.121 108.475 163.05 108.475ZM160.011 111.339C159.83 111.339 159.684 111.194 159.683 111.013C159.683 110.96 159.678 109.692 159.945 108.798C159.997 108.625 160.177 108.525 160.353 108.578C160.527 108.63 160.626 108.813 160.575 108.987C160.337 109.785 160.34 110.998 160.34 111.009C160.341 111.19 160.194 111.339 160.013 111.339C160.012 111.339 160.011 111.339 160.011 111.339ZM162.447 113.002C162.434 113.002 162.421 113.001 162.407 113C162.227 112.979 162.099 112.815 162.12 112.635C162.131 112.551 162.369 110.559 162.672 109.636C162.728 109.463 162.913 109.369 163.087 109.426C163.259 109.482 163.353 109.667 163.297 109.839C163.015 110.702 162.776 112.692 162.773 112.712C162.753 112.879 162.611 113.002 162.447 113.002ZM164.951 114.326C164.937 114.326 164.922 114.325 164.908 114.323C164.728 114.299 164.601 114.134 164.625 113.955C164.653 113.738 164.917 111.817 165.367 111.045C165.459 110.888 165.659 110.835 165.817 110.926C165.974 111.018 166.027 111.219 165.935 111.376C165.611 111.933 165.35 113.488 165.277 114.04C165.255 114.205 165.113 114.326 164.951 114.326Z" fill="#060606"/>
<path d="M227.163 111.823C227.163 113.176 226.772 114.532 225.977 115.71C224.222 118.319 220.943 119.431 217.964 118.427L193.424 109.357L190.117 108.245L185.216 108.402L186.702 108.959C187.313 108.997 187.765 109.557 187.66 110.158C187.657 110.165 187.657 110.165 187.657 110.171C187.551 110.728 187.017 111.095 186.461 110.996C185.991 110.919 185.318 110.801 184.37 110.622C181.8 110.15 182.049 108.979 182.049 108.979C180.688 109.15 180.794 107.674 180.794 107.674C179.521 107.304 179.346 105.808 180.367 104.965L182.737 103.029L175.997 105.172C175.802 105.231 175.591 105.246 175.396 105.207C174.962 105.134 174.582 104.851 174.417 104.414C174.155 103.743 174.502 102.987 175.175 102.74L188.304 98.2644C189.85 97.7403 191.511 97.6706 193.095 98.0616L196.913 99.0122L210.111 104.211L204.856 96.25L218.222 94.2854L225.613 107.435C226.642 108.708 227.163 110.264 227.163 111.823Z" fill="#EF9A9A"/>
<path d="M186.637 111.342C186.56 111.342 186.482 111.336 186.403 111.322C185.934 111.243 185.258 111.124 184.306 110.944C183.117 110.727 182.32 110.33 181.94 109.763C181.832 109.603 181.773 109.45 181.743 109.32C181.413 109.303 181.138 109.191 180.921 108.986C180.577 108.66 180.488 108.195 180.467 107.907C179.916 107.673 179.529 107.217 179.412 106.651C179.268 105.952 179.554 105.21 180.157 104.711L181.195 103.864L176.096 105.486C175.849 105.562 175.587 105.578 175.335 105.532C174.767 105.433 174.307 105.058 174.107 104.528C173.95 104.126 173.962 103.683 174.142 103.285C174.323 102.884 174.649 102.58 175.062 102.431L179.745 100.766C179.915 100.704 180.104 100.794 180.164 100.965C180.226 101.136 180.136 101.324 179.965 101.384L175.285 103.048C175.042 103.137 174.848 103.318 174.741 103.555C174.634 103.791 174.627 104.053 174.721 104.293C174.838 104.606 175.111 104.826 175.45 104.885C175.602 104.913 175.757 104.904 175.899 104.859L182.636 102.716C182.787 102.668 182.95 102.734 183.025 102.872C183.1 103.01 183.066 103.183 182.944 103.282L180.574 105.218C180.16 105.559 179.962 106.057 180.056 106.517C180.14 106.924 180.442 107.23 180.885 107.358C181.034 107.401 181.132 107.542 181.121 107.696C181.112 107.846 181.139 108.287 181.376 108.508C181.517 108.642 181.724 108.688 182.007 108.652C182.115 108.64 182.218 108.677 182.29 108.755C182.362 108.833 182.392 108.941 182.37 109.045C182.331 109.333 182.706 109.981 184.427 110.296C185.377 110.475 186.049 110.594 186.517 110.672C186.899 110.738 187.263 110.486 187.333 110.111C187.334 110.104 187.336 110.098 187.337 110.09C187.367 109.898 187.317 109.709 187.196 109.554C187.071 109.396 186.883 109.297 186.682 109.283C186.65 109.281 186.619 109.275 186.588 109.264L185.1 108.708C184.93 108.645 184.843 108.455 184.908 108.286C184.971 108.116 185.16 108.03 185.33 108.094L186.776 108.633C187.144 108.671 187.483 108.857 187.713 109.148C187.95 109.45 188.05 109.838 187.984 110.214C187.982 110.224 187.98 110.234 187.978 110.244C187.85 110.889 187.277 111.342 186.637 111.342Z" fill="#060F11"/>
<path d="M180.791 108.005C180.751 108.005 180.71 107.998 180.671 107.982C180.502 107.916 180.419 107.725 180.486 107.556C180.716 106.97 181.1 106.456 181.595 106.069L184.814 103.55C184.957 103.437 185.164 103.463 185.275 103.606C185.386 103.748 185.361 103.955 185.219 104.067L182 106.585C181.596 106.902 181.284 107.32 181.096 107.796C181.045 107.927 180.922 108.005 180.791 108.005ZM182.048 109.308C182.013 109.308 181.979 109.303 181.945 109.292C181.772 109.234 181.68 109.049 181.737 108.877L181.759 108.811C181.971 108.179 182.364 107.634 182.895 107.234L185.914 104.966C186.059 104.857 186.266 104.886 186.374 105.032C186.483 105.176 186.454 105.382 186.309 105.491L183.289 107.76C182.865 108.079 182.55 108.515 182.382 109.019L182.361 109.084C182.314 109.221 182.186 109.308 182.048 109.308Z" fill="#060F11"/>
<path d="M200.802 83.1001L207.875 83.2665C210.95 83.3383 213.763 85.0127 215.293 87.6803L221.007 97.6424L204.084 99.2014L200.802 83.1001Z" fill="#FDD835"/>
<path d="M204.084 99.528C203.931 99.528 203.795 99.4209 203.763 99.2649L201.976 90.5019C201.94 90.324 202.054 90.1503 202.232 90.1139C202.411 90.0765 202.584 90.193 202.62 90.3698L204.407 99.1328C204.443 99.3107 204.329 99.4843 204.151 99.5207C204.129 99.5259 204.106 99.528 204.084 99.528Z" fill="white"/>
<path d="M206.646 98.9643L221.654 100.398L220.311 97.7059L206.646 98.9643Z" fill="#EF9A9A"/>
<path d="M206.646 96.3237C206.486 96.3237 206.345 96.2062 206.321 96.044C206.294 95.8641 206.418 95.6977 206.598 95.6706L216.239 94.2427C216.416 94.2167 216.585 94.3405 216.611 94.5194C216.638 94.6993 216.514 94.8657 216.334 94.8927L206.694 96.3206C206.678 96.3227 206.661 96.3237 206.646 96.3237Z" fill="white"/>
<path d="M175.809 96.9561C175.799 96.9561 175.788 96.9551 175.777 96.9551C175.596 96.9374 175.464 96.7772 175.481 96.5963L176.153 89.648C176.171 89.4671 176.337 89.3391 176.512 89.3527C176.693 89.3703 176.825 89.5305 176.807 89.7115L176.135 96.6597C176.119 96.8292 175.976 96.9561 175.809 96.9561Z" fill="white"/>
<path d="M174.486 94.2822C174.434 94.2822 174.382 94.2697 174.333 94.2437L170.346 92.1315C170.186 92.0462 170.124 91.8476 170.21 91.6874C170.294 91.5272 170.494 91.4659 170.654 91.5512L174.641 93.6634C174.801 93.7487 174.863 93.9473 174.777 94.1075C174.717 94.2188 174.604 94.2822 174.486 94.2822Z" fill="white"/>
<path d="M189.686 90.4364C183.961 90.0682 184.885 84.5323 188.079 82.9671L188.191 80.6666L188.378 76.8758L188.439 75.6299L197.788 70.2625L197.863 83.0992C197.864 83.0992 198.72 91.0188 189.686 90.4364Z" fill="#EF9A9A"/>
<path d="M192.872 75.8701C192.291 78.1332 189.516 79.9053 188.191 80.6666L188.378 76.8758L192.872 75.8701Z" fill="#060606"/>
<path d="M188.034 78.2766C193.461 78.2766 197.861 73.8769 197.861 68.4496C197.861 63.0224 193.461 58.6227 188.034 58.6227C182.607 58.6227 178.207 63.0224 178.207 68.4496C178.207 73.8769 182.607 78.2766 188.034 78.2766Z" fill="#EF9A9A"/>
<path d="M184.15 73.1547C183.969 73.1547 183.778 73.137 183.588 73.0735C183.201 72.9435 182.91 72.6388 182.809 72.2582C182.651 71.6623 182.968 71.1059 183.299 70.6389L184.714 68.6431C184.82 68.4955 185.024 68.4601 185.172 68.5651C185.32 68.6702 185.355 68.8751 185.25 69.0227L183.835 71.0185C183.592 71.3607 183.355 71.7559 183.444 72.0897C183.509 72.3362 183.731 72.4277 183.796 72.4506C183.988 72.5151 184.223 72.4995 184.448 72.4849C184.625 72.4735 184.786 72.6097 184.798 72.7907C184.81 72.9716 184.673 73.1276 184.492 73.1401C184.384 73.1463 184.268 73.1547 184.15 73.1547Z" fill="#060606"/>
<path d="M187.177 74.7708C187.153 74.7708 187.129 74.7708 187.105 74.7697C186.924 74.7656 186.78 74.6158 186.784 74.4338C186.788 74.2529 186.949 74.1166 187.119 74.1125C188.04 74.1405 188.97 73.6621 189.501 72.9144C189.606 72.7667 189.81 72.7313 189.958 72.8364C190.106 72.9414 190.141 73.1463 190.036 73.294C189.388 74.2092 188.298 74.7708 187.177 74.7708Z" fill="#060606"/>
<path d="M188.037 68.8157C187.901 69.318 187.507 69.6508 187.158 69.5593C186.809 69.4636 186.632 68.98 186.764 68.4788C186.899 67.9723 187.293 67.6395 187.643 67.7351C187.991 67.8267 188.168 68.3103 188.037 68.8157Z" fill="#060606"/>
<path d="M182.838 67.3692C182.706 67.8559 182.324 68.1783 181.986 68.0899C181.647 67.9973 181.476 67.5283 181.605 67.0426C181.736 66.5517 182.117 66.2293 182.456 66.3219C182.794 66.4103 182.966 66.8793 182.838 67.3692Z" fill="#060606"/>
<path d="M197.736 74.6554L197.105 68.2375L195.684 69.4314C195.684 69.4314 193.65 69.9327 193.409 69.1423C193.163 68.3488 192.158 64.4093 192.158 64.4093C192.158 64.4093 179.554 67.0394 178.695 60.8182C178.409 58.76 179.338 57.6514 181.025 57.0877C180.204 55.666 180.387 53.7202 182.626 53.0951C189.934 51.0619 193.937 57.6555 194.047 57.8406C194.051 57.8448 194.051 57.8448 194.051 57.8448C194.051 57.8448 196.864 56.029 199.379 59.3372C201.148 61.6658 200.574 64.8232 200.574 64.8232C204.112 65.0343 203.748 72.1042 197.736 74.6554Z" fill="#060606"/>
<path d="M197.52 71.2067C199.01 71.2067 200.218 69.9988 200.218 68.5089C200.218 67.019 199.01 65.8112 197.52 65.8112C196.03 65.8112 194.822 67.019 194.822 68.5089C194.822 69.9988 196.03 71.2067 197.52 71.2067Z" fill="#EF9A9A"/>
<path d="M187.366 62.8149C186.458 62.8149 185.548 62.6943 184.676 62.4561C183.941 62.2554 183.379 62.0089 182.909 61.6813C182.31 61.2643 181.874 60.7006 181.682 60.0953C181.627 59.9227 181.722 59.7376 181.895 59.6825C182.067 59.6273 182.253 59.723 182.308 59.8957C182.457 60.3637 182.804 60.8067 183.284 61.1416C183.691 61.4245 184.188 61.6408 184.849 61.8217C186.137 62.1743 187.516 62.2502 188.836 62.0433C189.016 62.0152 189.183 62.1379 189.211 62.3168C189.24 62.4957 189.117 62.6641 188.938 62.6922C188.42 62.7744 187.894 62.8149 187.366 62.8149Z" fill="white"/>
<path d="M189.674 61.2924C188.52 61.2924 187.386 61.0272 186.51 60.5207C186.353 60.4303 186.3 60.2285 186.391 60.0725C186.482 59.9155 186.682 59.8614 186.84 59.9529C188.042 60.6487 189.882 60.8307 191.416 60.4063C191.59 60.3575 191.772 60.4604 191.821 60.6351C191.868 60.8099 191.767 60.9908 191.592 61.0397C190.973 61.2092 190.32 61.2924 189.674 61.2924Z" fill="white"/>
<path d="M173.442 47.8754C173.442 47.8754 169.988 66.1347 151.453 69.2734C135.347 59.5827 138.8 41.3234 138.8 41.3234C152.05 38.6454 158.117 34.0403 158.117 34.0403C158.117 34.0403 162.084 40.5413 173.442 47.8754Z" fill="white"/>
<path d="M151.453 69.601C151.394 69.601 151.336 69.5843 151.284 69.5542C135.168 59.8582 138.443 41.4461 138.478 41.261C138.503 41.1299 138.605 41.027 138.735 40.9999C151.742 38.3708 157.858 33.8229 157.92 33.7771C157.994 33.721 158.088 33.6991 158.179 33.7158C158.27 33.7334 158.35 33.7875 158.398 33.8676C158.438 33.9321 162.47 40.3998 173.62 47.5987C173.732 47.6715 173.789 47.8046 173.764 47.9357C173.73 48.1208 170.054 66.456 151.508 69.5958C151.49 69.5989 151.471 69.601 151.453 69.601ZM139.088 41.599C138.777 43.6675 136.847 60.0205 151.518 68.9281C168.429 65.9943 172.606 50.0666 173.073 48.0272C163.264 41.6551 158.95 35.8478 158.03 34.502C156.681 35.4193 150.545 39.2496 139.088 41.599Z" fill="#060F11"/>
<path d="M154.717 60.892C159.548 60.892 163.464 56.9756 163.464 52.1445C163.464 47.3135 159.548 43.3971 154.717 43.3971C149.886 43.3971 145.969 47.3135 145.969 52.1445C145.969 56.9756 149.886 60.892 154.717 60.892Z" fill="#43A048"/>
<path d="M152.977 54.7893C152.936 54.7893 152.895 54.7852 152.854 54.7758C152.708 54.7425 152.582 54.6541 152.502 54.5273L151.185 52.4483C151.018 52.1852 151.096 51.8378 151.36 51.6714C151.622 51.5061 151.97 51.583 152.136 51.8461L153.153 53.4488L158.439 50.0989C158.701 49.9325 159.049 50.0105 159.216 50.2737C159.382 50.5368 159.304 50.8841 159.042 51.0505L153.279 54.7009C153.187 54.7592 153.083 54.7893 152.977 54.7893Z" fill="white"/>
<path d="M117.744 195.915C117.744 195.915 123.887 193.722 127.71 189.617C131.533 185.512 141.259 176.615 135.461 173.3C129.663 169.986 118.246 182.67 116.887 188.718C115.463 195.059 117.744 195.915 117.744 195.915Z" fill="#43A048"/>
<path d="M114.367 205.625L114.001 205.54C114.039 205.375 117.985 188.823 130.572 178.515L130.809 178.805C118.325 189.031 114.405 205.46 114.367 205.625Z" fill="#141323"/>
<path d="M127.252 183.96C126.686 183.96 126.12 183.87 125.581 183.689L125.701 183.333C126.691 183.667 127.782 183.67 128.774 183.344L128.892 183.7C128.363 183.873 127.808 183.96 127.252 183.96ZM125.977 187.629C124.998 187.629 124.007 187.456 123.088 187.123L123.216 186.77C124.21 187.131 125.291 187.296 126.35 187.246L126.367 187.621C126.238 187.626 126.108 187.629 125.977 187.629ZM120.888 190.068C120.246 189.303 119.888 188.29 119.908 187.291L120.283 187.299C120.266 188.209 120.59 189.13 121.176 189.827L120.888 190.068ZM124.166 185.391C123.351 184.689 122.943 183.551 123.124 182.491L123.494 182.554C123.335 183.487 123.695 184.49 124.411 185.107L124.166 185.391Z" fill="#141323"/>
<path d="M114.537 187.84C114.537 187.84 120.334 184.849 123.577 180.271C126.82 175.694 135.275 165.581 129.087 163.068C122.899 160.554 113.272 174.644 112.73 180.821C112.163 187.294 114.537 187.84 114.537 187.84Z" fill="#43A048"/>
<path d="M112.482 197.912L112.109 197.877C112.126 197.707 113.834 180.779 124.936 168.887L125.211 169.143C114.197 180.939 112.499 197.744 112.482 197.912Z" fill="#141323"/>
<path d="M121.667 174.772C121.336 174.772 121.004 174.741 120.679 174.677L120.749 174.309C121.776 174.507 122.857 174.366 123.797 173.91L123.961 174.248C123.247 174.594 122.457 174.772 121.667 174.772ZM120.466 178.605C119.859 178.605 119.252 178.541 118.664 178.412L118.744 178.046C119.778 178.272 120.873 178.29 121.913 178.1L121.981 178.469C121.485 178.561 120.976 178.605 120.466 178.605ZM116.875 181.626C116.137 180.953 115.648 179.997 115.535 179.004L115.908 178.961C116.012 179.865 116.457 180.735 117.129 181.349L116.875 181.626ZM119.502 176.555C118.602 175.967 118.045 174.893 118.083 173.818L118.458 173.832C118.425 174.777 118.915 175.723 119.707 176.241L119.502 176.555Z" fill="#141323"/>
<path d="M110.609 191.265C110.609 191.265 104.072 187.679 100.5 182.355C96.9291 177.031 87.5618 165.229 94.7046 162.537C101.848 159.846 112.439 176.225 112.878 183.298C113.338 190.711 110.609 191.265 110.609 191.265Z" fill="#43A048"/>
<path d="M112.69 202.832C112.677 202.639 111.225 183.38 98.978 169.574L99.2588 169.326C111.592 183.23 113.051 202.613 113.065 202.807L112.69 202.832Z" fill="#141323"/>
<path d="M102.997 176.102C102.046 176.102 101.097 175.875 100.25 175.438L100.422 175.104C101.488 175.655 102.726 175.849 103.911 175.651L103.972 176.021C103.648 176.076 103.323 176.102 102.997 176.102ZM104.353 180.519C103.689 180.519 103.026 180.451 102.382 180.316L102.459 179.949C103.645 180.198 104.902 180.208 106.091 179.979L106.162 180.348C105.569 180.462 104.961 180.519 104.353 180.519ZM108.101 184.077L107.855 183.793C108.646 183.108 109.183 182.12 109.329 181.084L109.7 181.136C109.542 182.261 108.959 183.333 108.101 184.077ZM105.25 178.204L105.052 177.885C105.981 177.312 106.574 176.237 106.563 175.146L106.938 175.142C106.952 176.362 106.288 177.563 105.25 178.204Z" fill="#141323"/>
<path d="M103.69 199.124V216.908C103.69 221.445 107.369 225.124 111.906 225.124H120.348C124.885 225.124 128.564 221.445 128.564 216.908V199.124H103.69Z" fill="#304FFE"/>
<path d="M124.307 199.124V204.984C124.307 209.586 122.442 213.748 119.429 216.765C116.412 219.778 112.247 221.643 107.648 221.643C106.677 221.643 105.743 221.472 104.877 221.162C106.315 223.534 108.926 225.124 111.906 225.124H120.35C124.887 225.124 128.565 221.445 128.565 216.909V199.124H124.307Z" fill="#363ECE"/>
</svg>
