<svg width="230" height="260" viewBox="0 0 230 260" fill="none" xmlns="http://www.w3.org/2000/svg">
<path d="M186.785 115.206C185.194 115.541 183.551 115.855 181.852 116.141C185.775 133.135 190.061 151.691 193.99 168.711C198.145 166.15 204.409 162.287 208.499 159.765C209.702 161.992 211.365 165.327 212.162 169.03C212.618 180.209 202.422 191.907 194.623 200.162C175.569 218.481 153.973 230.75 124.641 239.244C118.473 240.933 112.94 244.481 108.926 249.378C106.866 251.949 103.685 257.278 101.698 260.003H0C14.4299 244.777 34.6842 222.732 44.4374 209.036C56.447 173.673 38.4458 147.89 73.9695 109.388C80.1087 101.265 85.5331 94.3451 86.7268 92.1479C89.4062 87.1827 90.6852 71.0212 93.5318 69.8045C94.2369 69.5028 96.0833 70.2833 98.1526 72.1133C110.126 82.5848 107.22 102.416 98.1526 116.046C96.5358 119.119 88.9372 132.529 92.4167 131.604C105.023 124.599 119.135 115.842 131.892 108.195C142.807 101.74 138.199 103.502 147.909 100.658C161.824 96.6145 176.11 92.6332 190.284 89.0848C198.781 87.0876 220.502 81.3976 224.765 83.6145C234.22 95.0141 204.563 112.933 186.782 115.209L186.785 115.206Z" fill="#FFCDD2"/>
<path d="M117.863 241.982C114.432 243.858 111.395 246.364 108.923 249.374C110.943 237.66 96.8835 231.517 90.2031 231.517C83.5227 231.517 77.2588 225.149 74.1302 223.096C70.9982 221.043 61.1859 218.986 52.4198 222.069C47.7727 223.702 36.2944 242.596 26.528 260H0C14.4299 244.773 34.6842 222.728 44.4374 209.033C51.2424 199.48 47.5825 154.518 54.3514 138.714C57.3259 131.768 66.22 119.624 73.9662 109.382C74.4909 111.254 74.4975 113.058 73.5005 114.439C69.9521 119.371 64.9443 131.076 58.8903 140.321C52.8363 149.562 52.7346 194.875 56.3486 202.795C60.1037 211.03 73.084 209.948 83.9392 220.046C89.4488 225.175 100.848 228.025 106.063 229.668C110.165 230.96 115.682 238.716 117.859 241.982H117.863Z" fill="#EF9A9A"/>
<path d="M179.193 213.241C176.467 211.876 173.755 210.558 171.489 209.541C163.579 205.99 123.917 209.85 117.863 209.541C111.809 209.233 82.8406 204.15 90.7213 193.177C99.0414 181.593 95.388 138.815 91.528 131.797C96.4375 129.259 119.273 115.836 131.896 108.191L191.235 109.382L194.679 113.222C190.812 114.36 186.542 115.35 181.852 116.137L193.99 168.708L208.499 159.762C208.499 159.762 214.326 163.474 214.694 167.849C215.973 183.046 204.347 195.079 179.189 213.241H179.193Z" fill="#EF9A9A"/>
<path d="M208.131 5.38818H106.814C102.878 5.38818 99.6875 8.34631 99.6875 11.9898V190.687C99.6875 194.334 102.878 197.286 106.814 197.286H208.131C212.067 197.286 215.264 194.331 215.264 190.687V11.9898C215.264 8.34631 212.07 5.38818 208.131 5.38818Z" fill="white"/>
<path d="M209.44 0H104.761C100.894 0 97.7625 3.16145 97.7625 7.0608V195.325C97.7625 199.231 100.894 202.392 104.761 202.392H209.44C213.306 202.392 216.438 199.231 216.438 195.325V7.0608C216.438 3.15817 213.31 0 209.44 0ZM107.64 195.335C103.793 195.335 100.675 192.409 100.675 188.802V11.9243C100.675 8.31357 103.797 5.38824 107.647 5.38824H146.84C147.352 5.38824 147.759 5.76867 147.778 6.25076C147.985 10.865 152.147 14.6266 157.161 14.6266C162.175 14.6266 166.331 10.8749 166.537 6.25076C166.557 5.77195 166.964 5.38824 167.472 5.38824H206.672C208.958 5.38824 210.988 6.41801 212.26 8.01514C212.395 8.17911 212.523 8.35621 212.637 8.53658C212.755 8.71367 212.86 8.89733 212.959 9.09082C213.057 9.28103 213.146 9.4778 213.224 9.67785C213.303 9.8779 213.369 10.0812 213.428 10.2911C213.572 10.8126 213.647 11.3602 213.647 11.9243V188.805C213.647 189.369 213.572 189.917 213.428 190.438C213.369 190.645 213.303 190.851 213.224 191.051C213.146 191.252 213.057 191.445 212.959 191.635C212.86 191.825 212.755 192.009 212.637 192.193C212.345 192.642 212.001 193.059 211.604 193.423C211.289 193.721 210.942 193.99 210.575 194.219C210.296 194.397 210.004 194.554 209.702 194.688C209.4 194.829 209.082 194.944 208.758 195.039C208.102 195.23 207.41 195.331 206.685 195.331H107.644L107.64 195.335Z" fill="#1D2869"/>
<path d="M152.366 7.14612C152.366 4.54218 154.511 2.43018 157.161 2.43018C159.811 2.43018 161.956 4.54218 161.956 7.14612C161.956 9.75006 159.811 11.8621 157.161 11.8621C154.511 11.8621 152.366 9.75006 152.366 7.14612Z" fill="white"/>
<path d="M153.271 7.14606C153.271 5.03405 155.013 3.32214 157.158 3.32214C159.303 3.32214 161.044 5.03405 161.044 7.14606C161.044 9.25807 159.303 10.97 157.158 10.97C155.013 10.97 153.271 9.25807 153.271 7.14606Z" fill="#1D2869"/>
<path d="M157.161 5.46377C157.161 4.86034 157.66 4.36841 158.273 4.36841C158.886 4.36841 159.385 4.85706 159.385 5.46377C159.385 6.07048 158.886 6.55912 158.273 6.55912C157.66 6.55912 157.161 6.07048 157.161 5.46377Z" fill="white"/>
<path d="M201.959 20.9758H184.83C184.305 20.9758 183.879 21.4016 183.879 21.9269V22.6221C183.879 23.1474 184.305 23.5732 184.83 23.5732H201.959C202.484 23.5732 202.91 23.1474 202.91 22.6221V21.9269C202.91 21.4016 202.484 20.9758 201.959 20.9758Z" fill="#D3DCF0"/>
<path d="M201.959 26.6527H184.83C184.305 26.6527 183.879 27.0785 183.879 27.6038V28.299C183.879 28.8243 184.305 29.2501 184.83 29.2501H201.959C202.484 29.2501 202.91 28.8243 202.91 28.299V27.6038C202.91 27.0785 202.484 26.6527 201.959 26.6527Z" fill="#D3DCF0"/>
<path d="M201.959 32.3263H184.83C184.305 32.3263 183.879 32.7521 183.879 33.2774V33.9726C183.879 34.4979 184.305 34.9237 184.83 34.9237H201.959C202.484 34.9237 202.91 34.4979 202.91 33.9726V33.2774C202.91 32.7521 202.484 32.3263 201.959 32.3263Z" fill="#D3DCF0"/>
<path d="M169.922 22.2744H111.412V32.4409H169.922V22.2744Z" fill="#D3DCF0"/>
<path d="M190.159 149.149H126.907C126.598 149.149 126.347 149.4 126.347 149.71V150.123C126.347 150.433 126.598 150.684 126.907 150.684H190.159C190.469 150.684 190.72 150.433 190.72 150.123V149.71C190.72 149.4 190.469 149.149 190.159 149.149Z" fill="#D3DCF0"/>
<path d="M128.987 154.606H113.855C113.545 154.606 113.294 154.857 113.294 155.167V155.58C113.294 155.89 113.545 156.141 113.855 156.141H128.987C129.296 156.141 129.547 155.89 129.547 155.58V155.167C129.547 154.857 129.296 154.606 128.987 154.606Z" fill="#D3DCF0"/>
<path d="M203.258 154.606H188.126C187.817 154.606 187.565 154.857 187.565 155.167V155.58C187.565 155.89 187.817 156.141 188.126 156.141H203.258C203.568 156.141 203.819 155.89 203.819 155.58V155.167C203.819 154.857 203.568 154.606 203.258 154.606Z" fill="#D3DCF0"/>
<path d="M203.261 161.444H165.806C165.496 161.444 165.245 161.695 165.245 162.005V162.418C165.245 162.728 165.496 162.979 165.806 162.979H203.261C203.571 162.979 203.822 162.728 203.822 162.418V162.005C203.822 161.695 203.571 161.444 203.261 161.444Z" fill="#D3DCF0"/>
<path d="M183.771 154.606H134.572C134.262 154.606 134.011 154.857 134.011 155.167V155.58C134.011 155.89 134.262 156.141 134.572 156.141H183.771C184.081 156.141 184.332 155.89 184.332 155.58V155.167C184.332 154.857 184.081 154.606 183.771 154.606Z" fill="#D3DCF0"/>
<path d="M162.051 161.444H114.032C113.722 161.444 113.471 161.695 113.471 162.005V162.418C113.471 162.728 113.722 162.979 114.032 162.979H162.051C162.36 162.979 162.611 162.728 162.611 162.418V162.005C162.611 161.695 162.36 161.444 162.051 161.444Z" fill="#D3DCF0"/>
<path d="M139.314 186.975H114.032C113.723 186.975 113.471 187.226 113.471 187.536V187.949C113.471 188.259 113.723 188.51 114.032 188.51H139.314C139.624 188.51 139.875 188.259 139.875 187.949V187.536C139.875 187.226 139.624 186.975 139.314 186.975Z" fill="#D3DCF0"/>
<path d="M190.494 186.975H144.45C144.14 186.975 143.889 187.226 143.889 187.536V187.949C143.889 188.259 144.14 188.51 144.45 188.51H190.494C190.804 188.51 191.055 188.259 191.055 187.949V187.536C191.055 187.226 190.804 186.975 190.494 186.975Z" fill="#D3DCF0"/>
<path d="M182.036 89.9604C179.675 85.8478 178.176 80.9253 177.369 76.2553V76.2487C182.515 61.0973 174.867 49.091 156.961 49.5534C145.037 49.8584 136.028 54.3547 135.805 68.6501C135.585 82.6142 129.013 94.227 129.259 105.843C129.466 115.606 185.883 116.738 184.725 104.899C187.365 100.035 184.627 95.2535 182.036 89.9604ZM180.072 86.7136C182.63 92.443 187.297 98.6445 184.686 104.315C184.309 99.8579 182.062 93.2891 180.072 86.7136ZM177.481 67.9056C177.373 67.9122 177.264 67.8991 177.156 67.8827C177.278 68.5615 177.373 69.2502 177.438 69.9422C177.524 69.2502 177.612 68.5746 177.694 67.8859C177.622 67.8991 177.553 67.9056 177.481 67.9056Z" fill="#1D2869"/>
<path d="M194.315 139.006H119.932C120.45 130.489 121.319 122.965 122.798 120.693C124.618 117.895 131.771 114.472 137.658 112.12C140.737 110.897 147.604 108.909 150.051 108.388C153.888 108.372 160.031 108.185 165.173 108.673C169.823 109.037 172.785 110.192 176.943 111.349C182.8 113.147 189.11 115.79 191.301 119.184C192.836 121.549 193.757 129.81 194.318 139.009L194.315 139.006Z" fill="#576CFF"/>
<path d="M164.389 108.867C164.333 109.9 157.522 119.489 157.522 119.489L150.048 108.381C150.589 105.561 152.327 96.5488 152.838 93.8859L162.484 94.0826L162.543 94.5451L164.389 108.867Z" fill="#FFCDD2"/>
<path d="M164.389 108.867C161.877 105.892 160.932 96.9064 152.074 97.9492L152.835 93.9941L162.48 94.1909L162.543 94.5451L164.389 108.867Z" fill="#FFCDD2"/>
<path d="M141.026 77.6195L143.479 85.5625C143.377 85.5461 143.318 85.5199 143.23 85.5461L143.216 85.5035C130.758 85.028 129.826 72.0247 138.353 73.5464C138.671 75.0582 139.986 76.3438 141.026 77.6195Z" fill="#FFCDD2"/>
<path d="M173.408 86.5103C173.109 86.5858 172.817 86.6186 172.473 86.6841C172.519 86.5595 173.89 79.5512 173.959 79.2101C174.815 77.8721 175.536 76.4029 176.143 74.8189C183.538 72.4871 185.371 83.6735 173.408 86.5071V86.5103Z" fill="#FFCDD2"/>
<path d="M177.96 73.5923C177.373 101.18 140.373 105.794 137.487 72.5002C139.34 40.7676 179.855 46.8872 177.96 73.5923Z" fill="#FFCDD2"/>
<path d="M177.96 73.5923C177.999 69.7159 177.353 66.3282 176.199 63.4389L175.92 63.3373C173.319 56.165 166.701 50.3865 157.345 50.6128C165.507 51.1276 170.856 56.0371 173.539 62.4616L159.037 57.1291L151.432 58.0802C151.432 58.0802 151.779 67.1186 165.419 70.2472L166.006 67.9089C166.006 67.9089 168.636 74.3499 171.63 77.5474C177.727 86.2349 165.77 96.644 156.449 96.3521C163.058 96.6309 168.197 93.9516 171.752 89.7669H171.781C175.028 86.0414 177.35 80.6695 177.96 73.5923Z" fill="#FFCDD2"/>
<path d="M155.639 126.75C155.6 124.002 159.919 124.002 159.876 126.75C159.916 129.498 155.597 129.498 155.639 126.75Z" fill="white"/>
<path d="M155.639 133.85C155.6 131.102 159.919 131.102 159.876 133.85C159.916 136.598 155.597 136.598 155.639 133.85Z" fill="white"/>
<path d="M151.389 57.6374C151.389 57.6374 153.032 66.0297 138.143 77.0685C128.567 41.9941 186.952 39.341 178.002 78.7214C178.002 78.7214 166.18 70.9916 165.278 62.9207C165.278 62.9207 164.93 66.7479 165.278 67.8597C165.278 67.8597 155.085 67.5153 151.389 57.6341V57.6374Z" fill="#1D2869"/>
<path d="M180.042 131.804H167.852C166.744 131.82 166.74 129.99 167.852 130.006H180.042C181.151 129.99 181.154 131.82 180.042 131.804Z" fill="white"/>
<path d="M150.048 108.385C147.404 109.723 145.168 111.287 144.092 113.511C149.549 114.885 153.576 115.465 157.522 119.492L150.048 108.385Z" fill="white"/>
<path d="M164.996 108.385C167.639 109.723 169.876 111.287 170.951 113.511C165.494 114.885 161.467 115.465 157.522 119.492L164.996 108.385Z" fill="white"/>
<path d="M120.119 64.6884C119.738 64.6884 119.43 64.3801 119.43 63.9997V52C119.43 48.1564 122.559 45.0277 126.402 45.0277H138.402C138.783 45.0277 139.091 45.336 139.091 45.7164C139.091 46.0968 138.783 46.4051 138.402 46.4051H126.402C123.316 46.4051 120.804 48.9172 120.804 52.0032V64.003C120.804 64.3834 120.496 64.6917 120.116 64.6917L120.119 64.6884Z" fill="#B8C4DB"/>
<path d="M194.692 64.6884C194.311 64.6884 194.003 64.3801 194.003 63.9997V51.9999C194.003 48.9139 191.491 46.4018 188.405 46.4018H176.405C176.025 46.4018 175.717 46.0935 175.717 45.7131C175.717 45.3327 176.025 45.0244 176.405 45.0244H188.405C192.249 45.0244 195.377 48.1531 195.377 51.9967V63.9964C195.377 64.3768 195.069 64.6851 194.689 64.6851L194.692 64.6884Z" fill="#B8C4DB"/>
<path d="M138.402 117.007H126.402C122.559 117.007 119.43 113.878 119.43 110.034V98.0345C119.43 97.6541 119.738 97.3458 120.119 97.3458C120.499 97.3458 120.808 97.6541 120.808 98.0345V110.034C120.808 113.12 123.32 115.632 126.406 115.632H138.405C138.786 115.632 139.094 115.941 139.094 116.321C139.094 116.702 138.786 117.01 138.405 117.01L138.402 117.007Z" fill="#B8C4DB"/>
<path d="M188.408 117.007H176.408C176.028 117.007 175.72 116.698 175.72 116.318C175.72 115.937 176.028 115.629 176.408 115.629H188.408C191.494 115.629 194.006 113.117 194.006 110.031V98.0312C194.006 97.6508 194.315 97.3425 194.695 97.3425C195.075 97.3425 195.384 97.6508 195.384 98.0312V110.031C195.384 113.875 192.255 117.003 188.411 117.003L188.408 117.007Z" fill="#B8C4DB"/>
<path d="M220.115 143.584C227.421 147.529 227.854 160.145 217.042 163.772C206.41 167.354 187.861 174.359 185.644 164.146C184.181 158.227 189.536 153.035 194.272 150.149C177.048 152.045 178.908 137.487 191.616 130.82C174.372 134.739 170.469 119.955 185.516 112.199C193.573 108.29 217.766 100.832 219.039 100.825C225.542 100.786 228.107 103.115 229.419 109.152C230.537 114.353 226.513 118.551 221.269 121.568C231.094 123.887 232.938 138.455 220.118 143.587L220.115 143.584Z" fill="#FFCDD2"/>
<path d="M190.874 116.098C192.422 118.938 193.003 122.296 192.672 125.274C192.56 126.288 191.865 127.081 190.996 127.229C188.048 127.727 181.347 128.459 180.577 124.982C179.508 120.162 185.562 116.616 188.448 115.226C189.333 114.799 190.36 115.157 190.874 116.101V116.098Z" fill="#EAEBFF"/>
<path d="M194.57 133.771C197.253 136.274 198.057 140.196 196.548 144.236C196.279 144.955 195.708 145.456 195.043 145.574C192.324 146.063 185.066 147.014 184.266 143.39C183.138 138.291 189.969 134.621 192.6 133.414C193.265 133.109 194.016 133.25 194.574 133.768L194.57 133.771Z" fill="#EAEBFF"/>
<path d="M199.359 153.163C201.71 155.997 202.31 159.742 201.297 163.162C201.054 163.979 200.451 164.576 199.719 164.707C196.948 165.199 189.809 166.104 189.015 162.51C187.91 157.515 194.446 153.891 197.184 152.609C197.939 152.258 198.795 152.481 199.359 153.163Z" fill="#EAEBFF"/>
<path d="M221.252 144.309C215.674 146.578 200.208 150.369 191.766 151.891C192.563 151.277 193.403 150.697 194.272 150.149L220.114 143.584C220.515 143.8 220.892 144.043 221.249 144.309H221.252Z" fill="#EF9A9A"/>
<path d="M223.256 122.27C215.097 125.179 200.185 129.485 189.546 132.161C190.212 131.699 190.904 131.253 191.616 130.82L221.354 121.588C222.026 121.762 222.663 121.988 223.256 122.267V122.27Z" fill="#EF9A9A"/>
<g style="mix-blend-mode:screen">
<path d="M191.871 50.8391H122.565V53.7579H191.871V50.8391Z" fill="#231F20"/>
<path d="M191.871 73.8351H122.565V76.7538H191.871V73.8351Z" fill="#231F20"/>
<path d="M191.871 84.8247H122.565V87.7435H191.871V84.8247Z" fill="#231F20"/>
<path d="M191.871 107.437H122.565V110.356H191.871V107.437Z" fill="#231F20"/>
<path d="M191.871 56.657H122.565V62.9045H191.871V56.657Z" fill="#231F20"/>
<path d="M191.871 94.4042H122.565V100.652H191.871V94.4042Z" fill="#231F20"/>
</g>
</svg>
